<?xml version="1.0" encoding="utf-8"?>
<!-- Generator: Adobe Illustrator 24.1.2, SVG Export Plug-In . SVG Version: 6.00 Build 0)  -->
<svg version="1.1" id="Layer_1" xmlns="http://www.w3.org/2000/svg" xmlns:xlink="http://www.w3.org/1999/xlink" x="0px" y="0px"
	 viewBox="0 0 150 66" style="enable-background:new 0 0 150 66;" xml:space="preserve">
<style type="text/css">
	.st0{fill:#29BF12;}
</style>
<g>
	<g>
		<path class="st0" d="M22.56,58.44c-0.86-1.7-2.86-2.77-4.12-4.19c-1.2-1.36-2.16-2.98-2.81-4.68c-1.33-3.49-1.31-7.31,0.19-10.75
			c3.19-7.28,11.45-10.61,18.83-7.72c2.01,0.79,3.93,2.08,5.29,3.77c0.64,0.79,1.17,1.71,1.47,2.68c0.17,0.55,0.26,1.14,0.45,1.68
			c0.06,0.18,0.22,0.6,0.35,0.8c0.1,0.13,0.2,0.25,0.29,0.38c-0.09-0.29-0.09-0.23-0.01,0.19c0.16,1.06,1.93,1.3,2.37,0.31
			c0.27-0.6,0.74-1,0.91-1.68c0.13-0.55,0.09-1.13,0.03-1.69c-0.15-1.4-0.78-2.8-1.52-3.98c-1.37-2.2-3.35-3.99-5.58-5.3
			c-4.3-2.52-9.59-3.24-14.43-2.06c-9.83,2.4-16.08,13.08-13.64,22.82c0.67,2.68,1.97,5.11,3.68,7.26c1.53,1.93,4.18,4.78,6.88,4.53
			C22.42,60.72,23.13,59.58,22.56,58.44L22.56,58.44z"/>
	</g>
</g>
<g>
	<g>
		<path class="st0" d="M104.99,39.07c3.06-6.2,10.21-9.6,16.96-7.93c7,1.73,11.23,8.47,10.93,15.5c-0.18,4.16-2.06,8.2-5.73,10.35
			c-2.22,1.3-0.21,4.76,2.02,3.45c8.29-4.85,9.6-16.28,5.29-24.24c-4.23-7.82-13.73-11.33-22.11-8.48
			c-4.66,1.59-8.63,4.89-10.82,9.32C100.4,39.35,103.85,41.38,104.99,39.07L104.99,39.07z"/>
	</g>
</g>
<g>
	<g>
		<path class="st0" d="M42.51,40.7c1.42,1.42,3.71-0.3,5.12-0.98c1.76-0.85,3.58-1.59,5.43-2.23c3.74-1.29,7.62-2.22,11.54-2.74
			c8.12-1.09,16.43-0.56,24.45,1.08c2.32,0.48,4.63,1.04,6.91,1.68c1.14,0.32,2.28,0.66,3.41,1.02c1.21,0.38,2.38,0.95,3.67,0.95
			c1.41,0,2.53-2.04,1.26-3.04c-1.74-1.37-4.28-1.82-6.39-2.42c-2.13-0.61-4.27-1.16-6.43-1.63c-4.4-0.96-8.89-1.62-13.39-1.9
			c-8.54-0.53-17.27,0.4-25.4,3.13c-2.23,0.75-4.43,1.64-6.56,2.65C44.89,36.85,40.55,38.75,42.51,40.7L42.51,40.7z"/>
	</g>
</g>
<g>
	<g>
		<path class="st0" d="M24.86,41.61c-0.11,0.55-0.07,1.15,0.26,1.63c0.33,0.48,0.77,0.84,1.34,0.99c0.51,0.14,1.04,0.11,1.53-0.1
			c0.56-0.23,0.95-0.65,1.19-1.2c0.4-0.95,0.14-2.1-0.59-2.82c-0.72-0.71-1.9-0.94-2.85-0.58c-0.49,0.18-0.96,0.44-1.31,0.83
			c-0.37,0.41-0.68,0.92-0.81,1.46c-0.11,0.44-0.15,0.92-0.11,1.37c0.05,0.55,0.14,1.14,0.46,1.61c0.36,0.52,0.82,0.86,1.42,1.07
			c0.49,0.17,1,0.14,1.5,0.05c0.88-0.16,1.61-0.79,2.11-1.49c0.09-0.13,0.17-0.27,0.23-0.41c0.11-0.24,0.21-0.48,0.27-0.74
			c0.1-0.53,0.12-1.06-0.03-1.58c-0.14-0.49-0.4-0.93-0.75-1.31c-0.37-0.4-0.81-0.63-1.3-0.83c0.11,0.05,0.22,0.09,0.33,0.14
			c-0.22-0.1-0.44-0.21-0.67-0.28c-0.25-0.08-0.52-0.11-0.78-0.13c-0.19-0.02-0.37,0.01-0.56,0.03c-0.21,0.03-0.39,0.06-0.59,0.13
			c-0.38,0.15-0.63,0.28-0.94,0.54c-0.19,0.17-0.34,0.37-0.5,0.58c-0.23,0.31-0.39,0.68-0.48,1.05c-0.21,0.85-0.12,1.87,0.41,2.59
			c0.3,0.4,0.63,0.75,1.09,0.97c0.47,0.23,0.94,0.35,1.47,0.37c0.86,0.02,1.81-0.34,2.37-1.01c0.32-0.39,0.59-0.83,0.67-1.34
			c0.09-0.52,0.09-1-0.04-1.52c-0.1-0.38-0.24-0.77-0.46-1.1c-0.29-0.42-0.65-0.81-1.12-1.05c-0.51-0.27-1.02-0.39-1.59-0.43
			c-0.21-0.01-0.42,0.02-0.63,0.05c-0.22,0.03-0.44,0.06-0.65,0.13c-0.49,0.18-0.76,0.32-1.16,0.65c-0.23,0.2-0.43,0.46-0.6,0.7
			c-0.37,0.54-0.51,1.15-0.59,1.79c-0.01,0.09-0.02,0.18-0.02,0.27c0,0.03,0,0.07,0,0.1c0.02,0.44,0.08,0.59,0.26,0.98
			c0.07,0.15,0.15,0.29,0.25,0.42c0.17,0.23,0.32,0.46,0.51,0.67c0.19,0.21,0.43,0.39,0.66,0.55c0.11,0.05,0.23,0.1,0.34,0.14
			c0.19,0.06,0.38,0.07,0.57,0.03c0.3-0.04,0.61-0.16,0.82-0.39c0.44-0.48,0.53-1.14,0.22-1.72c-0.03-0.06-0.06-0.12-0.09-0.18
			c0.05,0.12,0.1,0.23,0.15,0.35c-0.07-0.17-0.11-0.34-0.14-0.52c0.02,0.14,0.04,0.28,0.06,0.43c-0.01-0.1-0.01-0.19,0-0.29
			c-0.02,0.15-0.04,0.3-0.06,0.45c0.02-0.12,0.05-0.24,0.08-0.36c0.08-0.28,0.07-0.56,0.1-0.84c-0.02,0.17-0.04,0.33-0.07,0.5
			c0.02-0.18,0.07-0.36,0.14-0.53c-0.06,0.15-0.13,0.3-0.19,0.45c0.06-0.14,0.13-0.26,0.22-0.38c-0.1,0.13-0.2,0.25-0.29,0.38
			c0.1-0.12,0.21-0.23,0.33-0.33c-0.13,0.1-0.25,0.2-0.38,0.3c0.2-0.15,0.4-0.32,0.6-0.47c-0.13,0.1-0.25,0.19-0.38,0.29
			c0.13-0.09,0.26-0.17,0.4-0.23c-0.14,0.06-0.29,0.12-0.43,0.18c0.16-0.07,0.32-0.11,0.49-0.14c-0.15,0.02-0.31,0.04-0.46,0.06
			c0.14-0.02,0.28-0.02,0.41-0.01c-0.15-0.02-0.3-0.04-0.45-0.06c0.15,0.02,0.3,0.06,0.45,0.12c-0.13-0.06-0.26-0.11-0.39-0.17
			c0.11,0.05,0.21,0.11,0.3,0.18c-0.11-0.08-0.22-0.17-0.33-0.25c0.12,0.09,0.22,0.2,0.31,0.31c-0.08-0.11-0.16-0.21-0.25-0.32
			c0.09,0.12,0.16,0.25,0.22,0.38c-0.05-0.12-0.1-0.24-0.15-0.37c0.03,0.1,0.05,0.2,0.07,0.3c-0.02-0.14-0.04-0.27-0.05-0.41
			c0.02,0.15,0.02,0.29,0,0.44c0.02-0.14,0.04-0.27,0.05-0.41c-0.02,0.13-0.05,0.26-0.1,0.38c0.05-0.12,0.1-0.24,0.15-0.37
			c-0.05,0.11-0.11,0.21-0.18,0.3c0.08-0.1,0.16-0.21,0.24-0.31c-0.07,0.09-0.15,0.17-0.24,0.24c0.1-0.08,0.21-0.16,0.31-0.24
			c-0.1,0.08-0.21,0.14-0.33,0.19c0.12-0.05,0.25-0.1,0.37-0.16c-0.13,0.05-0.27,0.09-0.41,0.11c0.14-0.02,0.27-0.04,0.41-0.06
			c-0.17,0.02-0.34,0.02-0.52,0c0.14,0.02,0.27,0.04,0.41,0.06c-0.14-0.02-0.28-0.06-0.41-0.11c0.12,0.05,0.25,0.1,0.37,0.16
			c-0.13-0.06-0.25-0.13-0.37-0.21c0.1,0.08,0.21,0.16,0.31,0.24c-0.09-0.07-0.17-0.15-0.24-0.24c0.08,0.1,0.16,0.21,0.24,0.31
			c-0.08-0.1-0.14-0.22-0.2-0.34c0.05,0.12,0.1,0.25,0.16,0.37c-0.05-0.12-0.08-0.24-0.1-0.37c0.02,0.14,0.04,0.27,0.06,0.41
			c-0.02-0.16-0.02-0.32,0-0.48c-0.02,0.14-0.04,0.27-0.06,0.41c0.02-0.17,0.07-0.34,0.14-0.51c-0.05,0.12-0.1,0.25-0.16,0.37
			c0.07-0.15,0.15-0.28,0.24-0.41c-0.08,0.1-0.16,0.21-0.24,0.31c0.12-0.14,0.26-0.28,0.4-0.39c-0.1,0.08-0.21,0.16-0.31,0.24
			c0.1-0.07,0.2-0.13,0.31-0.18c-0.12,0.05-0.24,0.1-0.36,0.15c0.14-0.06,0.28-0.1,0.43-0.12c-0.13,0.02-0.26,0.03-0.39,0.05
			c0.17-0.02,0.33-0.02,0.5,0.01c-0.12-0.02-0.25-0.03-0.37-0.05c0.11,0.02,0.21,0.04,0.31,0.07c-0.11-0.05-0.22-0.09-0.33-0.14
			c0.15,0.07,0.3,0.16,0.43,0.26c-0.09-0.07-0.19-0.14-0.28-0.22c0.12,0.1,0.23,0.2,0.32,0.32c-0.07-0.09-0.14-0.19-0.22-0.28
			c0.09,0.12,0.17,0.25,0.23,0.39c-0.05-0.11-0.09-0.22-0.14-0.33c0.05,0.13,0.09,0.27,0.11,0.41c-0.02-0.12-0.03-0.25-0.05-0.37
			c0.02,0.17,0.02,0.34,0,0.51c0.02-0.12,0.03-0.25,0.05-0.37c-0.03,0.17-0.07,0.34-0.14,0.5c0.05-0.11,0.09-0.22,0.14-0.34
			c-0.08,0.18-0.17,0.34-0.29,0.49c0.07-0.1,0.15-0.19,0.22-0.29c-0.1,0.12-0.21,0.24-0.33,0.34c0.1-0.07,0.19-0.15,0.29-0.22
			c-0.1,0.07-0.21,0.13-0.33,0.18c0.12-0.05,0.23-0.1,0.35-0.15c-0.14,0.06-0.29,0.1-0.44,0.12c0.13-0.02,0.26-0.04,0.39-0.05
			c-0.14,0.02-0.27,0.02-0.41,0c0.13,0.02,0.27,0.04,0.4,0.05c-0.16-0.02-0.32-0.06-0.48-0.13c0.12,0.05,0.24,0.1,0.37,0.15
			c-0.09-0.04-0.18-0.09-0.26-0.15c0.1,0.08,0.21,0.16,0.31,0.24c-0.07-0.06-0.13-0.12-0.18-0.18c0.08,0.1,0.16,0.21,0.24,0.31
			c-0.05-0.06-0.08-0.13-0.12-0.2c0.05,0.12,0.1,0.25,0.16,0.37c-0.06-0.14-0.09-0.29-0.11-0.44c0.02,0.14,0.04,0.28,0.06,0.41
			c-0.03-0.28-0.04-0.56,0-0.84c-0.02,0.14-0.04,0.28-0.06,0.42c0.04-0.25,0.1-0.51,0.2-0.75c-0.05,0.12-0.1,0.25-0.16,0.37
			c0.07-0.15,0.15-0.29,0.24-0.42c-0.08,0.1-0.16,0.21-0.24,0.31c0.09-0.11,0.18-0.2,0.29-0.28c-0.1,0.08-0.21,0.16-0.31,0.24
			c0.12-0.09,0.25-0.17,0.39-0.23c-0.12,0.05-0.24,0.1-0.36,0.15c0.12-0.05,0.25-0.08,0.38-0.1c-0.13,0.02-0.26,0.04-0.39,0.05
			c0.1-0.01,0.2-0.01,0.29,0c-0.13-0.02-0.26-0.03-0.39-0.05c0.1,0.02,0.19,0.04,0.28,0.08c-0.12-0.05-0.23-0.1-0.35-0.15
			c0.08,0.04,0.15,0.08,0.23,0.13c-0.1-0.08-0.2-0.15-0.3-0.23c0.07,0.05,0.12,0.11,0.18,0.18c-0.08-0.1-0.15-0.2-0.23-0.3
			c0.06,0.08,0.11,0.16,0.15,0.26c-0.05-0.12-0.1-0.24-0.15-0.35c0.04,0.11,0.07,0.21,0.09,0.33c-0.02-0.13-0.04-0.26-0.05-0.39
			c0.01,0.1,0.01,0.19,0,0.29c0.02-0.13,0.04-0.26,0.05-0.39c-0.01,0.08-0.03,0.16-0.06,0.24c0.05-0.12,0.1-0.24,0.15-0.36
			c-0.03,0.06-0.06,0.12-0.1,0.18c0.08-0.1,0.16-0.2,0.23-0.3c-0.04,0.05-0.09,0.1-0.14,0.14c0.1-0.08,0.2-0.16,0.3-0.23
			c-0.04,0.03-0.08,0.05-0.13,0.08c0.12-0.05,0.24-0.1,0.36-0.15c-0.07,0.03-0.14,0.05-0.21,0.06c0.13-0.02,0.26-0.04,0.4-0.05
			c-0.08,0.01-0.15,0.01-0.22,0c0.13,0.02,0.27,0.04,0.4,0.05c-0.09-0.01-0.17-0.04-0.26-0.07c0.12,0.05,0.24,0.1,0.36,0.15
			c-0.1-0.05-0.2-0.09-0.29-0.16c0.1,0.08,0.2,0.15,0.3,0.23c-0.05-0.04-0.09-0.08-0.13-0.13c0.08,0.1,0.15,0.2,0.23,0.3
			c-0.04-0.05-0.07-0.1-0.09-0.15c0.05,0.12,0.1,0.23,0.15,0.35c-0.02-0.04-0.03-0.09-0.04-0.14c0.02,0.13,0.03,0.26,0.05,0.38
			c-0.01-0.05-0.01-0.1,0-0.15c0.02-0.34-0.17-0.79-0.42-1.02c-0.24-0.22-0.5-0.35-0.83-0.4C25.78,40.5,25.01,40.91,24.86,41.61
			L24.86,41.61z"/>
	</g>
</g>
<g>
	<g>
		<path class="st0" d="M117.39,40.77c-0.67,0.59-0.88,1.52-0.65,2.36c0.19,0.69,0.68,1.3,1.29,1.67c0.18,0.1,0.38,0.18,0.56,0.25
			c0.08,0.03,0.16,0.05,0.25,0.07c0.21,0.03,0.43,0.08,0.65,0.06c0.21-0.02,0.43-0.03,0.64-0.1c0.65-0.21,1.21-0.65,1.56-1.25
			c0.38-0.66,0.48-1.43,0.29-2.16c0.02,0.15,0.04,0.29,0.06,0.44c-0.05-0.45-0.12-0.84-0.36-1.24c-0.24-0.4-0.52-0.65-0.89-0.91
			c-0.24-0.17-0.53-0.29-0.81-0.37c-0.48-0.14-0.93-0.13-1.42-0.02c-0.76,0.16-1.43,0.69-1.83,1.34c-0.13,0.22-0.24,0.46-0.29,0.71
			c-0.04,0.19-0.07,0.4-0.07,0.6c0.01,0.1,0.02,0.2,0.04,0.3c0.01,0.1,0.02,0.2,0.04,0.3c0.07,0.24,0.16,0.47,0.3,0.68
			c0.12,0.23,0.29,0.41,0.5,0.54c0.07,0.07,0.15,0.12,0.23,0.17c0.18,0.09,0.37,0.17,0.56,0.24c-0.15-0.06-0.3-0.13-0.45-0.19
			c0.28,0.15,0.56,0.3,0.88,0.37c0.52,0.11,0.88,0.1,1.41,0.01c0.59-0.1,1.17-0.44,1.59-0.85c1-0.99,1.16-2.62,0.47-3.82
			c-0.81-1.41-2.7-1.9-4.11-1.1c-0.38,0.21-0.74,0.56-0.97,0.94c-0.27,0.44-0.36,0.88-0.41,1.39c-0.07,0.76,0.26,1.53,0.77,2.08
			c0.31,0.33,0.74,0.56,1.17,0.69c0.47,0.15,0.91,0.12,1.39,0.03c0.29-0.05,0.59-0.17,0.83-0.35c0.37-0.26,0.53-0.41,0.78-0.79
			c0.13-0.19,0.2-0.41,0.28-0.62c-0.06,0.15-0.12,0.29-0.18,0.44c0.19-0.41,0.35-0.82,0.32-1.29c-0.04-0.54-0.13-0.82-0.36-1.31
			c0.06,0.15,0.13,0.3,0.19,0.46c-0.17-0.44-0.31-0.76-0.65-1.1c-0.15-0.15-0.33-0.29-0.51-0.4c-0.34-0.2-0.76-0.35-1.16-0.33
			c-0.18,0.02-0.36,0.05-0.55,0.07c-0.27,0.06-0.5,0.19-0.7,0.37c-0.15,0.09-0.28,0.21-0.37,0.37c-0.18,0.2-0.3,0.43-0.37,0.7
			c-0.16,0.56-0.17,1.17-0.03,1.73c0.06,0.15,0.13,0.31,0.19,0.46c0.12,0.22,0.29,0.4,0.49,0.54c0.12,0.12,0.26,0.2,0.42,0.25
			c0.23,0.12,0.48,0.18,0.74,0.17c0.34-0.02,0.67-0.1,0.97-0.26c0.41-0.22,0.77-0.7,0.88-1.15c0.03-0.1,0.05-0.19,0.09-0.28
			c-0.07,0.16-0.13,0.32-0.2,0.47c0.05-0.12,0.12-0.23,0.2-0.34c-0.77,0.32-1.55,0.63-2.32,0.95c0.44,0.09,0.72,0.11,1.16,0
			c-0.18,0.02-0.36,0.05-0.54,0.07c0.04,0,0.08,0,0.13,0c-0.18-0.02-0.36-0.05-0.53-0.07c0.05,0.01,0.1,0.02,0.15,0.04
			c-0.16-0.07-0.31-0.13-0.47-0.2c0.06,0.03,0.11,0.06,0.17,0.1c-0.13-0.1-0.26-0.2-0.39-0.3c0.02,0.02,0.03,0.03,0.04,0.05
			c-0.1-0.13-0.2-0.26-0.3-0.38c0.04,0.06,0.07,0.11,0.1,0.18c-0.06-0.15-0.13-0.3-0.19-0.45c0.03,0.06,0.04,0.13,0.06,0.2
			c-0.02-0.16-0.04-0.33-0.07-0.49c0.01,0.07,0.01,0.13,0,0.2c0.02-0.16,0.04-0.33,0.07-0.49c0,0.02-0.01,0.04-0.01,0.07
			c0.06-0.15,0.12-0.29,0.18-0.44c-0.02,0.04-0.04,0.08-0.07,0.12c0.1-0.12,0.19-0.25,0.29-0.37c-0.04,0.05-0.08,0.09-0.12,0.13
			c0.12-0.1,0.25-0.19,0.37-0.29c-0.05,0.04-0.1,0.06-0.15,0.09c0.15-0.06,0.3-0.12,0.44-0.19c-0.08,0.03-0.16,0.05-0.24,0.06
			c0.17-0.02,0.33-0.04,0.5-0.07c-0.07,0.01-0.14,0.01-0.21,0c0.17,0.02,0.33,0.04,0.5,0.07c-0.08-0.01-0.16-0.03-0.24-0.06
			c0.15,0.06,0.3,0.13,0.45,0.19c-0.07-0.03-0.13-0.06-0.18-0.11c0.13,0.1,0.26,0.2,0.38,0.3c-0.05-0.04-0.09-0.08-0.13-0.13
			c0.1,0.13,0.2,0.26,0.3,0.39c-0.04-0.05-0.07-0.11-0.1-0.17c0.06,0.15,0.13,0.31,0.19,0.46c-0.03-0.07-0.05-0.14-0.06-0.22
			c0.02,0.17,0.05,0.34,0.07,0.51c-0.01-0.09-0.01-0.18,0-0.27c-0.02,0.17-0.05,0.34-0.07,0.52c0.02-0.09,0.04-0.18,0.08-0.26
			c-0.07,0.16-0.13,0.31-0.2,0.47c0.04-0.09,0.1-0.18,0.16-0.27c-0.1,0.13-0.2,0.26-0.31,0.4c0.05-0.06,0.1-0.12,0.16-0.17
			c-0.13,0.1-0.26,0.2-0.4,0.31c0.07-0.05,0.14-0.09,0.22-0.13c-0.15,0.07-0.31,0.13-0.46,0.2c0.09-0.04,0.18-0.06,0.28-0.07
			c-0.17,0.02-0.34,0.05-0.51,0.07c0.1-0.01,0.2-0.01,0.3,0c-0.17-0.02-0.34-0.05-0.51-0.07c0.1,0.01,0.19,0.04,0.29,0.07
			c-0.15-0.06-0.3-0.13-0.45-0.19c0.09,0.04,0.18,0.09,0.26,0.15c-0.13-0.1-0.25-0.2-0.38-0.29c0.07,0.06,0.14,0.13,0.2,0.2
			c-0.1-0.13-0.19-0.25-0.29-0.38c0.07,0.09,0.12,0.18,0.16,0.28c-0.06-0.15-0.12-0.29-0.19-0.44c0.04,0.1,0.07,0.2,0.09,0.31
			c-0.02-0.16-0.04-0.32-0.07-0.49c0.01,0.1,0.01,0.19,0,0.28c0.02-0.16,0.04-0.32,0.07-0.49c-0.02,0.11-0.04,0.21-0.09,0.31
			c0.06-0.15,0.12-0.29,0.19-0.44c-0.04,0.09-0.09,0.17-0.14,0.25c0.1-0.12,0.19-0.25,0.29-0.37c-0.07,0.09-0.15,0.16-0.24,0.23
			c0.12-0.1,0.25-0.19,0.37-0.29c-0.09,0.07-0.19,0.12-0.29,0.17c0.15-0.06,0.3-0.12,0.44-0.19c-0.12,0.05-0.24,0.08-0.36,0.1
			c0.16-0.02,0.33-0.04,0.49-0.07c-0.13,0.02-0.25,0.02-0.37,0c0.17,0.02,0.33,0.04,0.5,0.07c-0.1-0.02-0.19-0.04-0.28-0.08
			c0.15,0.06,0.3,0.13,0.45,0.19c-0.07-0.03-0.13-0.07-0.19-0.11c0.13,0.1,0.25,0.2,0.38,0.29c-0.01-0.01-0.02-0.02-0.03-0.03
			c0.1,0.13,0.2,0.25,0.29,0.38c-0.02-0.04-0.04-0.07-0.06-0.11c0.06,0.15,0.13,0.31,0.19,0.46c-0.07-0.17-0.14-0.33-0.21-0.5
			c-0.11-0.14-0.22-0.28-0.33-0.42c0.1,0.13,0.2,0.26,0.3,0.39c-0.02-0.03-0.04-0.07-0.06-0.1c0.07,0.15,0.13,0.31,0.2,0.46
			c-0.02-0.04-0.03-0.07-0.03-0.11c0.02,0.17,0.05,0.34,0.07,0.51c-0.01-0.04-0.01-0.08,0-0.12c-0.02,0.17-0.05,0.34-0.07,0.51
			c0.01-0.06,0.02-0.12,0.05-0.17c-0.06,0.15-0.13,0.31-0.19,0.46c0.03-0.06,0.07-0.12,0.11-0.18c-0.1,0.13-0.2,0.26-0.3,0.39
			c0.05-0.06,0.11-0.12,0.17-0.17c-0.13,0.1-0.26,0.2-0.39,0.3c0.08-0.06,0.16-0.1,0.24-0.14c-0.15,0.06-0.31,0.13-0.46,0.19
			c0.1-0.04,0.2-0.07,0.31-0.08c-0.17,0.02-0.34,0.05-0.51,0.07c0.24-0.03,0.48-0.07,0.71-0.11c-0.17,0.02-0.33,0.04-0.5,0.07
			c0.12-0.02,0.23-0.02,0.35,0c-0.16-0.02-0.32-0.04-0.48-0.07c0.09,0.01,0.18,0.04,0.26,0.07c-0.14-0.06-0.28-0.12-0.42-0.18
			c0.07,0.03,0.14,0.07,0.21,0.12c-0.12-0.09-0.23-0.18-0.35-0.27c0.06,0.05,0.12,0.11,0.17,0.17c-0.09-0.11-0.17-0.23-0.26-0.34
			c0.03,0.05,0.06,0.09,0.09,0.15c-0.06-0.13-0.11-0.26-0.17-0.39c0.02,0.06,0.03,0.11,0.04,0.17c-0.02-0.15-0.04-0.29-0.06-0.44
			c0.01,0.11,0.01,0.21,0,0.32c0.02-0.14,0.04-0.29,0.06-0.43c-0.02,0.11-0.05,0.21-0.09,0.31c0.05-0.13,0.11-0.26,0.16-0.39
			c-0.04,0.1-0.1,0.19-0.16,0.27c0.08-0.11,0.17-0.22,0.25-0.33c-0.06,0.07-0.12,0.14-0.2,0.2c0.11-0.08,0.22-0.17,0.33-0.25
			c-0.07,0.05-0.13,0.09-0.21,0.13c0.13-0.05,0.26-0.11,0.39-0.16c-0.08,0.03-0.16,0.06-0.25,0.07c0.14-0.02,0.29-0.04,0.43-0.06
			c-0.09,0.01-0.18,0.01-0.28,0c0.14,0.02,0.29,0.04,0.43,0.06c-0.09-0.02-0.18-0.04-0.27-0.08c0.13,0.05,0.26,0.11,0.39,0.16
			c-0.1-0.04-0.19-0.1-0.28-0.16c0.11,0.08,0.22,0.17,0.33,0.25c-0.08-0.07-0.16-0.14-0.23-0.23c0.08,0.11,0.17,0.22,0.25,0.32
			c-0.06-0.09-0.12-0.18-0.16-0.27c0.05,0.13,0.11,0.25,0.16,0.38c-0.03-0.07-0.05-0.15-0.06-0.23c0.02,0.14,0.04,0.28,0.06,0.42
			c-0.01-0.1-0.01-0.19,0-0.28c-0.02,0.14-0.04,0.28-0.06,0.42c0.04-0.21,0.07-0.43,0.09-0.64c-0.02,0.14-0.04,0.28-0.06,0.42
			c0.01-0.09,0.03-0.17,0.07-0.25c0.02-0.13,0.04-0.27,0.05-0.4c0.01-0.21-0.04-0.4-0.13-0.58c-0.12-0.29-0.33-0.57-0.61-0.72
			c-0.24-0.12-0.49-0.19-0.76-0.2C118.05,40.31,117.67,40.51,117.39,40.77L117.39,40.77z"/>
	</g>
</g>
<g>
	<g>
		<path class="st0" d="M48.51,103.42c2.08,7.19,5.74,13.78,10.68,19.4c0.13-1.05,0.27-2.09,0.4-3.14c-2.26,1.54-5.97,4.96-4.18,7.99
			c1.77,3,6.17,0.78,8.31-0.52c-0.98-0.4-1.96-0.8-2.94-1.2c0.49,2.07,2.22,4.21,4.52,4.12c2.4-0.09,3.36-2.5,4.06-4.41
			c-0.98,0.4-1.96,0.8-2.94,1.2c1.93,1.39,4.13,2.36,6.45,2.88c1.79,0.41,3-1.36,2.26-2.94c-1-2.12-0.29-4.51,0.37-6.62
			c0.83-2.66,1.7-5.24,1.98-8.04c0.1-1.08-0.99-2-2-2c-1.17,0-1.89,0.92-2,2c-0.56,5.74-4.53,10.9-1.8,16.67
			c0.75-0.98,1.51-1.96,2.26-2.94c-2.03-0.46-3.81-1.27-5.5-2.48c-1.13-0.81-2.54,0.09-2.94,1.2c-0.04,0.12-0.73,1.57-0.71,1.59
			c0.47,0.04,0.6-0.01,0.41-0.15c-0.05-0.08-0.11-0.15-0.17-0.22c-0.05-0.28-0.32-0.62-0.39-0.92c-0.3-1.25-1.86-1.85-2.94-1.2
			c-0.64,0.39-1.3,0.76-2,1.05c-0.34,0.14-0.71,0.27-1.07,0.35c-0.47,0.1-0.39-0.06,0,0.32c0.04,0.04,0.41,0.71,0.3,0.69
			c-0.03,0,0.13-0.31,0.14-0.33c0.27-0.29,0.46-0.7,0.74-1c0.55-0.61,1.26-1.27,1.79-1.63c1.11-0.76,1.3-2.13,0.4-3.14
			c-4.48-5.1-7.76-11.13-9.65-17.64C51.65,99.88,47.79,100.93,48.51,103.42L48.51,103.42z"/>
	</g>
</g>
<g>
	<g>
		<path class="st0" d="M74.85,112.59c1.21,4.62,3.91,8.54,6.68,12.34c0.24-0.91,0.48-1.82,0.72-2.74c-1.89,1.33-3.22,3.11-3.81,5.36
			c-0.35,1.33,0.63,2.44,1.93,2.53c3.3,0.24,6.59-1.1,8.8-3.55c-1.14-0.47-2.28-0.94-3.41-1.41c0.19,2.29,1.33,5.32,3.95,5.66
			c2.91,0.37,3.94-2.84,4.04-5.15c-1,0.58-2.01,1.15-3.01,1.73c1.78,1.09,3.67,1.67,5.74,1.9c1.21,0.14,2.38-1.4,1.93-2.53
			c-1.01-2.5-2.95-4.37-5.64-4.94c0.29,1.11,0.59,2.23,0.88,3.34c5.05-5.32,8.13-12.06,8.99-19.33c0.13-1.07-1.01-2-2-2
			c-1.19,0-1.87,0.92-2,2c-0.74,6.17-3.56,12.01-7.82,16.5c-0.98,1.03-0.64,3.02,0.88,3.34c1.22,0.26,2.35,0.94,2.84,2.15
			c0.64-0.84,1.29-1.69,1.93-2.53c-1.34-0.15-2.58-0.65-3.72-1.35c-1.34-0.82-2.95,0.26-3.01,1.73c-0.02,0.37-0.17,0.76-0.18,1.11
			c-0.02,1.13-0.17,0.13-0.06,0.26c-0.03-0.04,0.9-0.15,0.87-0.11c0.09-0.11,0.04,0.15-0.08-0.18c-0.07-0.19-0.21-0.37-0.29-0.56
			c-0.11-0.28-0.26-0.98-0.27-1.04c-0.13-1.6-2.16-2.8-3.41-1.41c-1.57,1.74-3.64,2.55-5.97,2.38c0.64,0.84,1.29,1.69,1.93,2.53
			c0.31-1.2,0.94-2.24,1.97-2.97c0.81-0.57,1.4-1.81,0.72-2.74c-2.57-3.52-5.16-7.12-6.28-11.39
			C78.06,109.03,74.2,110.09,74.85,112.59L74.85,112.59z"/>
	</g>
</g>
<g>
	<g>
		<path class="st0" d="M18.64,58.16c-5.69,8.2-8.41,18.58-8.88,28.46c-0.24,5.07,0.17,10.17,1.17,15.14
			c0.49,2.41,1.15,4.77,1.87,7.12c0.16,0.52,0.32,1.04,0.5,1.56c0.05,0.15,0.38,1.49,0.56,1.55c-0.7-0.25,1-1.08,0.08-0.46
			c-0.18,0.12-0.39,0.4-0.53,0.54c-0.45,0.46-0.91,0.9-1.37,1.35c-3.77,3.67-8.09,7.64-9.17,13.03c-0.42,2.07,1.25,3.86,3.37,3.37
			c2.84-0.66,5.56-1.84,7.98-3.46c-1.23-0.71-2.47-1.42-3.7-2.12c-0.08,2.8-1.2,7.95,2.46,9.07c2.01,0.62,3.41-0.81,4.31-2.39
			c0.95-1.67,1.75-3.38,2.44-5.17c-1.29,0.34-2.58,0.68-3.87,1.02c1.88,2.18,3.86,4.26,5.98,6.22c1.38,1.28,3.25,0.6,3.89-1.03
			c1.19-3.01,1.71-6.18,1.07-9.39c-0.89,1.17-1.78,2.33-2.67,3.5c10.37-0.25,20.75-0.5,31.12-0.75c3.59-0.09,3.61-5.69,0-5.59
			c-10.37,0.27-20.75,0.54-31.12,0.81c-1.89,0.05-3.03,1.72-2.67,3.5c0.45,2.26,0.56,4.47-0.23,6.68c1.3-0.34,2.59-0.68,3.89-1.03
			c-2.12-1.95-4.13-4.01-6-6.2c-1.24-1.46-3.29-0.44-3.87,1.02c-0.36,0.9-0.77,1.77-1.22,2.62c-0.21,0.4-0.73,0.99-0.8,1.42
			c-0.15,0.89,2.23,0.25,2.02,0.73c0.12-0.28-0.01-1.34,0.01-1.86c0.05-1.06,0.09-2.12,0.15-3.17c0.11-1.9-2.16-3.01-3.7-2.12
			c-2.18,1.25-4.48,2.02-6.95,2.43c1.12,1.12,2.24,2.24,3.37,3.37c1.16-4.32,4.45-7.26,7.59-10.25c1.94-1.85,4.41-3.77,3.63-6.8
			c-0.28-1.09-0.92-2.16-1.33-3.22c-0.48-1.21-0.88-2.44-1.23-3.69c-2.56-9.26-2.58-19.08-0.34-28.4c1.29-5.35,3.42-10.32,5.94-15.2
			C23.69,57.85,20.23,55.87,18.64,58.16L18.64,58.16z"/>
	</g>
</g>
<g>
	<g>
		<path class="st0" d="M126.59,60.97c4.49,8.68,7.37,17.86,7.57,27.7c0.09,4.76-0.39,9.5-1.51,14.13c-0.55,2.3-1.26,4.54-2.2,6.71
			c-0.6,1.38-1.27,2.71-0.87,4.26c0.36,1.37,1.44,2.36,2.42,3.31c3.47,3.4,7.52,6.57,8.84,11.45c1.12-1.12,2.24-2.24,3.37-3.37
			c-2.48-0.41-4.78-1.18-6.95-2.43c-1.54-0.89-3.82,0.22-3.7,2.12c0.06,0.98,0.09,1.96,0.14,2.94c0.02,0.52,0.09,1.06,0.07,1.59
			c0,0.09-0.05,0.5-0.05,0.51c0.16-0.35,0.52-0.46,1.07-0.31c0.9,0.15,1.22,0.01,0.95-0.42c0.01-0.28-0.54-0.92-0.69-1.21
			c-0.5-0.92-0.94-1.86-1.33-2.82c-0.58-1.46-2.62-2.48-3.87-1.02c-1.87,2.19-3.88,4.25-6,6.2c1.3,0.34,2.59,0.68,3.89,1.03
			c-0.78-2.2-0.68-4.42-0.23-6.68c0.36-1.78-0.78-3.45-2.67-3.5c-10.37-0.27-20.75-0.54-31.12-0.81c-3.6-0.09-3.6,5.51,0,5.59
			c10.37,0.25,20.75,0.5,31.12,0.75c-0.89-1.17-1.78-2.33-2.67-3.5c-0.64,3.21-0.11,6.38,1.07,9.39c0.64,1.63,2.51,2.3,3.89,1.03
			c2.12-1.96,4.1-4.03,5.98-6.22c-1.29-0.34-2.58-0.68-3.87-1.02c0.69,1.79,1.48,3.51,2.44,5.17c0.92,1.6,2.28,2.98,4.31,2.39
			c3.67-1.06,2.55-6.31,2.46-9.07c-1.23,0.71-2.47,1.42-3.7,2.12c2.42,1.62,5.14,2.8,7.98,3.46c2.12,0.49,3.78-1.3,3.37-3.37
			c-0.96-4.78-4.55-8.54-7.92-11.82c-0.78-0.76-1.58-1.52-2.35-2.29c-0.18-0.18-0.36-0.36-0.54-0.54c-0.08-0.08-1.02-0.91-0.35-0.16
			c0.43,0.48-0.02,0.44,0.26,0.14c0.22-0.23,0.3-0.85,0.4-1.15c0.79-2.31,1.48-4.69,2.04-7.07c2.31-9.78,2.2-20.23-0.44-29.93
			c-1.47-5.42-3.66-10.83-6.88-15.46C128.75,56.49,125.29,58.46,126.59,60.97L126.59,60.97z"/>
	</g>
</g>
<g>
	<g>
		<path class="st0" d="M72.25,124.55c1.39-0.01,2.78-0.03,4.16-0.04c0.68-0.01,1.36-0.01,2.04-0.02c0.34,0,0.68-0.01,1.02-0.01
			c0.71-0.01,1.32-0.1,1.87-0.63c0.65-0.64,0.7-1.84,0-2.48c-0.58-0.52-1.13-0.62-1.87-0.61c-0.31,0.01-0.63,0.02-0.94,0.03
			c-0.71,0.02-1.41,0.05-2.12,0.07c-1.39,0.05-2.78,0.09-4.16,0.14c-0.93,0.03-1.83,0.8-1.78,1.78
			C70.51,123.72,71.25,124.56,72.25,124.55L72.25,124.55z"/>
	</g>
</g>
<g>
	<g>
		<path class="st0" d="M61.19,47.54c0.15,1.54,1.21,3.05,2.13,4.26c0.98,1.3,2.18,2.44,3.59,3.27c2.84,1.67,6.46,1.92,9.56,0.87
			c3.05-1.03,5.55-3.14,7.32-5.8c0.82-1.24,2.15-3.29,1.77-4.8c-0.51-2.01-3.87-2.59-4.28-0.19c-0.16,0.95,0.14,1.64,0.9,2.2
			c0.01,0.01,0.03,0.02,0.04,0.03c0.61,0.45,1.8,0.3,2.29-0.3c0.01-0.01,0.02-0.03,0.03-0.04c-0.63,0.17-1.26,0.33-1.9,0.5
			c0.02,0,0.04,0.01,0.06,0.01c-0.4-0.31-0.81-0.62-1.21-0.93c0.01,0.02,0.02,0.04,0.03,0.06c0-0.71,0-1.41,0-2.12
			c0.41-0.72-0.22,0.36-0.28,0.49c-0.13,0.28-0.21,0.57-0.33,0.86c-0.16,0.39-0.34,0.77-0.55,1.15c-0.45,0.84-0.97,1.62-1.61,2.32
			c-1.36,1.48-3.04,2.5-5.02,2.89c-1.91,0.38-3.87-0.03-5.48-1.11c-0.84-0.56-1.54-1.34-2.19-2.1c-0.71-0.84-1.18-2.03-2.03-2.71
			C63.05,45.56,61.04,45.94,61.19,47.54L61.19,47.54z"/>
	</g>
</g>
<g>
	<g>
		<path class="st0" d="M119.04,42.61c0.04-0.01,0.08-0.01,0.12-0.02c0.19-0.04,0.34-0.16,0.48-0.27c-0.06,0.05-0.13,0.1-0.19,0.15
			c0.13-0.1,0.27-0.2,0.42-0.28c0.15-0.08,0.29-0.17,0.44-0.24c-0.09,0.04-0.17,0.07-0.26,0.11c0.12-0.05,0.24-0.08,0.36-0.1
			c-0.1,0.01-0.19,0.03-0.29,0.04c0.1-0.01,0.2-0.01,0.3,0c-0.1-0.01-0.2-0.03-0.3-0.04c0.06,0.01,0.12,0.02,0.18,0.04
			c-0.09-0.04-0.18-0.08-0.27-0.11c0.01,0.01,0.02,0.01,0.02,0.02c-0.14-0.14-0.27-0.27-0.41-0.41c0.09,0.13,0.17,0.26,0.29,0.36
			c0.04,0.04,0.08,0.08,0.12,0.12c-0.07-0.08-0.13-0.17-0.2-0.25c0.04,0.06,0.08,0.12,0.1,0.18c-0.04-0.1-0.09-0.21-0.13-0.31
			c0.04,0.09,0.06,0.18,0.07,0.27c-0.02-0.12-0.03-0.24-0.05-0.36c0.01,0.05,0.01,0.09,0.01,0.14c0.02-0.12,0.03-0.25,0.05-0.37
			c-0.01,0.06-0.03,0.12-0.06,0.18c0.05-0.12,0.1-0.23,0.15-0.35c-0.07,0.17-0.15,0.34-0.2,0.52c-0.02,0.07-0.04,0.13-0.06,0.19
			c0.05-0.12,0.1-0.25,0.16-0.37c-0.04,0.09-0.09,0.18-0.15,0.26c0.08-0.11,0.17-0.21,0.25-0.32c-0.02,0.02-0.03,0.03-0.05,0.05
			c0.11-0.08,0.22-0.17,0.33-0.25c-0.13,0.1-0.29,0.18-0.44,0.25c0.14-0.06,0.28-0.12,0.42-0.18c-0.12,0.05-0.24,0.08-0.37,0.1
			c0.16-0.02,0.32-0.04,0.48-0.06c-0.15,0.02-0.3,0.02-0.45,0c0.17,0.02,0.33,0.05,0.5,0.07c-0.28-0.04-0.56-0.08-0.84-0.11
			c0.17,0.02,0.34,0.05,0.51,0.07c-0.02,0-0.04-0.01-0.06-0.01c-0.01,0-0.02,0-0.03-0.01c-0.26-0.08-0.51-0.09-0.77-0.03
			c-0.32,0.04-0.22,0.01-0.51,0.14c-0.16,0.05-0.3,0.13-0.42,0.25c-0.07,0.05-0.14,0.11-0.21,0.16c0.13-0.1,0.25-0.2,0.38-0.29
			c-0.07,0.05-0.14,0.1-0.21,0.14c-0.11,0.08-0.22,0.17-0.32,0.25c-0.16,0.14-0.27,0.32-0.33,0.51c-0.07,0.12-0.11,0.26-0.11,0.4
			c-0.05,0.21-0.04,0.43,0.03,0.64c0.06,0.18,0.14,0.36,0.22,0.53c0.01,0.03,0.03,0.05,0.04,0.08c0.01,0.01,0.01,0.02,0.02,0.04
			c0.12,0.22,0.28,0.4,0.49,0.54c0.07,0.06,0.14,0.11,0.22,0.17c0.08,0.03,0.15,0.06,0.23,0.1c0.08,0.06,0.17,0.09,0.26,0.1
			c0.02,0,0.04,0.01,0.06,0.01c0.2,0.03,0.4,0.06,0.6,0.08c0.19,0.02,0.41-0.04,0.6-0.07c0.04-0.01,0.09-0.01,0.13-0.02
			c0.08-0.02,0.16-0.04,0.23-0.06c0.22-0.08,0.44-0.17,0.64-0.27c0.07-0.04,0.14-0.08,0.2-0.12c0.18-0.13,0.38-0.27,0.54-0.43
			c0.29-0.3,0.51-0.66,0.62-1.07c0.07-0.27,0.12-0.5,0.15-0.79c0.01-0.07,0.01-0.13,0.01-0.2c0-0.03,0-0.07-0.01-0.1
			c-0.04-0.39-0.05-0.47-0.22-0.81c-0.06-0.11-0.12-0.23-0.18-0.34c-0.19-0.31-0.44-0.56-0.74-0.76c-0.14-0.09-0.31-0.15-0.47-0.21
			c-0.27-0.1-0.57-0.1-0.84-0.01c0.1-0.01,0.2-0.03,0.3-0.04c-0.01,0-0.02,0-0.03,0c0.1,0.01,0.2,0.03,0.3,0.04
			c-0.36-0.07-0.71-0.08-1.07,0.02c-0.26,0.07-0.52,0.19-0.75,0.34c-0.14,0.1-0.29,0.2-0.41,0.32c-0.1,0.1-0.18,0.21-0.27,0.32
			c-0.08,0.11-0.17,0.22-0.24,0.33c-0.13,0.2-0.16,0.43-0.16,0.67c0,0.26,0.12,0.48,0.32,0.64
			C118.55,42.63,118.78,42.66,119.04,42.61L119.04,42.61z"/>
	</g>
</g>
</svg>
