<?xml version="1.0" encoding="utf-8"?>
<!-- Generator: Adobe Illustrator 24.1.2, SVG Export Plug-In . SVG Version: 6.00 Build 0)  -->
<svg version="1.1" xmlns="http://www.w3.org/2000/svg" xmlns:xlink="http://www.w3.org/1999/xlink" x="0px" y="0px"
	 viewBox="0 0 222 111" style="enable-background:new 0 0 222 111;" xml:space="preserve">
<style type="text/css">
	.st0{fill:#7B6B43;stroke:#544630;stroke-width:4;stroke-miterlimit:10;}
	.st1{fill:#7B6B43;}
	.st2{opacity:0.31;}
	.st3{fill:#544630;}
	.st4{fill:#9B7B42;}
</style>
<g id="Layer_1">
	<circle class="st0" cx="36" cy="38" r="28.5"/>
	<circle class="st0" cx="35" cy="76" r="28.5"/>
	<circle class="st0" cx="186" cy="39" r="28.5"/>
	<circle class="st0" cx="185" cy="77" r="28.5"/>
	<rect x="42" y="37" class="st0" width="137" height="42"/>
	<g>
		<g>
			<path class="st1" d="M15.3,50.64c-0.14,4.31-0.29,8.62-0.43,12.93c-0.03,1.05,0.94,2.05,2,2c1.11-0.05,1.96-0.88,2-2
				c0.14-4.31,0.29-8.62,0.43-12.93c0.03-1.05-0.94-2.05-2-2C16.19,48.69,15.34,49.52,15.3,50.64L15.3,50.64z"/>
		</g>
	</g>
	<g>
		<g>
			<path class="st1" d="M22.87,59.17c-0.46-4.1-0.73-8.21-0.83-12.33c-0.06-2.64-3.7-2.49-4,0c-0.41,3.37-0.82,6.74-1.23,10.11
				c1.31-0.18,2.62-0.35,3.93-0.53c-0.45-2.88-0.52-5.79-0.31-8.69c-1.33,0-2.67,0-4,0c0.32,3.73,0.64,7.47,0.96,11.2
				c0.22,2.53,4.14,2.6,4,0c-0.25-4.53,0.3-8.97,1.64-13.3c-1.29,0-2.57,0-3.86,0c0.9,4.32,1.44,8.67,1.65,13.08c1.33,0,2.67,0,4,0
				c-0.48-5.44,0.07-10.83,1.68-16.05c-1.29,0-2.57,0-3.86,0c0.9,5.39,1.15,10.86,0.83,16.31c1.33,0,2.67,0,4,0
				c-0.1-2.66-0.1-5.31,0.04-7.97c0.06-1.29,0.16-2.57,0.28-3.85c0.04-0.47,0.06-0.95,0.19-1.4c0,0.01,0.11-0.39,0.12-0.37
				c-0.06-0.26,0.04,0.14-0.38,0.13c-0.64-0.49-1.29-0.98-1.93-1.47c0.79,4.51,1.04,9.09,0.81,13.67c1.33,0,2.67,0,4,0
				c-0.36-5.31-0.7-10.74,1.36-15.77c-1.29,0-2.57,0-3.86,0c1.1,5.77,1.54,11.62,1.37,17.48c1.33,0,2.67,0,4,0
				c0.04-2.61,0.08-5.21,0.12-7.82c0.02-1.3,0.04-2.61,0.06-3.91c0.01-0.76-0.14-1.86,0.44-2.44c-1.11-0.29-2.23-0.59-3.34-0.88
				c1.29,4.5,1.6,9.11,1,13.75c1.31-0.18,2.62-0.35,3.93-0.53c-1.72-5.08-1.94-10.45-0.56-15.64c-1.22,0.16-2.44,0.32-3.66,0.48
				c2.58,4.25,2.4,9.38,2.24,14.18c1.31-0.18,2.62-0.35,3.93-0.53c-0.64-4.17-1.23-8.47,0.2-12.55c-1.29,0-2.57,0-3.86,0
				c1.45,4.02,2.05,8.17,1.78,12.43c1.31-0.18,2.62-0.35,3.93-0.53c-0.38-1.82-0.67-3.64-0.83-5.49c-0.08-0.93-0.13-1.87-0.15-2.81
				c-0.01-0.35,0.03-0.73-0.01-1.08c-0.01-0.07-0.01-0.13,0.02-0.19c0.23-0.57-0.02-0.47-0.77,0.29c-0.64-0.49-1.29-0.98-1.93-1.47
				c1.03,3.12,1.71,6.33,1.96,9.61c1.31-0.18,2.62-0.35,3.93-0.53c-0.73-3.05-1.26-6.13-1.52-9.26c-0.12-1.43-0.23-2.89-0.21-4.33
				c0.01-0.98,0.07-1.99,0.81-2.7c-1.05-0.13-2.09-0.27-3.14-0.4c2.32,3.31,3.63,7.1,3.74,11.15c1.24-0.34,2.48-0.67,3.73-1.01
				c-2.01-3.63-3.1-7.63-3.2-11.78c-1.14,0.47-2.28,0.94-3.41,1.41c3.17,3.11,4.78,7.35,4.54,11.77c1.14-0.47,2.28-0.94,3.41-1.41
				c-1.2-1.33-2.19-2.86-2.84-4.53c-0.33-0.83-0.58-1.7-0.76-2.57c-0.1-0.49-0.45-1.65-0.16-2.08c-0.24,0.24-0.48,0.48-0.72,0.72
				c-0.51-0.11-0.6-0.06-0.29,0.13c0.19,0.18,0.39,0.37,0.57,0.56c0.28,0.28,0.55,0.58,0.81,0.88c0.63,0.73,1.18,1.52,1.68,2.34
				c0.99,1.64,1.66,3.38,2.1,5.24c1.11-0.65,2.23-1.3,3.34-1.95c-2.65-3.25-3.85-7.4-3.61-11.55c-1,0.58-2.01,1.15-3.01,1.73
				c3.06,2.19,5.07,5.48,5.84,9.14c1.22-0.51,2.44-1.03,3.66-1.54c-1.64-3.58-2.42-7.47-2.38-11.4c-1.24,0.34-2.48,0.67-3.73,1.01
				c2.47,3.64,4.56,7.53,6.15,11.63c1.22-0.51,2.44-1.03,3.66-1.54c-1.98-4.01-3.39-8.24-4.29-12.62c-1.11,0.65-2.23,1.3-3.34,1.95
				c3.36,3.6,5.87,7.88,7.38,12.56c1.22-0.51,2.44-1.03,3.66-1.54c-2.22-3.44-3.88-7.12-4.96-11.07c-1.11,0.65-2.23,1.3-3.34,1.95
				c2.59,3.11,4.63,6.67,6.02,10.47c1.22-0.51,2.44-1.03,3.66-1.54c-1.73-2.84-3.22-5.8-4.41-8.91c-1.22,0.51-2.44,1.03-3.66,1.54
				c1.39,2.91,2.79,5.82,4.18,8.73c0.97,2.02,4.46,0.59,3.66-1.54c-1.09-2.89-1.67-5.86-1.69-8.95c-1.31,0.18-2.62,0.35-3.93,0.53
				c0.5,2.89,0.7,5.8,0.66,8.72c1.33,0,2.67,0,4,0c-0.28-2.38-0.38-4.77-0.3-7.17c-1.31,0.18-2.62,0.35-3.93,0.53
				c0.46,2.01,0.63,4.02,0.56,6.08c1.33,0,2.67,0,4,0c-0.2-2.2-0.07-4.33,0.48-6.47c-1.31-0.18-2.62-0.35-3.93-0.53
				c0.16,2.55,0.32,5.11,0.48,7.66c0.16,2.55,3.98,2.6,4,0c0.02-2.77,0.05-5.53,0.07-8.3c-1.31,0.18-2.62,0.35-3.93,0.53
				c0.97,5.46,0.81,11.07-0.41,16.48c-0.57,2.51,3.29,3.58,3.86,1.06c1.39-6.14,1.51-12.4,0.41-18.6c-0.4-2.27-3.91-1.67-3.93,0.53
				c-0.02,2.77-0.05,5.53-0.07,8.3c1.33,0,2.67,0,4,0c-0.16-2.55-0.32-5.11-0.48-7.66c-0.14-2.17-3.35-2.82-3.93-0.53
				c-0.63,2.47-0.86,5-0.62,7.53c0.23,2.53,3.91,2.61,4,0c0.09-2.41-0.16-4.79-0.7-7.14c-0.52-2.25-3.86-1.67-3.93,0.53
				c-0.08,2.4,0.02,4.78,0.3,7.17c0.29,2.49,3.96,2.64,4,0c0.05-3.29-0.24-6.55-0.8-9.79c-0.39-2.26-3.94-1.68-3.93,0.53
				c0.02,3.42,0.62,6.81,1.83,10.01c1.22-0.51,2.44-1.03,3.66-1.54c-1.39-2.91-2.79-5.82-4.18-8.73c-0.97-2.02-4.47-0.59-3.66,1.54
				c1.31,3.43,2.9,6.73,4.81,9.86c1.13,1.86,4.46,0.66,3.66-1.54c-1.64-4.49-3.99-8.57-7.05-12.24c-1.32-1.59-3.84,0.13-3.34,1.95
				c1.17,4.26,2.97,8.32,5.37,12.03c1.18,1.83,4.38,0.71,3.66-1.54c-1.72-5.35-4.57-10.22-8.41-14.33c-1.45-1.55-3.72,0.1-3.34,1.95
				c0.97,4.72,2.56,9.26,4.69,13.58c0.99,2,4.48,0.59,3.66-1.54c-1.72-4.44-3.88-8.65-6.55-12.59c-1.08-1.6-3.71-1.06-3.73,1.01
				c-0.04,4.67,0.98,9.18,2.93,13.42c0.99,2.16,4.1,0.56,3.66-1.54c-0.99-4.71-3.78-8.75-7.68-11.53c-1.32-0.94-2.93,0.35-3.01,1.73
				c-0.31,5.26,1.47,10.32,4.78,14.38c1.34,1.64,3.76-0.16,3.34-1.95c-0.63-2.69-1.77-5.29-3.38-7.53c-1.41-1.97-3.8-5.35-6.64-4.4
				c-3.02,1.01-2.04,5.23-1.39,7.48c0.83,2.87,2.33,5.45,4.33,7.66c1.23,1.36,3.33,0.22,3.41-1.41c0.29-5.43-1.83-10.8-5.71-14.6
				c-1.21-1.18-3.46-0.35-3.41,1.41c0.13,4.85,1.4,9.55,3.75,13.8c0.95,1.72,3.78,0.97,3.73-1.01c-0.12-4.71-1.58-9.3-4.28-13.17
				c-0.74-1.06-2.15-1.35-3.14-0.4c-2.4,2.29-2.05,5.88-1.85,8.89c0.26,3.8,0.85,7.58,1.74,11.28c0.51,2.15,4.11,1.75,3.93-0.53
				c-0.28-3.63-0.97-7.21-2.11-10.67c-0.27-0.82-1.02-1.5-1.93-1.47c-2.97,0.1-3.31,3.12-3.24,5.45c0.1,2.99,0.49,5.97,1.11,8.9
				c0.49,2.31,3.8,1.62,3.93-0.53c0.28-4.58-0.37-9.18-1.93-13.49c-0.68-1.88-3.19-1.91-3.86,0c-1.66,4.76-0.95,9.81-0.2,14.68
				c0.36,2.3,3.86,1.63,3.93-0.53c0.19-5.52,0.18-11.32-2.78-16.19c-0.88-1.45-3.21-1.21-3.66,0.48
				c-1.55,5.84-1.38,12.04,0.56,17.77c0.76,2.25,3.65,1.65,3.93-0.53c0.64-4.96,0.23-10-1.14-14.81c-0.41-1.43-2.28-1.97-3.34-0.88
				c-1.98,2.04-1.6,5.1-1.65,7.72c-0.05,3.1-0.1,6.19-0.14,9.29c-0.04,2.58,3.92,2.57,4,0c0.19-6.22-0.34-12.43-1.51-18.55
				c-0.16-0.85-1.1-1.47-1.93-1.47c-0.95,0-1.59,0.64-1.93,1.47c-2.17,5.34-1.88,11.2-1.5,16.83c0.17,2.56,3.87,2.59,4,0
				c0.25-4.94-0.09-9.86-0.95-14.73c-0.15-0.87-1.11-1.44-1.93-1.47c-3.52-0.11-3.8,4.06-4.02,6.61c-0.3,3.61-0.37,7.24-0.23,10.86
				c0.1,2.58,3.85,2.56,4,0c0.34-5.82-0.01-11.63-0.98-17.38c-0.35-2.06-3.32-1.74-3.86,0c-1.7,5.53-2.33,11.35-1.82,17.12
				c0.22,2.53,4.12,2.6,4,0c-0.22-4.75-0.82-9.48-1.79-14.14c-0.42-2.03-3.3-1.78-3.86,0c-1.44,4.64-2.05,9.51-1.79,14.36
				c1.33,0,2.67,0,4,0c-0.32-3.73-0.64-7.47-0.96-11.2c-0.22-2.56-3.82-2.59-4,0c-0.23,3.27-0.05,6.51,0.46,9.75
				c0.15,0.97,1.31,1.57,2.19,1.43c1.06-0.16,1.61-0.95,1.73-1.96c0.41-3.37,0.82-6.74,1.23-10.11c-1.33,0-2.67,0-4,0
				c0.1,4.12,0.38,8.23,0.83,12.33c0.12,1.07,0.83,2,2,2C21.85,61.17,22.99,60.25,22.87,59.17L22.87,59.17z"/>
		</g>
	</g>
	<g>
		<g>
			<path class="st1" d="M43.33,44.09c-1.25,2.94-2.02,5.98-2.19,9.18c-0.08,1.41-0.02,2.81,0.15,4.21c0.17,1.44,0.32,3.06,1.08,4.33
				c0.71,1.18,2.08,1.94,3.46,1.52c1.56-0.48,2.16-2.21,2.68-3.59c1.09-2.87,1.4-6.04,0.97-9.07c-0.33-2.31-1.51-4.89-3.97-5.54
				c-2.9-0.77-4.89,1.76-5.76,4.16c-0.88,2.43-1.26,5.18-0.87,7.74c0.37,2.4,1.79,5.1,4.25,5.89c3.5,1.13,4.8-2.93,5.05-5.57
				c0.24-2.56-0.33-5.51-2.42-7.21c-2.3-1.86-5.41-0.97-7.03,1.32c-0.87,1.24-1.18,2.73-1.37,4.2c-0.23,1.71-0.35,3.39-0.11,5.11
				c0.38,2.65,1.72,5.27,4.15,6.58c1.36,0.73,3.08,0.94,4.32-0.15c1.08-0.95,1.52-2.42,1.71-3.81c0.36-2.64-0.4-5.78-2.44-7.61
				c-2-1.8-5.23-2.26-6.87,0.27c-1.52,2.33-1.28,5.98-0.52,8.51c0.83,2.75,2.52,5.18,4.84,6.86c1.27,0.92,2.92,1.47,4.25,0.3
				c1.13-1,1.37-2.61,1.22-4.05c-0.29-2.91-2.06-5.61-4.74-6.85c-0.83-0.38-1.74-0.35-2.42,0.31c-3.3,3.18-1.58,10.6,3.44,10.74
				c2.2,0.06,4.32-1.48,4.4-3.79c0.08-2.34-1.94-4.39-4.23-4.52c-5.76-0.33-6.93,7.39-4.65,11.28c1.28,2.18,4.36,3.2,6.33,1.26
				c1.38-1.36,1.61-3.7,1.48-5.54c-0.15-2.08-0.97-4.32-3.15-5c-2.33-0.73-4.45,0.87-5.53,2.83c-1.82,3.3-3.03,9.68,0.96,12
				c2.17,1.26,4.78,0.17,6.13-1.73c1.23-1.73,1.81-4.43,1.59-6.54c-0.25-2.46-2.16-4.53-4.77-4.1c-2.28,0.38-3.91,2.33-4.66,4.41
				c-0.95,2.68-0.71,5.72,0.43,8.29c1.01,2.25,3.78,4.63,6.33,3.08c1.22-0.74,1.62-2.08,1.98-3.37c0.37-1.32,0.67-2.64,0.86-4
				c0.38-2.74,0.15-5.54-1.41-7.9c-0.81-1.22-2.68-1.37-3.45,0c-1.19,2.11-1.83,4.53-1.65,6.96c0.16,2.18,1.16,4.94,3.7,5.15
				c2.59,0.22,4.07-2.33,4.38-4.58c0.32-2.32-0.45-4.58-2.05-6.28c-0.91-0.97-2.48-0.65-3.14,0.4c-1.19,1.9-2.04,3.98-2.51,6.16
				c-0.54,2.51,3.31,3.58,3.86,1.06c0.41-1.88,1.09-3.58,2.11-5.21c-1.05,0.13-2.09,0.27-3.14,0.4c0.6,0.64,0.93,1.42,0.96,2.3
				c0.02,0.47-0.05,0.96-0.23,1.4c-0.03,0.08-0.29,0.46-0.27,0.49c0.07,0.1,0.65-0.15,0.65-0.14c0.05-0.15-0.27-0.81-0.29-1.02
				c-0.08-0.59-0.07-1.21-0.01-1.8c0.12-1.17,0.52-2.27,1.1-3.29c-1.15,0-2.3,0-3.45,0c1.29,1.94,1.2,4.23,0.74,6.43
				c-0.06,0.31-1.01,3.42-0.91,3.48c0.15,0.1,1.32-2.79,0.57-0.19c-0.01,0.03-0.34-0.21-0.3-0.15c-0.34-0.46-0.67-0.78-0.9-1.35
				c-0.76-1.85-0.93-4.87,0.65-6.38c0.21-0.2,0.52-0.5,0.83-0.49c-0.22,0-0.03,0.01-0.01,0.25c0.07,1.04-0.04,1.94-0.32,2.96
				c-0.13,0.47-0.54,1.87-1.28,1.8c-0.47-0.05-0.65-1.02-0.7-1.38c-0.24-1.73,0.34-4.31,1.43-5.69c0.14-0.17,0.35-0.48,0.6-0.5
				c-0.22,0.02-0.1-0.17,0.04,0.17c0.32,0.75,0.3,1.61,0.23,2.41c-0.03,0.4-0.08,0.8-0.22,1.18c-0.11,0.31,0.07-0.08,0.14-0.01
				c-0.69-0.7-0.84-1.99-0.86-2.94c-0.01-0.83,0.23-2.47,1.34-2.61c0.45-0.06,0.26,0.11,0.66,0.3c0.24,0.12-0.15-0.16,0.11-0.09
				c-0.4-0.11-0.25,0.22-0.73,0.01c-0.35-0.16-0.53-0.58-0.66-0.91c-0.32-0.86-0.44-2.24,0.27-2.93c-0.81,0.1-1.62,0.21-2.42,0.31
				c1.05,0.49,1.87,1.19,2.38,2.25c0.22,0.45,0.77,2.02,0.34,2.37c0.29-0.17,0.59-0.34,0.88-0.51c0.4,0.04,0.4-0.03,0-0.2
				c-0.15-0.1-0.3-0.2-0.43-0.33c-0.36-0.3-0.69-0.63-1-0.98c-0.58-0.65-1.06-1.42-1.43-2.21c-0.68-1.47-0.98-3.17-0.8-4.78
				c0.04-0.4,0.12-0.81,0.24-1.19c0.03-0.18,0.09-0.36,0.19-0.51c-0.11,0.05-0.12,0.07-0.02,0.08c0.49-0.02,1.03,0.7,1.26,1.04
				c0.51,0.78,0.77,1.75,0.79,2.68c0.02,0.61-0.05,2.01-0.54,2.25c0.34-0.09,0.67-0.18,1.01-0.27c-1.86,0.24-2.74-2.79-2.86-4.15
				c-0.11-1.21-0.01-2.48,0.16-3.68c0.13-0.91,0.28-2.11,1.04-2.74c1.37-1.13,1.86,1.89,1.88,2.7c0.01,0.54-0.01,1.07-0.11,1.6
				c-0.05,0.29-0.56,1.43-0.47,1.65c-0.26,0.32-0.02,0.25,0.71-0.18c-0.16-0.06-0.3-0.16-0.41-0.29c-0.27-0.24-0.46-0.56-0.63-0.87
				c-0.8-1.49-0.72-3.37-0.42-4.98c0.18-0.93,0.38-1.92,0.76-2.8c0.12-0.29,0.27-0.67,0.49-0.9c0.22-0.23,0.47-0.27,0.29-0.31
				c1.31,0.29,1.24,3.5,1.23,4.41c-0.01,1.15-0.15,2.28-0.43,3.39c-0.14,0.57-0.31,1.13-0.52,1.68c-0.09,0.25-0.19,0.5-0.3,0.74
				c-0.3,0.39-0.28,0.49,0.05,0.31c0.35,0,0.71,0,1.06,0c0.31,0.06,0.15,0.41,0.19,0.14c0.03-0.18-0.15-0.56-0.19-0.74
				c-0.14-0.62-0.24-1.25-0.31-1.88c-0.14-1.25-0.16-2.52-0.1-3.77c0.13-2.44,0.69-4.91,1.65-7.17c0.42-0.99,0.3-2.14-0.72-2.74
				C45.23,42.89,43.76,43.09,43.33,44.09L43.33,44.09z"/>
		</g>
	</g>
	<g>
		<g>
			<path class="st1" d="M14.22,49.95c0.55,1.16,1.36,2.24,2.33,3.09c0.75,0.67,1.81,0.79,2.63,0.16c0.79-0.61,1.01-1.7,0.52-2.58
				c-0.55-0.98-1.1-1.96-1.66-2.94c-0.42-0.74-1.43-1.19-2.26-0.92c-0.33,0.11-0.63,0.28-0.88,0.51c-0.34,0.31-0.63,0.95-0.59,1.41
				c0.19,2.14,0.75,4.15,1.75,6.06c0.39,0.75,1.45,1.18,2.26,0.92c0.33-0.11,0.63-0.28,0.88-0.51c0.33-0.3,0.64-0.96,0.59-1.41
				c-0.11-0.84-0.24-1.67-0.49-2.49c-0.25-0.8-0.57-1.58-0.95-2.33c-0.66-1.29-2.8-1.32-3.45,0c-0.19,0.39-0.38,0.81-0.45,1.25
				c-0.1,0.65-0.11,1.15-0.01,1.8c0.13,0.89,0.58,1.68,1.17,2.34c0.57,0.63,1.71,0.77,2.42,0.31c0.29-0.19,0.53-0.43,0.72-0.72
				c0.24-0.38,0.38-1.11,0.2-1.54c-0.26-0.63-0.52-1.26-0.78-1.9c-0.21-0.5-0.43-0.91-0.92-1.2c-0.43-0.25-1.06-0.36-1.54-0.2
				c-0.48,0.16-0.95,0.46-1.2,0.92c-0.23,0.44-0.4,1.06-0.2,1.54c0.26,0.63,0.52,1.26,0.78,1.9c1.11-0.65,2.23-1.3,3.34-1.95
				c-0.05-0.06-0.1-0.11-0.14-0.17c0.1,0.13,0.21,0.27,0.31,0.4c-0.13-0.18-0.24-0.37-0.33-0.58c0.07,0.16,0.13,0.32,0.2,0.48
				c-0.09-0.23-0.15-0.47-0.19-0.71c0.02,0.18,0.05,0.35,0.07,0.53c-0.02-0.22-0.03-0.44,0-0.67c-0.02,0.18-0.05,0.35-0.07,0.53
				c0.03-0.25,0.1-0.48,0.19-0.71c-0.07,0.16-0.13,0.32-0.2,0.48c0.02-0.05,0.04-0.09,0.06-0.13c-1.15,0-2.3,0-3.45,0
				c0.12,0.24,0.24,0.49,0.35,0.74c-0.07-0.16-0.13-0.32-0.2-0.48c0.39,0.92,0.66,1.89,0.8,2.88c-0.02-0.18-0.05-0.35-0.07-0.53
				c0.01,0.06,0.02,0.12,0.02,0.18c1.24-0.34,2.48-0.67,3.73-1.01c-0.17-0.32-0.33-0.65-0.47-0.99c0.07,0.16,0.13,0.32,0.2,0.48
				c-0.46-1.1-0.78-2.25-0.94-3.42c0.02,0.18,0.05,0.35,0.07,0.53c-0.03-0.21-0.05-0.42-0.07-0.64c-1.24,0.34-2.48,0.67-3.73,1.01
				c0.55,0.98,1.1,1.96,1.66,2.94c1.05-0.81,2.09-1.62,3.14-2.42c-0.4-0.36-0.77-0.75-1.09-1.17c0.1,0.13,0.21,0.27,0.31,0.4
				c-0.36-0.47-0.66-0.98-0.92-1.52c-0.2-0.43-0.75-0.8-1.2-0.92c-0.48-0.13-1.12-0.07-1.54,0.2c-0.43,0.28-0.8,0.69-0.92,1.2
				C13.89,48.96,13.98,49.44,14.22,49.95L14.22,49.95z"/>
		</g>
	</g>
	<g>
		<g>
			<path class="st1" d="M44.12,64.91c0.7,5.5,1.22,11.01,1.59,16.54c0.17,2.55,4.09,2.59,4,0c-0.14-3.84,0.41-7.58,1.64-11.22
				c-1.31-0.18-2.62-0.35-3.93-0.53c0.28,4.23,0.36,8.46,0.25,12.7c1.33,0,2.67,0,4,0c0.1-3.59,0.83-7.08,2.12-10.43
				c-1.31-0.18-2.62-0.35-3.93-0.53c0.43,3.86,0.34,7.76-0.37,11.58c1.31,0.18,2.62,0.35,3.93,0.53c0.35-3.13,1.39-6.14,2.95-8.87
				c-1.24-0.34-2.48-0.67-3.73-1.01c0.04,3.64-0.46,7.2-1.5,10.69c1.29,0.35,2.57,0.71,3.86,1.06c0.88-3.66,1.77-7.35,3.89-10.53
				c-1.24-0.34-2.48-0.67-3.73-1.01c-0.07,2.11-0.49,4.12-1.21,6.1c1.29,0.35,2.57,0.71,3.86,1.06c0.3-1.81,0.84-3.52,1.71-5.13
				c-1.24-0.34-2.48-0.67-3.73-1.01c-0.15,1.66-0.53,3.27-1.05,4.85c1.29,0.35,2.57,0.71,3.86,1.06c0.61-2.06,1.21-4.11,1.82-6.17
				c0.73-2.47-3.13-3.53-3.86-1.06c-0.61,2.06-1.21,4.11-1.82,6.17c-0.73,2.48,3.05,3.49,3.86,1.06c0.64-1.92,1.01-3.89,1.2-5.91
				c0.18-2-2.83-2.69-3.73-1.01c-1.02,1.91-1.76,3.95-2.11,6.09c-0.42,2.53,2.96,3.51,3.86,1.06c0.84-2.3,1.28-4.72,1.36-7.16
				c0.07-2.09-2.68-2.58-3.73-1.01c-2.3,3.45-3.34,7.5-4.29,11.48c-0.6,2.5,3.12,3.54,3.86,1.06c1.13-3.81,1.68-7.78,1.64-11.75
				c-0.02-1.96-2.73-2.76-3.73-1.01c-1.92,3.38-3.06,7.03-3.49,10.89c-0.25,2.22,3.52,2.74,3.93,0.53
				c0.77-4.18,0.98-8.41,0.51-12.64c-0.25-2.26-3.1-2.7-3.93-0.53c-1.41,3.67-2.15,7.56-2.26,11.49c-0.07,2.57,3.93,2.57,4,0
				c0.12-4.24,0.03-8.47-0.25-12.7c-0.15-2.25-3.19-2.71-3.93-0.53c-1.33,3.94-1.93,8.12-1.78,12.28c1.33,0,2.67,0,4,0
				c-0.36-5.53-0.89-11.04-1.59-16.54c-0.14-1.07-0.82-2-2-2C45.14,62.91,43.98,63.83,44.12,64.91L44.12,64.91z"/>
		</g>
	</g>
	<g>
		<g>
			<path class="st1" d="M59.38,73.63c-1.08,3.98-2.17,7.96-3.25,11.94c-0.27,1.01,0.34,2.22,1.4,2.46c1.05,0.24,2.17-0.32,2.46-1.4
				c1.08-3.98,2.17-7.96,3.25-11.94c0.27-1.01-0.34-2.22-1.4-2.46C60.79,72,59.68,72.55,59.38,73.63L59.38,73.63z"/>
		</g>
	</g>
	<g>
		<g>
			<path class="st1" d="M166.15,31.55c-0.05-0.01-0.1-0.02-0.15-0.03c0.47,0.47,0.93,0.93,1.4,1.4c-0.02-0.05-0.03-0.1-0.05-0.15
				c0,0.35,0,0.71,0,1.06c0.01-0.06,0.03-0.13,0.04-0.19c-0.17,0.29-0.34,0.59-0.51,0.88c0.04-0.05,0.08-0.1,0.12-0.15
				c-0.29,0.17-0.59,0.34-0.88,0.51c0.06-0.01,0.12-0.02,0.18-0.03c-0.51-0.07-1.03-0.13-1.54-0.2c0.07,0.05,0.14,0.09,0.21,0.14
				c-0.24-0.24-0.48-0.48-0.72-0.72c0.03,0.08,0.07,0.16,0.1,0.23c-0.09-0.34-0.18-0.67-0.27-1.01c-0.01-0.32-0.42,0.74-0.49,0.97
				c-0.18,0.58-0.25,1.23-0.37,1.82c-0.25,1.22-0.5,2.43-0.75,3.65c1.29,0,2.57,0,3.86,0c-0.54-2.51-0.38-5.03,0.37-7.48
				c-1.31-0.18-2.62-0.35-3.93-0.53c-0.2,2.15-0.58,4.27-1.1,6.37c1.29,0,2.57,0,3.86,0c-0.21-1.17-0.09-2.29,0.23-3.43
				c0.71-2.5-3.04-3.49-3.86-1.06c-0.66,1.95-0.94,4-0.85,6.05c1.33,0,2.67,0,4,0c-0.11-2.12-0.03-4.23,0.21-6.33
				c0.26-2.26-3.4-2.69-3.93-0.53c-0.62,2.52-1.24,5.04-1.85,7.56c1.31,0.18,2.62,0.35,3.93,0.53c0.08-3.34,0.18-8.51,4.21-9.57
				c-0.84-0.64-1.69-1.29-2.53-1.93c0.41,4.23,0.52,8.48,0.34,12.73c1.33,0,2.67,0,4,0c-0.04-3.86,0.63-7.6,1.96-11.22
				c-1.31-0.18-2.62-0.35-3.93-0.53c-0.07,3.44-0.13,6.88-0.2,10.33c-0.04,2.2,3.53,2.8,3.93,0.53c0.71-4.01,2.12-7.75,4.28-11.2
				c-1.24-0.34-2.48-0.67-3.73-1.01c-0.05,4.43-0.42,8.84-1.17,13.2c1.31,0.18,2.62,0.35,3.93,0.53c0.4-4.67,1.93-9.14,4.38-13.12
				c-1.24-0.34-2.48-0.67-3.73-1.01c-0.04,4.86-0.67,9.63-1.88,14.34c1.31,0.18,2.62,0.35,3.93,0.53c0.23-3.76,1.13-7.47,2.7-10.9
				c-1.24-0.34-2.48-0.67-3.73-1.01c0.23,5.2,0.05,10.4-0.55,15.58c-0.26,2.22,3.61,2.76,3.93,0.53c0.68-4.8,2.03-9.48,4.11-13.86
				c-1.24-0.34-2.48-0.67-3.73-1.01c0.02,5.07-0.69,10.05-2.12,14.92c1.31,0.18,2.62,0.35,3.93,0.53c0.47-4.86,1.47-9.63,2.92-14.29
				c-1.31-0.18-2.62-0.35-3.93-0.53c-0.52,4.75-1.43,9.44-2.66,14.06c1.29,0.35,2.57,0.71,3.86,1.06c0.97-3.99,1.67-8.02,2.15-12.1
				c0.26-2.25-3.41-2.69-3.93-0.53c-1.24,5.14-1.91,10.41-1.99,15.7c-0.04,2.21,3.45,2.77,3.93,0.53
				c1.19-5.57,2.18-11.19,2.96-16.83c-1.31-0.18-2.62-0.35-3.93-0.53c-0.52,5.44-0.71,10.89-0.58,16.35
				c0.05,2.17,3.47,2.82,3.93,0.53c0.95-4.74,1.9-9.48,2.85-14.22c-1.31-0.18-2.62-0.35-3.93-0.53c-0.3,5.1-0.6,10.19-0.9,15.29
				c-0.13,2.21,3.6,2.78,3.93,0.53c0.7-4.82,1.64-9.6,2.83-14.32c-1.31-0.18-2.62-0.35-3.93-0.53c0.32,3.96,0.23,7.95-0.37,11.87
				c-0.16,1.07,0.27,2.15,1.4,2.46c1.03,0.28,2.19-0.35,2.46-1.4c0.79-3.07,1.58-6.14,2.37-9.21c-1.22,0.16-2.44,0.32-3.66,0.48
				c0.88,1.63,0.1,4.38-0.08,6.13c-0.25,2.39-0.49,4.79-0.74,7.18c-0.2,1.93,2.94,2.8,3.73,1.01c2.23-5.06,4.46-10.11,6.69-15.17
				c-1.24-0.34-2.48-0.67-3.73-1.01c-0.62,5.66-1.23,11.31-1.85,16.97c-0.25,2.3,3.32,2.63,3.93,0.53c1.2-4.17,2.41-8.33,3.61-12.5
				c-1.31-0.18-2.62-0.35-3.93-0.53c-0.32,5.56-0.65,11.13-0.97,16.69c-0.13,2.21,3.58,2.78,3.93,0.53
				c0.92-5.85,1.84-11.69,2.75-17.54c-1.31-0.18-2.62-0.35-3.93-0.53c-0.06,5.8,0.35,11.58,1.15,17.32
				c0.32,2.29,3.88,1.64,3.93-0.53c0.11-5.32,0.23-10.65,0.34-15.97c-1.31,0.18-2.62,0.35-3.93,0.53c0.63,4.47,0.98,8.98,1.1,13.5
				c0.07,2.57,4,2.58,4,0c-0.01-3.68-0.01-7.36-0.02-11.05c0-2.57-4-2.58-4,0c0,3.71-0.01,7.43-0.01,11.14c0,1.08,0.92,2,2,2
				c1.2,0,1.86-0.92,2-2c0.32-2.4-0.14-4.68-1.12-6.87c-0.44-0.99-1.88-1.22-2.74-0.72c-1.02,0.59-1.16,1.75-0.72,2.74
				c0.69,1.54,0.79,3.2,0.57,4.85c1.33,0,2.67,0,4,0c0-3.71,0.01-7.43,0.01-11.14c-1.33,0-2.67,0-4,0
				c0.01,3.68,0.01,7.36,0.02,11.05c1.33,0,2.67,0,4,0c-0.13-4.88-0.56-9.73-1.25-14.56c-0.32-2.29-3.88-1.64-3.93,0.53
				c-0.11,5.32-0.23,10.65-0.34,15.97c1.31-0.18,2.62-0.35,3.93-0.53c-0.75-5.38-1.06-10.82-1.01-16.26
				c0.02-2.18-3.57-2.81-3.93-0.53c-0.92,5.85-1.84,11.69-2.75,17.54c1.31,0.18,2.62,0.35,3.93,0.53
				c0.32-5.56,0.65-11.13,0.97-16.69c0.13-2.3-3.32-2.65-3.93-0.53c-1.2,4.17-2.41,8.33-3.61,12.5c1.31,0.18,2.62,0.35,3.93,0.53
				c0.62-5.66,1.23-11.31,1.85-16.97c0.21-1.93-2.94-2.79-3.73-1.01c-2.23,5.06-4.46,10.11-6.69,15.17
				c1.24,0.34,2.48,0.67,3.73,1.01c0.28-2.71,0.56-5.43,0.84-8.14c0.25-2.46,0.66-4.91-0.57-7.19c-0.82-1.51-3.23-1.16-3.66,0.48
				c-0.79,3.07-1.58,6.14-2.37,9.21c1.29,0.35,2.57,0.71,3.86,1.06c0.66-4.29,0.86-8.6,0.52-12.94c-0.17-2.14-3.35-2.85-3.93-0.53
				c-1.18,4.72-2.13,9.5-2.83,14.32c1.31,0.18,2.62,0.35,3.93,0.53c0.3-5.1,0.6-10.19,0.9-15.29c0.13-2.23-3.48-2.75-3.93-0.53
				c-0.95,4.74-1.9,9.48-2.85,14.22c1.31,0.18,2.62,0.35,3.93,0.53c-0.13-5.46,0.06-10.91,0.58-16.35c0.21-2.22-3.62-2.77-3.93-0.53
				c-0.79,5.65-1.78,11.26-2.96,16.83c1.31,0.18,2.62,0.35,3.93,0.53c0.08-4.95,0.69-9.82,1.85-14.63
				c-1.31-0.18-2.62-0.35-3.93-0.53c-0.43,3.72-1.12,7.4-2,11.04c-0.61,2.5,3.19,3.56,3.86,1.06c1.32-4.97,2.24-10.01,2.8-15.12
				c0.26-2.32-3.29-2.6-3.93-0.53c-1.56,5-2.56,10.14-3.06,15.35c-0.22,2.3,3.31,2.63,3.93,0.53c1.52-5.19,2.29-10.58,2.26-15.98
				c-0.01-1.87-2.84-2.87-3.73-1.01c-2.23,4.7-3.78,9.65-4.52,14.81c1.31,0.18,2.62,0.35,3.93,0.53c0.6-5.17,0.78-10.37,0.55-15.58
				c-0.08-1.81-2.85-2.94-3.73-1.01c-1.87,4.11-2.97,8.41-3.24,12.92c-0.14,2.27,3.37,2.69,3.93,0.53c1.3-5.03,1.98-10.21,2.02-15.4
				c0.02-2.02-2.7-2.67-3.73-1.01c-2.83,4.61-4.47,9.76-4.93,15.14c-0.19,2.22,3.55,2.76,3.93,0.53c0.81-4.72,1.27-9.48,1.32-14.26
				c0.02-2.03-2.7-2.66-3.73-1.01c-2.32,3.72-3.92,7.84-4.68,12.16c1.31,0.18,2.62,0.35,3.93,0.53c0.07-3.44,0.13-6.88,0.2-10.33
				c0.04-2.37-3.18-2.56-3.93-0.53c-1.44,3.93-2.14,8.1-2.1,12.29c0.03,2.58,3.89,2.57,4,0c0.18-4.25,0.06-8.5-0.34-12.73
				c-0.12-1.29-1.18-2.28-2.53-1.93c-6.01,1.58-7.02,8.15-7.14,13.43c-0.05,2.24,3.39,2.73,3.93,0.53c0.62-2.52,1.24-5.04,1.85-7.56
				c-1.31-0.18-2.62-0.35-3.93-0.53c-0.25,2.11-0.32,4.22-0.21,6.33c0.13,2.56,4.12,2.58,4,0c-0.08-1.74,0.15-3.34,0.71-4.99
				c-1.29-0.35-2.57-0.71-3.86-1.06c-0.53,1.85-0.56,3.67-0.23,5.55c0.35,1.98,3.4,1.83,3.86,0c0.61-2.44,1.01-4.93,1.24-7.43
				c0.22-2.32-3.29-2.61-3.93-0.53c-0.96,3.14-1.06,6.4-0.37,9.6c0.4,1.9,3.47,1.92,3.86,0c0.33-1.6,0.65-3.19,0.98-4.79
				c0.29-1.42,1.28-2.46,0.4-3.96c-0.77-1.31-2.65-1.47-3.64-0.37c-1.09,1.21-0.66,3.36,1.05,3.72
				C167.59,35.94,168.67,32.09,166.15,31.55L166.15,31.55z"/>
		</g>
	</g>
	<g>
		<g>
			<path class="st1" d="M202.66,51.65c-0.13,5.45,0.13,10.91,0.78,16.32c0.13,1.07,0.83,2,2,2c0.98,0,2.13-0.92,2-2
				c-0.65-5.42-0.91-10.87-0.78-16.32C206.72,49.08,202.72,49.08,202.66,51.65L202.66,51.65z"/>
		</g>
	</g>
	<g>
		<g>
			<path class="st1" d="M185.78,47.34c-1.11-1.64-3.03-1.62-4.43-0.34c-1.29,1.17-1.79,3.32-2.19,4.95
				c-0.95,3.79-0.97,7.71-0.16,11.52c0.16,0.77,1.11,1.57,1.93,1.47c2.14-0.27,3.02-1.78,3.34-3.77c0.33-2.05,0.63-4.15,0.38-6.22
				c-0.42-3.55-2.47-6.99-6.12-7.92c-0.8-0.2-1.88,0.12-2.26,0.92c-1.82,3.8-2.27,8.15-1.01,12.21c0.58,1.86,1.42,3.83,3.01,5.03
				c1.59,1.2,3.89,1.33,5.12-0.45c1.17-1.69,1.08-4.25,0.81-6.2c-0.32-2.3-1.17-4.48-2.24-6.53c-0.91-1.75-2.05-4.23-3.83-5.24
				c-2.02-1.15-4.2,0.13-4.68,2.27c-0.44,1.94-0.12,4.19,0.15,6.13c0.29,2.01,0.79,3.99,1.52,5.89c0.74,1.93,1.65,3.8,2.8,5.53
				c1.08,1.64,2.4,3.69,4.17,4.64c1.96,1.06,4.38,0.22,4.73-2.12c0.28-1.88-0.32-4.12-0.95-5.88c-0.72-2.02-1.74-3.88-3.08-5.56
				c-1.22-1.54-2.82-3.36-4.96-3.25c-4.77,0.23-3.83,7.3-3.45,10.38c0.54,4.41,1.84,8.77,5.13,11.93c1.09,1.04,2.93,0.58,3.34-0.88
				c1.41-4.97-0.22-10.59-4.21-13.91c-0.51-0.42-1.26-0.79-1.95-0.51c-3.81,1.56-2.82,6.89-2.03,10.08
				c0.93,3.77,2.87,7.22,5.52,10.05c0.97,1.03,3.08,0.61,3.34-0.88c1.05-5.96-0.84-12.14-5.28-16.31c-1.32-1.24-3.29-0.3-3.41,1.41
				c-0.44,6.3,1.97,12.59,6.42,17.05c1.13,1.14,2.83,0.49,3.34-0.88c1.06-2.86,1.09-6.14,0.06-9.02c-0.9-2.52-3.17-6.78-6.49-5.77
				c-3.11,0.94-2.62,5.57-2.51,8.08c0.15,3.3,0.92,6.39,3.04,8.98c0.52,0.64,1.75,0.77,2.42,0.31c2.8-1.92,2.26-5.8,1.23-8.6
				c-0.93-2.53-3.01-6.48-6.04-6.78c-3.9-0.39-3.47,4.83-3.34,7.38c0.16,3.14,0.96,6.14,3.14,8.5c1.12,1.21,2.81,0.42,3.34-0.88
				c2.09-5.11-0.2-11.3-4.87-14.1c-1.1-0.66-2.61-0.05-2.94,1.2c-1.24,4.75-0.71,9.65,1.41,14.06c0.7,1.46,3.42,1.22,3.66-0.48
				c0.65-4.76-0.25-9.51-2.88-13.56c-0.87-1.34-3.3-1.3-3.66,0.48c-0.8,3.97-0.86,7.93-0.21,11.92c0.37,2.33,3.81,1.6,3.93-0.53
				c0.21-3.85-0.64-7.6-2.37-11.04c-0.97-1.92-3.57-0.8-3.73,1.01c-0.31,3.59-0.39,7.18-0.26,10.78c0.1,2.56,4.07,2.58,4,0
				c-0.08-3.26-0.6-6.5-1.56-9.61c-0.69-2.24-3.72-1.67-3.93,0.53c-0.26,2.78-0.08,5.53,0.44,8.26c0.45,2.35,3.75,1.58,3.93-0.53
				c0.25-3.03-0.1-6.09-1.01-8.99c-0.58-1.84-3.34-1.96-3.86,0c-0.45,1.69-0.73,3.44-0.8,5.19c-0.04,0.82-0.02,1.65,0.04,2.47
				c0.06,0.76,0.3,1.57,0.21,2.33c0.09-0.34,0.18-0.67,0.27-1.01c-0.05,0.07-0.1,0.14-0.14,0.21c0.4-0.31,0.8-0.61,1.2-0.92
				c-0.06,0.01-0.12,0.02-0.18,0.03c0.51,0.07,1.03,0.13,1.54,0.2c-0.05-0.03-0.11-0.07-0.16-0.1c0.24,0.24,0.48,0.48,0.72,0.72
				c-0.02-0.05-0.05-0.1-0.07-0.15c0,0.67,0,1.35,0,2.02c0.03-0.04,0.06-0.08,0.08-0.12c1.46-2.13-2.01-4.13-3.45-2.02
				c-0.03,0.04-0.06,0.08-0.08,0.12c-0.42,0.61-0.3,1.4,0,2.02c0.53,1.07,1.84,1.49,2.91,1.04c1.39-0.58,1.44-2.02,1.28-3.29
				c-0.34-2.59-0.16-5.15,0.51-7.67c-1.29,0-2.57,0-3.86,0c0.82,2.6,1.1,5.21,0.87,7.93c1.31-0.18,2.62-0.35,3.93-0.53
				c-0.45-2.38-0.52-4.79-0.29-7.2c-1.31,0.18-2.62,0.35-3.93,0.53c0.86,2.79,1.34,5.63,1.42,8.55c1.33,0,2.67,0,4,0
				c-0.13-3.6-0.05-7.19,0.26-10.78c-1.24,0.34-2.48,0.67-3.73,1.01c1.42,2.82,1.99,5.88,1.82,9.02c1.31-0.18,2.62-0.35,3.93-0.53
				c-0.52-3.25-0.44-6.58,0.21-9.8c-1.22,0.16-2.44,0.32-3.66,0.48c2,3.09,2.98,6.8,2.47,10.48c1.22-0.16,2.44-0.32,3.66-0.48
				c-1.64-3.42-1.96-7.32-1.01-10.98c-0.98,0.4-1.96,0.8-2.94,1.2c3.27,1.96,4.45,6.11,3.03,9.58c1.11-0.29,2.23-0.59,3.34-0.88
				c-1.15-1.25-1.67-2.87-1.88-4.54c-0.11-0.88-0.13-1.77-0.12-2.66c0-0.51,0.02-1.01,0.04-1.52c0.01-0.25,0.02-0.5,0.04-0.75
				c0.07-0.47,0.03-0.49-0.09-0.09c-0.29,0.17-0.59,0.34-0.88,0.51c-0.26-0.09-0.3-0.08-0.11,0.02c0.14,0.11,0.27,0.24,0.39,0.37
				c0.25,0.25,0.49,0.52,0.7,0.8c0.58,0.76,1.08,1.63,1.43,2.52c0.27,0.68,1.24,3.81,0.65,4.21c0.81,0.1,1.62,0.21,2.42,0.31
				c-1.22-1.49-1.67-3.48-1.82-5.36c-0.07-0.93-0.08-1.86-0.07-2.79c0.01-0.53,0.02-1.06,0.05-1.58c0-0.09,0.15-0.89,0.08-0.97
				c-0.81,0.06-1.02,0.22-0.65,0.49c0.14,0.14,0.27,0.29,0.4,0.45c0.31,0.39,0.57,0.84,0.8,1.28c0.4,0.74,0.67,1.53,0.86,2.34
				c0.44,1.9,0.24,3.81-0.44,5.62c1.11-0.29,2.23-0.59,3.34-0.88c-3.75-3.77-5.62-8.93-5.25-14.22c-1.14,0.47-2.28,0.94-3.41,1.41
				c3.34,3.14,5.06,7.86,4.26,12.42c1.11-0.29,2.23-0.59,3.34-0.88c-1.8-1.93-3.2-4.22-4.04-6.73c-0.39-1.18-0.69-2.4-0.84-3.63
				c-0.08-0.67-0.12-1.35-0.12-2.03c0-0.3,0.06-0.64,0.02-0.94c-0.07-0.52,0.57-0.48-0.27-0.14c-0.65-0.17-1.3-0.34-1.95-0.51
				c2.94,2.44,4.24,6.31,3.19,10.02c1.11-0.29,2.23-0.59,3.34-0.88c-3.67-3.52-4.27-9.16-4.27-13.99c0-0.41,0.23-0.96,0.19-1.33
				c-0.01-0.05,0.12-0.2,0.09-0.25c-0.05-0.11-0.33,0.12-0.33,0.11c0,0.21,1.25,1.23,1.44,1.45c0.41,0.47,0.77,0.98,1.1,1.51
				c0.69,1.09,1.25,2.24,1.64,3.47c0.22,0.69,0.4,1.4,0.52,2.12c0.05,0.28,0.09,0.56,0.11,0.84c0.01,0.13,0.02,0.26,0.03,0.4
				c-0.02,0.43,0.02,0.42,0.13-0.03c0.29-0.17,0.59-0.34,0.88-0.51c0.26,0.11,0.29,0.11,0.08,0.02c-0.15-0.09-0.29-0.2-0.4-0.34
				c-0.29-0.28-0.55-0.61-0.8-0.92c-0.58-0.7-1.11-1.45-1.6-2.22c-0.93-1.45-1.72-2.99-2.31-4.61c-0.6-1.65-1.06-3.37-1.31-5.11
				c-0.13-0.89-0.19-1.8-0.22-2.7c-0.01-0.4-0.02-0.81,0-1.22c0.03-0.16,0.03-0.32,0-0.49c0.18-0.53,0.01-0.44-0.5,0.26
				c-0.34-0.09-0.67-0.18-1.01-0.27c0.96,0.42,1.57,1.9,2.07,2.77c0.62,1.07,1.2,2.18,1.62,3.34c0.43,1.18,0.78,2.42,0.85,3.68
				c0.03,0.6,0.03,1.23-0.06,1.83c-0.01,0.1-0.21,0.65-0.15,0.73c-0.03-0.05,0.69-0.23,0.68-0.32c-0.01-0.09-0.53-0.48-0.63-0.61
				c-0.31-0.43-0.54-0.97-0.74-1.46c-0.43-1.05-0.72-2.21-0.84-3.33c-0.24-2.3,0.12-4.64,1.13-6.73c-0.75,0.31-1.51,0.61-2.26,0.92
				c1.81,0.46,2.81,2.15,3.14,3.9c0.23,1.22,0.15,2.5,0.02,3.73c-0.07,0.62-0.15,1.23-0.26,1.84c-0.03,0.2-0.15,0.51-0.14,0.71
				c0.02,0.32-0.24,0.23-0.03,0.13c0.34-0.09,0.67-0.18,1.01-0.27c-0.1,0.01-0.19,0.02-0.29,0.04c0.64,0.49,1.29,0.98,1.93,1.47
				c-0.48-2.26-0.6-4.6-0.32-6.9c0.14-1.13,0.39-2.25,0.71-3.34c0.16-0.56,0.34-1.13,0.56-1.67c0.3-0.74,0.38-0.43-0.08-0.45
				c-0.34-0.09-0.67-0.18-1.01-0.27c0.06,0.03,0.13,0.07,0.19,0.1c-0.24-0.24-0.48-0.48-0.72-0.72c0.05,0.07,0.09,0.14,0.14,0.21
				C183.76,51.47,187.23,49.47,185.78,47.34L185.78,47.34z"/>
		</g>
	</g>
	<g>
		<g>
			<path class="st1" d="M160.9,75.14c-0.12,1.37-0.24,2.75-0.37,4.12c1.24-0.34,2.48-0.67,3.73-1.01c-0.25-0.46-0.39-0.86-0.54-1.47
				c-0.06-0.24-0.06-0.26-0.07-0.62c-0.01-0.31,0-0.62,0.03-0.93c-1.33,0-2.67,0-4,0c-0.1,2.52,0.08,5.02,0.46,7.52
				c1.29-0.35,2.57-0.71,3.86-1.06c-0.53-1.67-0.73-3.15-0.65-4.9c0.05-1.08-0.95-2-2-2c-1.15,0-1.91,0.92-2,2
				c-0.21,2.55,0.01,5.11,0.56,7.61c0.19,0.85,1.08,1.47,1.93,1.47c0.81,0,1.8-0.61,1.93-1.47c0.41-2.68,0.83-5.35,1.24-8.03
				c-1.31-0.18-2.62-0.35-3.93-0.53c0.34,2.67,0.78,5.32,1.35,7.95c0.21,0.96,1.27,1.57,2.19,1.43c1.02-0.15,1.66-0.95,1.73-1.96
				c0.14-1.96-0.02-3.91-0.4-5.83c-0.19-0.96-1.28-1.57-2.19-1.43c-0.88,0.13-1.85,0.96-1.73,1.96c0.32,2.69,1.02,5.2,2.14,7.67
				c0.36,0.79,1.47,1.14,2.26,0.92c0.88-0.24,1.42-1.05,1.47-1.93c0.17-3.33,0.33-6.65,0.5-9.98c-1.31,0.18-2.62,0.35-3.93,0.53
				c0.83,2.47,1.65,4.95,2.48,7.42c0.31,0.94,1.18,1.58,2.19,1.43c1.07-0.16,1.6-0.95,1.73-1.96c0.48-3.61,0.72-7.25,0.71-10.89
				c-1.31,0.18-2.62,0.35-3.93,0.53c0.94,2.78,1.62,5.74,1.92,8.56c0.11,1.07,0.84,2,2,2c0.99,0,2.11-0.92,2-2
				c-0.34-3.28-1-6.5-2.06-9.62c-0.32-0.94-1.18-1.59-2.19-1.43c-0.97,0.15-1.73,0.95-1.73,1.96c0,3.64-0.24,7.28-0.71,10.89
				c1.31-0.18,2.62-0.35,3.93-0.53c-0.83-2.47-1.65-4.95-2.48-7.42c-0.72-2.15-3.81-1.75-3.93,0.53c-0.17,3.33-0.33,6.65-0.5,9.98
				c1.24-0.34,2.48-0.67,3.73-1.01c-0.77-1.69-1.38-3.87-1.6-5.65c-1.31,0.18-2.62,0.35-3.93,0.53c0.3,1.53,0.37,3.14,0.25,4.77
				c1.31-0.18,2.62-0.35,3.93-0.53c-0.5-2.27-0.92-4.64-1.21-6.89c-0.13-0.99-0.66-1.84-1.73-1.96c-0.89-0.11-2.04,0.44-2.19,1.43
				c-0.41,2.68-0.83,5.35-1.24,8.03c1.29,0,2.57,0,3.86,0c-0.48-2.14-0.6-4.31-0.42-6.55c-1.33,0-2.67,0-4,0
				c-0.09,2.01,0.18,4.05,0.79,5.97c0.33,1.03,1.39,1.69,2.46,1.4c1.14-0.31,1.56-1.39,1.4-2.46c-0.32-2.07-0.4-4.31-0.32-6.46
				c0.04-1.08-0.95-2-2-2c-1.16,0-1.91,0.92-2,2c-0.14,1.76,0.29,3.5,1.13,5.04c0.42,0.77,1.42,1.15,2.26,0.92
				c0.9-0.25,1.39-1.04,1.47-1.93c0.12-1.37,0.24-2.75,0.37-4.12c0.1-1.08-0.99-2-2-2C161.74,73.14,160.99,74.06,160.9,75.14
				L160.9,75.14z"/>
		</g>
	</g>
	<g>
		<g>
			<path class="st1" d="M164.03,75.86c-0.25-0.43-0.5-0.85-0.75-1.28c-0.83-1.42-3.29-1.25-3.66,0.48c-0.44,2.1-0.34,4.31,0.48,6.31
				c1.22-0.51,2.44-1.03,3.66-1.54c-0.09-0.17-0.17-0.34-0.25-0.51c0.16,0.34-0.07-0.2-0.08-0.23c-0.12-0.33-0.22-0.66-0.3-1
				c-0.04-0.15-0.07-0.31-0.1-0.46c-0.01-0.04-0.09-0.64-0.04-0.22c-0.04-0.38-0.06-0.76-0.06-1.14c-1.33,0-2.67,0-4,0
				c0.16,1.98,0.31,3.96,0.47,5.95c1.33,0,2.67,0,4,0c-0.14-1.41-0.27-2.83-0.41-4.24c-0.1-1.04-0.85-2.05-2-2
				c-1.07,0.05-2.02,0.88-2,2c0.01,0.82,0.03,1.64,0.04,2.45c1.31-0.18,2.62-0.35,3.93-0.53c-0.25-0.6-0.5-1.2-0.75-1.8
				c-1.22,0.51-2.44,1.03-3.66,1.54c-0.11-0.26-0.01,0.03,0.03,0.15c0.04,0.15,0.08,0.31,0.11,0.46c-0.03-0.21-0.01-0.12-0.01,0.04
				c0,0.19,0,0.38-0.02,0.57c1.33,0,2.67,0,4,0c0-3.15,0-6.3,0-9.45c0-1.05-0.92-2.05-2-2c-1.08,0.05-2,0.88-2,2
				c0,3.15,0,6.3,0,9.45c0,1.05,0.92,2.05,2,2c1.15-0.05,1.92-0.88,2-2c0.08-1.15-0.2-2.2-0.65-3.24c-0.39-0.91-1.68-1.16-2.5-0.82
				c-0.82,0.35-1.54,1.44-1.16,2.36c0.25,0.6,0.5,1.2,0.75,1.8c0.39,0.93,1.13,1.58,2.19,1.43c0.96-0.13,1.75-0.96,1.73-1.96
				c-0.01-0.82-0.03-1.64-0.04-2.45c-1.33,0-2.67,0-4,0c0.14,1.41,0.27,2.83,0.41,4.24c0.1,1.04,0.85,2.05,2,2
				c1.01-0.05,2.09-0.88,2-2c-0.16-1.98-0.31-3.96-0.47-5.95c-0.08-1.04-0.86-2.05-2-2c-1.08,0.05-2.01,0.88-2,2
				c0.01,1.96,0.5,3.84,1.39,5.58c0.45,0.89,1.63,1.18,2.5,0.82c0.83-0.35,1.54-1.44,1.16-2.36c-0.16-0.38-0.29-0.77-0.4-1.18
				c-0.06-0.22-0.1-0.43-0.14-0.65c-0.09-0.42,0,0.25-0.03-0.23c-0.03-0.38-0.04-0.76-0.03-1.15c0.01-0.19,0.02-0.38,0.04-0.57
				c-0.04,0.42,0.07-0.33,0.08-0.41c-1.22,0.16-2.44,0.32-3.66,0.48c0.25,0.43,0.5,0.85,0.75,1.28c0.53,0.9,1.83,1.3,2.74,0.72
				C164.22,78.01,164.59,76.83,164.03,75.86L164.03,75.86z"/>
		</g>
	</g>
	<g>
		<g>
			<path class="st1" d="M159.66,74.81c0,1.05,0,2.1,0,3.15c0,0.51,0.22,1.05,0.59,1.41c0.35,0.35,0.92,0.61,1.41,0.59
				c0.52-0.02,1.05-0.19,1.41-0.59c0.37-0.4,0.56-0.86,0.59-1.41c0.07-1.51-0.31-2.99-0.97-4.35c-0.1-0.13-0.21-0.27-0.31-0.4
				c-0.13-0.1-0.27-0.21-0.4-0.31c-0.39-0.23-0.83-0.3-1.28-0.24c-0.18,0-0.35,0.05-0.5,0.14c-0.17,0.05-0.32,0.13-0.44,0.26
				c-0.31,0.24-0.65,0.63-0.72,1.04c-0.11,0.72-0.22,1.44-0.34,2.16c1.31,0.18,2.62,0.35,3.93,0.53c-0.04-0.59-0.12-1.2-0.29-1.77
				c-0.16-0.57-0.39-1.12-0.66-1.65c-0.1-0.13-0.21-0.27-0.31-0.4c-0.18-0.2-0.4-0.33-0.64-0.41c-0.4-0.17-0.88-0.24-1.3-0.1
				c-0.33,0.11-0.63,0.28-0.88,0.51c-0.39,0.35-0.56,0.91-0.59,1.41c-0.03,0.57-0.06,1.13-0.09,1.7c0.49-0.64,0.98-1.29,1.47-1.93
				c-0.35,0.1-0.72,0.3-0.97,0.56c-0.33,0.33-0.52,0.75-0.58,1.21c-0.07,0.52,0.02,1.05,0.31,1.5c0.31,0.5,0.79,0.89,1.36,1.04
				c0.54,0.14,1.12,0.07,1.61-0.21c0.38-0.22,0.55-0.44,0.8-0.79c0.28-0.4,0.33-1.08,0.2-1.54c-0.13-0.46-0.49-0.97-0.92-1.2
				c-0.46-0.25-1.03-0.37-1.54-0.2c-0.16,0.07-0.32,0.13-0.48,0.2c-0.3,0.18-0.54,0.42-0.72,0.72c-0.01,0.01-0.01,0.02-0.02,0.03
				c0.1-0.13,0.21-0.27,0.31-0.4c-0.01,0.01-0.01,0.01-0.02,0.02c0.13-0.1,0.27-0.21,0.4-0.31c-0.01,0.01-0.03,0.02-0.04,0.02
				c0.16-0.07,0.32-0.13,0.48-0.2c-0.01,0-0.01,0-0.02,0.01c0.18-0.02,0.35-0.05,0.53-0.07c-0.01,0-0.03,0-0.04,0
				c0.18,0.02,0.35,0.05,0.53,0.07c-0.02,0-0.03-0.01-0.05-0.01c0.16,0.07,0.32,0.13,0.48,0.2c-0.02-0.01-0.03-0.02-0.04-0.03
				c0.13,0.1,0.27,0.21,0.4,0.31c-0.03-0.02-0.06-0.05-0.08-0.08c0.1,0.13,0.21,0.27,0.31,0.4c-0.02-0.03-0.04-0.06-0.06-0.1
				c0.07,0.16,0.13,0.32,0.2,0.48c-0.01-0.03-0.01-0.05-0.02-0.08c0.02,0.18,0.05,0.35,0.07,0.53c0-0.02,0-0.03,0-0.05
				c-0.02,0.18-0.05,0.35-0.07,0.53c0-0.01,0-0.01,0.01-0.02c-0.07,0.16-0.13,0.32-0.2,0.48c0-0.01,0.01-0.03,0.02-0.04
				c-0.1,0.13-0.21,0.27-0.31,0.4c0.01-0.01,0.01-0.01,0.02-0.02c-0.13,0.1-0.27,0.21-0.4,0.31c0.01-0.01,0.03-0.02,0.05-0.02
				c-0.16,0.07-0.32,0.13-0.48,0.2c0.01,0,0.02-0.01,0.03-0.01c0.42-0.11,0.78-0.38,1.04-0.72c0.28-0.36,0.41-0.75,0.43-1.21
				c0.03-0.57,0.06-1.13,0.09-1.7c-1.24,0.34-2.48,0.67-3.73,1.01c0.08,0.15,0.15,0.31,0.22,0.47c-0.07-0.16-0.13-0.32-0.2-0.48
				c0.21,0.5,0.35,1.02,0.42,1.55c-0.02-0.18-0.05-0.35-0.07-0.53c0.02,0.13,0.03,0.26,0.04,0.39c0.04,0.51,0.19,1.05,0.59,1.41
				c0.33,0.3,0.7,0.49,1.15,0.55c0.43,0.06,0.9,0,1.28-0.24c0.41-0.26,0.84-0.69,0.92-1.2c0.11-0.72,0.22-1.44,0.34-2.16
				c-1.22,0.16-2.44,0.32-3.66,0.48c0.06,0.12,0.11,0.23,0.16,0.35c-0.07-0.16-0.13-0.32-0.2-0.48c0.24,0.56,0.4,1.15,0.48,1.75
				c-0.02-0.18-0.05-0.35-0.07-0.53c0.05,0.41,0.07,0.82,0.05,1.23c1.33,0,2.67,0,4,0c0-1.05,0-2.1,0-3.15
				c0-0.51-0.22-1.05-0.59-1.41c-0.35-0.35-0.92-0.61-1.41-0.59c-0.52,0.02-1.05,0.19-1.41,0.59
				C159.89,73.79,159.66,74.27,159.66,74.81L159.66,74.81z"/>
		</g>
	</g>
</g>
<g id="Layer_2" class="st2">
	<g>
		<g>
			<path class="st3" d="M25.15,28.81c0.11,0,0.23,0,0.34,0c0.28,0.01,0.53-0.05,0.77-0.17c0.25-0.08,0.46-0.22,0.64-0.41
				c0.2-0.18,0.33-0.4,0.41-0.64c0.13-0.24,0.18-0.5,0.17-0.77c-0.02-0.18-0.05-0.35-0.07-0.53c-0.1-0.34-0.27-0.63-0.51-0.88
				c-0.13-0.1-0.27-0.21-0.4-0.31c-0.31-0.18-0.65-0.27-1.01-0.27c-0.11,0-0.23,0-0.34,0c-0.28-0.01-0.53,0.05-0.77,0.17
				c-0.25,0.08-0.46,0.22-0.64,0.41c-0.2,0.18-0.33,0.4-0.41,0.64c-0.13,0.24-0.18,0.5-0.17,0.77c0.02,0.18,0.05,0.35,0.07,0.53
				c0.1,0.34,0.27,0.63,0.51,0.88c0.13,0.1,0.27,0.21,0.4,0.31C24.45,28.72,24.79,28.81,25.15,28.81L25.15,28.81z"/>
		</g>
	</g>
	<g>
		<g>
			<path class="st3" d="M40.13,47.19c2.57,0,2.58-4,0-4C37.55,43.19,37.55,47.19,40.13,47.19L40.13,47.19z"/>
		</g>
	</g>
	<g>
		<g>
			<path class="st3" d="M39.84,27.2c0.11-0.11,0.23-0.23,0.34-0.34c0.2-0.18,0.33-0.4,0.41-0.64c0.13-0.24,0.18-0.5,0.17-0.77
				c0.01-0.28-0.05-0.53-0.17-0.77c-0.08-0.25-0.22-0.46-0.41-0.64c-0.13-0.1-0.27-0.21-0.4-0.31c-0.31-0.18-0.65-0.27-1.01-0.27
				c-0.18,0.02-0.35,0.05-0.53,0.07c-0.34,0.1-0.63,0.27-0.88,0.51c-0.11,0.11-0.23,0.23-0.34,0.34c-0.2,0.18-0.33,0.4-0.41,0.64
				c-0.13,0.24-0.18,0.5-0.17,0.77c-0.01,0.28,0.05,0.53,0.17,0.77c0.08,0.25,0.22,0.46,0.41,0.64c0.13,0.1,0.27,0.21,0.4,0.31
				c0.31,0.18,0.65,0.27,1.01,0.27c0.18-0.02,0.35-0.05,0.53-0.07C39.3,27.62,39.59,27.45,39.84,27.2L39.84,27.2z"/>
		</g>
	</g>
	<g>
		<g>
			<path class="st3" d="M46.26,29.15c2.57,0,2.58-4,0-4C43.68,25.15,43.68,29.15,46.26,29.15L46.26,29.15z"/>
		</g>
	</g>
	<g>
		<g>
			<path class="st3" d="M15.22,35.27c-0.11,0.11-0.23,0.23-0.34,0.34c-0.2,0.18-0.33,0.4-0.41,0.64c-0.13,0.24-0.18,0.5-0.17,0.77
				c-0.01,0.28,0.05,0.53,0.17,0.77c0.08,0.25,0.22,0.46,0.41,0.64c0.13,0.1,0.27,0.21,0.4,0.31c0.31,0.18,0.65,0.27,1.01,0.27
				c0.18-0.02,0.35-0.05,0.53-0.07c0.34-0.1,0.63-0.27,0.88-0.51c0.11-0.11,0.23-0.23,0.34-0.34c0.2-0.18,0.33-0.4,0.41-0.64
				c0.13-0.24,0.18-0.5,0.17-0.77c0.01-0.28-0.05-0.53-0.17-0.77c-0.08-0.25-0.22-0.46-0.41-0.64c-0.13-0.1-0.27-0.21-0.4-0.31
				c-0.31-0.18-0.65-0.27-1.01-0.27c-0.18,0.02-0.35,0.05-0.53,0.07C15.77,34.85,15.47,35.02,15.22,35.27L15.22,35.27z"/>
		</g>
	</g>
	<g>
		<g>
			<path class="st3" d="M14.6,74.09c2.57,0,2.58-4,0-4C12.02,70.09,12.02,74.09,14.6,74.09L14.6,74.09z"/>
		</g>
	</g>
	<g>
		<g>
			<path class="st3" d="M19.7,89.74c2.57,0,2.58-4,0-4C17.13,85.74,17.12,89.74,19.7,89.74L19.7,89.74z"/>
		</g>
	</g>
	<g>
		<g>
			<path class="st3" d="M21.79,77.53c0,0.11,0,0.23,0,0.34c-0.01,0.28,0.05,0.53,0.17,0.77c0.08,0.25,0.22,0.46,0.41,0.64
				c0.18,0.2,0.4,0.33,0.64,0.41c0.24,0.13,0.5,0.18,0.77,0.17c0.18-0.02,0.35-0.05,0.53-0.07c0.34-0.1,0.63-0.27,0.88-0.51
				c0.1-0.13,0.21-0.27,0.31-0.4c0.18-0.31,0.27-0.65,0.27-1.01c0-0.11,0-0.23,0-0.34c0.01-0.28-0.05-0.53-0.17-0.77
				c-0.08-0.25-0.22-0.46-0.41-0.64c-0.18-0.2-0.4-0.33-0.64-0.41c-0.24-0.13-0.5-0.18-0.77-0.17c-0.18,0.02-0.35,0.05-0.53,0.07
				c-0.34,0.1-0.63,0.27-0.88,0.51c-0.1,0.13-0.21,0.27-0.31,0.4C21.88,76.83,21.79,77.17,21.79,77.53L21.79,77.53z"/>
		</g>
	</g>
	<g>
		<g>
			<path class="st3" d="M40.13,92.13c2.57,0,2.58-4,0-4C37.55,88.13,37.55,92.13,40.13,92.13L40.13,92.13z"/>
		</g>
	</g>
	<g>
		<g>
			<path class="st3" d="M42.55,69.7c0,0.23,0,0.45,0,0.68c-0.01,0.28,0.05,0.53,0.17,0.77c0.08,0.25,0.22,0.46,0.41,0.64
				c0.18,0.2,0.4,0.33,0.64,0.41c0.24,0.13,0.5,0.18,0.77,0.17c0.18-0.02,0.35-0.05,0.53-0.07c0.34-0.1,0.63-0.27,0.88-0.51
				c0.1-0.13,0.21-0.27,0.31-0.4c0.18-0.31,0.27-0.65,0.27-1.01c0-0.23,0-0.45,0-0.68c0.01-0.28-0.05-0.53-0.17-0.77
				c-0.08-0.25-0.22-0.46-0.41-0.64c-0.18-0.2-0.4-0.33-0.64-0.41c-0.24-0.13-0.5-0.18-0.77-0.17c-0.18,0.02-0.35,0.05-0.53,0.07
				c-0.34,0.1-0.63,0.27-0.88,0.51c-0.1,0.13-0.21,0.27-0.31,0.4C42.65,69,42.55,69.34,42.55,69.7L42.55,69.7z"/>
		</g>
	</g>
	<g>
		<g>
			<path class="st3" d="M174.94,32.21c2.57,0,2.58-4,0-4C172.36,28.21,172.36,32.21,174.94,32.21L174.94,32.21z"/>
		</g>
	</g>
	<g>
		<g>
			<path class="st3" d="M181.4,23.7c2.57,0,2.58-4,0-4C178.83,19.7,178.83,23.7,181.4,23.7L181.4,23.7z"/>
		</g>
	</g>
	<g>
		<g>
			<path class="st3" d="M191.62,36.38c-0.11,0-0.23,0-0.34,0c-0.28-0.01-0.53,0.05-0.77,0.17c-0.25,0.08-0.46,0.22-0.64,0.41
				c-0.2,0.18-0.33,0.4-0.41,0.64c-0.13,0.24-0.18,0.5-0.17,0.77c0.02,0.18,0.05,0.35,0.07,0.53c0.1,0.34,0.27,0.63,0.51,0.88
				c0.13,0.1,0.27,0.21,0.4,0.31c0.31,0.18,0.65,0.27,1.01,0.27c0.11,0,0.23,0,0.34,0c0.28,0.01,0.53-0.05,0.77-0.17
				c0.25-0.08,0.46-0.22,0.64-0.41c0.2-0.18,0.33-0.4,0.41-0.64c0.13-0.24,0.18-0.5,0.17-0.77c-0.02-0.18-0.05-0.35-0.07-0.53
				c-0.1-0.34-0.27-0.63-0.51-0.88c-0.13-0.1-0.27-0.21-0.4-0.31C192.31,36.48,191.98,36.38,191.62,36.38L191.62,36.38z"/>
		</g>
	</g>
	<g>
		<g>
			<path class="st3" d="M199.11,29.49c2.57,0,2.58-4,0-4C196.53,25.49,196.53,29.49,199.11,29.49L199.11,29.49z"/>
		</g>
	</g>
	<g>
		<g>
			<path class="st3" d="M161.66,44.81c2.57,0,2.58-4,0-4C159.09,40.81,159.08,44.81,161.66,44.81L161.66,44.81z"/>
		</g>
	</g>
	<g>
		<g>
			<path class="st3" d="M105.49,49.57c2.57,0,2.58-4,0-4C102.92,45.57,102.91,49.57,105.49,49.57L105.49,49.57z"/>
		</g>
	</g>
	<g>
		<g>
			<path class="st3" d="M130.68,61.83c2.57,0,2.58-4,0-4C128.11,57.83,128.1,61.83,130.68,61.83L130.68,61.83z"/>
		</g>
	</g>
	<g>
		<g>
			<path class="st3" d="M163.99,86.44c0.23,0.23,0.45,0.45,0.68,0.68c0.18,0.2,0.4,0.33,0.64,0.41c0.24,0.13,0.5,0.18,0.77,0.17
				c0.28,0.01,0.53-0.05,0.77-0.17c0.25-0.08,0.46-0.22,0.64-0.41c0.1-0.13,0.21-0.27,0.31-0.4c0.18-0.31,0.27-0.65,0.27-1.01
				c-0.02-0.18-0.05-0.35-0.07-0.53c-0.1-0.34-0.27-0.63-0.51-0.88c-0.23-0.23-0.45-0.45-0.68-0.68c-0.18-0.2-0.4-0.33-0.64-0.41
				c-0.24-0.13-0.5-0.18-0.77-0.17c-0.28-0.01-0.53,0.05-0.77,0.17c-0.25,0.08-0.46,0.22-0.64,0.41c-0.1,0.13-0.21,0.27-0.31,0.4
				c-0.18,0.31-0.27,0.65-0.27,1.01c0.02,0.18,0.05,0.35,0.07,0.53C163.57,85.89,163.74,86.19,163.99,86.44L163.99,86.44z"/>
		</g>
	</g>
	<g>
		<g>
			<path class="st3" d="M178,99.62c2.57,0,2.58-4,0-4C175.43,95.62,175.42,99.62,178,99.62L178,99.62z"/>
		</g>
	</g>
	<g>
		<g>
			<path class="st3" d="M189.23,77.49c2.57,0,2.58-4,0-4C186.66,73.49,186.66,77.49,189.23,77.49L189.23,77.49z"/>
		</g>
	</g>
	<g>
		<g>
			<path class="st3" d="M191.96,96.21c2.57,0,2.58-4,0-4C189.38,92.21,189.38,96.21,191.96,96.21L191.96,96.21z"/>
		</g>
	</g>
	<g>
		<g>
			<path class="st3" d="M179.36,90.09c2.57,0,2.58-4,0-4C176.79,86.09,176.78,90.09,179.36,90.09L179.36,90.09z"/>
		</g>
	</g>
	<g>
		<g>
			<path class="st3" d="M201.15,93.15c2.57,0,2.58-4,0-4C198.58,89.15,198.57,93.15,201.15,93.15L201.15,93.15z"/>
		</g>
	</g>
	<g>
		<g>
			<path class="st3" d="M204.89,78.85c2.57,0,2.58-4,0-4C202.32,74.85,202.32,78.85,204.89,78.85L204.89,78.85z"/>
		</g>
	</g>
	<g>
		<g>
			<path class="st3" d="M68.04,71.02c2.57,0,2.58-4,0-4C65.47,67.02,65.46,71.02,68.04,71.02L68.04,71.02z"/>
		</g>
	</g>
	<g>
		<g>
			<path class="st3" d="M16.3,62.17c2.57,0,2.58-4,0-4C13.72,58.17,13.72,62.17,16.3,62.17L16.3,62.17z"/>
		</g>
	</g>
	<g>
		<g>
			<path class="st4" d="M17.32,48.55c2.57,0,2.58-4,0-4C14.75,44.55,14.74,48.55,17.32,48.55L17.32,48.55z"/>
		</g>
	</g>
	<g>
		<g>
			<path class="st4" d="M14.94,32.55c2.57,0,2.58-4,0-4C12.36,28.55,12.36,32.55,14.94,32.55L14.94,32.55z"/>
		</g>
	</g>
	<g>
		<g>
			<path class="st4" d="M25.15,41.06c2.57,0,2.58-4,0-4C22.58,37.06,22.57,41.06,25.15,41.06L25.15,41.06z"/>
		</g>
	</g>
	<g>
		<g>
			<path class="st4" d="M27.19,21.32c2.57,0,2.58-4,0-4C24.62,17.32,24.61,21.32,27.19,21.32L27.19,21.32z"/>
		</g>
	</g>
	<g>
		<g>
			<path class="st4" d="M41.49,17.57c0.11,0,0.23,0,0.34,0c0.28,0.01,0.53-0.05,0.77-0.17c0.25-0.08,0.46-0.22,0.64-0.41
				c0.2-0.18,0.33-0.4,0.41-0.64c0.13-0.24,0.18-0.5,0.17-0.77c-0.02-0.18-0.05-0.35-0.07-0.53c-0.1-0.34-0.27-0.63-0.51-0.88
				c-0.13-0.1-0.27-0.21-0.4-0.31c-0.31-0.18-0.65-0.27-1.01-0.27c-0.11,0-0.23,0-0.34,0c-0.28-0.01-0.53,0.05-0.77,0.17
				c-0.25,0.08-0.46,0.22-0.64,0.41c-0.2,0.18-0.33,0.4-0.41,0.64c-0.13,0.24-0.18,0.5-0.17,0.77c0.02,0.18,0.05,0.35,0.07,0.53
				c0.1,0.34,0.27,0.63,0.51,0.88c0.13,0.1,0.27,0.21,0.4,0.31C40.79,17.48,41.13,17.57,41.49,17.57L41.49,17.57z"/>
		</g>
	</g>
	<g>
		<g>
			<path class="st4" d="M49.7,22.38c0,0.11,0,0.23,0,0.34c-0.01,0.28,0.05,0.53,0.17,0.77c0.08,0.25,0.22,0.46,0.41,0.64
				c0.18,0.2,0.4,0.33,0.64,0.41c0.24,0.13,0.5,0.18,0.77,0.17c0.18-0.02,0.35-0.05,0.53-0.07c0.34-0.1,0.63-0.27,0.88-0.51
				c0.1-0.13,0.21-0.27,0.31-0.4c0.18-0.31,0.27-0.65,0.27-1.01c0-0.11,0-0.23,0-0.34c0.01-0.28-0.05-0.53-0.17-0.77
				c-0.08-0.25-0.22-0.46-0.41-0.64c-0.18-0.2-0.4-0.33-0.64-0.41c-0.24-0.13-0.5-0.18-0.77-0.17c-0.18,0.02-0.35,0.05-0.53,0.07
				c-0.34,0.1-0.63,0.27-0.88,0.51c-0.1,0.13-0.21,0.27-0.31,0.4C49.79,21.69,49.7,22.02,49.7,22.38L49.7,22.38z"/>
		</g>
	</g>
	<g>
		<g>
			<path class="st4" d="M12.21,82.94c2.57,0,2.58-4,0-4C9.64,78.94,9.63,82.94,12.21,82.94L12.21,82.94z"/>
		</g>
	</g>
	<g>
		<g>
			<path class="st4" d="M24.85,89.11c0,0.11,0,0.23,0,0.34c-0.01,0.28,0.05,0.53,0.17,0.77c0.08,0.25,0.22,0.46,0.41,0.64
				c0.18,0.2,0.4,0.33,0.64,0.41c0.24,0.13,0.5,0.18,0.77,0.17c0.18-0.02,0.35-0.05,0.53-0.07c0.34-0.1,0.63-0.27,0.88-0.51
				c0.1-0.13,0.21-0.27,0.31-0.4c0.18-0.31,0.27-0.65,0.27-1.01c0-0.11,0-0.23,0-0.34c0.01-0.28-0.05-0.53-0.17-0.77
				c-0.08-0.25-0.22-0.46-0.41-0.64c-0.18-0.2-0.4-0.33-0.64-0.41c-0.24-0.13-0.5-0.18-0.77-0.17c-0.18,0.02-0.35,0.05-0.53,0.07
				c-0.34,0.1-0.63,0.27-0.88,0.51c-0.1,0.13-0.21,0.27-0.31,0.4C24.94,88.41,24.85,88.75,24.85,89.11L24.85,89.11z"/>
		</g>
	</g>
	<g>
		<g>
			<path class="st4" d="M16.64,80.55c2.57,0,2.58-4,0-4C14.06,76.55,14.06,80.55,16.64,80.55L16.64,80.55z"/>
		</g>
	</g>
	<g>
		<g>
			<path class="st4" d="M20.38,96.89c0.45,0,0.91,0,1.36,0c0.28,0.01,0.53-0.05,0.77-0.17c0.25-0.08,0.46-0.22,0.64-0.41
				c0.2-0.18,0.33-0.4,0.41-0.64c0.13-0.24,0.18-0.5,0.17-0.77c-0.02-0.18-0.05-0.35-0.07-0.53c-0.1-0.34-0.27-0.63-0.51-0.88
				c-0.13-0.1-0.27-0.21-0.4-0.31c-0.31-0.18-0.65-0.27-1.01-0.27c-0.45,0-0.91,0-1.36,0c-0.28-0.01-0.53,0.05-0.77,0.17
				c-0.25,0.08-0.46,0.22-0.64,0.41c-0.2,0.18-0.33,0.4-0.41,0.64c-0.13,0.24-0.18,0.5-0.17,0.77c0.02,0.18,0.05,0.35,0.07,0.53
				c0.1,0.34,0.27,0.63,0.51,0.88c0.13,0.1,0.27,0.21,0.4,0.31C19.69,96.8,20.02,96.89,20.38,96.89L20.38,96.89z"/>
		</g>
	</g>
	<g>
		<g>
			<path class="st4" d="M31.32,95.91c0,0.07,0,0.14,0,0.21c0,2.57,4,2.58,4,0c0-0.07,0-0.14,0-0.21
				C35.32,93.34,31.32,93.34,31.32,95.91c0,0.07,0,0.14,0,0.21c0,2.57,4,2.58,4,0c0-0.07,0-0.14,0-0.21
				C35.32,93.34,31.32,93.34,31.32,95.91L31.32,95.91z"/>
		</g>
	</g>
	<g>
		<g>
			<path class="st4" d="M32.95,81.95c0.11,0.23,0.23,0.45,0.34,0.68c0.13,0.23,0.3,0.42,0.52,0.56c0.19,0.18,0.42,0.3,0.68,0.36
				c0.27,0.08,0.53,0.1,0.8,0.04c0.27-0.01,0.51-0.09,0.74-0.24c0.13-0.1,0.27-0.21,0.4-0.31c0.25-0.25,0.42-0.54,0.51-0.88
				c0.02-0.18,0.05-0.35,0.07-0.53c0-0.36-0.09-0.7-0.27-1.01c-0.11-0.23-0.23-0.45-0.34-0.68c-0.13-0.23-0.3-0.42-0.52-0.56
				c-0.19-0.18-0.42-0.3-0.68-0.36c-0.27-0.08-0.53-0.1-0.8-0.04c-0.27,0.01-0.51,0.09-0.74,0.24c-0.13,0.1-0.27,0.21-0.4,0.31
				c-0.25,0.25-0.42,0.54-0.51,0.88c-0.02,0.18-0.05,0.35-0.07,0.53C32.68,81.3,32.77,81.63,32.95,81.95L32.95,81.95z"/>
		</g>
	</g>
	<g>
		<g>
			<path class="st4" d="M51.02,95.19c2.57,0,2.58-4,0-4C48.45,91.19,48.44,95.19,51.02,95.19L51.02,95.19z"/>
		</g>
	</g>
	<g>
		<g>
			<path class="st4" d="M51.99,80.2c-0.11,0.11-0.23,0.23-0.34,0.34c-0.2,0.18-0.33,0.4-0.41,0.64c-0.13,0.24-0.18,0.5-0.17,0.77
				c-0.01,0.28,0.05,0.53,0.17,0.77c0.08,0.25,0.22,0.46,0.41,0.64c0.13,0.1,0.27,0.21,0.4,0.31c0.31,0.18,0.65,0.27,1.01,0.27
				c0.18-0.02,0.35-0.05,0.53-0.07c0.34-0.1,0.63-0.27,0.88-0.51c0.11-0.11,0.23-0.23,0.34-0.34c0.2-0.18,0.33-0.4,0.41-0.64
				c0.13-0.24,0.18-0.5,0.17-0.77c0.01-0.28-0.05-0.53-0.17-0.77c-0.08-0.25-0.22-0.46-0.41-0.64c-0.13-0.1-0.27-0.21-0.4-0.31
				c-0.31-0.18-0.65-0.27-1.01-0.27c-0.18,0.02-0.35,0.05-0.53,0.07C52.53,79.78,52.24,79.95,51.99,80.2L51.99,80.2z"/>
		</g>
	</g>
	<g>
		<g>
			<path class="st4" d="M59.48,71.35c-0.11,0.11-0.23,0.23-0.34,0.34c-0.2,0.18-0.33,0.4-0.41,0.64c-0.13,0.24-0.18,0.5-0.17,0.77
				c-0.01,0.28,0.05,0.53,0.17,0.77c0.08,0.25,0.22,0.46,0.41,0.64c0.13,0.1,0.27,0.21,0.4,0.31c0.31,0.18,0.65,0.27,1.01,0.27
				c0.18-0.02,0.35-0.05,0.53-0.07c0.34-0.1,0.63-0.27,0.88-0.51c0.11-0.11,0.23-0.23,0.34-0.34c0.2-0.18,0.33-0.4,0.41-0.64
				c0.13-0.24,0.18-0.5,0.17-0.77c0.01-0.28-0.05-0.53-0.17-0.77c-0.08-0.25-0.22-0.46-0.41-0.64c-0.13-0.1-0.27-0.21-0.4-0.31
				c-0.31-0.18-0.65-0.27-1.01-0.27c-0.18,0.02-0.35,0.05-0.53,0.07C60.02,70.93,59.73,71.1,59.48,71.35L59.48,71.35z"/>
		</g>
	</g>
	<g>
		<g>
			<path class="st4" d="M33.66,68.98c2.57,0,2.58-4,0-4C31.09,64.98,31.08,68.98,33.66,68.98L33.66,68.98z"/>
		</g>
	</g>
	<g>
		<g>
			<path class="st4" d="M26.5,59.85c0.23-0.11,0.45-0.23,0.68-0.34c0.23-0.13,0.42-0.3,0.56-0.52c0.18-0.19,0.3-0.42,0.36-0.68
				c0.08-0.27,0.1-0.53,0.04-0.8c-0.01-0.27-0.09-0.51-0.24-0.74c-0.1-0.13-0.21-0.27-0.31-0.4c-0.25-0.25-0.54-0.42-0.88-0.51
				c-0.18-0.02-0.35-0.05-0.53-0.07c-0.36,0-0.7,0.09-1.01,0.27c-0.23,0.11-0.45,0.23-0.68,0.34c-0.23,0.13-0.42,0.3-0.56,0.52
				c-0.18,0.19-0.3,0.42-0.36,0.68c-0.08,0.27-0.1,0.53-0.04,0.8c0.01,0.27,0.09,0.51,0.24,0.74c0.1,0.13,0.21,0.27,0.31,0.4
				c0.25,0.25,0.54,0.42,0.88,0.51c0.18,0.02,0.35,0.05,0.53,0.07C25.85,60.13,26.19,60.04,26.5,59.85L26.5,59.85z"/>
		</g>
	</g>
	<g>
		<g>
			<path class="st4" d="M49.32,39.79c-0.11,0-0.23,0-0.34,0c-0.28-0.01-0.53,0.05-0.77,0.17c-0.25,0.08-0.46,0.22-0.64,0.41
				c-0.2,0.18-0.33,0.4-0.41,0.64c-0.13,0.24-0.18,0.5-0.17,0.77c0.02,0.18,0.05,0.35,0.07,0.53c0.1,0.34,0.27,0.63,0.51,0.88
				c0.13,0.1,0.27,0.21,0.4,0.31c0.31,0.18,0.65,0.27,1.01,0.27c0.11,0,0.23,0,0.34,0c0.28,0.01,0.53-0.05,0.77-0.17
				c0.25-0.08,0.46-0.22,0.64-0.41c0.2-0.18,0.33-0.4,0.41-0.64c0.13-0.24,0.18-0.5,0.17-0.77c-0.02-0.18-0.05-0.35-0.07-0.53
				c-0.1-0.34-0.27-0.63-0.51-0.88c-0.13-0.1-0.27-0.21-0.4-0.31C50.02,39.88,49.68,39.79,49.32,39.79L49.32,39.79z"/>
		</g>
	</g>
	<g>
		<g>
			<path class="st4" d="M29.27,43.58c0.34-0.23,0.67-0.47,1.01-0.7c0.23-0.13,0.42-0.3,0.56-0.52c0.18-0.19,0.3-0.42,0.36-0.68
				c0.08-0.27,0.1-0.53,0.04-0.8c-0.01-0.27-0.09-0.51-0.24-0.74c-0.1-0.13-0.21-0.27-0.31-0.4c-0.25-0.25-0.54-0.42-0.88-0.51
				c-0.18-0.02-0.35-0.05-0.53-0.07c-0.36,0-0.7,0.09-1.01,0.27c-0.34,0.23-0.67,0.47-1.01,0.7c-0.23,0.13-0.42,0.3-0.56,0.52
				c-0.18,0.19-0.3,0.42-0.36,0.68c-0.08,0.27-0.1,0.53-0.04,0.8c0.01,0.27,0.09,0.51,0.24,0.74c0.1,0.13,0.21,0.27,0.31,0.4
				c0.25,0.25,0.54,0.42,0.88,0.51c0.18,0.02,0.35,0.05,0.53,0.07C28.62,43.85,28.95,43.76,29.27,43.58L29.27,43.58z"/>
		</g>
	</g>
	<g>
		<g>
			<path class="st4" d="M33.32,33.91c2.57,0,2.58-4,0-4C30.75,29.91,30.74,33.91,33.32,33.91L33.32,33.91z"/>
		</g>
	</g>
	<g>
		<g>
			<path class="st4" d="M180.68,47.23c0-0.11,0-0.23,0-0.34c0.01-0.28-0.05-0.53-0.17-0.77c-0.08-0.25-0.22-0.46-0.41-0.64
				c-0.18-0.2-0.4-0.33-0.64-0.41c-0.24-0.13-0.5-0.18-0.77-0.17c-0.18,0.02-0.35,0.05-0.53,0.07c-0.34,0.1-0.63,0.27-0.88,0.51
				c-0.1,0.13-0.21,0.27-0.31,0.4c-0.18,0.31-0.27,0.65-0.27,1.01c0,0.11,0,0.23,0,0.34c-0.01,0.28,0.05,0.53,0.17,0.77
				c0.08,0.25,0.22,0.46,0.41,0.64c0.18,0.2,0.4,0.33,0.64,0.41c0.24,0.13,0.5,0.18,0.77,0.17c0.18-0.02,0.35-0.05,0.53-0.07
				c0.34-0.1,0.63-0.27,0.88-0.51c0.1-0.13,0.21-0.27,0.31-0.4C180.59,47.93,180.68,47.6,180.68,47.23L180.68,47.23z"/>
		</g>
	</g>
	<g>
		<g>
			<path class="st4" d="M166.43,30.85c0.23,0,0.45,0,0.68,0c0.28,0.01,0.53-0.05,0.77-0.17c0.25-0.08,0.46-0.22,0.64-0.41
				c0.2-0.18,0.33-0.4,0.41-0.64c0.13-0.24,0.18-0.5,0.17-0.77c-0.02-0.18-0.05-0.35-0.07-0.53c-0.1-0.34-0.27-0.63-0.51-0.88
				c-0.13-0.1-0.27-0.21-0.4-0.31c-0.31-0.18-0.65-0.27-1.01-0.27c-0.23,0-0.45,0-0.68,0c-0.28-0.01-0.53,0.05-0.77,0.17
				c-0.25,0.08-0.46,0.22-0.64,0.41c-0.2,0.18-0.33,0.4-0.41,0.64c-0.13,0.24-0.18,0.5-0.17,0.77c0.02,0.18,0.05,0.35,0.07,0.53
				c0.1,0.34,0.27,0.63,0.51,0.88c0.13,0.1,0.27,0.21,0.4,0.31C165.73,30.76,166.06,30.85,166.43,30.85L166.43,30.85z"/>
		</g>
	</g>
	<g>
		<g>
			<path class="st4" d="M186.47,32.94c0-0.11,0-0.23,0-0.34c0.01-0.28-0.05-0.53-0.17-0.77c-0.08-0.25-0.22-0.46-0.41-0.64
				c-0.18-0.2-0.4-0.33-0.64-0.41c-0.24-0.13-0.5-0.18-0.77-0.17c-0.18,0.02-0.35,0.05-0.53,0.07c-0.34,0.1-0.63,0.27-0.88,0.51
				c-0.1,0.13-0.21,0.27-0.31,0.4c-0.18,0.31-0.27,0.65-0.27,1.01c0,0.11,0,0.23,0,0.34c-0.01,0.28,0.05,0.53,0.17,0.77
				c0.08,0.25,0.22,0.46,0.41,0.64c0.18,0.2,0.4,0.33,0.64,0.41c0.24,0.13,0.5,0.18,0.77,0.17c0.18-0.02,0.35-0.05,0.53-0.07
				c0.34-0.1,0.63-0.27,0.88-0.51c0.1-0.13,0.21-0.27,0.31-0.4C186.38,33.63,186.47,33.3,186.47,32.94L186.47,32.94z"/>
		</g>
	</g>
	<g>
		<g>
			<path class="st4" d="M191.28,22c2.57,0,2.58-4,0-4C188.7,18,188.7,22,191.28,22L191.28,22z"/>
		</g>
	</g>
	<g>
		<g>
			<path class="st4" d="M204.21,35.02c-0.11,0-0.23,0-0.34,0c-0.28-0.01-0.53,0.05-0.77,0.17c-0.25,0.08-0.46,0.22-0.64,0.41
				c-0.2,0.18-0.33,0.4-0.41,0.64c-0.13,0.24-0.18,0.5-0.17,0.77c0.02,0.18,0.05,0.35,0.07,0.53c0.1,0.34,0.27,0.63,0.51,0.88
				c0.13,0.1,0.27,0.21,0.4,0.31c0.31,0.18,0.65,0.27,1.01,0.27c0.11,0,0.23,0,0.34,0c0.28,0.01,0.53-0.05,0.77-0.17
				c0.25-0.08,0.46-0.22,0.64-0.41c0.2-0.18,0.33-0.4,0.41-0.64c0.13-0.24,0.18-0.5,0.17-0.77c-0.02-0.18-0.05-0.35-0.07-0.53
				c-0.1-0.34-0.27-0.63-0.51-0.88c-0.13-0.1-0.27-0.21-0.4-0.31C204.91,35.11,204.57,35.02,204.21,35.02L204.21,35.02z"/>
		</g>
	</g>
	<g>
		<g>
			<path class="st4" d="M191.62,50.26c0.11,0,0.23,0,0.34,0c0.28,0.01,0.53-0.05,0.77-0.17c0.25-0.08,0.46-0.22,0.64-0.41
				c0.2-0.18,0.33-0.4,0.41-0.64c0.13-0.24,0.18-0.5,0.17-0.77c-0.02-0.18-0.05-0.35-0.07-0.53c-0.1-0.34-0.27-0.63-0.51-0.88
				c-0.13-0.1-0.27-0.21-0.4-0.31c-0.31-0.18-0.65-0.27-1.01-0.27c-0.11,0-0.23,0-0.34,0c-0.28-0.01-0.53,0.05-0.77,0.17
				c-0.25,0.08-0.46,0.22-0.64,0.41c-0.2,0.18-0.33,0.4-0.41,0.64c-0.13,0.24-0.18,0.5-0.17,0.77c0.02,0.18,0.05,0.35,0.07,0.53
				c0.1,0.34,0.27,0.63,0.51,0.88c0.13,0.1,0.27,0.21,0.4,0.31C190.92,50.16,191.26,50.25,191.62,50.26L191.62,50.26z"/>
		</g>
	</g>
	<g>
		<g>
			<path class="st4" d="M205.28,47.91c0,0.11,0,0.23,0,0.34c-0.01,0.28,0.05,0.53,0.17,0.77c0.08,0.25,0.22,0.46,0.41,0.64
				c0.18,0.2,0.4,0.33,0.64,0.41c0.24,0.13,0.5,0.18,0.77,0.17c0.18-0.02,0.35-0.05,0.53-0.07c0.34-0.1,0.63-0.27,0.88-0.51
				c0.1-0.13,0.21-0.27,0.31-0.4c0.18-0.31,0.27-0.65,0.27-1.01c0-0.11,0-0.23,0-0.34c0.01-0.28-0.05-0.53-0.17-0.77
				c-0.08-0.25-0.22-0.46-0.41-0.64c-0.18-0.2-0.4-0.33-0.64-0.41c-0.24-0.13-0.5-0.18-0.77-0.17c-0.18,0.02-0.35,0.05-0.53,0.07
				c-0.34,0.1-0.63,0.27-0.88,0.51c-0.1,0.13-0.21,0.27-0.31,0.4C205.37,47.22,205.28,47.55,205.28,47.91L205.28,47.91z"/>
		</g>
	</g>
	<g>
		<g>
			<path class="st4" d="M199.11,64.21c2.57,0,2.58-4,0-4C196.53,60.21,196.53,64.21,199.11,64.21L199.11,64.21z"/>
		</g>
	</g>
	<g>
		<g>
			<path class="st4" d="M207.96,70.68c2.57,0,2.58-4,0-4C205.38,66.68,205.38,70.68,207.96,70.68L207.96,70.68z"/>
		</g>
	</g>
	<g>
		<g>
			<path class="st4" d="M196.72,77.49c2.57,0,2.58-4,0-4C194.15,73.49,194.15,77.49,196.72,77.49L196.72,77.49z"/>
		</g>
	</g>
	<g>
		<g>
			<path class="st4" d="M187.91,87.4c0,0.11,0,0.23,0,0.34c-0.01,0.28,0.05,0.53,0.17,0.77c0.08,0.25,0.22,0.46,0.41,0.64
				c0.18,0.2,0.4,0.33,0.64,0.41c0.24,0.13,0.5,0.18,0.77,0.17c0.18-0.02,0.35-0.05,0.53-0.07c0.34-0.1,0.63-0.27,0.88-0.51
				c0.1-0.13,0.21-0.27,0.31-0.4c0.18-0.31,0.27-0.65,0.27-1.01c0-0.11,0-0.23,0-0.34c0.01-0.28-0.05-0.53-0.17-0.77
				c-0.08-0.25-0.22-0.46-0.41-0.64c-0.18-0.2-0.4-0.33-0.64-0.41c-0.24-0.13-0.5-0.18-0.77-0.17c-0.18,0.02-0.35,0.05-0.53,0.07
				c-0.34,0.1-0.63,0.27-0.88,0.51c-0.1,0.13-0.21,0.27-0.31,0.4C188.01,86.71,187.92,87.04,187.91,87.4L187.91,87.4z"/>
		</g>
	</g>
	<g>
		<g>
			<path class="st4" d="M174.98,71.4c0,0.34,0,0.68,0,1.02c-0.01,0.28,0.05,0.53,0.17,0.77c0.08,0.25,0.22,0.46,0.41,0.64
				c0.18,0.2,0.4,0.33,0.64,0.41c0.24,0.13,0.5,0.18,0.77,0.17c0.18-0.02,0.35-0.05,0.53-0.07c0.34-0.1,0.63-0.27,0.88-0.51
				c0.1-0.13,0.21-0.27,0.31-0.4c0.18-0.31,0.27-0.65,0.27-1.01c0-0.34,0-0.68,0-1.02c0.01-0.28-0.05-0.53-0.17-0.77
				c-0.08-0.25-0.22-0.46-0.41-0.64c-0.18-0.2-0.4-0.33-0.64-0.41c-0.24-0.13-0.5-0.18-0.77-0.17c-0.18,0.02-0.35,0.05-0.53,0.07
				c-0.34,0.1-0.63,0.27-0.88,0.51c-0.1,0.13-0.21,0.27-0.31,0.4C175.07,70.71,174.98,71.04,174.98,71.4L174.98,71.4z"/>
		</g>
	</g>
	<g>
		<g>
			<path class="st4" d="M160.3,78.51c2.57,0,2.58-4,0-4C157.72,74.51,157.72,78.51,160.3,78.51L160.3,78.51z"/>
		</g>
	</g>
	<g>
		<g>
			<path class="st4" d="M183.06,66.3c0-0.11,0-0.23,0-0.34c0.01-0.28-0.05-0.53-0.17-0.77c-0.08-0.25-0.22-0.46-0.41-0.64
				c-0.18-0.2-0.4-0.33-0.64-0.41c-0.24-0.13-0.5-0.18-0.77-0.17c-0.18,0.02-0.35,0.05-0.53,0.07c-0.34,0.1-0.63,0.27-0.88,0.51
				c-0.1,0.13-0.21,0.27-0.31,0.4c-0.18,0.31-0.27,0.65-0.27,1.01c0,0.11,0,0.23,0,0.34c-0.01,0.28,0.05,0.53,0.17,0.77
				c0.08,0.25,0.22,0.46,0.41,0.64c0.18,0.2,0.4,0.33,0.64,0.41c0.24,0.13,0.5,0.18,0.77,0.17c0.18-0.02,0.35-0.05,0.53-0.07
				c0.34-0.1,0.63-0.27,0.88-0.51c0.1-0.13,0.21-0.27,0.31-0.4C182.97,67,183.06,66.66,183.06,66.3L183.06,66.3z"/>
		</g>
	</g>
	<g>
		<g>
			<path class="st4" d="M185.49,97.32c-0.23,0-0.45,0-0.68,0c-0.28-0.01-0.53,0.05-0.77,0.17c-0.25,0.08-0.46,0.22-0.64,0.41
				c-0.2,0.18-0.33,0.4-0.41,0.64c-0.13,0.24-0.18,0.5-0.17,0.77c0.02,0.18,0.05,0.35,0.07,0.53c0.1,0.34,0.27,0.63,0.51,0.88
				c0.13,0.1,0.27,0.21,0.4,0.31c0.31,0.18,0.65,0.27,1.01,0.27c0.23,0,0.45,0,0.68,0c0.28,0.01,0.53-0.05,0.77-0.17
				c0.25-0.08,0.46-0.22,0.64-0.41c0.2-0.18,0.33-0.4,0.41-0.64c0.13-0.24,0.18-0.5,0.17-0.77c-0.02-0.18-0.05-0.35-0.07-0.53
				c-0.1-0.34-0.27-0.63-0.51-0.88c-0.13-0.1-0.27-0.21-0.4-0.31C186.19,97.41,185.85,97.32,185.49,97.32L185.49,97.32z"/>
		</g>
	</g>
	<g>
		<g>
			<path class="st4" d="M168.47,92.47c2.57,0,2.58-4,0-4C165.89,88.47,165.89,92.47,168.47,92.47L168.47,92.47z"/>
		</g>
	</g>
	<g>
		<g>
			<path class="st4" d="M107.92,62.95c0.11-0.11,0.23-0.23,0.34-0.34c0.2-0.18,0.33-0.4,0.41-0.64c0.13-0.24,0.18-0.5,0.17-0.77
				c0.01-0.28-0.05-0.53-0.17-0.77c-0.08-0.25-0.22-0.46-0.41-0.64c-0.13-0.1-0.27-0.21-0.4-0.31c-0.31-0.18-0.65-0.27-1.01-0.27
				c-0.18,0.02-0.35,0.05-0.53,0.07c-0.34,0.1-0.63,0.27-0.88,0.51c-0.11,0.11-0.23,0.23-0.34,0.34c-0.2,0.18-0.33,0.4-0.41,0.64
				c-0.13,0.24-0.18,0.5-0.17,0.77c-0.01,0.28,0.05,0.53,0.17,0.77c0.08,0.25,0.22,0.46,0.41,0.64c0.13,0.1,0.27,0.21,0.4,0.31
				c0.31,0.18,0.65,0.27,1.01,0.27c0.18-0.02,0.35-0.05,0.53-0.07C107.38,63.37,107.68,63.19,107.92,62.95L107.92,62.95z"/>
		</g>
	</g>
	<g>
		<g>
			<path class="st4" d="M132.77,45.87c0,0.11,0,0.23,0,0.34c-0.01,0.28,0.05,0.53,0.17,0.77c0.08,0.25,0.22,0.46,0.41,0.64
				c0.18,0.2,0.4,0.33,0.64,0.41c0.24,0.13,0.5,0.18,0.77,0.17c0.18-0.02,0.35-0.05,0.53-0.07c0.34-0.1,0.63-0.27,0.88-0.51
				c0.1-0.13,0.21-0.27,0.31-0.4c0.18-0.31,0.27-0.65,0.27-1.01c0-0.11,0-0.23,0-0.34c0.01-0.28-0.05-0.53-0.17-0.77
				c-0.08-0.25-0.22-0.46-0.41-0.64c-0.18-0.2-0.4-0.33-0.64-0.41c-0.24-0.13-0.5-0.18-0.77-0.17c-0.18,0.02-0.35,0.05-0.53,0.07
				c-0.34,0.1-0.63,0.27-0.88,0.51c-0.1,0.13-0.21,0.27-0.31,0.4C132.86,45.17,132.77,45.51,132.77,45.87L132.77,45.87z"/>
		</g>
	</g>
	<g>
		<g>
			<path class="st4" d="M142.88,63.18c-0.11,0.11-0.23,0.23-0.34,0.34c-0.2,0.18-0.33,0.4-0.41,0.64c-0.13,0.24-0.18,0.5-0.17,0.77
				c-0.01,0.28,0.05,0.53,0.17,0.77c0.08,0.25,0.22,0.46,0.41,0.64c0.13,0.1,0.27,0.21,0.4,0.31c0.31,0.18,0.65,0.27,1.01,0.27
				c0.18-0.02,0.35-0.05,0.53-0.07c0.34-0.1,0.63-0.27,0.88-0.51c0.11-0.11,0.23-0.23,0.34-0.34c0.2-0.18,0.33-0.4,0.41-0.64
				c0.13-0.24,0.18-0.5,0.17-0.77c0.01-0.28-0.05-0.53-0.17-0.77c-0.08-0.25-0.22-0.46-0.41-0.64c-0.13-0.1-0.27-0.21-0.4-0.31
				c-0.31-0.18-0.65-0.27-1.01-0.27c-0.18,0.02-0.35,0.05-0.53,0.07C143.43,62.76,143.13,62.93,142.88,63.18L142.88,63.18z"/>
		</g>
	</g>
	<g>
		<g>
			<path class="st4" d="M61.23,45.23c-0.11,0-0.23,0-0.34,0c-0.28-0.01-0.53,0.05-0.77,0.17c-0.25,0.08-0.46,0.22-0.64,0.41
				c-0.2,0.18-0.33,0.4-0.41,0.64c-0.13,0.24-0.18,0.5-0.17,0.77c0.02,0.18,0.05,0.35,0.07,0.53c0.1,0.34,0.27,0.63,0.51,0.88
				c0.13,0.1,0.27,0.21,0.4,0.31c0.31,0.18,0.65,0.27,1.01,0.27c0.11,0,0.23,0,0.34,0c0.28,0.01,0.53-0.05,0.77-0.17
				c0.25-0.08,0.46-0.22,0.64-0.41c0.2-0.18,0.33-0.4,0.41-0.64c0.13-0.24,0.18-0.5,0.17-0.77c-0.02-0.18-0.05-0.35-0.07-0.53
				c-0.1-0.34-0.27-0.63-0.51-0.88c-0.13-0.1-0.27-0.21-0.4-0.31C61.93,45.33,61.6,45.24,61.23,45.23L61.23,45.23z"/>
		</g>
	</g>
	<g>
		<g>
			<path class="st4" d="M96.64,63.87c2.57,0,2.58-4,0-4C94.06,59.87,94.06,63.87,96.64,63.87L96.64,63.87z"/>
		</g>
	</g>
	<g>
		<g>
			<path class="st4" d="M78.94,47.87c2.57,0,2.58-4,0-4C76.36,43.87,76.36,47.87,78.94,47.87L78.94,47.87z"/>
		</g>
	</g>
</g>
</svg>
