<?xml version="1.0" encoding="utf-8"?>
<!-- Generator: Adobe Illustrator 24.1.2, SVG Export Plug-In . SVG Version: 6.00 Build 0)  -->
<svg version="1.1" xmlns="http://www.w3.org/2000/svg" xmlns:xlink="http://www.w3.org/1999/xlink" x="0px" y="0px"
	 viewBox="0 0 228 189" style="enable-background:new 0 0 228 189;" xml:space="preserve">
<style type="text/css">
	.st0{fill:#467DAF;}
	.st1{fill:#004E98;}
	.st2{fill:#FF6700;}
	.st3{fill:#933B00;}
</style>
<g id="Layer_4">
	<g>
		<g>
			<path class="st0" d="M20.04,150.36c13.19-6.13,18.91-20.98,19.34-34.76c0.28-9.11-1.44-18.23-3.29-27.11
				c-2.03-9.72-3.56-19.43-4.08-29.36c-0.48-9.08-0.56-18.48,0.7-27.51c0.46-3.31,1.2-6.76,2.8-9.72c0.19-0.36,3.05-3.61,3.02-3.86
				c-0.91-0.21-1.82-0.42-2.72-0.63c-0.1,0.32-0.2,0.64-0.3,0.96c-0.74,0.7-1.18,2.6-1.62,3.51c-7.43,15.56-10.1,32.65-9.87,49.79
				c0.23,17.21,2.64,35.04,6.31,51.85c1.65,7.55,7.54,13.03,15.59,10.28c6.7-2.29,11.99-8.41,14.83-14.7
				c7.31-16.17,1.02-33.86,0.51-50.7c-0.24-8.07,0.23-16.18,2.04-24.06c0.82-3.59,1.87-7.16,3.26-10.58c0.8-1.95,1.74-3.85,2.76-5.7
				c0.91-1.64,2.92-3.64,3.36-5.37c0.16-0.21,0.32-0.42,0.49-0.63c1.08-1.02,0.44-1.39-1.93-1.11c-0.18,0.09-0.89,2.19-1.04,2.48
				c-1.14,2.15-2.58,4.15-3.76,6.28c-2.33,4.22-4.29,8.65-5.95,13.17c-3.38,9.15-5.22,18.82-6.09,28.52
				c-1.91,21.19,1.81,42.5,6.58,63.08c1.8,7.78,13.79,4.49,11.98-3.3c-4.5-19.31-7.91-39.03-6.29-58.92
				c0.72-8.9,2.6-17.73,5.68-26.11c1.5-4.07,3.37-7.99,5.54-11.74c2.22-3.83,4.93-7.46,5.4-12c0.79-7.57-5.86-15.16-13.75-12.46
				c-7.06,2.42-11.28,12.83-13.85,19.17c-6.25,15.41-6.93,32.58-5.18,48.94c1.04,9.71,3.62,19.99,1.77,29.74
				c-0.65,3.45-1.9,6.86-3.95,9.73c-0.89,1.24-1.94,2.47-3.17,3.38c-0.16,0.12-1.93,1.43-2.39,1.37c0.4,0.06,0.27,0.15-0.17-0.89
				c-1.47-3.48-1.53-8.38-2.14-12.1c-0.76-4.66-1.49-9.34-2.08-14.03c-1.16-9.26-1.9-18.6-1.79-27.94
				c0.1-8.87,1.04-17.67,3.35-26.25c1.12-4.16,2.52-8.25,4.31-12.17c1.73-3.78,4.05-7.56,3.92-11.88
				c-0.25-8.2-8.78-14.08-16.12-9.45c-6.43,4.06-9.66,12.2-10.9,19.36c-3.64,20.95-1.17,43.2,3.23,63.82
				c3.66,17.13,9.6,41.02-8.4,52.58C11.48,146.2,15.35,152.54,20.04,150.36L20.04,150.36z"/>
		</g>
	</g>
	<g>
		<g>
			<path class="st0" d="M16.86,145.35c-5,0.8-7.59,5.75-9.23,10.08c-1.76,4.65,5.44,8.99,8.57,4.99c1.35-1.73,2.71-3.47,4.06-5.2
				c3.41-4.36-0.77-11.19-6.25-8.1c-10.93,6.17-8.41,23.61,4.75,24.77c3.09,0.27,5.88-0.63,8.8-1.51c3.43-1.03,6.44-0.86,9.82,0.32
				c6.59,2.3,12.33,6.65,18.84,9.22c13.42,5.31,28.59,4.95,41.92-0.39c6.57-2.63,12.81-6.11,19.51-8.4
				c7.93-2.71,15.87-2.55,24.11-1.66c13.95,1.52,34.85,5.93,44.66-7.19c2.34-3.13-1.51-6.99-4.76-6.2
				c-7.28,1.78-13.41,4.31-21.1,4.21c-8.23-0.11-16.34-1.79-24.54-2.27c-7.83-0.46-15.49,0.43-22.85,3.17
				c-6.91,2.57-13.35,6.27-20.28,8.78c-15.17,5.48-28.97,2.37-42.72-5.05c-5.79-3.12-12.02-6.21-18.77-6.07
				c-3.69,0.08-6.82,1.99-10.35,2.3c-3.42,0.3-5.2-3.14-1.83-5.13c-2.35-2.35-4.7-4.7-7.05-7.05c-1.34,1.75-2.68,3.49-4.02,5.24
				c3.12,1.32,6.24,2.63,9.37,3.95c1.21-3.29,3.1-6.3,3.2-9.87C20.78,146.13,18.73,145.06,16.86,145.35L16.86,145.35z"/>
		</g>
	</g>
	<g>
		<g>
			<path class="st0" d="M57.95,98.56c-0.02,11.28,7.94,19.78,16.71,25.98c10.92,7.73,24.2,10.68,37.33,11.78
				c13.86,1.16,28.92-1.42,42.15,3.74c6.03,2.35,11.44,6.24,16.34,10.42c4.48,3.83,8.69,10.55,15.17,9.29
				c1.34-0.26,2.92-1.71,3.11-3.11c0.86-6.25-4.51-9.53-8.83-13.26c-4.55-3.94-9.37-7.74-14.65-10.66
				c-12.09-6.7-25.14-7.15-38.64-7.13c-13.39,0.02-27.08-0.76-39.53-6.19c-10.7-4.66-17.71-13.06-24.65-22.09
				C61.09,95.56,57.96,95.94,57.95,98.56L57.95,98.56z"/>
		</g>
	</g>
	<g>
		<g>
			<path class="st0" d="M39.05,141.21c-0.24,5.48,1.78,11.86,7.48,13.81c6.7,2.3,12.88-2.69,15.56-8.47
				c1.98-4.26,4.76-13.15-1.75-14.99c-7-1.98-10.73,7.71-9.58,13.14c1.48,6.98,8.94,10.41,14.91,6.18
				c5.33-3.78,8.83-12.44,7.29-18.82c-1.67-6.94-8.48-10.73-15.33-8.72c-6.79,2-10.88,9.32-10.81,16.13
				c0.06,6.4,4.49,13.43,11.59,12.76c6.59-0.62,10.42-7.49,10.01-13.6c-0.43-6.4-5.39-12.31-12.16-11.97
				c-7.78,0.38-12.16,7.67-13.35,14.57c-1.19,6.88-0.81,15.57,6.97,18.3c7.36,2.59,12.89-3.85,12.7-10.84
				c-0.19-6.93-3.97-14.54-10.81-16.96c-7.2-2.55-14.62,1.43-16.5,8.81c-1.67,6.54,0.22,15.58,7.28,18.1
				c7.38,2.64,13.32-3.4,13.21-10.64c-0.11-6.93-5.17-14.16-12.36-14.87c-7.8-0.76-12.04,5.69-12.62,12.67
				c-0.53,6.37,1.55,14.85,9.65,14.15c7.5-0.65,10.61-9.06,10.4-15.61c-0.21-6.68-4.48-14.09-11.98-13.83
				c-7.02,0.25-10.22,8.56-10.77,14.51c-0.58,6.22,2.8,14.18,10.12,14.18c7.25,0,10.08-8.41,9.85-14.41
				c-0.25-6.63-5.72-12.94-12.81-11.51c-6.75,1.36-9.48,10.48-8.04,16.49c1.6,6.64,10.44,10.65,15.44,4.97
				c4.51-5.12,0.82-12.89-5.39-14.16c-7.19-1.47-12.52,4.58-15.04,10.58c-2.52,6.02,0.92,15.4,8.93,13.18
				c7.37-2.04,5.78-11.45,0.38-14.69c-5.23-3.13-13.64-1.7-15.05,5.01c-1.21,5.76,4.06,11.81,9.99,9.49
				c6.49-2.54,6.26-11.75,0.37-14.81c-5.57-2.9-13.95,0.5-14.01,7.38c-0.06,7.67,9.55,8.3,14.83,5.73
				c5.62-2.73,8.45-10.63,3.52-15.49c-4.33-4.27-13.92-2.72-16.63,2.78c-2.69,5.45,2.48,12.83,8.63,10.47
				c5.92-2.26,3.3-11.9-2.64-9.57c2.7,4.51,3.8,5.41,3.32,2.7c-0.54,0.36-1.14,0.57-1.8,0.62c-0.43,0.01-0.86,0.03-1.29,0.04
				c2.75,4.44,6.2,5.03,10.35,1.79c1.04-1.21,1.18-3.16,2.4-4.4c1.83-1.86,3.46-3,3.74-6c0.04-0.39,0.38-3.67,0.38-0.6
				c0.06,0.96-0.04,1.9-0.29,2.83c-0.71,1.26-0.2,1.6,1.55,1.02c0,0-0.48-2.77-0.47-2.97c0.08-1.12,0.39-2.81,0.99-3.8
				c0.73-1.16,0.79-1.42,0.2-0.79c0.5,0.77,0.79,1.62,0.86,2.54c0.19,1.52-0.52,2.74-0.48,4.18c-0.79,1.13-0.38,1.79,1.24,1.99
				c-0.04-0.67-0.05-1.34-0.03-2c0.02-0.85-0.18-3.66,0.7-4.2c1.73-1.06,2.62,2.62,3.09,3.42c0.18,0.64,0.21,1.29,0.09,1.95
				c1.01-0.53,1.1-1.28,0.27-2.27c0.08-2.75,0.33-7.98,4.37-4.23c1.31,1.21,1.95,3.07,2.25,4.8c0.05,0.3,0.01,4.74,0.88,1.71
				c0.44-1.52-0.14-4.03,0.16-5.75c0.27-1.58,0.56-3.76,1.7-4.99c2.61-2.81,4.79,0.24,3.43,2.99c-1.39,2.8-1.13-4.28-0.71-5.43
				c1.68-4.59,7.22-4.9,6.61,0.58c-0.17,1.5-1.48,5.15-2.83,6.05c-3.22,2.13-0.28-2.49-0.98-3.25c-2.64-2.9-2.71,1.24-3.08,2.45
				c-0.78,2.54-1.84,5.23-4.19,6.76c-5.42,3.53-8.17-2.67-8.08-7.18C44.91,137.48,39.21,137.51,39.05,141.21L39.05,141.21z"/>
		</g>
	</g>
	<g>
		<g>
			<path class="st0" d="M41.46,153.97c5.42,6.31,11.59,11.59,18.45,16.28c4.33,2.96,9.38-3.68,5.59-7.24
				c-5.87-5.51-12.52-9.47-20.14-12.07c-3.78-1.29-7.47,3.52-5.26,6.85c5.05,7.63,11.64,13.79,19.71,18.14
				c4.84,2.61,9.2-3.39,5.72-7.41c-5.72-6.63-12.46-11.35-20.6-14.55c-4.52-1.77-8.68,5.28-4.84,8.31
				c11.34,8.96,24.24,14.27,38.6,15.87c4.67,0.52,6.19-5.68,3.56-8.6c-6.03-6.68-13.29-11.5-21.59-14.89
				c-5.78-2.36-8.08,6.15-3.91,9.28c8.15,6.13,17.53,10.21,27.55,12.06c3.94,0.73,8.31-3.43,5.67-7.37
				c-6.52-9.72-15.37-17.42-26.17-22.02c-5.01-2.13-10.55,3.55-6.18,8.01c8.6,8.77,19.94,13.66,32.21,14
				c3.99,0.11,6.41-4.48,4.49-7.82c-6.49-11.26-17.43-19.28-30.21-21.81c-4.21-0.84-8.41,3.54-5.87,7.63
				c4.07,6.55,9.82,11.66,16.95,14.65c5.95,2.5,17.42,5.3,18.56-4.14c0.86-7.13-6.4-14.7-11.49-18.81
				c-4.46-3.6-14.17-10.58-18.49-3.17c-7.41,12.69,21.38,28.64,31.03,22.15c7.4-4.98,0.68-14.27-3.67-18.68
				c-5.52-5.6-12.84-9.28-20.6-10.41c-4.67-0.68-7.83,3.29-5.89,7.66c4.94,11.05,15.94,17.96,27.92,18.41
				c4.89,0.19,6.34-5.63,3.68-8.87c-7.23-8.81-16.29-15.84-26.62-20.66c-5.96-2.78-11.18,5.67-5.24,8.97
				c9.76,5.43,19.87,10.13,30.3,14.12c4.88,1.87,9.04-5.48,5.13-8.81c-9.19-7.85-18.98-14.89-29.42-20.98
				c-5.16-3.01-10.84,4.11-6.44,8.34c10.58,10.18,23.45,17.22,37.71,20.67c5.74,1.39,9.71-6.88,4.14-9.83
				c-9.13-4.83-18.7-8.63-28.64-11.44c-0.95,3.45-1.9,6.89-2.85,10.34c18.28,3.29,36.56,6.57,54.83,9.92
				c6.59,1.21,9.22-7.9,2.78-10.09c-9.51-3.25-19.2-5.73-29.09-7.44c-0.93,3.37-1.86,6.74-2.79,10.1c18.7,3.1,37.12,7.51,55.2,13.21
				c0.93-3.39,1.87-6.77,2.8-10.16c-8.76-1.36-17.34-3.42-25.77-6.16c-0.93,3.37-1.86,6.74-2.79,10.11
				c11.09,2.58,21.88,6.11,32.23,10.84c6,2.74,10.86-5.2,5.23-8.94c-4.96-3.29-9.92-6.59-14.88-9.88c-1.34,3.18-2.68,6.36-4.02,9.53
				c8.54,3.37,17.69,7.29,21.87,16.01c2.06-2.68,4.12-5.36,6.18-8.03c-24.74-4.46-49.37-9.33-73.95-14.62
				c-0.52,3.87-1.05,7.74-1.57,11.62c12.63-0.74,25.89-1.51,37.02,5.53c1.48-3.52,2.97-7.04,4.45-10.56
				c-15.68-3.06-30.65-1.4-45.28,5.01c-5.52,2.42-2.58,11.25,3,11.07c8.51-0.27,17.02-0.56,25.54-0.8
				c-0.53-3.93-1.06-7.85-1.59-11.78c-9.77,2.71-19.55,5.41-29.32,8.12c1.09,3.96,2.18,7.92,3.27,11.88
				c5.83-1.63,11.57-3.55,17.39-5.19c-1.05-3.83-2.11-7.65-3.16-11.48c-9.79,3.94-19.76,7.38-29.9,10.3
				c1.07,3.89,2.15,7.78,3.22,11.68c22.52-7.48,45.67-12.2,69.34-13.94c7.37-0.54,7.44-12.09,0-11.56
				c-24.63,1.73-49.03,6.33-72.56,13.83c-7.39,2.35-4.3,13.91,3.22,11.68c10.12-3.01,20.07-6.5,29.84-10.5
				c6.87-2.81,4.41-13.67-3.16-11.48c-5.81,1.68-11.7,3.09-17.5,4.79c-7.59,2.23-4.37,14.09,3.27,11.88
				c9.74-2.81,19.49-5.63,29.23-8.44c6.34-1.83,5.33-12.05-1.59-11.78c-8.51,0.33-17.02,0.61-25.54,0.91c1,3.69,2,7.38,3,11.07
				c11.18-4.94,24.21-6.43,36.22-4.13c6.3,1.21,10.2-6.94,4.45-10.56c-12.82-8.05-28.23-8-42.85-7.38
				c-6.42,0.27-8.33,10.05-1.57,11.62c24.48,5.68,49.3,10.28,74.18,13.76c4.69,0.65,8.51-3.47,6.18-8.03
				c-5.72-11.19-17.42-16.22-28.54-20.55c-5.75-2.24-8.71,6.45-4.02,9.53c4.97,3.27,9.94,6.54,14.92,9.81
				c1.74-2.98,3.48-5.96,5.23-8.94c-11.2-5.06-22.72-9.14-34.67-12.01c-6.59-1.58-9.17,7.99-2.79,10.11
				c8.42,2.8,16.98,4.85,25.76,6.21c6.56,1.02,9.42-8.08,2.8-10.16c-18.09-5.68-36.51-10.07-55.22-13.15
				c-6.58-1.09-9.45,8.96-2.79,10.1c9.9,1.71,19.59,4.18,29.1,7.43c0.93-3.36,1.86-6.73,2.78-10.09
				c-18.26-3.35-36.51-6.76-54.76-10.17c-6.7-1.25-9.57,8.39-2.85,10.34c9.04,2.62,17.68,6.09,26.06,10.38
				c1.38-3.28,2.76-6.55,4.14-9.83c-12.53-2.86-23.77-8.92-33.06-17.82c-2.15,2.78-4.29,5.56-6.44,8.34
				c9.68,5.62,18.8,12.01,27.32,19.27c1.71-2.94,3.42-5.88,5.13-8.81c-9.62-3.61-18.88-7.92-27.86-12.92
				c-1.75,2.99-3.5,5.98-5.24,8.97c9.63,4.5,17.77,10.82,24.51,19.04c1.23-2.96,2.45-5.92,3.68-8.87
				c-8.56-0.33-15.48-5.57-18.92-13.27c-1.96,2.55-3.92,5.1-5.89,7.66c4.29,0.63,8.24,1.92,11.87,4.34c1.7,1.13,3.23,2.46,4.62,3.95
				c0.71,0.76,1.38,1.55,1.98,2.4c0.66,0.93,0.76,2.21,1.41,1.2c1.04-0.8,2.08-1.6,3.12-2.4c-3.05,1.27-7.82-1.07-10.53-2.57
				c-1.68-0.92-3.21-2.03-4.62-3.33c-0.58-0.52-1.14-1.08-1.66-1.66c-1.2-2.05-2.6-1.24-4.21,2.45c0.3,0.69,3.01,1.63,3.82,2.16
				c1.67,1.11,3.19,2.38,4.6,3.81c1.06,1.07,2.05,2.21,2.93,3.44c0.6,0.84,2.11,3.65,2.24,3.46c1.04-0.8,2.07-1.59,3.11-2.39
				c-3.26,1.2-8.42-1.71-11.08-3.39c-3.38-2.14-6.05-4.98-8.16-8.36c-1.96,2.54-3.91,5.09-5.87,7.63c10.27,2.04,18.75,7.95,24,17.04
				c1.5-2.61,2.99-5.21,4.49-7.82c-9.56-0.26-18.26-4.05-25-10.82c-1.65,2.84-3.31,5.68-4.96,8.52c8.76,3.64,16.2,9.89,21.44,17.76
				c1.89-2.46,3.78-4.91,5.67-7.37c-9.29-1.76-17.55-5.46-25.09-11.15c-1.3,3.09-2.61,6.19-3.91,9.28
				c6.67,2.69,12.36,6.92,17.17,12.22c1.19-2.87,2.37-5.73,3.56-8.6c-11.46-1.24-22.49-5.71-31.57-12.83
				c-1.61,2.77-3.23,5.54-4.84,8.31c6.41,2.49,12.04,6.47,16.57,11.63c1.91-2.47,3.81-4.94,5.72-7.41
				c-6.68-3.56-12.2-8.38-16.42-14.69c-1.75,2.28-3.51,4.56-5.26,6.85c6.07,2.04,11.41,5.24,16.1,9.6c1.86-2.41,3.72-4.83,5.59-7.24
				c-6.64-3.64-12.55-8.18-17.91-13.51C43.26,145.4,38.41,150.42,41.46,153.97L41.46,153.97z"/>
		</g>
	</g>
	<g>
		<g>
			<path class="st0" d="M132.37,139.48c6.28,0.13,12.49-1.27,18.78-1.13c6.64,0.15,11.82,2.34,17.12,6.23
				c4.92,3.62,9.79,7.07,15.2,9.95c2.54,1.35,5.14,2.59,7.78,3.74c2.07,0.9,7.18,1.83,8.61,3.4c-0.58-1.4-1.16-2.79-1.74-4.19
				c0,0.32-0.01,0.64-0.01,0.96c0.58-1.4,1.16-2.8,1.74-4.2c-0.68,0.79-5.2,0.53-6.24,0.58c-1.9,0.09-3.8,0.13-5.7,0.11
				c-4.45-0.04-8.9-0.39-13.31-0.92c-7.84-0.95-17.9-4.7-25.58-2.02c-2.56,0.89-3.97,4.34-1.69,6.4c5.23,4.72,13.29,5.49,20,6.53
				c7.13,1.1,14.32,1.93,21.54,1.95c5.56,0.02,14.29,0.65,18.72-3.45c4.97-4.59,1.63-10.81-3.72-12.86
				c-6.31-2.42-12.43-4.76-18.34-8.1c-5.75-3.25-11.01-7.51-16.94-10.43c-11.64-5.72-26.5-3.94-37.61,2.28
				C128.52,135.69,129.67,139.43,132.37,139.48L132.37,139.48z"/>
		</g>
	</g>
	<g>
		<g>
			<path class="st0" d="M32.39,101.88c-4.32,4.53-0.94,12.2,2.89,15.94c4.74,4.64,11.77,6.05,18.1,4.49
				c-2.22-2.22-4.45-4.45-6.67-6.67c-0.14,0.44-0.27,0.87-0.41,1.31c-2.1,6.7,8.07,9.31,10.41,2.87c0.16-0.43,0.31-0.86,0.47-1.29
				c1.35-3.73-2.92-8.08-6.67-6.67c-3.31,1.24-6.66,1.15-9.35-1.44c-2.49-2.4-2.9-5.97-5.11-8.53
				C35.14,100.85,33.3,100.93,32.39,101.88L32.39,101.88z"/>
		</g>
	</g>
	<g>
		<g>
			<path class="st0" d="M31.58,17.4c-1.43,3-2.09,6.34-2.97,9.54c-0.85,3.08-1.8,6.02-1.31,9.22c0.36,2.35,3.4,2.06,4.5,0.59
				c1.87-2.49,2.29-5.81,2.96-8.8c0.69-3.03,1.62-6.09,1.77-9.2C36.65,16.19,32.72,15.01,31.58,17.4L31.58,17.4z"/>
		</g>
	</g>
	<g>
		<g>
			<path class="st0" d="M91.23,158.91c-0.01,0.54,0.15,1.12,0.45,1.57c0.41,0.61,0.94,1,1.62,1.26c0.52,0.19,1.07,0.16,1.6,0.05
				c0.92-0.19,1.41-1.05,1.61-1.89c0.39-1.64-0.06-3.38-1.22-4.6c-0.9-0.94-2.49-0.68-3.14,0.4c-0.64,1.07-0.84,2.49-0.42,3.68
				c0.11,0.32,0.27,0.64,0.51,0.88c0.31,0.31,0.72,0.49,1.15,0.55c0.37,0.05,0.7,0.01,1.04-0.14c0.36-0.15,0.79-0.44,0.96-0.82
				c0.18-0.41,0.31-0.72,0.32-1.18c0.01-0.24-0.03-0.5-0.1-0.73c-0.19-0.65-0.62-1.14-1.17-1.51c-0.36-0.25-0.76-0.36-1.18-0.41
				c-0.59-0.08-1.19,0.01-1.71,0.32c-1.01,0.6-1.48,1.78-1.33,2.91c0.06,0.47,0.18,0.88,0.43,1.3c0.29,0.5,0.67,0.84,1.13,1.17
				c0.36,0.26,0.8,0.43,1.21,0.56c0.31,0.1,0.62,0.15,0.94,0.21c0.27,0.08,0.53,0.1,0.8,0.04c0.27-0.01,0.51-0.09,0.74-0.24
				c0.41-0.24,0.81-0.72,0.92-1.2c0.12-0.51,0.09-1.09-0.2-1.54c-0.27-0.41-0.69-0.83-1.2-0.92c-0.41-0.07-0.81-0.15-1.2-0.3
				c0.16,0.07,0.32,0.13,0.48,0.2c-0.19-0.08-0.36-0.18-0.53-0.3c0.13,0.1,0.27,0.21,0.4,0.31c-0.1-0.08-0.19-0.16-0.27-0.26
				c0.1,0.13,0.21,0.27,0.31,0.4c-0.07-0.1-0.13-0.2-0.18-0.31c0.07,0.16,0.13,0.32,0.2,0.48c-0.05-0.13-0.09-0.26-0.11-0.39
				c0.02,0.18,0.05,0.35,0.07,0.53c-0.01-0.1-0.01-0.2,0-0.3c-0.02,0.18-0.05,0.35-0.07,0.53c0.01-0.1,0.04-0.19,0.08-0.28
				c-0.07,0.16-0.13,0.32-0.2,0.48c0.03-0.06,0.06-0.11,0.1-0.17c-0.1,0.13-0.21,0.27-0.31,0.4c0.04-0.05,0.08-0.1,0.13-0.14
				c-0.13,0.1-0.27,0.21-0.4,0.31c0.04-0.03,0.09-0.06,0.14-0.08c-0.16,0.07-0.32,0.13-0.48,0.2c0.05-0.02,0.1-0.03,0.16-0.04
				c-0.18,0.02-0.35,0.05-0.53,0.07c0.07-0.01,0.14-0.01,0.2,0c-0.18-0.02-0.35-0.05-0.53-0.07c0.08,0.01,0.16,0.03,0.24,0.06
				c-0.16-0.07-0.32-0.13-0.48-0.2c0.08,0.03,0.15,0.07,0.22,0.12c-0.13-0.1-0.27-0.21-0.4-0.31c0.05,0.04,0.1,0.09,0.14,0.14
				c-0.1-0.13-0.21-0.27-0.31-0.4c0.03,0.04,0.06,0.08,0.08,0.13c-0.07-0.16-0.13-0.32-0.2-0.48c0.02,0.05,0.03,0.09,0.04,0.14
				c-0.02-0.18-0.05-0.35-0.07-0.53c0,0.04,0,0.07,0,0.11c0.02-0.18,0.05-0.35,0.07-0.53c-0.01,0.04-0.02,0.08-0.03,0.11
				c0.07-0.16,0.13-0.32,0.2-0.48c-0.01,0.01-0.01,0.03-0.02,0.04c1.22,0.16,2.44,0.32,3.66,0.48c-0.05-0.16-0.09-0.31-0.12-0.48
				c0.02,0.18,0.05,0.35,0.07,0.53c-0.03-0.23-0.03-0.45,0-0.68c-0.02,0.18-0.05,0.35-0.07,0.53c0.03-0.23,0.09-0.44,0.17-0.65
				c-0.07,0.16-0.13,0.32-0.2,0.48c0.05-0.11,0.11-0.22,0.17-0.33c-1.05,0.13-2.09,0.27-3.14,0.4c0.06,0.07,0.13,0.14,0.18,0.21
				c-0.1-0.13-0.21-0.27-0.31-0.4c0.15,0.19,0.27,0.4,0.37,0.63c-0.07-0.16-0.13-0.32-0.2-0.48c0.1,0.24,0.17,0.5,0.21,0.76
				c-0.02-0.18-0.05-0.35-0.07-0.53c0.03,0.26,0.03,0.52,0,0.78c0.02-0.18,0.05-0.35,0.07-0.53c-0.04,0.24-0.1,0.47-0.19,0.7
				c0.07-0.16,0.13-0.32,0.2-0.48c-0.01,0.02-0.02,0.03-0.02,0.05c0.4-0.31,0.8-0.61,1.2-0.92c-0.05,0.01-0.1,0.02-0.15,0.03
				c0.18-0.02,0.35-0.05,0.53-0.07c-0.07,0-0.13,0-0.2,0c0.18,0.02,0.35,0.05,0.53,0.07c-0.08-0.01-0.16-0.04-0.24-0.07
				c0.16,0.07,0.32,0.13,0.48,0.2c-0.08-0.04-0.15-0.08-0.22-0.13c0.13,0.1,0.27,0.21,0.4,0.31c-0.08-0.06-0.15-0.13-0.21-0.21
				c0.1,0.13,0.21,0.27,0.31,0.4c-0.05-0.07-0.09-0.14-0.12-0.22c0.07,0.16,0.13,0.32,0.2,0.48c-0.02-0.06-0.04-0.12-0.05-0.19
				c0.02,0.18,0.05,0.35,0.07,0.53c-0.01-0.05-0.01-0.1-0.01-0.15c0.01-0.5-0.23-1.06-0.59-1.41c-0.35-0.35-0.92-0.61-1.41-0.59
				C92.12,156.96,91.26,157.79,91.23,158.91L91.23,158.91z"/>
		</g>
	</g>
</g>
<g id="Layer_6">
	<g>
		<g>
			<path class="st1" d="M28.83,130.85c3.53-16.26-1.68-32.41-4.88-48.26c-3.28-16.23-3.79-33.05-1.32-49.44
				c1.04-6.85,2.07-15.03,6.86-20.42c3.64-4.1,10.95-6.43,15.01-1.6c4.49,5.35,1.61,13.11-0.89,18.6
				c-3.23,7.11-6.03,14.28-7.73,21.92c-1.69,7.56-2.5,15.35-2.36,23.1c0.13,7.57,1.03,15.32,3.15,22.6c1.01,3.47,2.39,6.9,4.35,9.95
				c1.68,2.61,4.36,6.64,8.01,5.67c3.01-0.8,4.24-4.31,4.6-7.06c0.51-3.91,0.72-7.86,0.71-11.81c-0.03-16.13-3.44-32.21-1.76-48.34
				c0.81-7.77,3.05-15.41,6.63-22.35c2.68-5.19,7.03-11.33,13.33-12.09c1.54-0.19,3.2-0.05,4.58,0.69c1.44,0.77,2.26,2.18,2.73,3.7
				c1.11,3.6,0.81,7.59-0.03,11.21c-1.8,7.79-6.2,14.55-9.53,21.72c-3.44,7.42-5.07,15.23-6.3,23.27
				c-1.1,7.22-2.27,14.55-1.18,21.84c0.51,3.42,1.65,6.72,3.44,9.68c1.34,2.2,4.8,0.19,3.45-2.02c-3.79-6.23-3.7-13.71-2.93-20.73
				c0.86-7.83,2.01-15.91,4.39-23.44c2.43-7.67,6.92-14.43,10.02-21.81c2.89-6.89,5.24-16.01,1.58-23.08
				c-3.58-6.89-12.8-5.89-18.17-1.91c-5.76,4.27-9.17,10.85-11.74,17.38c-2.98,7.56-4.38,15.6-4.67,23.7
				c-0.29,8.23,0.47,16.45,1.17,24.64c0.69,8.12,1.32,16.28,0.8,24.43c-0.12,1.88-0.19,3.86-0.61,5.7
				c-0.16,0.72-0.62,2.68-1.55,2.83c-0.86,0.14-2.28-2.09-2.69-2.66c-1.05-1.45-1.94-3-2.71-4.62c-3.18-6.73-4.31-14.62-4.83-21.99
				c-0.56-7.82-0.16-15.72,1.24-23.44c1.39-7.66,3.72-15.14,6.95-22.22c3-6.58,6.48-13.78,4.06-21.13c-1.01-3.05-2.99-5.85-5.9-7.34
				c-2.9-1.49-6.26-1.65-9.38-0.81C27.75,6.8,23.6,12.89,21.47,19.44c-1.18,3.64-1.86,7.45-2.47,11.22
				c-0.68,4.2-1.19,8.43-1.5,12.67c-0.64,8.45-0.53,16.95,0.33,25.38c0.85,8.42,2.59,16.65,4.45,24.89
				c1.8,7.99,3.58,16.06,3.77,24.28c0.09,4-0.21,7.98-1.06,11.9C24.43,132.29,28.28,133.36,28.83,130.85L28.83,130.85z"/>
		</g>
	</g>
	<g>
		<g>
			<path class="st1" d="M25.96,123.33c-0.86,5.03-2.8,9.75-5.8,13.87c-3.01,4.14-7.17,7.26-10.34,11.26
				c-2.94,3.71-5.13,8.38-4.58,13.23c0.55,4.92,3.89,8.44,8.47,10.04c5.13,1.79,10.54,0.77,15.84,0.87
				c5.5,0.11,10.33,2.45,15.23,4.71c9.93,4.59,20.39,8.37,31.36,9.31c5.37,0.46,10.83,0.16,16.08-1.08c5.06-1.19,9.87-3.26,14.6-5.4
				c4.69-2.13,9.33-4.39,14.22-6.03c5.31-1.77,10.79-2.55,16.38-2.65c11.38-0.2,22.68,1.97,34.06,1.54c2.76-0.11,5.58-0.4,8.22-1.28
				c2.56-0.85,4.85-2.4,7.44-3.17c5-1.49,10.35,0.14,15.43-0.97c4.11-0.89,8.26-3.58,9-8.01c0.79-4.74-2.17-9.26-6.07-11.71
				c-4.31-2.7-9.5-3.25-14.26-4.79c-4.09-1.32-8.14-3.25-11.26-6.26c-1.54-1.49-2.75-3.18-3.66-5.12c-1.09-2.33-4.54-0.3-3.45,2.02
				c3.81,8.11,12.59,12.13,20.83,14.22c4.3,1.09,9.49,1.96,12.37,5.71c1.15,1.5,1.97,3.48,1.55,5.39c-0.39,1.78-1.77,3.01-3.35,3.79
				c-4.13,2.04-8.96,0.97-13.37,1.15c-2.74,0.11-5.23,0.74-7.72,1.87c-2.3,1.05-4.45,2.16-6.96,2.67
				c-5.2,1.04-10.81,0.57-16.06,0.23c-5.46-0.36-10.9-0.93-16.36-1.17c-5.5-0.24-11.01-0.12-16.44,0.82
				c-5.03,0.87-9.79,2.63-14.46,4.64c-9.19,3.97-18.08,8.89-28.26,9.66c-10.41,0.78-20.71-1.87-30.34-5.63
				c-4.91-1.92-9.58-4.39-14.49-6.32c-2.38-0.93-4.82-1.63-7.36-1.94c-2.72-0.34-5.44-0.17-8.17-0.05
				c-4.25,0.19-9.46,0.33-12.8-2.82c-3.16-2.98-2.64-7.78-0.87-11.36c2.11-4.27,5.91-7.39,9.16-10.77
				c3.51-3.65,6.28-7.77,8.15-12.48c0.89-2.24,1.52-4.56,1.92-6.94c0.18-1.06-0.28-2.15-1.4-2.46
				C27.46,121.67,26.14,122.26,25.96,123.33L25.96,123.33z"/>
		</g>
	</g>
	<g>
		<g>
			<path class="st1" d="M22.46,133.76c-2.23,2.78-4.31,5.71-5.99,8.85c-1.51,2.82-2.78,6.06-2.51,9.32
				c0.57,6.89,7.38,9.95,13.57,9.71c3.6-0.14,7.12-1.03,10.7-1.32c3.7-0.3,7.47-0.19,11.1,0.62c6.54,1.46,12.09,5.28,18.02,8.18
				c6.33,3.1,12.93,4.52,19.99,4.05c7.42-0.5,14.55-2.63,21.62-4.77c7.15-2.16,14.26-4.11,21.75-4.56
				c7.65-0.45,15.36-0.35,23.01-0.16c4.03,0.1,8.18,0.34,12.1-0.78c3.03-0.87,5.8-2.53,8.1-4.68c4.74-4.45,7.4-10.9,7.63-17.35
				c0.09-2.57-3.91-2.57-4,0c-0.19,5.06-2.19,10.11-5.71,13.78c-1.69,1.77-3.76,3.24-6.08,4.07c-3.11,1.11-6.4,1.11-9.66,1.03
				c-7.19-0.18-14.38-0.27-21.56-0.07c-7.08,0.2-13.91,1.22-20.73,3.12c-12.74,3.56-26.46,9.35-39.73,4.85
				c-5.74-1.95-10.78-5.48-16.28-7.98c-6.21-2.82-12.79-3.9-19.59-3.36c-3.88,0.31-7.72,1.36-11.63,1.34
				c-2.69-0.01-5.79-0.75-7.53-2.98c-2.03-2.61-1.01-6.22,0.28-8.92c1.56-3.27,3.67-6.35,5.94-9.17c0.68-0.84,0.82-2.01,0-2.83
				C24.59,133.06,23.14,132.91,22.46,133.76L22.46,133.76z"/>
		</g>
	</g>
	<g>
		<g>
			<path class="st1" d="M11.06,151.75c-0.22,3.25-0.27,6.51-0.16,9.77c0.07,2.16,3.47,2.83,3.93,0.53c0.65-3.22,0.6-6.44-0.16-9.64
				c-0.36-1.5-2.29-1.89-3.34-0.88c-3.56,3.42-3.62,9.28-0.33,12.88c1.09,1.19,2.86,0.45,3.34-0.88c1.15-3.19,0.62-6.9-1.44-9.61
				c-0.62-0.82-1.75-1.38-2.74-0.72c-2.38,1.61-3.38,4.6-2.49,7.35c0.88,2.71,3.57,5.52,6.46,5.97c2.97,0.47,5.13-2.2,5.34-4.94
				c0.23-3.05-2.17-5.38-4.35-7.14c-0.99-0.8-2.43-0.8-3.14,0.4c-2.09,3.51-2.4,9.18,1.01,12.05c3.87,3.24,8.54-1.32,6.98-5.59
				c-0.71-1.94-2.4-4.12-4.52-4.6c-1.89-0.42-3.67,0.48-4.59,2.16c-0.94,1.72-0.82,3.9,0.3,5.49c1.27,1.79,3.23,2.7,5.22,3.46
				c1.6,0.61,2.65-1.13,2.46-2.46c-0.37-2.62-0.99-5.43-3.16-7.19c-1.79-1.45-4.52-1.67-6.51-0.47c-2.6,1.56-2.41,4.74-0.9,7.02
				c1.52,2.28,3.8,4.28,6.55,4.84c2.55,0.52,5.46-0.21,7.17-2.25c1.63-1.95,1.9-4.88,0.53-7.06c-0.62-0.99-1.8-2.17-3.05-2.17
				c-1.35,0-2.59,1.37-3.16,2.48c-1.21,2.34-0.65,5.3,1.56,6.82c2.31,1.6,5.74,1.1,7.38-1.21c1.78-2.51,0.9-5.8-1.42-7.57
				c-0.56-0.43-1.45-0.31-2.02,0c-3.3,1.8-3.94,6.75-0.87,9.1c3.13,2.39,8.01,0.79,8.68-3.2c0.32-1.89-0.28-3.9-1.74-5.18
				c-1.81-1.59-4.05-0.97-5.11,1.11c-1.68,3.32-0.26,7.86,3.28,9.26c3.26,1.29,7.52-0.55,8.39-4.07c0.88-3.56-2.56-8.36-6.54-7.27
				c-2.11,0.58-2.77,3.85-2.42,5.67c0.36,1.86,1.69,3.49,3.44,4.2c3.84,1.57,8.5-2.21,7.06-6.34c-0.72-2.08-2.78-3.69-5.03-3.55
				c-2.18,0.14-3.97,1.87-4.44,3.95c-1.07,4.75,4.75,7.3,8.14,4.46c0.49-0.41,0.76-1.35,0.51-1.95c-1.63-4-6.44-5.93-10.1-3.21
				c-1.52,1.13-3.04,3.26-2.61,5.26c0.42,1.96,2.94,3.76,4.57,1.82c0.97-1.16,0.63-2.86-0.88-3.34c-2.74-0.87-5.68-0.84-8.39,0.1
				c-2.08,0.72-1.81,3.9,0.53,3.93c2.35,0.03,4.69,0.05,7.04,0.08c2.59,0.03,2.56-3.87,0-4c-0.59-0.03-1.18-0.06-1.77-0.09
				c0,1.33,0,2.67,0,4c3.39-0.35,6.63-1.26,9.65-2.87c2.29-1.22,5.62-4.01,3.54-6.89c-0.94-1.3-3.23-1.33-3.66,0.48
				c-0.77,3.26,1.1,6.89,4.68,7.17c3.28,0.25,6.06-2.75,5.03-5.99c-1.14-3.58-5.53-4.09-7.79-1.27c-2.02,2.53-2.29,6.72-0.41,9.41
				c1.83,2.61,5.99,3.53,8.29,0.95c2.39-2.69,1.01-7.14-1.2-9.48c-1.06-1.13-2.58-2.02-4.17-1.93c-1.72,0.1-3.22,1.39-3.65,3.05
				c-0.81,3.11,1.58,6.85,3.95,8.68c3.18,2.45,7.49,1.11,8.6-2.78c1.13-3.94-1.73-7.23-4.87-9.15c-0.93-0.57-2.19-0.2-2.74,0.72
				c-2.52,4.21-1.28,10.61,3.25,12.98c2.06,1.08,4.9,1.19,6.72-0.42c2.32-2.04,1.3-5.29,0.18-7.68c-1.03-2.2-3.4-6.2-6.33-5.56
				c-2.94,0.64-3.09,4.47-2.74,6.85c0.69,4.65,4.96,10,10.1,9.72c1.39-0.07,2.75-0.66,3.49-1.9c0.91-1.52,0.34-3.41-0.23-4.95
				c-1.13-3.05-2.99-5.78-5.48-7.88c-1.17-0.99-2.84-0.61-3.34,0.88c-1.09,3.25-0.73,6.81,0.78,9.87c1.41,2.84,4.06,5.48,7.4,5.54
				c1.48,0.03,3.02-0.48,3.87-1.76c1.04-1.56,0.57-3.3-0.2-4.86c-1.7-3.45-4.23-6.5-7.24-8.88c-0.81,1.05-1.62,2.09-2.42,3.14
				c3.27,2.18,6.76,3.94,10.42,5.36c1.93,0.75,3.27-2.02,1.95-3.34c-2.73-2.72-5.72-5.16-8.91-7.32c-0.51,1.22-1.03,2.44-1.54,3.66
				c5.66,1.91,11.03,4.48,16.1,7.63c2.2,1.37,4.14-2.03,2.02-3.45c-3.1-2.08-6.43-3.73-9.94-5.01c-2.19-0.8-3.42,2.51-1.54,3.66
				c3.76,2.31,7.52,4.61,11.28,6.92c0.67-1.15,1.35-2.3,2.02-3.45c-3.2-1.58-6.41-3.16-9.61-4.74c-1.93-0.95-4.2,1.52-2.42,3.14
				c3.71,3.37,7.64,6.48,11.78,9.31c2.14,1.46,4.09-1.98,2.02-3.45c-3.95-2.81-8.26-5-12.83-6.62c-2.07-0.73-3.08,1.95-1.95,3.34
				c3.3,4.04,7.57,7.24,12.38,9.28c2.35,0.99,4.15-1.93,2.02-3.45c-3.64-2.61-7.76-4.51-12.11-5.6c-1.52-0.38-3.38,1.47-2.26,2.94
				c2.5,3.26,5.72,5.63,9.64,6.91c1.83,0.6,3.51-2.07,1.95-3.34c-2.98-2.44-6.36-3.86-10.18-4.31c-1.59-0.19-2.38,1.81-1.73,3.01
				c1.48,2.74,4.16,4.73,7.24,5.27c2.28,0.4,3.39-2.29,1.54-3.66c-3.01-2.22-6.58-3.41-10.3-3.62c-1.71-0.1-2.66,2.27-1.41,3.41
				c6.49,5.96,15.56,6.69,23.96,7.08c1.45,0.07,2.58-1.77,1.73-3.01c-2.72-3.93-5.77-7.62-9.14-11.01
				c-0.81,1.05-1.62,2.09-2.42,3.14c3.08,2.13,6.53,3.69,10.15,4.65c1.91,0.51,3.39-1.93,1.95-3.34c-2.86-2.81-6.3-4.86-10.12-6.07
				c-2.5-0.79-3.41,2.94-1.06,3.86c3.65,1.42,7.4,2.52,11.23,3.3c2.17,0.44,3.56-2.44,1.54-3.66c-3.83-2.3-8.04-3.64-12.48-4.11
				c-2.04-0.22-2.63,2.8-1.01,3.73c4.07,2.33,8.24,4.49,12.48,6.49c0.51-1.22,1.03-2.44,1.54-3.66c-2.25-0.38-4.51-0.75-6.76-1.13
				c-1.04-0.18-2.48-0.7-3.47-0.12c-0.8,0.47-1.41,1.42-1.7,2.28c-0.7,2.09,1.78,3.68,3.27,4.68c1.59,1.07,3.41,1.82,5.28,2.25
				c1.77,0.41,3.63-2.01,1.95-3.34c-1.92-1.52-3.92-3.08-6.41-3.45c-2.17-0.32-4.47,0.23-5.96,1.92c-0.69,0.78-0.84,2.06,0,2.83
				c1.69,1.54,3.55,3.16,5.88,3.55c2.07,0.35,4.36-0.16,5.72-1.86c0.74-0.92,0.74-1.9,0-2.83c-1.36-1.72-2.92-3.17-4.66-4.5
				c-1.17-0.89-3.15,0.31-3.01,1.73c0.23,2.34,1.25,4.53,3.28,5.83c1.91,1.23,4.46,1.21,6.37,0.01c1.92-1.2,2.94-3.47,2.29-5.68
				c-0.63-2.14-2.69-3.88-4.99-3.68c-0.91,0.08-1.66,0.57-1.93,1.47c-1.4,4.62,3.19,9.16,7.71,6.93c2-0.99,3.18-3.08,2.82-5.3
				c-0.34-2.07-1.98-3.99-4.12-4.29c-0.92-0.13-1.74,0.09-2.26,0.92c-1.38,2.21-1.92,5.07-0.68,7.47c1.08,2.1,3.51,3.16,5.8,2.75
				c2.3-0.41,3.89-2.51,3.65-4.84c-0.28-2.69-2.68-4.62-4.87-5.88c-0.99-0.57-2.11-0.17-2.74,0.72c-1.49,2.13-1.89,4.85-1.3,7.36
				c0.57,2.38,2.34,5.07,4.88,5.61c2.63,0.56,4.9-1.62,5.33-4.1c0.52-2.99-1.55-5.39-3.57-7.3c-0.85-0.8-2.59-0.82-3.14,0.4
				c-0.9,1.99-0.67,4.1,0.69,5.84c1.17,1.5,4.09,3.15,5.89,1.71c1.56-1.25,2.14-3.86,1.97-5.76c-0.18-2.12-1.09-4.16-2.76-5.52
				c-1.02-0.83-2.39-0.76-3.14,0.4c-1.3,2.02-2.11,4.6-1.08,6.92c0.88,1.97,3.11,3.32,5.27,2.93c2.15-0.39,3.51-2.45,3.37-4.58
				c-0.17-2.52-2.05-4.26-4.18-5.35c-0.91-0.47-2.24-0.29-2.74,0.72c-0.93,1.88-1.16,4.03-0.4,6.02c0.76,1.99,2.47,3.93,4.72,4.1
				c2.15,0.16,3.94-1.43,4.5-3.45c0.63-2.29-0.48-4.47-1.69-6.35c-0.77-1.2-2.73-1.39-3.45,0c-1.03,1.98-1.06,4.2-0.13,6.23
				c0.89,1.93,3.13,4.19,5.36,3c1.99-1.06,3.28-3.37,3.1-5.62c-0.2-2.53-1.98-4.54-4.35-5.29c-0.88-0.28-1.77,0.2-2.26,0.92
				c-2.44,3.63,1.01,9.06,5.31,8.47c2.35-0.32,3.08-3.21,2.7-5.22c-0.38-2.02-1.83-3.72-3.83-4.25c-1.09-0.29-2.11,0.37-2.46,1.4
				c-0.58,1.68-0.17,3.57,0.96,4.93c0.53,0.64,1.28,1.25,2.1,1.47c0.99,0.27,2.04-0.32,2.8-0.89c2.63-1.96,3.5-5.92,1.65-8.7
				c-0.79-1.18-2.71-1.4-3.45,0c-1.01,1.91-1.01,4.2,0.26,6c1.47,2.09,4.94,0.09,3.45-2.02c-0.44-0.63-0.64-1.24-0.26-1.96
				c-1.15,0-2.3,0-3.45,0c0.79,1.18,0.49,3.18-0.99,3.72c0.51,0.07,1.03,0.13,1.54,0.2c-0.75-0.35-1.01-0.89-0.74-1.68
				c-0.82,0.47-1.64,0.93-2.46,1.4c0.8,0.21,1.41,1.48,0.8,2.18c0.29-0.17,0.59-0.34,0.88-0.51c-1.2,0.23-1.92-1.65-1.35-2.51
				c-0.75,0.31-1.51,0.61-2.26,0.92c2.03,0.64,1.67,2.98-0.02,3.75c0.67,0,1.35,0,2.02,0c-1.41-0.69-2.22-2.43-1.46-3.9
				c-1.15,0-2.3,0-3.45,0c0.52,0.81,1.31,1.82,1.33,2.83c0.01,0.3-0.04,0.62-0.25,0.86c-0.2,0.23-0.03,0.15-0.27,0.08
				c-1.48-0.45-1.59-2.99-1.05-4.08c-0.91,0.24-1.82,0.48-2.74,0.72c0.76,0.39,1.82,0.88,2.13,1.75c0.1,0.27,0.19,0.73-0.12,0.81
				c-0.46,0.11-0.85-0.65-0.91-0.97c-0.2-1.02,0.47-2.12,1-2.93c-1.05,0.13-2.09,0.27-3.14,0.4c1.85,1.5,2.11,3.99,0.68,5.87
				c0.58-0.33,1.15-0.66,1.73-0.99c-0.92,0.11-2.42-0.83-1.91-1.96c-1.05,0.13-2.09,0.27-3.14,0.4c0.89,0.84,2.33,1.98,2.49,3.29
				c0.09,0.69-0.26,1.63-0.98,1.14c-2.18-1.47-1.86-4.96-0.56-6.81c-0.91,0.24-1.82,0.48-2.74,0.72c0.53,0.31,4.28,2.98,2.43,3.36
				c-0.67,0.14-1.31-0.3-1.55-0.89c-0.46-1.14,0.09-2.45,0.69-3.41c-0.75,0.31-1.51,0.61-2.26,0.92c1.25,0.17,1.82,1.7,0.44,2.23
				c-1.5,0.58-2.31-1.12-1.93-2.36c-0.64,0.49-1.29,0.98-1.93,1.47c1.47-0.13,1.46,1.67,0.23,2.15c-1.68,0.64-3.04-1.11-3.18-2.63
				c-1,0.58-2.01,1.15-3.01,1.73c1.45,1.11,2.72,2.45,3.85,3.88c0-0.94,0-1.89,0-2.83c-1.74,2.18-4.54-0.41-5.94-1.69
				c0,0.94,0,1.89,0,2.83c1.93-2.19,5.04,0.21,6.71,1.53c0.65-1.11,1.3-2.23,1.95-3.34c-2.49-0.57-4.61-1.78-6.37-3.63
				c0.17,0.65,0.34,1.3,0.51,1.95c0.08-0.29,0.1-0.29,0.36-0.53c-0.65,0.17-1.3,0.34-1.95,0.51c2.9,0.49,5.79,0.97,8.69,1.46
				c0.98,0.16,1.96-0.17,2.36-1.16c0.34-0.85,0.1-2.07-0.82-2.5c-4.25-2-8.41-4.16-12.48-6.49c-0.34,1.24-0.67,2.48-1.01,3.73
				c3.71,0.4,7.26,1.65,10.46,3.57c0.51-1.22,1.03-2.44,1.54-3.66c-3.84-0.78-7.58-1.88-11.23-3.3c-0.35,1.29-0.71,2.57-1.06,3.86
				c3.17,1,5.99,2.71,8.36,5.04c0.65-1.11,1.3-2.23,1.95-3.34c-3.32-0.88-6.37-2.3-9.19-4.25c-1.9-1.31-3.99,1.56-2.42,3.14
				c3.14,3.15,5.99,6.54,8.51,10.2c0.58-1,1.15-2.01,1.73-3.01c-7.23-0.33-15.5-0.74-21.13-5.91c-0.47,1.14-0.94,2.28-1.41,3.41
				c3.04,0.17,5.83,1.28,8.28,3.08c0.51-1.22,1.03-2.44,1.54-3.66c-2.13-0.38-3.81-1.52-4.85-3.43c-0.58,1-1.15,2.01-1.73,3.01
				c2.67,0.32,5.28,1.44,7.35,3.14c0.65-1.11,1.3-2.23,1.95-3.34c-2.84-0.93-5.43-2.69-7.25-5.07c-0.75,0.98-1.51,1.96-2.26,2.94
				c4.04,1.02,7.77,2.77,11.16,5.2c0.67-1.15,1.35-2.3,2.02-3.45c-4.54-1.92-8.45-4.84-11.57-8.65c-0.65,1.11-1.3,2.23-1.95,3.34
				c4.24,1.5,8.21,3.61,11.87,6.22c0.67-1.15,1.35-2.3,2.02-3.45c-3.86-2.64-7.51-5.54-10.97-8.69c-0.81,1.05-1.62,2.09-2.42,3.14
				c3.2,1.58,6.41,3.16,9.61,4.74c2.29,1.13,4.24-2.09,2.02-3.45c-3.76-2.31-7.52-4.61-11.28-6.92c-0.51,1.22-1.03,2.44-1.54,3.66
				c3.18,1.16,6.17,2.72,8.99,4.61c0.67-1.15,1.35-2.3,2.02-3.45c-5.35-3.34-11.08-6.02-17.06-8.04c-2.25-0.76-3.33,2.44-1.54,3.66
				c2.91,1.97,5.61,4.21,8.1,6.7c0.65-1.11,1.3-2.23,1.95-3.34c-3.33-1.29-6.49-2.98-9.47-4.96c-1.86-1.24-4.22,1.72-2.42,3.14
				c2.05,1.62,3.87,3.51,5.28,5.71c0.38,0.58,0.73,1.18,1.05,1.8c0.15,0.28,0.29,0.56,0.42,0.85c0.04,0.09,0.13,0.56,0.17,0.38
				c0.03-0.14,0.25-0.12,0-0.1c-0.26,0.02-0.55,0.05-0.84,0c-1.83-0.3-3.16-2.36-3.82-3.94c-0.86-2.05-0.89-4.28-0.19-6.37
				c-1.11,0.29-2.23,0.59-3.34,0.88c1.75,1.48,3.15,3.24,4.12,5.32c0.23,0.5,0.42,1.02,0.59,1.54c0.06,0.2,0.26,1.42,0.46,1.04
				c0.08-0.15-0.32,0.02-0.57,0.01c-0.35-0.02-0.72-0.14-1.05-0.27c-1.74-0.69-3.08-2.12-3.93-3.76c-0.4-0.77-0.67-1.64-0.78-2.5
				c-0.06-0.47-0.07-0.96-0.03-1.43c0.01-0.18,0.11-0.48,0.09-0.65c-0.08-0.6,0.53,0.09-0.31,0c-0.34-0.09-0.67-0.18-1.01-0.27
				c1.64,0.74,2.83,3.29,3.36,4.9c0.13,0.38,0.54,1.29,0.25,1.66c-0.29,0.38-1.22,0.21-1.59,0.12c-3.13-0.78-3.72-5.29-2.3-7.67
				c-0.91,0.24-1.82,0.48-2.74,0.72c1.19,0.73,2.47,1.66,2.98,3.02c0.31,0.83,0.21,2.31-0.75,2.7c-2.04,0.84-4.55-4.76-4.02-4.97
				c0.7-0.28,1.78,1.63,1.98,2.11c0.32,0.78,0.95,2.81-0.45,2.84c-2.44,0.05-2.59-4.98-0.69-5.79c0.22-0.1,0.15-0.01,0.14-0.01
				c0.13,0.1,0.26,0.26,0.29,0.42c0.1,0.43-0.16,0.62-0.56,0.73c-1.21,0.33-1.73-1.12-1.5-2.08c-1.22,0.16-2.44,0.32-3.66,0.48
				c0.13,0.08,0.15,0.03,0.05-0.18c-0.06,0.08-0.11,0.16-0.17,0.24c-0.22,0.12-0.42,0.41-0.64,0.57c-0.87,0.63-1.92,1.11-2.9,1.53
				c-1.92,0.82-4,1.35-6.07,1.57c-2.52,0.26-2.62,3.87,0,4c0.59,0.03,1.18,0.06,1.77,0.09c0-1.33,0-2.67,0-4
				c-2.35-0.03-4.69-0.05-7.04-0.08c0.18,1.31,0.35,2.62,0.53,3.93c2.1-0.73,4.14-0.78,6.26-0.1c-0.29-1.11-0.59-2.23-0.88-3.34
				c-0.05,0.06-0.1,0.12-0.15,0.18c0.29-0.17,0.59-0.34,0.88-0.51c-0.06,0.02-0.12,0.04-0.18,0.06c0.35,0,0.71,0,1.06,0
				c1.07,0.24,0.28,0.96,0.7,0.33c0.13-0.2,0.24-0.42,0.39-0.61c0.39-0.48,0.96-0.84,1.56-0.95c1.1-0.21,2.41,0.49,2.84,1.54
				c0.17-0.65,0.34-1.3,0.51-1.95c-0.52,0.43-1.45-0.03-1.44-0.66c0.02-1,1.12-1.18,1.64-0.44c0.66,0.95-0.5,2.01-1.48,1.75
				c-1.27-0.34-1.46-1.99-0.7-2.88c-0.47,0.2-0.94,0.39-1.41,0.59c1.07-0.07,2.14,0.75,2.19,1.9c0.05,1-0.89,1.69-1.78,1.88
				c-2.12,0.44-3.91-2.64-2.23-4.16c-0.29,0.17-0.59,0.34-0.88,0.51c-1.02,0.4-0.44-0.53-0.3,0.1c0.03,0.14,0.16,0.28,0.21,0.43
				c0.11,0.35,0.13,0.76,0,1.11c-0.23,0.62-0.85,0.87-1.48,0.79c-1.58-0.19-1.54-2.12-0.32-2.78c-0.67,0-1.35,0-2.02,0
				c1.03,0.79,0.15,2.37-1,2.27c-1.45-0.13-1.44-1.9-0.33-2.51c-0.67,0-1.35,0-2.02,0c1.6,0.84,0.99,2.96-0.45,3.61
				c-2.11,0.95-4.27-0.34-5.66-1.91c-0.41-0.47-1.63-1.8-1.15-2.4c0.15-0.18,0.98-0.22,1.29-0.16c2.02,0.42,2.26,3.87,2.49,5.47
				c0.82-0.82,1.64-1.64,2.46-2.46c-1.08-0.41-3.4-1.23-3.22-2.73c0.21-1.77,1.86,0.96,2,1.5c0.07,0.28,0.13,0.59,0.01,0.86
				c-0.08,0.18-0.42,0.44-0.28,0.42c-0.6,0.08-1.04-1.04-1.19-1.45c-0.7-1.9-0.36-4,0.65-5.71c-1.05,0.13-2.09,0.27-3.14,0.4
				c1.11,0.9,2.66,1.97,3.09,3.41c0.17,0.57,0,1.89-0.61,1.93c-0.62,0.04-1.44-0.78-1.86-1.18c-0.53-0.49-1.01-1.05-1.3-1.72
				c-0.42-0.98-0.41-2.4,0.56-3.05c-0.91-0.24-1.82-0.48-2.74-0.72c1.48,1.95,1.87,4.21,1.03,6.52c1.11-0.29,2.23-0.59,3.34-0.88
				c-1.86-2.03-1.62-5.35,0.33-7.22c-1.11-0.29-2.23-0.59-3.34-0.88c0.6,2.47,0.66,5.01,0.16,7.51c1.31,0.18,2.62,0.35,3.93,0.53
				c-0.11-3.26-0.06-6.52,0.16-9.77C15.23,149.18,11.23,149.2,11.06,151.75L11.06,151.75z"/>
		</g>
	</g>
	<g>
		<g>
			<path class="st1" d="M100.24,180.19c3.79-2.2,7.45-4.61,10.97-7.22c0.81-0.6,1.23-1.51,0.82-2.5c-0.35-0.83-1.44-1.54-2.36-1.16
				c-2.05,0.84-4.09,1.68-6.14,2.52c-0.96,0.4-1.76,1.35-1.4,2.46c0.3,0.93,1.42,1.82,2.46,1.4c2.05-0.84,4.09-1.68,6.14-2.52
				c-0.51-1.22-1.03-2.44-1.54-3.66c-3.52,2.61-7.19,5.01-10.97,7.22c-0.9,0.53-1.3,1.83-0.72,2.74
				C98.09,180.38,99.27,180.75,100.24,180.19L100.24,180.19z"/>
		</g>
	</g>
	<g>
		<g>
			<path class="st1" d="M30.35,168.88c2.89,1.47,5.94,2.55,9.13,3.14c2.06,0.38,3.73-2.61,1.54-3.66
				c-3.25-1.54-6.63-2.47-10.21-2.81c-2.31-0.22-2.61,3.29-0.53,3.93c9.56,2.92,19.11,5.9,28.7,8.75c4.61,1.37,9.24,2.66,13.93,3.69
				c4.95,1.08,9.96,1.83,14.96,2.58c1.07,0.16,2.15-0.27,2.46-1.4c0.26-0.94-0.32-2.3-1.4-2.46c-5.01-0.75-10.02-1.5-14.96-2.58
				c-4.7-1.02-9.33-2.32-13.93-3.69c-9.59-2.85-19.13-5.83-28.7-8.75c-0.18,1.31-0.35,2.62-0.53,3.93c2.83,0.27,5.62,1.04,8.19,2.26
				c0.51-1.22,1.03-2.44,1.54-3.66c-2.85-0.53-5.59-1.42-8.17-2.73C30.08,164.26,28.06,167.71,30.35,168.88L30.35,168.88z"/>
		</g>
	</g>
	<g>
		<g>
			<path class="st1" d="M98.46,176.83c5.69-1.76,11.46-3.25,17.3-4.47c2.17-0.46,1.73-4.16-0.53-3.93
				c-5.11,0.52-10.12,1.57-14.97,3.24c-2.41,0.83-1.41,4.65,1.06,3.86c4.71-1.5,9.43-3.01,14.14-4.51c2.09-0.67,1.8-3.96-0.53-3.93
				c-5.28,0.08-10.39,1.37-15.1,3.75c0.67,1.15,1.35,2.3,2.02,3.45c7.08-3.81,14.99-5.77,23.03-5.74c2.57,0.01,2.58-3.99,0-4
				c-8.74-0.03-17.36,2.14-25.05,6.29c-2.28,1.23-0.27,4.61,2.02,3.45c4.07-2.06,8.52-3.13,13.08-3.2
				c-0.18-1.31-0.35-2.62-0.53-3.93c-4.71,1.5-9.43,3.01-14.14,4.51c0.35,1.29,0.71,2.57,1.06,3.86c4.51-1.55,9.17-2.62,13.91-3.1
				c-0.18-1.31-0.35-2.62-0.53-3.93c-5.83,1.22-11.6,2.71-17.3,4.47C94.94,173.73,95.99,177.6,98.46,176.83L98.46,176.83z"/>
		</g>
	</g>
	<g>
		<g>
			<path class="st1" d="M101.74,180.43c4.51-2.5,9.14-4.77,13.91-6.74c2.35-0.97,4.74-1.88,7.14-2.72c2.44-0.85,4.91-1.77,7.53-1.55
				c2.56,0.22,2.55-3.78,0-4c-2.74-0.23-5.38,0.59-7.94,1.46c-2.63,0.9-5.23,1.88-7.8,2.94c-5.09,2.1-10.05,4.47-14.86,7.14
				C97.47,178.23,99.48,181.68,101.74,180.43L101.74,180.43z"/>
		</g>
	</g>
	<g>
		<g>
			<path class="st1" d="M109.5,171.62c5.49-2.25,11.16-4.66,17.12-5.28c6.16-0.64,12.33,0.7,18.45,1.16
				c10.83,0.8,22.57-0.45,30.62-8.51c3.86-3.86,6.4-8.92,6.51-14.43c-0.84,0.64-1.69,1.29-2.53,1.93c3.95,1.51,7.91,3.02,11.86,4.53
				c3.36,1.28,7.04,2.3,10.16,4.12c2.19,1.28,3.78,3.55,1.59,5.7c-2.48,2.43-6.15,1.89-9.26,1.4c-3.64-0.57-7.8-1.5-10.43,1.78
				c-0.97,1.22-1.89,2.36-3.22,3.21c-1.28,0.82-2.68,1.38-4.14,1.78c-3.26,0.89-6.66,0.97-10.01,0.91
				c-4.13-0.07-8.25-0.45-12.31-1.16c-8.86-1.55-18.08-4.21-26.97-1.33c0.35,1.29,0.71,2.57,1.06,3.86
				c9.84-3.98,20.45,0.82,30.15,2.92c5.07,1.1,10.33,1.72,15.46,0.58c2.91-0.65,5.55-1.99,8.19-3.33c2.89-1.46,5.73-2.47,8.97-2.75
				c6.71-0.57,14.26,0.11,19.39-5.15c1.8-1.84-1.03-4.68-2.83-2.83c-4.24,4.35-11.04,3.51-16.56,3.98
				c-3.27,0.28-6.26,1.04-9.23,2.43c-2.64,1.23-5.14,2.75-7.97,3.53c-4.82,1.33-9.91,0.66-14.71-0.4c-5.03-1.12-9.96-2.7-15.02-3.67
				c-5.62-1.07-11.5-1.36-16.9,0.82c-1,0.4-1.71,1.33-1.4,2.46c0.28,1.01,1.43,1.73,2.46,1.4c8.32-2.7,17,0,25.3,1.41
				c4.51,0.77,9.08,1.2,13.65,1.23c3.58,0.03,7.24-0.16,10.7-1.16c3.46-1.01,6.41-2.85,8.62-5.71c0.45-0.58,0.85-1.17,1.6-1.36
				c0.96-0.24,2.17-0.02,3.13,0.1c2.12,0.26,4.21,0.73,6.35,0.84c3.54,0.18,7.23-0.91,9.49-3.79c2.23-2.85,1.93-6.62-0.55-9.21
				c-2.85-2.97-7.44-4.1-11.17-5.52c-4.79-1.83-9.58-3.66-14.37-5.49c-1.26-0.48-2.51,0.74-2.53,1.93
				c-0.19,9.33-8.69,15.92-17.07,18.02c-5.38,1.35-11.01,1.31-16.51,0.88c-5.82-0.46-11.68-1.68-17.54-1.17
				c-6.54,0.58-12.63,2.99-18.64,5.46c-1,0.41-1.71,1.33-1.4,2.46C107.3,171.16,108.49,172.03,109.5,171.62L109.5,171.62z"/>
		</g>
	</g>
	<g>
		<g>
			<path class="st1" d="M78.4,182.85c12.76,3.49,25.04-2.99,37.14-6.07c6.49-1.65,13.19-2.37,19.88-2.08
				c6.6,0.29,12.87,1.95,19.29,3.36c6.5,1.43,13.29,2.25,19.81,0.46c5.66-1.55,10.28-5.21,15.49-7.71c2.74-1.31,5.6-2,8.63-2.11
				c3.3-0.12,6.59,0.2,9.88,0.11c2.9-0.08,6.21-0.31,8.71-1.94c2.25-1.46,3.96-4.09,2.66-6.78c-0.74-1.53-2.24-2.53-3.54-3.54
				c-1.37-1.07-2.77-2.1-4.21-3.08c-2.82-1.93-5.77-3.68-8.82-5.24c-6.12-3.13-12.63-5.49-19.34-7.01c-2.5-0.57-3.57,3.24-1.06,3.86
				c7.83,1.93,15.56,4.3,23.12,7.11c3.1,1.15,6.7,2.21,9.12,4.59c1.5,1.48,2.63,4.27,1.22,6.21c-1.87,2.57-5.74-0.15-4.27-2.88
				c-0.91,0.24-1.82,0.48-2.74,0.72c0.63,0.39,0.91,0.93,0.92,1.66c1-0.58,2.01-1.15,3.01-1.73c0.34,0.23-0.12,0.86-0.47,0.39
				c0-0.67,0-1.35,0-2.02c-0.09,0.2-0.03,0.23,0.18,0.07c0.18,1.31,0.35,2.62,0.53,3.93c0.05-0.02-0.85-0.1-0.87-0.39
				c0.57-0.36,1.14-0.72,1.72-1.08c0.02,0.39-0.06,0.77-0.22,1.14c1.63-1.97-1.19-4.82-2.83-2.83c-1.03,1.25-1.14,2.82-0.1,4.13
				c0.95,1.2,2.67,1.74,4.04,0.88c2.96-1.87,0.47-6.9-2.8-5.71c-1.97,0.72-1.87,4.1,0.53,3.93c1.4-0.1,2.66-0.73,3.27-2.05
				c0.29-0.61,0.44-1.42,0-2.02c-1.34-1.84-4.07-2.5-5.82-0.72c-1.72,1.75-1.08,4.52,0.81,5.81c1.27,0.86,3.03-0.28,3.01-1.73
				c-0.03-2.16-1.08-3.98-2.9-5.12c-0.89-0.56-2.23-0.21-2.74,0.72c-2.08,3.86-0.07,8.98,4.43,9.76c4.29,0.74,7.68-2.48,7.88-6.68
				c0.2-4.24-2.66-7.6-6.17-9.58c-4.24-2.4-9.18-3.86-13.78-5.41c-5.6-1.89-11.28-3.53-17.02-4.95c-0.35,1.29-0.71,2.57-1.06,3.86
				c11.21,2.54,21.87,7.48,30.93,14.57c0.56,0.43,2.41,1.51,2.48,2.3c0.08,0.83-1.15,1.53-1.76,1.84c-2.44,1.23-5.7,1.08-8.36,1.03
				c-3.06-0.05-6.13-0.29-9.18-0.02c-2.93,0.26-5.65,1.01-8.33,2.22c-4.92,2.22-9.21,5.76-14.39,7.39
				c-5.91,1.86-12.15,1.18-18.1-0.1c-6.15-1.32-12.18-2.96-18.48-3.46c-6.32-0.5-12.71-0.06-18.93,1.12
				c-6.77,1.29-13.2,3.77-19.8,5.69c-6.36,1.85-13.03,3.13-19.56,1.34C76.98,178.32,75.92,182.17,78.4,182.85L78.4,182.85z"/>
		</g>
	</g>
	<g>
		<g>
			<path class="st1" d="M189.03,154.05c0.08,3.48,1.24,7.83,5.22,8.57c3.41,0.63,7.26-2.15,5.65-5.87c-0.72-1.66-2.4-2.85-4.23-2.85
				c-2.4,0.01-3.1,2.34-2.92,4.38c0.34,3.84,4.19,6.59,7.84,4.77c4.13-2.06,2.61-8.28-1.82-8.6c-0.78-0.06-1.81,0.66-1.93,1.47
				c-0.27,1.82,0.15,3.57,1.49,4.9c1.26,1.24,3.15,1.77,4.83,1.16c3.27-1.19,4.57-6.23,1.16-8.1c-2.84-1.56-7.23,0.53-6.46,4.12
				c0.67,3.08,5.16,4.52,7.15,1.82c2.48-3.38-1.22-7.22-4.51-7.91c-3.4-0.71-7.13,0.5-9.19,3.36c-2.06,2.85-1.53,7.8,2.59,8.29
				c3.87,0.46,6.42-3.31,5.85-6.83c-0.55-3.39-3.55-7.67-7.38-7.25c-4.02,0.44-5.9,4.79-4.66,8.35c0.62,1.76,1.93,3.92,4,4.05
				c1.86,0.11,3.48-1.28,4.3-2.86c1.56-3.01,0.84-6.99-1.94-9.01c-2.64-1.92-6.48-1.47-8.85,0.66c-2.47,2.22-2.63,6.12-0.83,8.8
				c0.92,1.38,2.33,2.51,3.98,2.84c2.06,0.42,3.65-0.87,4.16-2.82c0.95-3.61-0.19-7.62-2.55-10.44c-1.2-1.44-2.94-2.62-4.88-2.52
				c-1.7,0.09-3.12,1.14-3.87,2.64c-1.47,2.93-1.14,7.67,1.02,10.17c2.56,2.97,7.22,2.01,8.13-1.88c0.79-3.4-0.79-7.15-3.13-9.58
				c-1.24-1.29-2.74-2.19-4.39-2.84c-0.88-0.34-1.77,0.25-2.26,0.92c-3.27,4.49-2.78,11.02,0.69,15.25c0.85,1.03,2.1,2.47,3.58,2.11
				c1.4-0.34,2.47-1.61,2.88-2.94c0.87-2.8-0.86-5.7-3.75-6.23c-6.71-1.23-10.06,8.47-5.33,12.6c2.46,2.15,6,1.13,7.77-1.35
				c1.91-2.69,1.06-6.5-0.77-9c-1.08-1.48-2.8-2.71-4.72-2.28c-1.82,0.41-2.84,2.21-3.49,3.8c-1.32,3.25-0.93,7.09,0.99,10.02
				c0.9,1.36,2.53,1.2,3.45,0c2.37-3.07,3.19-8.11-0.82-10.28c-1.73-0.94-3.88-0.88-5.37,0.49c-1.4,1.29-2.23,3.46-2.87,5.22
				c-0.67,1.88-0.98,4.03-0.28,5.94c0.42,1.15,1.03,2.2,2.37,2.31c0.95,0.08,1.9-0.13,2.76-0.55c3.64-1.79,4.52-6.75,1.51-9.55
				c-3.04-2.83-7.6-2.16-9.96,1.13c-2.08,2.9-1.87,8.48,2.34,9.33c3.77,0.76,7.09-2.99,6.39-6.62c-0.7-3.62-4.76-6.31-8.34-5.1
				c-3.26,1.11-5,5.11-3.9,8.32c0.58,1.69,1.99,3.42,3.89,3.56c2.05,0.15,3.85-1.42,4.27-3.39c0.83-3.94-3.19-7.32-6.95-6.4
				c-3.59,0.88-6.55,5.53-4.67,9.05c0.85,1.6,2.79,2.45,4.49,1.68c1.5-0.68,2.41-2.36,2.4-3.99c-0.04-4.71-5.86-4.96-8.89-2.93
				c-1.67,1.11-3.18,2.93-3.08,5.05c0.09,1.86,1.51,3.5,3.33,3.86c2.17,0.43,3.99-1.28,4.11-3.41c0.11-2-1.1-3.88-2.72-4.96
				c-3.44-2.29-8.45,0.08-8.25,4.4c0.18,3.9,5.58,5.79,7.99,2.62c2.49-3.26-0.89-7.6-4.28-8.35c-1.78-0.4-3.86-0.18-5.28,1.06
				c-1.44,1.26-1.74,3.27-0.75,4.91c0.98,1.63,2.96,2.29,4.64,1.34c1.1-0.62,1.34-2.27,0.4-3.14c-2.37-2.22-5.47-3.43-8.72-3.24
				c-1.36,0.08-2.69,1.7-1.73,3.01c1.43,1.95,3.2,3.3,5.46,4.16c1.84,0.7,3.45-2.09,1.95-3.34c-2.35-1.95-5.32-2.7-8.3-1.88
				c-1.54,0.43-2.09,2.9-0.48,3.66c4.16,1.94,8.64,2.89,13.23,2.63c2.11-0.12,2.88-3.56,0.53-3.93c-3.72-0.59-7.44-1.18-11.17-1.77
				c-2.48-0.39-3.61,3.17-1.06,3.86c6.84,1.86,13.79,3.28,20.81,4.25c0.99,0.14,1.96-0.15,2.36-1.16c0.34-0.85,0.1-2.07-0.82-2.5
				c-2.85-1.33-5.78-2.14-8.92-2.45c-2.23-0.22-2.75,3.52-0.53,3.93c4.69,0.87,9.43,1.31,14.2,1.28c2.57-0.02,2.58-4.02,0-4
				c-4.41,0.04-8.8-0.33-13.14-1.13c-0.18,1.31-0.35,2.62-0.53,3.93c2.38,0.24,4.73,0.89,6.9,1.9c0.51-1.22,1.03-2.44,1.54-3.66
				c-7.02-0.98-13.97-2.4-20.81-4.25c-0.35,1.29-0.71,2.57-1.06,3.86c3.72,0.59,7.44,1.18,11.17,1.77c0.18-1.31,0.35-2.62,0.53-3.93
				c-3.86,0.21-7.7-0.45-11.21-2.09c-0.16,1.22-0.32,2.44-0.48,3.66c1.52-0.42,3.17-0.18,4.41,0.85c0.65-1.11,1.3-2.23,1.95-3.34
				c-1.2-0.46-2.3-1.28-3.07-2.32c-0.58,1-1.15,2.01-1.73,3.01c2.21-0.12,4.27,0.55,5.9,2.07c0.13-1.05,0.27-2.09,0.4-3.14
				c0.97-0.54,0.84,0.33,0.68,0.32c0.02,0,0.14-0.19,0.2-0.2c0.24-0.03,0.47-0.13,0.72-0.15c1.04-0.09,2.12,0.47,2.67,1.36
				c0.9,1.46-1.55,0.53-0.11-0.56c0.76-0.57,1.78,0.01,2.24,0.7c-0.01-0.01,0.25,0.62,0.27,0.63c0,0.05,0.01,0.1,0.01,0.15
				c0.17-0.24,0.4-0.34,0.67-0.3c-0.01,0.01-0.16-0.11-0.14-0.13c0.01-0.02,0.14-0.39,0.23-0.54c0.56-0.92,1.89-1.63,2.94-1.64
				c0.18,0,0.73,0.05,0.81,0.16c0,0-0.03,0.47-0.04,0.42c-0.05,0.06-0.11,0.11-0.16,0.17c0.2-0.19,0.44-0.25,0.71-0.16
				c0.71-0.55-0.13,0.39,0.12,0.03c-0.09,0.13-0.03-0.79-0.04-0.68c0.02-0.22,0.13-0.54,0.22-0.74c0.41-0.93,1.45-1.98,2.56-1.86
				c0.68,0.08,1.58,0.84,1.49,1.59c-0.01,0.12-0.09,0.24-0.1,0.35c-0.05,0.46-0.1-0.18,0.16,0.06c-0.34-0.32-0.54-0.72-0.62-1.19
				c-0.28-1.77,1.16-3.63,3.02-2.77c0.82,0.38,1.61,1.24,1.64,2.17c0.02,0.73-0.63,1.66-1.43,1.69c-1.02,0.04-0.81-1.67-0.57-2.33
				c0.41-1.12,1.43-2.12,2.69-2.06c0.98,0.04,2.15,0.8,2.3,1.84c0.18,1.25-1.02,2.18-2.15,2.1c0.58,0.33,1.15,0.66,1.73,0.99
				c-0.78-1.27-0.49-2.64-0.03-3.99c0.23-0.67,0.53-1.31,0.85-1.95c0.18-0.37,0.56-1.44,0.98-1.63c0.58-0.25,1.26,0.48,1.42,0.98
				c0.44,1.36-0.67,2.9-1.44,3.89c1.15,0,2.3,0,3.45,0c-0.77-1.17-1.22-2.45-1.23-3.86c-0.01-0.7,0.08-1.36,0.27-2.03
				c0.18-0.62,0.77-1.28,0.87-1.86c0.21-0.17,0.2-0.22-0.02-0.17c-0.23-0.01-0.22,0.02,0.01,0.09c0.07,0.17,0.49,0.46,0.62,0.64
				c0.47,0.64,0.81,1.42,0.99,2.2c0.24,1.08,0.03,2.58-1.22,2.97c-2.29,0.72-1.75-3.99-1.03-4.97c0.49-0.66,1.85-1.34,2.58-0.62
				c0.18,0.18,0.41,1.02,0.04,1.16c0.65,0.17,1.3,0.34,1.95,0.51c-3.67-2.87-4.45-8.22-1.7-12c-0.75,0.31-1.51,0.61-2.26,0.92
				c2.69,1.06,5.25,4.35,4.76,7.38c-0.06,0.37-0.27,0.85-0.43,0.88c-0.63,0.11-1.11-0.74-1.29-1.19c-0.52-1.32-0.66-3.21-0.21-4.56
				c0.45-1.35,1.32-0.84,2.16,0.04c1.15,1.21,1.85,2.89,2.02,4.53c0.09,0.82-0.19,1.65-0.13,2.44c0-0.06-0.06,0.25-0.06,0.25
				c0.22-0.09,0.44-0.17,0.66-0.26c-0.11-0.03-0.21-0.06-0.32-0.09c-0.2-0.18-0.49-0.27-0.7-0.46c-0.9-0.78-1.35-2.24-0.92-3.37
				c0.85-2.23,4.43-2.33,5.3-0.09c0.21,0.55,0.29,1.21,0.19,1.8c-0.12,0.72-0.6,1.04-0.87,1.62c-0.15,0.31-0.32-0.15,0.04,0.07
				c0.47,0.29,0.08-0.27,0.08-0.25c-0.05-0.31-0.43-0.73-0.54-1.06c-0.25-0.7-0.35-1.53,0.01-2.2c1.63-3.09,5.59,2.73,4.02,4.65
				c-0.49,0.6-1.5,0.94-1.48-0.13c0.03-1.39,1.45-2.46,2.63-2.89c1.38-0.5,3.26-0.52,4.44,0.47c0.2,0.17,0.8,1.42,1,0.76
				c-0.03,0.1-0.28-0.1-0.36-0.08c-0.07,0.02,0.02,0.33-0.14,0.31c0.02,0,0.43-0.16,0.44-0.16c0.29,0,0.31-0.06,0.25,0.3
				c-0.22,1.25-1.76,0.28-1.62-0.64c-0.64,0.49-1.29,0.98-1.93,1.47c0.22,0.02,0.36,0.64,0.29,0.8c-0.12,0.29-0.57,0.36-0.83,0.37
				c-1.65,0.05-1.65-1.96-1.24-3.07c-0.47,0.47-0.93,0.93-1.4,1.4c0.23-0.06,0.78,0.21,0.66,0.53c-0.12,0.34-0.98,0.3-1.21,0.25
				c-1.86-0.38-1.99-3.19-2.02-4.66C192.98,151.48,188.98,151.47,189.03,154.05L189.03,154.05z"/>
		</g>
	</g>
	<g>
		<g>
			<path class="st1" d="M33.94,82.31c0.13,7.49,1.48,14.96,4.11,21.98c1.14,3.04,2.39,6.31,4.81,8.59c2.21,2.08,5.29,2.92,8.11,1.51
				c2.67-1.34,4.19-4.28,5-7.02c1.05-3.52,1.4-7.3,1.38-10.96c-0.04-7.75-1.81-15.35-2.99-22.97c-1.35-8.77-1.9-17.65-1.73-26.52
				c0.05-2.57-3.95-2.58-4,0c-0.13,7.19,0.21,14.38,1.05,21.53c0.83,7.02,2.39,13.94,3.2,20.96c0.39,3.4,0.6,6.83,0.37,10.25
				c-0.19,2.89-0.59,6.12-1.95,8.72c-0.93,1.78-2.58,3.49-4.69,2.37c-2.21-1.17-3.34-4.05-4.21-6.23
				c-2.82-7.07-4.33-14.59-4.46-22.2C37.9,79.73,33.9,79.73,33.94,82.31L33.94,82.31z"/>
		</g>
	</g>
</g>
<g id="Layer_2">
	<g>
		<g>
			<path class="st2" d="M145.61,115.27c-8.46,1.58-16.82,2.19-25.39,2.74c-7.19,0.47-15.75,1.41-22.32-2.2
				c-12.04-6.63-13.66-22.5-9.33-34.21c4.94-13.38,16.85-25.94,29.82-31.82c13.68-6.2,30.04-3.23,41.65,6.03
				c20.5,16.36,23.7,48.53,2.15,65.41c-9.66,7.57-22.54,10.08-34.07,5.49c-10.91-4.34-20.14-14.56-21.4-26.49
				c-1.41-13.33,8.27-24.68,21.5-26.27c13.3-1.59,27.3,7.34,32.77,19.33c2.55,5.58,3.06,12.62-1.99,16.96
				c-3.95,3.39-9.55,4.52-14.63,4.68c-11.26,0.36-26.92-3.56-26.22-17.52c0.28-5.54,3.19-12.28,8.01-15.36
				c5.74-3.68,12.14,4.62,15.28,8.65c3.27,4.2,7.47,11.94,2.59,16.66c-4,3.87-10.25-1.21-12.25-4.89
				c-2.12-3.91-2.73-9.28,0.78-12.61c2.86-2.71,7.99-3.54,11.56-1.81c5.47,2.65,3.78,9.71-2.61,7.19c-1.5-0.59-6.39-4.18-5.05-6.35
				c1.26-2.04,5.67-0.23,6.88,0.7c4.02,3.09,2.87,10.59-2.46,11.47c-5.61,0.92-4.77-4.83-1.76-7.5c2.62-2.32,9.98-3.03,10.79,1.57
				c0.86,4.88-4.21,2.36-2.76-0.36c2.18-4.11,7.63,0.48,8.09,3.35c0.37,2.32-0.33,4.87-1.84,6.66c-0.94,1.11-3.96,3.46-5.3,1.45
				c-1.72-2.58,7.57-11.57,8.73-6.06c0.4,1.89-0.87,4.52-1.87,6.07c-0.62,0.97-1.27,1.83-2.25,2.47c-1.22,0.79-2.97,0.5-1.29,1.66
				c1.68,1.16,1.08-0.78,1.8-2.37c0.5-1.11,1.22-2.12,2.04-3.02c2.05-2.24,4.63-3.24,7.57-3.73c-2.52-1.03-5.05-2.05-7.57-3.08
				c1.16,1.81,1.39,3.34,0.67,5.38c-0.84,2.36-2.14,2.14-3.57,3.56c-1-0.21-1.13,0.05-0.37,0.79c0.36,0.83,0.51,1.06,0.46,0.71
				c0.53-0.24,1.42-1.97,2.09-2.5c2.98-2.33,7.56-2.74,11.14-2.74c-2.12-2.79-4.24-5.57-6.37-8.36
				c-2.88,12.73-11.15,21.49-22.96,26.32c-0.58,0-0.62,0.23-0.14,0.7c0.34,0.99,0.56,0.77,0.67-0.68c0.78-0.82,1.23-2.08,1.98-2.99
				c1.3-1.56,3.6-4.66,5.68-2.97c2.01,1.64,0.41,4.96-0.86,6.55c-0.1,0.13-1.91,2.08-2.09,2.13c-2.37,0.58-4.87-2.83-6.1-4.35
				c-5.32-6.55-14.37,2.74-9.23,9.23c4.76,6,13.07,9.98,19.34,3.52c5.52-5.69,2.38-15.98-6.11-15.93
				c-8.57,0.05-12.72,10.42-7.27,16.67c5.67,6.5,14.94,4.29,20.38-1.26c5.65-5.78,8.34-15.09,4.14-22.47
				c-4.03-7.08-12.78-10.27-20.15-6.49c-6.25,3.21-12.18,10.25-13.27,17.28c-1.31,8.43,5.37,15.07,13.74,14.45
				c8.49-0.62,16.86-6.72,22.52-12.73c6.19-6.58,10.51-14.67,12.48-23.47c0.95-4.24-1.93-8.24-6.37-8.36
				c-8.72-0.23-18.4,2.43-23.72,9.79c-4.95,6.85-3.57,17.02,5.22,19.92c16.14,5.32,27.81-15.62,19.66-28.47
				c-1.74-2.75-4.5-3.58-7.57-3.08c-11,1.79-21.35,12.57-20.28,24.22c1.25,13.53,17.44,12.04,24.6,4.26
				c6.91-7.51,9.69-22.06,0.13-28.72c-10.37-7.23-23.86,1.43-27.78,11.89c-4.68,12.49,7.32,23.76,19.64,19.01
				c10.97-4.23,15.91-17.96,11.03-28.46c-4.5-9.67-16.74-13.29-25.87-7.72c-10.35,6.31-8.75,21.55,1.42,27.13
				c10.51,5.77,21.3-4.04,21.11-14.81c-0.22-12.61-14.31-19.13-25.3-16c-10.06,2.87-17.59,14.44-14.15,24.72
				c3.74,11.17,18.36,13.6,27.15,7.03c9.93-7.43,10.67-22.53,1.4-30.78c-8.29-7.38-24.91-7.3-28.6,5.06
				c-3.88,13,10.65,25.5,22.92,23.55c12.58-2,18.02-16.01,10.73-26.18c-6-8.37-17.66-10.48-26.9-6.76
				c-10.13,4.07-15.32,14.27-13.46,24.91c1.8,10.25,9.93,19.22,20.32,21.02c12.86,2.23,22.68-8.77,22.12-21.21
				c-0.53-11.74-10.33-24.27-20.26-30.05c-12.13-7.06-24.4,0.24-30.46,11.55c-5.19,9.69-6.22,22.23-0.03,31.75
				c6.53,10.05,18.81,13.89,30.18,14.87c10.62,0.91,23.04-1.5,30.69-9.48c8.86-9.23,8.41-22.58,2.92-33.44
				c-11.09-21.92-40.54-33.14-62.13-19.76c-22.07,13.68-22.18,42.93-5.7,61.1c15.77,17.39,41.97,20.92,61.48,7.76
				c19.62-13.23,28.66-37.48,21.44-60.18c-7.34-23.08-28.68-40.33-53.23-40.67c-25.75-0.36-49.43,21.04-57.89,44.35
				c-8.46,23.3,4.13,50.49,30.39,52.07c13.82,0.83,28.03-2.07,41.34-5.51C154.5,123.22,151.8,114.11,145.61,115.27L145.61,115.27z"
				/>
		</g>
	</g>
	<g>
		<g>
			<path class="st2" d="M99.93,106.02c-2.13,1.45-1.94-7.72-1.94-8.34c-0.01-3.13,0.01-6.32,0.63-9.41
				c1.21-6.03,4.64-10.64,9.28-14.54c9.23-7.74,22.11-14.08,34.43-12.37c12.73,1.77,19.09,12.29,22.36,23.76
				c1.67,5.87,2.47,12.51-1.52,17.65c-3.49,4.5-9.03,7.1-13.97,9.65c-6.63,3.42-2.03,14,5.04,11.96
				c13.12-3.77,22.92-15.69,23.9-29.35c1.06-14.74-8.83-27.19-18.23-37.38c-5.21-5.65-10.62-11.45-17.78-14.59
				c-6.44-2.83-13.37-3.29-20.25-2.14c-13.94,2.34-25.83,12.1-32.29,24.47c-7.39,14.14-8.66,31.38-2.52,46.2
				c1.45,3.49,4.59,5.89,8.55,4.85c3.45-0.91,6.09-5.01,4.85-8.55c-2.32-6.65-3.98-13.45-4.98-20.42c-0.96-6.67-12.1-6.46-13.26,0
				c-2.2,12.29,3.99,26.62,17.33,28.98c5.94,1.05,9.57-6.44,4.18-9.92c-5.04-3.26-9.49-9.07-8.25-15.4c-4.5-0.61-9-1.22-13.5-1.83
				c0.97,7.65,2.53,15,5.08,22.29c4.47-1.23,8.93-2.46,13.4-3.69c-5.06-12.17-4.58-25.98,2.15-37.47
				c5.94-10.13,18.23-19.08,30.54-16.58c7.22,1.46,12.23,7.25,17.06,12.38c4.64,4.92,9.33,10.02,12.37,16.14
				c5.77,11.62,1.07,25.49-11.81,29.39c1.68,3.99,3.36,7.98,5.04,11.96c12.97-6.93,24.25-16.36,22.84-32.54
				c-1.21-13.88-8.42-30.07-20.85-37.31c-13.02-7.58-28.75-5.43-41.72,0.97c-12.39,6.11-25.1,16.27-27.62,30.61
				c-1.29,7.36-2.17,18.56,1.94,25.16c3.26,5.24,11.43,6.4,14.44,0.31C106.31,107.97,103.13,103.84,99.93,106.02L99.93,106.02z"/>
		</g>
	</g>
	<g>
		<g>
			<path class="st2" d="M90.57,95.79c-0.47,7.3,3.18,15.18,5.68,21.96c2.42,6.57,5.43,12.83,10.2,18.05
				c9.75,10.67,25.55,13.17,39.33,13.15c14.33-0.02,27.67-4.77,36.08-16.84c8.1-11.63,10.87-28,8.75-41.83
				c-2.09-13.67-12.71-32.11-28.85-29.54c-3.23,0.51-4.15,5.19-1.91,7.25c4.48,4.13,9.98,7.2,13.45,12.32
				c4.06,6,5.31,13.25,5.08,20.38c-0.43,13.3-5.6,29.24-19.48,33.77c-6.54,2.14-13.48,2.15-20.28,1.6
				c-6.85-0.55-14.28-1.79-20.07-5.73c-5.64-3.84-8.84-10.21-11.62-16.24c-3.16-6.84-5.16-15.28-10.56-20.71
				C94.19,91.19,90.76,92.93,90.57,95.79L90.57,95.79z"/>
		</g>
	</g>
	<g>
		<g>
			<path class="st2" d="M86.69,109.87c-3.23-11.17-4.06-22.22,0.12-33.3c3.97-10.53,11.93-18.82,21.64-24.29
				c19.96-11.24,49.85-12.45,64.79,7.34c13.12,17.39,21.4,47.95,3.01,64.65c-7.09,6.43-16.7,9.61-25.95,11.31
				c-10.86,2-23.17,2.27-33.6-1.7c-10.8-4.11-20.09-13.05-24.17-23.91c-4.38-11.65-2.01-26.16,9.19-33.12
				c5.05-3.13,1.78-12.49-4.24-10.07C83.74,72.3,76.13,85.2,76.77,99.94c0.63,14.46,8.2,28.29,19.34,37.38
				c21.61,17.63,55.56,17.01,79.4,3.81c11.99-6.64,21-17.83,23.45-31.48c2.83-15.77-1.13-32.14-8.58-46.12
				c-7.21-13.53-17.93-24.81-33.1-28.86c-14.23-3.8-30.22-2.2-43.81,3.23c-14.51,5.8-27.37,16.14-33.87,30.62
				c-6.04,13.44-7.59,31.24,1.68,43.64C83.15,114.68,87.69,113.36,86.69,109.87L86.69,109.87z"/>
		</g>
	</g>
	<g>
		<g>
			<path class="st2" d="M145.63,81.25c-3.32-17.09-24.16-21.09-36.16-10.27c-14.02,12.63-9.75,34.43,4.35,45.05
				c13.03,9.82,38.88,13.1,42.09-8.07c1.4-9.25-3.29-17.69-8.42-25.02c-5.19-7.42-12.07-14.9-21.86-15.02
				c-18.26-0.22-25.44,26.68-16.98,39.89c8.79,13.72,31.93,16.05,43.81,5.17c14.17-12.98,3.06-36.09-11.69-43.32
				c-7.58-3.71-16.6-2.99-22.28,3.64c-5.05,5.89-6.12,14.62-2.99,21.66c6.37,14.3,31.29,22.5,42.22,8.74
				c11.86-14.93-5.83-36.64-20.73-40.95c-8.46-2.44-17.33,1.24-20.24,9.78c-2.82,8.26-0.11,17.85,4.9,24.69
				c9.23,12.59,29.29,17.92,41.74,6.65c14.76-13.35,5.92-34.7-5.89-46.41c-6.46-6.4-14.83-11.24-24.17-8.93
				c-8.46,2.08-14.91,9.27-17.3,17.47c-5.35,18.36,7.96,35.16,24.36,41.57c8.38,3.28,18.4,4.06,26.25-1.02
				c8.05-5.21,10.58-15.02,7.5-23.88c-2.96-8.5-10.4-14.96-17.64-19.89c-8.16-5.55-17.79-7.42-25.9-0.79
				c-6.6,5.4-12.3,13.38-11.63,22.25c0.69,9.2,7.08,16.91,15.15,20.91c7.8,3.87,18.4,6.1,26.9,3.39
				c7.99-2.55,14.49-10.64,12.24-19.31c-3.85-14.86-29.92-28.12-40.21-12.18c-5.22,8.08-1.49,17.4,3.43,24.54
				c3.53,5.13,10.9,0.75,8.3-4.85c-1.77-3.81-5.63-11.74-1.18-15.04c4.43-3.29,10.62,0.58,14.03,3.5c3.02,2.58,7.44,6.47,4.28,10.57
				c-3.7,4.81-11.8,3.36-16.82,2.07c-10.18-2.61-20.54-12.07-12.55-22.62c3.7-4.89,7.93-8.71,14.22-5.94
				c4.94,2.18,9.76,6.37,13.28,10.41c3.21,3.68,6.3,9.36,3.94,14.28c-2.63,5.49-9.83,5.94-14.98,4.81
				c-9.68-2.14-19.28-8.96-22.22-18.76c-2.74-9.12,2.69-24.57,14.74-20.79c9.09,2.86,18.01,15.14,18.74,24.44
				c0.77,9.88-6.49,16.59-16.21,15.32c-9.53-1.25-18.17-10.21-17.57-20.13c0.88-14.56,18.18,0.74,21.68,6.02
				c2.48,3.73,4.28,10.05-0.11,13.22c-3.77,2.72-10.08,1.52-14.04-0.18c-3.7-1.59-7.46-4.46-8.76-8.43
				c-1.18-3.61-0.1-8.78,3.56-10.58c9.16-4.51,19.33,11.38,19.22,18.88c-0.15,10.64-13.93,12.22-21.77,9.74
				c-10.75-3.4-12.3-14.74-7.41-23.95c7.48-14.05,21.1,5.74,24.67,13.06c2.17,4.43,3.76,11.54-0.82,15.2
				c-4.37,3.49-13.06,0.8-17.56-1.29c-10.37-4.81-18.05-17.8-11.92-28.79c5.91-10.59,22.43-11.32,27.05,0.95
				C141.54,86.05,146.32,84.79,145.63,81.25L145.63,81.25z"/>
		</g>
	</g>
	<g>
		<g>
			<path class="st2" d="M74.58,80.98c-1.31,3.61-2.49,7.26-3.54,10.96c-0.52,1.85-1.01,3.7-1.47,5.57
				c-0.44,1.78-1.03,3.67-0.99,5.53c0.07,3.6,3.24,6.59,5.43,9.16c2.42,2.84,4.98,5.54,7.67,8.13c1.56,1.5,4.58-0.56,3.14-2.42
				c-2.6-3.37-4.93-6.94-6.92-10.71c-1.75-3.29-4.22-7.45-3.24-11.31c-1.31-0.18-2.62-0.35-3.93-0.53
				c-0.12,7.35,2.53,14.45,7.32,20.01c1.56,1.81,4.09-0.49,3.14-2.42c-1.22-2.46-2.43-4.93-3.65-7.39c-1.15,0.67-2.3,1.35-3.45,2.02
				c2.18,4.06,4.82,7.84,7.84,11.32c1.69,1.95,4.51-0.89,2.83-2.83c-2.8-3.23-5.19-6.75-7.21-10.51c-1.23-2.28-4.59-0.27-3.45,2.02
				c1.22,2.46,2.43,4.93,3.65,7.39c1.05-0.81,2.09-1.62,3.14-2.42c-4.1-4.76-6.25-10.92-6.15-17.18c0.04-2.24-3.37-2.73-3.93-0.53
				c-1.18,4.64,0.96,9.12,3.02,13.18c2.13,4.21,4.67,8.19,7.55,11.92c1.05-0.81,2.09-1.62,3.14-2.42c-2.46-2.37-4.82-4.84-7.06-7.42
				c-1.12-1.29-2.21-2.6-3.27-3.95c-0.94-1.2-1.75-2.31-1.57-3.9c0.18-1.69,0.75-3.41,1.17-5.06c0.43-1.71,0.89-3.4,1.38-5.1
				c0.98-3.38,2.08-6.73,3.28-10.04C79.31,79.62,75.45,78.58,74.58,80.98L74.58,80.98z"/>
		</g>
	</g>
	<g>
		<g>
			<path class="st2" d="M79.04,102.14c-0.07-1.77-0.15-3.53-0.22-5.3c-0.03-0.82-0.07-1.65-0.1-2.47c-0.02-0.61-0.13-1.32,0.16-1.87
				c-1.15,0-2.3,0-3.45,0c2.28,4.6,4.55,9.19,6.83,13.79c0.9,1.82,3.74,0.9,3.73-1.01c-0.02-3-0.98-5.8-2.03-8.57
				c-0.38-1.01-1.35-1.7-2.46-1.4c-1,0.28-1.74,1.43-1.4,2.46c1.44,4.32,3.22,8.52,5.34,12.55c1.2,2.28,4.65,0.26,3.45-2.02
				c-1.96-3.73-3.61-7.6-4.94-11.6c-1.29,0.35-2.57,0.71-3.86,1.06c0.91,2.42,1.87,4.89,1.89,7.51c1.24-0.34,2.48-0.67,3.73-1.01
				c-2.28-4.6-4.55-9.19-6.83-13.79c-0.66-1.33-2.78-1.28-3.45,0c-0.94,1.78-0.72,3.72-0.64,5.66c0.08,2,0.17,4.01,0.25,6.01
				C75.15,104.71,79.15,104.72,79.04,102.14L79.04,102.14z"/>
		</g>
	</g>
</g>
<g id="Layer_3">
	<g>
		<g>
			<path class="st3" d="M66.57,106.2c4.56,5.7,9.08,11.44,13.71,17.08c4.21,5.12,8.63,10.12,13.78,14.34
				c10.09,8.26,22.53,13.1,35.45,14.49c13.57,1.46,27.35-1.2,39.82-6.59c6.12-2.65,12.19-5.9,17.16-10.39
				c4.6-4.15,7.93-9.48,10.12-15.24c4.87-12.8,3.34-27-0.72-39.79c-3.93-12.42-9.95-24.46-20-33.04
				c-9.21-7.86-20.74-12.7-32.79-13.81c-12.92-1.19-26.21,1.99-37.36,8.57c-9.93,5.86-18.73,15-21.76,26.37
				c-3.25,12.21,0.9,25.84,7.02,36.51c5.63,9.81,13.87,18.22,23.81,23.67c10.75,5.9,23.27,8.06,35.4,6.38
				c6.04-0.83,11.93-2.67,17.35-5.48c5.47-2.83,10.66-6.7,14.12-11.87c3.59-5.36,4.66-12.08,4.64-18.41
				c-0.02-5.81-1.09-11.68-3.24-17.08c-4.24-10.64-12.48-19.32-23.61-22.66c-10.86-3.26-23.52-1.23-31.68,7
				c-4.06,4.09-6.48,9.4-6.57,15.19c-0.09,5.42,1.76,10.81,5.1,15.06c6.93,8.84,19.91,10.44,29.54,5.29
				c2.43-1.3,4.75-3.08,6.46-5.24c2.08-2.63,2.84-5.75,2.15-9.04c-1.23-5.82-6.63-10.84-12.6-11.32c-5.76-0.47-11.7,4.27-10.8,10.35
				c0.36,2.47,1.81,4.85,4.01,6.12c2.54,1.46,6.11,1.25,8.06-1.1c1.78-2.15,1.37-5.77-1.24-7.07c-2.53-1.26-5.87,0.75-5.75,3.62
				c0.11,2.56,4.11,2.58,4,0c0-0.07-0.15,0.01-0.15,0.11c0-0.01,0.28-0.2,0.31-0.13c-0.13-0.29-0.06,0.15-0.07,0.23
				c-0.17,0.89-0.66,1.27-1.66,1.29c-1.88,0.03-3.23-1.79-3.54-3.49c-0.38-2.08,0.83-3.93,2.58-4.97c2.04-1.21,4.48-1.25,6.64-0.32
				c4.31,1.86,8.4,7.76,5.62,12.33c-2.46,4.04-7.53,6.41-12.01,7.26c-4.47,0.85-9.32,0.2-13.3-2.03c-3.91-2.19-6.8-5.88-8.23-10.11
				c-1.44-4.27-1.54-9.03,0.2-13.23c1.98-4.77,6.2-8.46,10.77-10.67c8.72-4.22,19.62-3.16,27.86,1.68
				c8.72,5.11,14.19,14.41,16.25,24.13c1.07,5.05,1.27,10.4,0.44,15.5c-0.97,5.92-3.62,10.8-8.14,14.74
				c-8.08,7.06-19.19,10.57-29.79,10.9c-10.69,0.33-21.27-2.54-30.28-8.3c-8.57-5.47-15.52-13.33-20.25-22.31
				c-5.07-9.62-8.47-21.63-5.27-32.35c2.93-9.83,10.67-17.69,19.3-22.86c9.99-5.99,21.72-9,33.37-8.41
				c10.74,0.54,21.18,4.39,29.81,10.8c9.21,6.84,15.29,16.64,19.35,27.23c4.38,11.42,7.31,24.09,4.93,36.31
				c-1.04,5.33-2.99,10.46-6.04,14.97c-3.23,4.79-7.72,8.36-12.68,11.24c-10.56,6.13-22.62,10-34.83,10.74
				c-11.61,0.7-23.41-1.46-33.82-6.73c-5.16-2.61-9.87-5.95-14.09-9.91c-4.36-4.1-8.22-8.69-11.98-13.34
				c-4.03-4.99-8.02-10.01-12.03-15.02c-0.68-0.84-2.12-0.7-2.83,0C65.74,104.21,65.89,105.36,66.57,106.2L66.57,106.2z"/>
		</g>
	</g>
	<g>
		<g>
			<path class="st3" d="M68.53,105c1.86-7.47,3.99-14.88,6.39-22.2c2.19-6.68,4.7-13.1,8.83-18.85
				c7.71-10.72,19.43-18.49,31.79-22.82c7.47-2.62,15.28-4.04,23.19-4.21c2.57-0.05,2.58-4.05,0-4
				c-14.65,0.3-29.23,4.72-41.44,12.85c-5.61,3.74-10.77,8.24-14.98,13.51c-4.55,5.69-7.67,12.03-10.05,18.9
				c-2.93,8.45-5.41,17.07-7.58,25.75C64.05,106.43,67.91,107.5,68.53,105L68.53,105z"/>
		</g>
	</g>
	<g>
		<g>
			<path class="st3" d="M148.2,86.49c0.21-0.06,0.05,0.28-0.04-0.15c-0.05-0.27-0.2-0.38-0.03-0.47c0.64-0.33,1.39,0.7,1.39,1.21
				c0,1.22-1.38,2.14-2.47,2.24c-1.42,0.14-2.78-0.66-3.69-1.69c-2.24-2.54-1.21-6.27,0.71-8.67c2.02-2.52,5.23-4.08,8.43-4.31
				c6.68-0.49,12.85,4.58,13.28,11.4c0.45,7.06-4.56,14.04-9.74,18.35c-5.09,4.24-11.75,6.71-18.41,6.25
				c-6.42-0.45-12.27-3.91-16.49-8.65c-4.31-4.84-6.95-11.17-7.2-17.66c-0.28-7.1,1.97-14.06,5.8-20
				c8.26-12.79,23.32-18.99,38.11-19.61c1.93-0.08,3.86-0.07,5.8,0.02c2.57,0.11,2.57-3.89,0-4c-18.38-0.81-37.75,6.03-47.78,22.23
				c-4.64,7.5-6.88,16.48-5.54,25.25c1.22,7.99,5.77,15.5,12.13,20.45c6.6,5.14,14.96,7.18,23.15,5.3
				c8.25-1.89,15.55-7.39,20.05-14.51c2.47-3.92,4.43-8.71,4.13-13.42c-0.27-4.25-2.22-8.38-5.38-11.26
				c-6.46-5.88-17.47-5.54-23.16,1.34c-2.82,3.4-4.26,8.23-2.12,12.36c1.96,3.77,6.77,6.07,10.75,4.1c3.87-1.91,5.14-7.62,1.01-10
				c-1.71-0.98-4.01-1.02-5.53,0.36c-1.47,1.33-1.62,3.44-0.77,5.16c0.86,1.75,2.75,2.77,4.67,2.22
				C151.74,89.64,150.69,85.78,148.2,86.49L148.2,86.49z"/>
		</g>
	</g>
	<g>
		<g>
			<path class="st3" d="M147.2,84.81c-1.71-3.49,1.87-7.61,5.27-8.14c4.66-0.72,8.78,3.14,10.75,6.96c1.05-0.81,2.09-1.62,3.14-2.42
				c-2.87-2.94-6.27-5.32-10.04-6.94c-0.51,1.22-1.03,2.44-1.54,3.66c4.36,1.54,7.77,5.72,8.3,10.35c1.31-0.18,2.62-0.35,3.93-0.53
				c-0.89-3.2-1.77-6.41-2.66-9.61c-1.11,0.65-2.23,1.3-3.34,1.95c5,4.64,6.3,12.42,2.87,18.36c-3.36,5.81-9.48,9.62-15.9,11.15
				c-6.19,1.47-13.01,0.89-18.7-2.06c-5.7-2.96-9.96-8.17-12.1-14.19c-2.39-6.73-2.38-14.36,0.8-20.83
				c-1.22-0.51-2.44-1.03-3.66-1.54c-1.4,10.12,0.09,20.31,4.39,29.58c1.01,2.17,4.06,0.55,3.66-1.54
				c-1.68-8.58-2.16-17.34-1.52-26.05c0.16-2.22-3.57-2.77-3.93-0.53c-1.51,9.52,0.35,19.32,5.45,27.53
				c1.38,2.22,4.54,0.29,3.45-2.02c-2.49-5.3-4.3-10.88-5.48-16.61c-0.52-2.54-4.3-1.44-3.86,1.06c1.52,8.57,6.65,16.21,13.85,21.04
				c1.98,1.33,3.83-1.51,2.42-3.14c-2.92-3.37-5.99-6.6-9.22-9.68c-1.91-1.82-4.39,0.86-2.83,2.83c4.42,5.59,9.99,10.22,16.27,13.57
				c0.67-1.15,1.35-2.3,2.02-3.45c-5.22-2.57-10.43-5.13-15.65-7.7c-2.12-1.04-3.82,1.37-2.42,3.14c3.43,4.34,7.63,8,12.36,10.88
				c1.63,0.99,3.93-1.07,2.74-2.74c-3.57-5.01-8.4-8.76-14.14-10.97c-1.82-0.7-2.89,1.53-2.26,2.94c2.72,6.07,8.67,10.1,15.21,10.82
				c1.45,0.16,2.58-1.84,1.73-3.01c-2.79-3.79-6.82-6.48-11.5-7.27c-1.83-0.31-3.51,1.85-1.95,3.34c4.79,4.57,11.31,7.07,17.94,6.74
				c1.59-0.08,2.82-2.22,1.41-3.41c-3.42-2.92-7.42-4.65-11.88-5.21c-2.1-0.27-2.53,2.77-1.01,3.73c5.2,3.28,11.41,4.84,17.54,4.35
				c0.99-0.08,1.84-0.7,1.96-1.73c0.11-0.9-0.44-2.03-1.43-2.19c-4.55-0.75-9.12-0.52-13.54,0.82c-1.75,0.53-2.05,3.49,0,3.86
				c5.4,0.96,10.85,0.87,16.21-0.33c1.94-0.43,1.87-3.38,0-3.86c-5.07-1.28-10.42-1.09-15.36,0.63c-1.69,0.59-2.1,3.48,0,3.86
				c4.18,0.75,8.59,1.08,12.8,0.4c3.11-0.5,6.34-2.7,5.6-6.22c-0.2-0.92-1.08-1.38-1.93-1.47c-2.89-0.31-5.77,0.37-8.27,1.84
				c-1.68,0.98-1,3.78,1.01,3.73c5.66-0.16,11.18-1.85,15.92-4.96c1.85-1.21,0.72-4.28-1.54-3.66c-4.71,1.31-9.22,3.31-13.34,5.95
				c-1.86,1.19-0.71,4.31,1.54,3.66c7.05-2.07,13.44-6.12,18.25-11.69c1.72-1.99-0.83-4.39-2.83-2.83
				c-3.69,2.87-7.38,5.75-11.06,8.62c-1.58,1.23,0.13,3.98,1.95,3.34c6.84-2.39,12.15-8.53,13.14-15.77
				c0.15-1.07-0.26-2.15-1.4-2.46c-0.93-0.26-2.31,0.32-2.46,1.4c-0.49,3.54-2.19,6.9-5.06,9.11c-1.71,1.32-0.82,4.22,1.54,3.66
				c4.75-1.14,7.15-5.81,8.32-10.17c0.7-2.6,1.24-5.42,0.85-8.11c-0.4-2.81-1.95-5.02-4.18-6.7c-2.11-1.59-4.65-2.69-7.13-3.56
				c-2.77-0.97-5.7-1.42-8.61-0.98c-4.7,0.72-9.32,4.77-9.15,9.81c0.17,5.11,6.38,9.39,10.98,6.42c2.15-1.39,0.15-4.86-2.02-3.45
				c-2.15,1.39-4.99-0.98-4.96-3.29c0.04-3.26,3.64-5.43,6.55-5.65c4.01-0.3,8.45,1.48,11.71,3.72c1.46,1,2.55,2.35,2.86,4.12
				c0.33,1.96-0.13,4.05-0.59,5.95c-0.77,3.16-2.15,7.19-5.7,8.04c0.51,1.22,1.03,2.44,1.54,3.66c3.68-2.83,6.26-6.85,6.9-11.5
				c-1.29-0.35-2.57-0.71-3.86-1.06c-0.8,5.83-4.73,11.01-10.34,12.97c0.65,1.11,1.3,2.23,1.95,3.34c3.69-2.87,7.38-5.75,11.06-8.62
				c-0.94-0.94-1.89-1.89-2.83-2.83c-4.38,5.07-10.05,8.77-16.48,10.66c0.51,1.22,1.03,2.44,1.54,3.66
				c3.85-2.46,7.98-4.32,12.39-5.54c-0.51-1.22-1.03-2.44-1.54-3.66c-4.16,2.73-8.91,4.27-13.9,4.41c0.34,1.24,0.67,2.48,1.01,3.73
				c1.94-1.14,4.02-1.53,6.25-1.29c-0.64-0.49-1.29-0.98-1.93-1.47c0.07,0.34-0.96,0.78-1.16,0.86c-1.04,0.45-2.21,0.49-3.33,0.56
				c-3.01,0.18-6.03,0.01-8.99-0.53c0,1.29,0,2.57,0,3.86c4.3-1.5,8.82-1.75,13.23-0.63c0-1.29,0-2.57,0-3.86
				c-4.62,1.03-9.41,1.16-14.08,0.33c0,1.29,0,2.57,0,3.86c3.7-1.12,7.58-1.45,11.41-0.82c0.18-1.31,0.35-2.62,0.53-3.93
				c-5.49,0.44-10.86-0.86-15.52-3.8c-0.34,1.24-0.67,2.48-1.01,3.73c3.32,0.42,6.51,1.87,9.05,4.04c0.47-1.14,0.94-2.28,1.41-3.41
				c-5.59,0.28-11.05-1.7-15.11-5.57c-0.65,1.11-1.3,2.23-1.95,3.34c3.61,0.61,6.92,2.46,9.11,5.43c0.58-1,1.15-2.01,1.73-3.01
				c-5.2-0.57-9.65-4.13-11.76-8.84c-0.75,0.98-1.51,1.96-2.26,2.94c4.69,1.81,8.84,5.03,11.75,9.13c0.91-0.91,1.82-1.82,2.74-2.74
				c-4.45-2.71-8.32-6.17-11.55-10.25c-0.81,1.05-1.62,2.09-2.42,3.14c5.22,2.57,10.43,5.13,15.65,7.7
				c2.29,1.13,4.31-2.23,2.02-3.45c-6.02-3.21-11.24-7.6-15.47-12.95c-0.94,0.94-1.89,1.89-2.83,2.83c3.23,3.08,6.3,6.31,9.22,9.68
				c0.81-1.05,1.62-2.09,2.42-3.14c-6.38-4.29-10.68-11.11-12.01-18.65c-1.29,0.35-2.57,0.71-3.86,1.06
				c1.25,6.08,3.24,11.95,5.88,17.56c1.15-0.67,2.3-1.35,3.45-2.02c-4.5-7.24-6.39-16-5.05-24.45c-1.31-0.18-2.62-0.35-3.93-0.53
				c-0.66,9.08-0.08,18.19,1.66,27.11c1.22-0.51,2.44-1.03,3.66-1.54c-3.8-8.2-5.23-17.54-3.99-26.5c0.14-0.99-0.15-1.96-1.16-2.36
				c-0.86-0.35-2.05-0.09-2.5,0.82c-6.65,13.52-1.94,31.41,10.94,39.48c13.03,8.16,31.9,4.66,40.83-7.91
				c5.39-7.58,4.38-18.44-2.47-24.8c-1.44-1.33-3.89-0.03-3.34,1.95c0.89,3.2,1.77,6.41,2.66,9.61c0.58,2.09,4.19,1.77,3.93-0.53
				c-0.74-6.51-5.04-12.01-11.23-14.2c-2.11-0.75-3.63,2.76-1.54,3.66c3.48,1.5,6.58,3.6,9.23,6.32c1.63,1.67,4.16-0.45,3.14-2.42
				c-2.88-5.57-9.33-10.43-15.9-8.65c-5.79,1.57-9.78,8.26-7.02,13.87C144.88,89.14,148.33,87.12,147.2,84.81L147.2,84.81z"/>
		</g>
	</g>
	<g>
		<g>
			<path class="st3" d="M152.79,75.99c5.92,0.45,11.27,4.79,12.78,10.55c1.69,6.46-1.31,12.64-6.62,16.34
				c-5.73,3.99-12.95,6.87-20.03,6.31c-6.32-0.5-11.7-4.49-14.82-9.88c-4.13-7.14-3.75-15.84-1.05-23.41
				c-1.31-0.18-2.62-0.35-3.93-0.53c-0.52,4.32-1.03,8.65-1.55,12.97c1.33,0,2.67,0,4,0c-0.48-7.32,1.38-14.51,5.37-20.66
				c1.41-2.17-2.04-4.15-3.45-2.02c-2.59,3.9-4.56,8.17-5.89,12.66c1.29,0,2.57,0,3.86,0c-1.33-5.59,1.82-11.49,6.99-13.81
				c2.04-0.92,0.56-4.53-1.54-3.66c-6.42,2.67-10.81,8.63-11.31,15.59c1.33,0,2.67,0,4,0c-0.71-6.19,2.32-12.35,7.79-15.4
				c-0.81-1.05-1.62-2.09-2.42-3.14c-4.55,4.47-7.96,9.9-10.09,15.9c1.29,0.35,2.57,0.71,3.86,1.06
				c2.27-7.27,9.02-12.99,16.63-13.83c-0.34-1.24-0.67-2.48-1.01-3.73c-6.57,3.81-12.1,9.19-16.12,15.63
				c-1.19,1.91,1.59,4.1,3.14,2.42c5.36-5.8,11.05-12,18.75-14.56c-0.65-1.11-1.3-2.23-1.95-3.34c-5.19,4.66-10.77,8.84-16.69,12.53
				c0.91,0.91,1.82,1.82,2.74,2.74c3.9-7.81,11.64-13.61,20.35-14.76c-0.18-1.31-0.35-2.62-0.53-3.93
				c-9.04,1.6-17.46,5.75-24.34,11.81c1.05,0.81,2.09,1.62,3.14,2.42c3.9-7.3,10.96-12.41,19.09-13.9
				c-0.35-1.29-0.71-2.57-1.06-3.86c-7.85,2.83-15.06,7.05-21.36,12.52c1.05,0.81,2.09,1.62,3.14,2.42
				c4.45-8.05,12.22-13.85,21.19-15.85c-0.65-1.11-1.3-2.23-1.95-3.34c-5.66,4.56-11.32,9.11-16.98,13.67
				c0.94,0.94,1.89,1.89,2.83,2.83c7.02-6.53,17.26-9.13,26.55-6.77c0-1.29,0-2.57,0-3.86c-6.17,1.95-12.35,3.9-18.52,5.85
				c-2.49,0.79-1.45,4.31,1.06,3.86c7.66-1.38,15.71-2.73,23.24-0.01c0.35-1.29,0.71-2.57,1.06-3.86
				c-7.37-1.74-14.79-3.3-22.24-4.69c0.16,1.22,0.32,2.44,0.48,3.66c7.26-3.62,16.15-3.29,23.17,0.75c0.51-1.22,1.03-2.44,1.54-3.66
				c-8.66-1.78-17.51-2.48-26.34-2.03c0.47,1.14,0.94,2.28,1.41,3.41c6.22-5.55,15.94-6.24,22.97-1.84
				c0.34-1.24,0.67-2.48,1.01-3.73c-8.16,0.95-16.37,1.35-24.58,1.18c0.47,1.14,0.94,2.28,1.41,3.41c7.21-5.58,17.74-6.3,25.73-1.99
				c0.34-1.24,0.67-2.48,1.01-3.73c-7.29,0.9-14.66,0.91-21.95,0.01c0.47,1.14,0.94,2.28,1.41,3.41c5.83-4.87,14.63-5.39,21.09-1.49
				c0.51-1.22,1.03-2.44,1.54-3.66c-9.88-1.84-20.12-0.24-28.93,4.62c-2.26,1.24-0.25,4.67,2.02,3.45
				c4.63-2.48,9.38-5.06,14.63-5.89c4.24-0.67,9.03,0.01,12.36,2.88c0.81-1.05,1.62-2.09,2.42-3.14c-4.54-1.98-9.25-3.18-14.19-3.57
				c0.34,1.24,0.67,2.48,1.01,3.73c3.52-1.96,7.8-1.67,11.11,0.58c0.51-1.22,1.03-2.44,1.54-3.66c-2.8-1.11-5.61-2.22-8.41-3.33
				c-1-0.4-2.2,0.44-2.46,1.4c-0.32,1.16,0.4,2.04,1.4,2.46c4.65,1.96,8.63,5.39,11.36,9.62c0.75-0.98,1.51-1.96,2.26-2.94
				c-4.5-1.59-9.01-3.17-13.51-4.76c-0.35,1.29-0.71,2.57-1.06,3.86c6.32,1.15,12.04,4.21,16.45,8.88c0.65-1.11,1.3-2.23,1.95-3.34
				c-3.76-1.4-7.5-2.84-11.28-4.19c-3.68-1.31-7.42-2.18-11.32-1.49c-1.62,0.29-2.03,2.98-0.48,3.66
				c6.29,2.74,12.24,6.16,17.79,10.2c0.87,0.64,2.23,0.15,2.74-0.72c0.59-1.01,0.16-2.1-0.72-2.74c-5.54-4.04-11.5-7.46-17.79-10.2
				c-0.16,1.22-0.32,2.44-0.48,3.66c3.44-0.61,6.9,0.65,10.08,1.82c3.47,1.27,6.93,2.58,10.39,3.86c1.97,0.73,3.22-1.99,1.95-3.34
				c-4.84-5.13-11.28-8.65-18.22-9.91c-2.53-0.46-3.51,2.99-1.06,3.86c4.5,1.59,9.01,3.17,13.51,4.76c1.64,0.58,3.18-1.52,2.26-2.94
				c-3.34-5.18-8.09-9.07-13.75-11.45c-0.35,1.29-0.71,2.57-1.06,3.86c2.8,1.11,5.61,2.22,8.41,3.33c2.22,0.88,3.3-2.46,1.54-3.66
				c-4.48-3.04-10.45-3.2-15.15-0.58c-1.84,1.03-0.87,3.58,1.01,3.73c4.18,0.32,8.33,1.34,12.17,3.02c0.91,0.4,1.94,0.34,2.58-0.52
				c0.56-0.75,0.61-1.96-0.16-2.63c-4.12-3.56-9.63-4.75-14.96-4.1c-6.08,0.75-11.56,3.62-16.88,6.48c0.67,1.15,1.35,2.3,2.02,3.45
				c7.82-4.31,17.05-5.85,25.85-4.21c2.16,0.4,3.58-2.43,1.54-3.66c-8.08-4.88-18.74-3.9-25.93,2.12c-1.49,1.25-0.1,3.23,1.41,3.41
				c7.3,0.9,14.66,0.9,21.95-0.01c1.8-0.22,2.94-2.69,1.01-3.73c-9.72-5.25-21.88-4.11-30.57,2.62c-1.45,1.12-0.16,3.38,1.41,3.41
				c8.21,0.17,16.42-0.23,24.58-1.18c1.9-0.22,2.81-2.6,1.01-3.73c-8.6-5.37-20.28-4.25-27.81,2.47c-1.27,1.13-0.29,3.5,1.41,3.41
				c8.48-0.43,16.96,0.18,25.28,1.89c2.15,0.44,3.59-2.48,1.54-3.66c-8.31-4.78-18.65-5.01-27.21-0.75
				c-1.48,0.74-1.19,3.34,0.48,3.66c7.45,1.39,14.86,2.95,22.24,4.69c2.53,0.6,3.47-2.99,1.06-3.86c-8.2-2.96-17.03-1.49-25.37,0.01
				c0.35,1.29,0.71,2.57,1.06,3.86c6.17-1.95,12.35-3.9,18.52-5.85c1.82-0.58,1.98-3.35,0-3.86c-10.7-2.72-22.37,0.28-30.44,7.79
				c-1.92,1.79,0.87,4.41,2.83,2.83c5.66-4.56,11.32-9.11,16.98-13.67c1.67-1.34-0.17-3.74-1.95-3.34
				c-9.92,2.22-18.67,8.79-23.58,17.69c-1.13,2.04,1.45,3.89,3.14,2.42c5.76-5,12.43-8.91,19.6-11.49c2.43-0.88,1.47-4.32-1.06-3.86
				c-9.07,1.66-17.15,7.62-21.49,15.74c-1.09,2.04,1.44,3.92,3.14,2.42c6.38-5.62,14.22-9.3,22.58-10.78
				c2.19-0.39,1.71-4.23-0.53-3.93c-10.1,1.34-19.22,7.57-23.81,16.75c-0.85,1.7,0.94,3.86,2.74,2.74
				c6.21-3.86,12.06-8.27,17.5-13.15c1.47-1.32-0.07-3.97-1.95-3.34c-8.41,2.81-14.64,9.24-20.51,15.59
				c1.05,0.81,2.09,1.62,3.14,2.42c3.67-5.87,8.7-10.72,14.69-14.2c1.6-0.93,1.04-3.95-1.01-3.73c-9.44,1.05-17.64,7.66-20.49,16.77
				c-0.77,2.48,3.01,3.46,3.86,1.06c1.89-5.35,5.01-10.16,9.06-14.14c1.64-1.61-0.45-4.24-2.42-3.14
				c-6.58,3.66-10.64,11.34-9.77,18.85c0.29,2.53,3.81,2.61,4,0c0.36-5.01,3.72-9.8,8.38-11.73c-0.51-1.22-1.03-2.44-1.54-3.66
				c-6.82,3.07-10.54,11.13-8.83,18.33c0.47,1.97,3.32,1.83,3.86,0c1.23-4.18,3.08-8.08,5.48-11.71c-1.15-0.67-2.3-1.35-3.45-2.02
				c-4.34,6.69-6.44,14.72-5.92,22.68c0.17,2.62,3.7,2.52,4,0c0.52-4.32,1.03-8.65,1.55-12.97c0.12-0.97-0.85-1.86-1.73-1.96
				c-1.03-0.12-1.85,0.47-2.19,1.43c-2.86,8-3.15,17.07,0.58,24.84c3.18,6.63,9.38,11.94,16.72,13.2
				c8.22,1.41,16.75-1.52,23.61-5.97c3.31-2.15,6.33-4.9,8.04-8.51c1.63-3.46,2.2-7.26,1.64-11.04
				c-1.23-8.44-8.64-14.73-17.01-15.36C150.22,71.8,150.23,75.8,152.79,75.99L152.79,75.99z"/>
		</g>
	</g>
	<g>
		<g>
			<path class="st3" d="M129.06,58.45c-10.95,7.57-16.13,22.23-12.05,34.97c0.68,2.11,3.92,1.79,3.93-0.53
				c0.02-9.28,1.54-18.45,4.48-27.26c0.31-0.93-0.28-2.01-1.16-2.36c-0.99-0.4-1.89-0.01-2.5,0.82c-6.34,8.61-8.04,20.37-4.43,30.43
				c0.87,2.42,4.38,1.48,3.86-1.06c-1.66-8-3.34-16.42-0.78-24.42c0.72-2.25-2.44-3.35-3.66-1.54c-3.54,5.27-4.33,12.24-1.99,18.15
				c0.66,1.67,3.39,2.12,3.86,0c1.99-9.09,4.66-18.76,12.16-24.91c3.31-2.72,7.41-4.36,11.72-4.27c4.74,0.1,9.68,1.56,14.13,3.12
				c4.9,1.72,9.54,4.2,13.29,7.83c0.94-0.94,1.89-1.89,2.83-2.83c-5.01-4.39-10.28-8.46-15.8-12.2c-0.34,1.24-0.67,2.48-1.01,3.73
				c8.92,0.55,17.27,4.9,22.99,11.72c0.94-0.94,1.89-1.89,2.83-2.83c-4.76-5.36-9.52-10.72-14.28-16.08
				c-0.65,1.11-1.3,2.23-1.95,3.34c6.33,1.77,11.51,6.27,14.29,12.21c1.05-0.81,2.09-1.62,3.14-2.42
				c-4.67-3.97-8.93-8.38-12.74-13.18c-0.65,1.11-1.3,2.23-1.95,3.34c6.19,2.44,11.03,7.83,12.96,14.18
				c0.75,2.46,4.61,1.41,3.86-1.06c-2.36-7.78-8.21-13.99-15.75-16.97c-0.81-0.32-1.85,0.21-2.26,0.92
				c-0.48,0.83-0.25,1.72,0.31,2.42c3.81,4.8,8.08,9.21,12.74,13.18c1.76,1.5,4.11-0.34,3.14-2.42
				c-3.19-6.84-9.42-12.02-16.68-14.05c-2.01-0.56-3.23,1.9-1.95,3.34c4.76,5.36,9.52,10.72,14.28,16.08
				c1.72,1.94,4.47-0.88,2.83-2.83c-6.41-7.63-15.9-12.28-25.82-12.89c-2.12-0.13-2.53,2.7-1.01,3.73
				c5.23,3.55,10.23,7.41,14.99,11.58c1.92,1.68,4.7-1.02,2.83-2.83c-3.71-3.59-8.16-6.16-12.93-8.07
				c-4.89-1.95-10.22-3.41-15.46-3.94c-10.36-1.05-19.16,5.85-23.83,14.62c-2.89,5.43-4.46,11.41-5.77,17.38c1.29,0,2.57,0,3.86,0
				c-1.98-5.02-1.42-10.58,1.59-15.07c-1.22-0.51-2.44-1.03-3.66-1.54c-2.79,8.69-1.03,17.86,0.78,26.55
				c1.29-0.35,2.57-0.71,3.86-1.06c-3.29-9.18-1.75-19.5,4.03-27.35c-1.22-0.51-2.44-1.03-3.66-1.54
				c-3.04,9.12-4.6,18.71-4.62,28.32c1.31-0.18,2.62-0.35,3.93-0.53c-3.51-10.96,0.7-23.87,10.21-30.45
				C133.19,60.45,131.19,56.98,129.06,58.45L129.06,58.45z"/>
		</g>
	</g>
	<g>
		<g>
			<path class="st3" d="M152.69,46.32c7.52-4.41,16.84-1.35,22.83,4.2c3.17,2.93,5.67,6.46,7.8,10.2c2.23,3.93,4.32,8.18,4.53,12.76
				c0.12,2.56,4.12,2.58,4,0c-0.19-4.2-1.62-8.11-3.49-11.83c-1.74-3.46-3.78-6.76-6.18-9.79c-4.78-6.04-11.32-10.58-19.09-11.49
				c-4.28-0.5-8.68,0.3-12.41,2.49C148.45,44.17,150.46,47.63,152.69,46.32L152.69,46.32z"/>
		</g>
	</g>
	<g>
		<g>
			<path class="st3" d="M145.45,47.35c10.49-4,22.54-2.4,31.85,3.81c10.01,6.67,14.74,18.33,16.1,29.91
				c0.81,6.96,0.64,14.01,0.05,20.98c-0.21,2.57,3.79,2.55,4,0c1.09-12.99,0.8-26.75-4.84-38.76C187.3,52,176.85,43.99,164.56,41.8
				c-6.74-1.2-13.75-0.75-20.17,1.7c-1.01,0.38-1.7,1.35-1.4,2.46C143.26,46.92,144.44,47.74,145.45,47.35L145.45,47.35z"/>
		</g>
	</g>
	<g>
		<g>
			<path class="st3" d="M183.62,62.14c8.39,6.13,12.34,16.58,13.34,26.6c1,9.96,0.3,20.67-3.24,30.1
				c-1.84,4.89-4.68,9.36-8.57,12.87c-1.92,1.73,0.92,4.55,2.83,2.83c7.83-7.06,11.32-17.36,12.66-27.55
				c1.49-11.4,1.01-23.78-3.81-34.37c-2.51-5.52-6.29-10.35-11.19-13.93c-0.87-0.64-2.23-0.15-2.74,0.72
				C182.31,60.41,182.74,61.5,183.62,62.14L183.62,62.14z"/>
		</g>
	</g>
	<g>
		<g>
			<path class="st3" d="M174.43,59.28c-0.65-0.2-1.31-0.4-1.96-0.6c-2.01-0.61-3.21,1.92-1.95,3.34c4.21,4.72,8.4,9.51,11.09,15.3
				c1.15-0.67,2.3-1.35,3.45-2.02c-3.55-4.98-7.6-9.55-12.17-13.62c-1.35-1.2-4.13-0.06-3.34,1.95c1.13,2.88,2.89,5.29,4.84,7.66
				c2.07,2.52,4.18,5.01,6.27,7.51c0.69,0.83,2.11,0.72,2.83,0c0.83-0.83,0.68-1.99,0-2.83c-3.83-4.72-7.76-9.41-12.99-12.63
				c-1.91-1.18-4.11,1.59-2.42,3.14c5.18,4.77,9.97,9.93,14.34,15.45c0.94-0.94,1.89-1.89,2.83-2.83
				c-3.61-3.99-6.03-8.85-7.15-14.11c-0.98,0.75-1.96,1.51-2.94,2.26c3.58,2.09,5.71,5.81,7.85,9.22c2.43,3.87,4.8,7.82,6.11,12.23
				c1.11-0.65,2.23-1.3,3.34-1.95c-2.6-2.93-4.85-6.14-6.74-9.57c-0.93-1.7-1.79-3.44-2.52-5.24c-0.37-0.91-0.72-1.84-1.04-2.77
				c-0.14-0.4-0.27-0.8-0.4-1.2c-0.08-0.27-0.17-0.54-0.25-0.81c-0.12-0.6-0.18-0.54-0.18,0.18c-0.24,0.24-0.48,0.48-0.72,0.72
				c0.05-0.03,0.1-0.07,0.15-0.1c-0.51,0.07-1.03,0.13-1.54,0.2c0.07,0.01,0.13,0.02,0.2,0.03c-0.29-0.17-0.59-0.34-0.88-0.51
				c5.51,5.91,9.72,12.94,12.29,20.6c1.11-0.65,2.23-1.3,3.34-1.95c-5.55-5.55-9.09-12.97-9.78-20.8c-1.14,0.47-2.28,0.94-3.41,1.41
				c4.9,5.91,7.58,13.26,10.18,20.38c1.22-0.51,2.44-1.03,3.66-1.54c-2.1-2.97-3.93-6.13-5.43-9.45c-0.71-1.57-1.32-3.17-1.87-4.81
				c-0.26-0.79-1.45-3.39-0.87-4.11c-0.94,0-1.89,0-2.83,0c2.83,2.3,4.49,5.52,5.76,8.88c1.55,4.11,2.78,8.34,3.77,12.61
				c1.22-0.51,2.44-1.03,3.66-1.54c-4.59-6.78-7.99-14.24-10.07-22.15c-1.22,0.51-2.44,1.03-3.66,1.54c1.99,3.02,3.8,6.15,5.38,9.41
				c0.78,1.61,1.51,3.24,2.17,4.9c0.31,0.77,0.6,1.54,0.88,2.32c0.14,0.39,0.25,0.82,0.42,1.2c0.36,0.79-0.38,0.32,0.5-0.19
				c-2.22,1.3-0.21,4.76,2.02,3.45c1.82-1.07,1.75-3.13,1.15-4.89c-0.74-2.16-1.61-4.27-2.54-6.35c-1.83-4.13-4.02-8.1-6.52-11.87
				c-1.22-1.85-4.25-0.72-3.66,1.54c2.17,8.22,5.71,16.06,10.48,23.11c1.26,1.86,4.18,0.73,3.66-1.54
				c-1.04-4.53-2.34-9.03-4.05-13.35c-1.47-3.71-3.35-7.34-6.5-9.91c-0.77-0.62-2.1-0.91-2.83,0c-1.35,1.67-1.42,3.56-0.9,5.58
				c0.53,2.08,1.3,4.12,2.12,6.1c1.68,4.07,3.78,7.93,6.32,11.53c0.57,0.81,1.54,1.24,2.5,0.82c0.85-0.37,1.51-1.41,1.16-2.36
				c-2.86-7.82-5.84-15.66-11.21-22.14c-1.08-1.3-3.56-0.27-3.41,1.41c0.78,8.91,4.62,17.3,10.95,23.63
				c1.36,1.36,3.99-0.01,3.34-1.95c-2.42-7.19-6.11-13.85-10.96-19.69c-1.06-1.27-2.36-3.48-4.24-3.26
				c-2.21,0.26-2.21,2.76-1.72,4.35c1.11,3.59,2.58,7.08,4.38,10.38c2.07,3.8,4.6,7.33,7.47,10.57c1.34,1.51,3.9-0.08,3.34-1.95
				c-1.46-4.89-4.05-9.27-6.75-13.56c-2.45-3.89-4.98-7.9-9.05-10.27c-1.57-0.92-3.29,0.59-2.94,2.26
				c1.27,5.93,4.12,11.38,8.18,15.87c0.72,0.8,2.09,0.74,2.83,0c0.84-0.84,0.67-1.98,0-2.83c-4.37-5.52-9.16-10.69-14.34-15.45
				c-0.81,1.05-1.62,2.09-2.42,3.14c4.91,3.03,8.59,7.58,12.18,12.01c0.94-0.94,1.89-1.89,2.83-2.83c-1.9-2.28-3.81-4.56-5.71-6.84
				c-1.68-2.01-3.4-4.1-4.37-6.57c-1.11,0.65-2.23,1.3-3.34,1.95c4.31,3.83,8.2,8.11,11.54,12.81c1.5,2.1,4.54,0.33,3.45-2.02
				c-2.82-6.08-7.29-11.15-11.71-16.11c-0.65,1.11-1.3,2.23-1.95,3.34c0.65,0.2,1.31,0.4,1.96,0.6
				C175.83,63.9,176.88,60.04,174.43,59.28L174.43,59.28z"/>
		</g>
	</g>
	<g>
		<g>
			<path class="st3" d="M178.39,57.06c8.27,5.38,14.02,14.05,15.95,23.7c0.44,2.2,4.04,1.72,3.93-0.53
				c-0.5-9.88-6.26-19.14-15.02-23.81c-2.34-1.25-4,1.92-2.02,3.45c11.6,8.95,15.19,24.46,13.89,38.41
				c-0.43,4.58-1.37,9.09-2.59,13.52c1.31,0.18,2.62,0.35,3.93,0.53c-0.29-9.98-2.33-19.86-6.09-29.11
				c-0.97-2.39-4.26-1.5-3.86,1.06c1.12,7.18,2.24,14.37,3.35,21.55c1.29-0.35,2.57-0.71,3.86-1.06
				c-2.84-9.22-5.68-18.43-8.52-27.65c-0.78-2.53-4.2-1.42-3.86,1.06c0.93,6.82,2.66,13.5,5.14,19.92c1.22-0.51,2.44-1.03,3.66-1.54
				c-2.81-5.9-5.17-12-7.08-18.25c-0.75-2.46-4.48-1.44-3.86,1.06c1.76,7.02,3.87,13.93,6.35,20.73c0.87,2.4,4.74,1.36,3.86-1.06
				c-2.47-6.8-4.59-13.71-6.35-20.73c-1.29,0.35-2.57,0.71-3.86,1.06c2.02,6.58,4.53,12.99,7.49,19.2c0.96,2.02,4.48,0.58,3.66-1.54
				c-2.48-6.42-4.21-13.1-5.14-19.92c-1.29,0.35-2.57,0.71-3.86,1.06c2.84,9.22,5.68,18.43,8.52,27.65
				c0.78,2.51,4.25,1.43,3.86-1.06c-1.12-7.18-2.24-14.37-3.35-21.55c-1.29,0.35-2.57,0.71-3.86,1.06
				c3.64,8.93,5.67,18.41,5.95,28.05c0.06,2.23,3.32,2.75,3.93,0.53c4.3-15.62,4.76-33.34-4.59-47.3c-2.35-3.52-5.21-6.56-8.56-9.14
				c-0.67,1.15-1.35,2.3-2.02,3.45c7.49,4,12.6,11.85,13.03,20.36c1.31-0.18,2.62-0.35,3.93-0.53
				c-2.14-10.67-8.69-20.16-17.79-26.09C178.25,52.2,176.24,55.66,178.39,57.06L178.39,57.06z"/>
		</g>
	</g>
	<g>
		<g>
			<path class="st3" d="M184.45,94.33c2.23,5.71,2.4,11.87,0.43,17.68c1.29,0.35,2.57,0.71,3.86,1.06
				c0.72-5.19,1.44-10.38,2.16-15.57c0.35-2.52-2.94-3.53-3.86-1.06c-2.51,6.74-3.72,13.92-3.58,21.11c0.05,2.57,3.97,2.58,4,0
				c0.11-9.41,1.61-18.71,4.44-27.69c-1.29,0-2.57,0-3.86,0c1.32,4.87,2.36,9.82,3.02,14.83c1.31-0.18,2.62-0.35,3.93-0.53
				c-1.12-5.32-1.34-10.84-0.58-16.23c-1.29,0-2.57,0-3.86,0c1.8,6.47,2.29,13.16,1.49,19.82c1.31-0.18,2.62-0.35,3.93-0.53
				c-1.36-4.66-1.17-9.73,0.77-14.21c-1.24-0.34-2.48-0.67-3.73-1.01c0.42,9.21-1.21,18.32-4.76,26.83c1.29,0,2.57,0,3.86,0
				c-0.73-4.49,0.95-9.14,4.19-12.28c-1.14-0.47-2.28-0.94-3.41-1.41c0.33,5.56-1.4,11.09-5.02,15.36c1.14,0.47,2.28,0.94,3.41,1.41
				c0.19-4.9,1.84-9.52,4.68-13.51c-1.22-0.51-2.44-1.03-3.66-1.54c-1.91,5.96-4.56,11.61-7.89,16.91c1.22,0.51,2.44,1.03,3.66,1.54
				c1.45-6.96,4.2-13.49,8.18-19.38c-1.24-0.34-2.48-0.67-3.73-1.01c-0.34,7.8-3.46,15.34-8.73,21.1c1.14,0.47,2.28,0.94,3.41,1.41
				c0.12-5.42,2.26-10.61,5.99-14.54c-1.11-0.65-2.23-1.3-3.34-1.95c-1.82,6.13-5.23,11.6-9.89,15.97c1.11,0.65,2.23,1.3,3.34,1.95
				c0.94-6.39,3.29-12.39,6.94-17.71c-1.15-0.67-2.3-1.35-3.45-2.02c-2.94,5.81-6.33,11.38-10.13,16.66
				c1.15,0.67,2.3,1.35,3.45,2.02c2.22-4.95,4.69-9.78,7.41-14.48c1.31-2.26-1.99-4.09-3.45-2.02c-3.13,4.43-6.37,8.77-9.75,13.01
				c1.05,0.81,2.09,1.62,3.14,2.42c2.93-4.18,6-8.26,9.22-12.22c1.59-1.96-0.97-4.7-2.83-2.83c-4.38,4.41-8.76,8.82-13.14,13.23
				c-1.82,1.83,0.96,4.6,2.83,2.83c4.94-4.7,10.33-8.87,16.11-12.48c-0.91-0.91-1.82-1.82-2.74-2.74
				c-3.89,6.04-8.27,11.72-13.12,17.02c-1.76,1.93,0.87,4.47,2.83,2.83c4.18-3.5,8.36-6.99,12.54-10.49
				c-0.94-0.94-1.89-1.89-2.83-2.83c-3.74,4.15-7.32,8.42-10.75,12.82c-0.66,0.85-0.83,2,0,2.83c0.76,0.76,2.07,0.77,2.83,0
				c3.15-3.19,6.63-5.96,10.45-8.3c-0.81-1.05-1.62-2.09-2.42-3.14c-3.14,3.09-6.28,6.19-9.42,9.28c-1.84,1.81,0.95,4.58,2.83,2.83
				c2.28-2.13,4.76-3.96,7.46-5.52c-0.81-1.05-1.62-2.09-2.42-3.14c-4.26,3.51-8.29,7.28-12.07,11.3c0.94,0.94,1.89,1.89,2.83,2.83
				c5.7-6.83,10.38-14.51,13.58-22.82c3.01-7.82,4.39-16.88,0.31-24.58c-0.91-1.72-3.84-0.97-3.73,1.01
				c0.46,7.93-0.4,15.83-2.58,23.47c1.29,0.35,2.57,0.71,3.86,1.06c1.71-6.57,2.95-13.24,3.72-19.98c0.62-5.4,1.85-12.16-2.21-16.56
				c-0.69-0.75-2.15-0.8-2.83,0c-2.53,2.96-1.14,6.42-0.12,9.7c1.09,3.5,1.67,7.11,1.76,10.77c0.17,7.27-1.61,14.49-5.2,20.81
				c-1.08,1.9,1.67,4.25,3.14,2.42c4.33-5.38,7.47-11.64,9-18.39c1.15-5.06,2.69-13.75-3.18-16.62c-1.2-0.59-3.21,0.09-3.01,1.73
				c0.63,5.09,1.26,10.18,1.89,15.28c0.13,1.07,0.82,2,2,2c0.98,0,2.13-0.92,2-2c-0.63-5.09-1.26-10.18-1.89-15.28
				c-1,0.58-2.01,1.15-3.01,1.73c1.94,0.95,2.24,3.28,2.24,5.25c0,2.71-0.52,5.46-1.2,8.08c-1.44,5.59-4.05,10.89-7.67,15.4
				c1.05,0.81,2.09,1.62,3.14,2.42c3.59-6.32,5.55-13.48,5.74-20.74c0.09-3.58-0.26-7.2-1.04-10.7c-0.39-1.75-0.94-3.43-1.49-5.13
				c-0.33-1.02-1.11-2.93-0.28-3.91c-0.94,0-1.89,0-2.83,0c1.5,1.62,1.69,3.93,1.67,6.04c-0.03,2.88-0.39,5.78-0.74,8.64
				c-0.74,6.06-1.93,12.06-3.47,17.97c-0.65,2.49,3.15,3.54,3.86,1.06c2.27-7.96,3.2-16.27,2.72-24.53
				c-1.24,0.34-2.48,0.67-3.73,1.01c3.63,6.85,1.83,15.05-0.87,21.89c-2.95,7.48-7.25,14.51-12.4,20.67
				c-1.62,1.94,1.04,4.73,2.83,2.83c3.78-4.02,7.81-7.79,12.07-11.3c1.78-1.47-0.5-4.26-2.42-3.14c-2.98,1.73-5.75,3.8-8.27,6.15
				c0.94,0.94,1.89,1.89,2.83,2.83c3.14-3.09,6.28-6.19,9.42-9.28c1.6-1.58-0.47-4.34-2.42-3.14c-4.1,2.51-7.88,5.5-11.26,8.92
				c0.94,0.94,1.89,1.89,2.83,2.83c3.43-4.4,7.02-8.68,10.75-12.82c1.74-1.94-0.87-4.47-2.83-2.83c-4.18,3.5-8.36,6.99-12.54,10.49
				c0.94,0.94,1.89,1.89,2.83,2.83c5.07-5.54,9.67-11.51,13.74-17.83c1.08-1.68-1.06-3.78-2.74-2.74
				c-6.06,3.79-11.74,8.18-16.92,13.1c0.94,0.94,1.89,1.89,2.83,2.83c4.38-4.41,8.76-8.82,13.14-13.23
				c-0.94-0.94-1.89-1.89-2.83-2.83c-3.43,4.23-6.72,8.57-9.85,13.03c-1.29,1.84,1.72,4.2,3.14,2.42
				c3.59-4.51,7.05-9.11,10.38-13.82c-1.15-0.67-2.3-1.35-3.45-2.02c-2.72,4.7-5.19,9.53-7.41,14.48c-1.05,2.35,1.94,4.13,3.45,2.02
				c3.8-5.29,7.19-10.85,10.13-16.66c1.17-2.31-2-4.14-3.45-2.02c-3.83,5.57-6.36,11.98-7.35,18.67c-0.28,1.9,1.77,3.42,3.34,1.95
				c5.15-4.83,8.91-10.98,10.92-17.74c0.56-1.9-1.97-3.39-3.34-1.95c-4.46,4.7-7.01,10.89-7.16,17.37
				c-0.04,1.69,2.24,2.69,3.41,1.41c6.01-6.56,9.52-15.04,9.91-23.93c0.09-2.11-2.68-2.55-3.73-1.01
				c-4.15,6.14-7.08,13.08-8.58,20.34c-0.46,2.19,2.42,3.51,3.66,1.54c3.51-5.58,6.28-11.59,8.29-17.87
				c0.73-2.29-2.41-3.29-3.66-1.54c-3.24,4.54-5.01,9.96-5.23,15.52c-0.06,1.66,2.29,2.74,3.41,1.41
				c4.29-5.05,6.58-11.54,6.19-18.18c-0.1-1.71-2.12-2.66-3.41-1.41c-4.33,4.2-6.19,10.25-5.22,16.17c0.14,0.85,1.12,1.47,1.93,1.47
				c0.95,0,1.58-0.64,1.93-1.47c3.67-8.8,5.33-18.37,4.9-27.89c-0.08-1.79-2.88-2.97-3.73-1.01c-2.37,5.5-2.85,11.53-1.17,17.3
				c0.67,2.3,3.67,1.61,3.93-0.53c0.83-7,0.26-14.1-1.63-20.89c-0.49-1.75-3.57-2.05-3.86,0c-0.86,6.14-0.69,12.28,0.58,18.36
				c0.46,2.17,4.23,1.72,3.93-0.53c-0.72-5.37-1.75-10.66-3.17-15.89c-0.53-1.96-3.28-1.85-3.86,0c-2.93,9.3-4.47,19.01-4.58,28.76
				c1.33,0,2.67,0,4,0c-0.13-6.87,1.04-13.62,3.44-20.05c-1.29-0.35-2.57-0.71-3.86-1.06c-0.72,5.19-1.44,10.38-2.16,15.57
				c-0.35,2.49,3.01,3.57,3.86,1.06c2.17-6.4,2.03-13.51-0.43-19.81c-0.39-1.01-1.34-1.7-2.46-1.4
				C184.89,92.14,184.05,93.32,184.45,94.33L184.45,94.33z"/>
		</g>
	</g>
	<g>
		<g>
			<path class="st3" d="M153.81,47.65c10.33-0.67,21.1-0.33,29.47,6.54c8.02,6.59,12.26,16.34,14.2,26.33
				c3.68,18.97-0.35,40.76-15.96,53.45c-7.84,6.38-18.04,9.79-28.13,8.46c-1.07-0.14-2,1.02-2,2c0,1.2,0.92,1.86,2,2
				c9.76,1.29,19.77-1.7,27.8-7.26c8.55-5.92,14.66-14.44,18.11-24.21c3.58-10.17,4.17-21.22,2.66-31.84
				c-1.54-10.81-5.49-21.67-13.35-29.51c-4.21-4.2-9.39-7.3-15.15-8.82c-6.39-1.68-13.09-1.58-19.64-1.16
				C151.26,43.82,151.24,47.82,153.81,47.65L153.81,47.65z"/>
		</g>
	</g>
	<g>
		<g>
			<path class="st3" d="M82.32,64.74c-1.7,6.25-2.51,12.73-2.39,19.21c0.05,2.57,4.01,2.58,4,0c-0.02-6.61,0.53-13.2,1.72-19.71
				c0.46-2.51-3.06-3.55-3.86-1.06c-2.25,7-3.35,14.34-3.25,21.68c0.03,2.17,3.52,2.82,3.93,0.53c1.27-7.16,2.55-14.31,3.82-21.47
				c0.17-0.98-0.18-1.97-1.16-2.36c-0.84-0.34-2.09-0.11-2.5,0.82c-4.06,9.23-6.61,18.97-7.59,29.01c-0.22,2.23,3.49,2.74,3.93,0.53
				c1.41-7.05,2.81-14.11,4.22-21.16c0.51-2.53-2.98-3.49-3.86-1.06c-3.28,9.11-5.78,18.47-7.46,28c-0.44,2.49,3.28,3.61,3.86,1.06
				c1.31-5.73,2.62-11.47,3.92-17.2c0.58-2.56-2.92-3.42-3.86-1.06c-2.75,6.94-4.86,14.11-6.3,21.44c1.29,0.35,2.57,0.71,3.86,1.06
				c0.81-4.3,1.63-8.59,2.44-12.89c0.49-2.58-2.88-3.41-3.86-1.06c-2.08,4.98-3.18,10.3-3.31,15.69c-0.06,2.41,3.15,2.51,3.93,0.53
				c3-7.57,4.9-15.48,5.8-23.57c-1.33,0-2.67,0-4,0c0.57,7.28,1.17,14.72,4.01,21.53c0.99,2.37,4.28,1.51,3.86-1.06
				c-1.19-7.29-2.38-14.59-3.56-21.88c-1.29,0.35-2.57,0.71-3.86,1.06c2.41,9.77,6.79,19.01,12.87,27.03
				c1.54,2.03,4.57,0.35,3.45-2.02c-4.1-8.75-7.34-17.87-9.73-27.23c-0.27-1.05-1.43-1.68-2.46-1.4c-1.15,0.31-1.56,1.39-1.4,2.46
				c1.68,11.3,6.58,21.93,13.91,30.67c1.5,1.79,4.2-0.5,3.14-2.42c-4.95-9.05-8.76-18.64-11.39-28.61
				c-0.56-2.14-4.04-1.76-3.93,0.53c0.78,15.47,7.46,30.39,18.56,41.21c1.56,1.52,4.56-0.56,3.14-2.42
				c-6.64-8.74-13.27-17.48-19.91-26.22c-0.6-0.79-1.51-1.25-2.5-0.82c-0.9,0.4-1.43,1.38-1.16,2.36
				c3.04,10.83,9.5,20.61,18.35,27.57c0.78,0.62,1.79,0.83,2.63,0.16c0.72-0.58,1.1-1.75,0.52-2.58
				c-6.39-9.11-13.34-17.82-20.79-26.08c-1.29-1.43-4.05,0.07-3.34,1.95c4.06,10.76,10.88,20.35,19.85,27.56
				c2,1.61,4.51-0.84,2.83-2.83c-7.25-8.57-14.51-17.15-21.76-25.72c-0.64-0.75-1.91-0.73-2.63-0.16c-0.83,0.66-0.94,1.65-0.52,2.58
				c4.24,9.24,10.26,17.63,17.64,24.62c1.58,1.5,4.51-0.5,3.14-2.42c-5.54-7.83-11.53-15.33-17.93-22.47
				c-1.29-1.44-4.05,0.07-3.34,1.95c3.8,10.05,9.76,19.15,17.55,26.55c1.57,1.5,4.51-0.51,3.14-2.42c-5.07-7.08-10.74-13.7-17-19.76
				c-1.62-1.57-4.3,0.43-3.14,2.42c4.84,8.3,10.81,15.92,17.72,22.59c1.87,1.81,4.49-0.89,2.83-2.83
				c-6.46-7.53-12.92-15.06-19.38-22.6c-1.36-1.58-3.81,0.12-3.34,1.95c2.27,8.89,8.05,16.65,15.88,21.42
				c1.61,0.98,3.97-1.08,2.74-2.74c-5.3-7.1-11.34-13.58-18.12-19.29c-1.95-1.65-4.59,0.9-2.83,2.83
				c5.88,6.43,12.36,12.26,19.33,17.5c0.86,0.65,2.24,0.14,2.74-0.72c0.6-1.02,0.15-2.08-0.72-2.74
				c-6.68-5.03-12.87-10.71-18.52-16.88c-0.94,0.94-1.89,1.89-2.83,2.83c6.5,5.48,12.4,11.67,17.5,18.48
				c0.91-0.91,1.82-1.82,2.74-2.74c-6.97-4.24-12.03-11.13-14.04-19.03c-1.11,0.65-2.23,1.3-3.34,1.95
				c6.46,7.53,12.92,15.06,19.38,22.6c0.94-0.94,1.89-1.89,2.83-2.83c-6.68-6.45-12.41-13.76-17.09-21.78
				c-1.05,0.81-2.09,1.62-3.14,2.42c6.01,5.82,11.5,12.15,16.37,18.95c1.05-0.81,2.09-1.62,3.14-2.42
				c-7.27-6.91-12.97-15.39-16.53-24.79c-1.11,0.65-2.23,1.3-3.34,1.95c6.18,6.89,11.96,14.12,17.3,21.66
				c1.05-0.81,2.09-1.62,3.14-2.42c-7.15-6.79-12.9-14.85-17.01-23.82c-1.05,0.81-2.09,1.62-3.14,2.42
				c7.25,8.57,14.51,17.15,21.76,25.72c0.94-0.94,1.89-1.89,2.83-2.83c-8.42-6.77-15.01-15.68-18.83-25.8
				c-1.11,0.65-2.23,1.3-3.34,1.95c7.23,8.01,13.96,16.44,20.17,25.27c1.05-0.81,2.09-1.62,3.14-2.42
				c-8.34-6.56-14.45-15.58-17.32-25.8c-1.22,0.51-2.44,1.03-3.66,1.54c6.64,8.74,13.27,17.48,19.91,26.22
				c1.05-0.81,2.09-1.62,3.14-2.42C90.33,108.66,84,94.78,83.28,80.36c-1.31,0.18-2.62,0.35-3.93,0.53
				c2.71,10.29,6.69,20.23,11.79,29.56c1.05-0.81,2.09-1.62,3.14-2.42c-6.9-8.22-11.31-18.3-12.88-28.9
				c-1.29,0.35-2.57,0.71-3.86,1.06c2.47,9.7,5.88,19.12,10.13,28.18c1.15-0.67,2.3-1.35,3.45-2.02
				C85.24,98.59,81,89.75,78.67,80.28c-0.63-2.55-4.26-1.42-3.86,1.06c1.19,7.29,2.38,14.59,3.56,21.88
				c1.29-0.35,2.57-0.71,3.86-1.06c-2.71-6.51-3.33-13.51-3.87-20.47c-0.2-2.6-3.72-2.54-4,0c-0.85,7.72-2.8,15.29-5.65,22.5
				c1.31,0.18,2.62,0.35,3.93,0.53c0.13-5.05,1.22-9.97,3.17-14.62c-1.29-0.35-2.57-0.71-3.86-1.06c-0.81,4.3-1.63,8.59-2.44,12.89
				c-0.48,2.51,3.36,3.6,3.86,1.06c1.44-7.33,3.54-14.5,6.3-21.44c-1.29-0.35-2.57-0.71-3.86-1.06c-1.31,5.73-2.62,11.47-3.92,17.2
				c1.29,0.35,2.57,0.71,3.86,1.06c1.69-9.53,4.18-18.9,7.46-28c-1.29-0.35-2.57-0.71-3.86-1.06c-1.41,7.05-2.81,14.11-4.22,21.16
				c1.31,0.18,2.62,0.35,3.93,0.53c0.9-9.28,3.29-18.45,7.04-26.99c-1.22-0.51-2.44-1.03-3.66-1.54
				c-1.27,7.16-2.55,14.31-3.82,21.47c1.31,0.18,2.62,0.35,3.93,0.53c-0.09-7.02,0.96-13.94,3.11-20.62
				c-1.29-0.35-2.57-0.71-3.86-1.06c-1.25,6.86-1.88,13.8-1.86,20.77c1.33,0,2.67,0,4,0c-0.11-6.14,0.63-12.21,2.24-18.14
				C86.86,63.31,83,62.25,82.32,64.74L82.32,64.74z"/>
		</g>
	</g>
	<g>
		<g>
			<path class="st3" d="M63.8,105.93c12.89,14.9,26.7,29.87,45.32,37.47c5.03,2.05,10.27,3.4,15.67,4.04
				c2.32,0.27,2.58-3.28,0.53-3.93c-14.8-4.7-26.7-15.26-37.47-26.06c-1.84-1.85-4.48,0.89-2.83,2.83
				c5.93,6.94,13.24,12.67,21.39,16.78c0.89,0.45,1.96,0.31,2.58-0.52c0.54-0.72,0.64-2-0.16-2.63
				c-7.71-6.09-14.92-12.79-21.57-20.02c-1.52-1.65-4.4,0.51-3.14,2.42c5.67,8.6,13.2,15.85,22.03,21.16
				c1.9,1.14,4.18-1.63,2.42-3.14c-6.36-5.49-13.15-10.47-20.3-14.87c-1.7-1.04-3.78,1.04-2.74,2.74c5.12,8.36,13.47,14.51,23,16.85
				c1.81,0.44,3.56-1.99,1.95-3.34c-7.03-5.9-13.87-12.01-20.51-18.34c-1.91-1.81-4.42,0.86-2.83,2.83
				c6.08,7.52,14.35,13.09,23.55,16.02c0.94,0.3,2-0.27,2.36-1.16c0.4-0.99,0-1.88-0.82-2.5c-8.39-6.27-16.2-13.29-23.37-20.92
				c-1.77-1.89-4.53,0.92-2.83,2.83c7.48,8.38,16.37,15.48,26.2,20.93c2.32,1.29,4-1.93,2.02-3.45
				c-10.53-8.1-21.45-16.63-27.57-28.73c-1.15,0.67-2.3,1.35-3.45,2.02c7.76,10.68,16.82,20.36,27.04,28.73
				c1.96,1.6,4.77-1.07,2.83-2.83c-10.19-9.23-21.15-19.23-24.98-32.92c-1.22,0.51-2.44,1.03-3.66,1.54
				c7.19,14.63,18.17,27.21,31.6,36.43c1.87,1.28,4.1-1.62,2.42-3.14c-8.25-7.47-16.65-14.78-25.2-21.9
				c-0.94,0.94-1.89,1.89-2.83,2.83c10.83,8.93,22.14,17.26,33.9,24.92c0.91,0.59,2.21,0.18,2.74-0.72c0.6-1.02,0.15-2.09-0.72-2.74
				c-9.13-6.82-18.37-13.68-28.9-18.22c-2.33-1-4.2,1.98-2.02,3.45c10.54,7.15,22.05,12.63,33.53,18.07
				c0.51-1.22,1.03-2.44,1.54-3.66c-7.99-2.44-15.97-4.87-23.96-7.31c-2.23-0.68-3.4,2.46-1.54,3.66
				c8.17,5.27,17.22,9.13,26.68,11.39c2.5,0.6,3.55-3.17,1.06-3.86c-8.84-2.46-17.54-5.38-26.07-8.76
				c-0.91-0.36-2.02,0.32-2.36,1.16c-0.39,0.97-0.02,1.91,0.82,2.5c8.22,5.74,18.06,8.3,27.65,10.71c2.52,0.63,3.48-3.02,1.06-3.86
				c-8.07-2.8-16.32-5.01-24.71-6.63c-2.22-0.43-3.48,2.37-1.54,3.66c8.39,5.56,18.11,8.81,28.13,9.55c2.57,0.19,2.56-3.81,0-4
				c-9.33-0.69-18.33-3.84-26.11-9c-0.51,1.22-1.03,2.44-1.54,3.66c8.39,1.61,16.64,3.83,24.71,6.63c0.35-1.29,0.71-2.57,1.06-3.86
				c-9.28-2.34-18.74-4.75-26.7-10.31c-0.51,1.22-1.03,2.44-1.54,3.66c8.53,3.38,17.23,6.3,26.07,8.76
				c0.35-1.29,0.71-2.57,1.06-3.86c-9.15-2.19-17.81-5.89-25.72-10.98c-0.51,1.22-1.03,2.44-1.54,3.66
				c7.99,2.44,15.97,4.87,23.96,7.31c2.12,0.65,3.62-2.67,1.54-3.66c-11.48-5.44-23-10.92-33.53-18.07
				c-0.67,1.15-1.35,2.3-2.02,3.45c10.53,4.53,19.77,11.39,28.9,18.22c0.67-1.15,1.35-2.3,2.02-3.45
				c-11.47-7.48-22.52-15.58-33.09-24.29c-1.97-1.62-4.81,1.18-2.83,2.83c8.55,7.12,16.95,14.42,25.2,21.9
				c0.81-1.05,1.62-2.09,2.42-3.14c-12.87-8.84-23.28-20.99-30.17-34.99c-1.01-2.06-4.26-0.61-3.66,1.54
				c4.02,14.4,15.28,24.97,26.01,34.69c0.94-0.94,1.89-1.89,2.83-2.83c-9.94-8.15-18.85-17.52-26.41-27.92
				c-1.5-2.06-4.63-0.32-3.45,2.02c6.43,12.73,17.93,21.66,29,30.17c0.67-1.15,1.35-2.3,2.02-3.45
				c-9.55-5.3-18.12-12.15-25.39-20.31c-0.94,0.94-1.89,1.89-2.83,2.83c7.41,7.88,15.52,15.07,24.18,21.54
				c0.51-1.22,1.03-2.44,1.54-3.66c-8.59-2.73-16.14-7.99-21.79-14.99c-0.94,0.94-1.89,1.89-2.83,2.83
				c6.65,6.32,13.49,12.44,20.51,18.34c0.65-1.11,1.3-2.23,1.95-3.34c-8.54-2.1-16.01-7.51-20.61-15.01
				c-0.91,0.91-1.82,1.82-2.74,2.74c6.87,4.22,13.39,8.98,19.49,14.25c0.81-1.05,1.62-2.09,2.42-3.14
				c-8.24-4.95-15.3-11.7-20.6-19.72c-1.05,0.81-2.09,1.62-3.14,2.42c6.65,7.23,13.86,13.92,21.57,20.02
				c0.81-1.05,1.62-2.09,2.42-3.14c-7.88-3.98-14.84-9.44-20.58-16.15c-0.94,0.94-1.89,1.89-2.83,2.83
				c11.27,11.31,23.75,22.17,39.23,27.09c0.18-1.31,0.35-2.62,0.53-3.93c-18.89-2.24-34.49-14.71-47.15-28.05
				c-3.79-3.99-7.41-8.13-11.01-12.29C64.94,101.15,62.12,103.99,63.8,105.93L63.8,105.93z"/>
		</g>
	</g>
	<g>
		<g>
			<path class="st3" d="M128.48,135.47c-1.33-0.21-2.65-0.42-3.98-0.64c-0.35,1.29-0.71,2.57-1.06,3.86
				c6.88,0.98,13.79,1.51,20.73,1.53c2.58,0.01,2.56-3.89,0-4c-5.93-0.25-11.85-0.49-17.78-0.74c0,1.33,0,2.67,0,4
				c6.72,0.02,13.44,0.03,20.16,0.05c1.08,0,2-0.92,2-2c0-1.19-0.92-1.87-2-2c-7.31-0.9-14.63-1.8-21.94-2.7c0,1.33,0,2.67,0,4
				c7.21,0.32,14.42,0.19,21.61-0.37c2.55-0.2,2.59-3.86,0-4c-6.54-0.35-13.13,0.69-19.24,3.06c-1.18,0.46-1.9,1.73-1.2,2.94
				c2.03,3.46,6.61,3.18,10.08,3.31c4.7,0.17,9.41,0.2,14.11,0.08c2.57-0.06,2.58-4.05,0-4c-6.47,0.13-12.91,1.02-19.17,2.64
				c-2.19,0.57-1.72,3.92,0.53,3.93c7.13,0.02,14.25-0.2,21.36-0.64c0-1.33,0-2.67,0-4c-7.24,0.79-14.48,1.58-21.72,2.37
				c-2.5,0.27-2.64,3.98,0,4c6.45,0.06,12.9,0.12,19.35,0.18c0-1.33,0-2.67,0-4c-7.24-0.04-14.47-0.08-21.71-0.13
				c-2.63-0.02-2.5,3.72,0,4c5.46,0.61,10.92,1.22,16.37,1.83c0-1.33,0-2.67,0-4c-6.88,0.75-13.81,0.92-20.72,0.51
				c-2.21-0.13-2.78,3.57-0.53,3.93c7.45,1.17,14.97,1.63,22.5,1.27c2.56-0.12,2.59-4.04,0-4c-4.47,0.07-8.95,0.15-13.42,0.22
				c0,1.33,0,2.67,0,4c11-1.25,21.66-4.26,31.68-8.98c2.18-1.03,0.54-4.03-1.54-3.66c-6.88,1.24-13.26,4.76-18.01,9.89
				c-1.62,1.75,0.4,4.04,2.42,3.14c6.95-3.09,13.82-6.36,20.6-9.8c1.74-0.88,0.95-3.85-1.01-3.73c-5.12,0.33-9.82,2.17-13.84,5.35
				c-1.53,1.21,0.13,4.08,1.95,3.34c7-2.84,13.62-6.46,19.73-10.91c-0.81-1.05-1.62-2.09-2.42-3.14
				c-3.39,3.68-6.78,7.37-10.17,11.05c-1.5,1.64,0.41,4.33,2.42,3.14c4.81-2.84,9.28-6.22,13.34-10.05
				c1.67-1.58-0.47-4.26-2.42-3.14c-7.1,4.06-14.63,7.27-22.48,9.57c0.51,1.22,1.03,2.44,1.54,3.66c6.33-2.73,12.5-5.81,18.48-9.24
				c2-1.14,0.64-4.18-1.54-3.66c-9.75,2.34-19.5,4.69-29.25,7.03c0.35,1.29,0.71,2.57,1.06,3.86c9.41-2.95,18.81-5.89,28.22-8.84
				c2.45-0.77,1.41-4.61-1.06-3.86c-9.37,2.87-18.75,5.74-28.12,8.61c0.35,1.29,0.71,2.57,1.06,3.86
				c8.36-3.16,16.84-5.95,25.44-8.36c-0.35-1.29-0.71-2.57-1.06-3.86c-9.16,2.91-18.67,4.34-28.27,4.24
				c0.18,1.31,0.35,2.62,0.53,3.93c12.7-2.69,25-7.03,36.59-12.86c-0.81-1.05-1.62-2.09-2.42-3.14c-3.3,3.15-6.61,6.29-9.91,9.44
				c-1.63,1.56,0.48,4.35,2.42,3.14c3.89-2.42,7.78-4.84,11.68-7.26c1.83-1.14,0.64-4.55-1.54-3.66c-3.42,1.41-6.63,3.17-9.59,5.4
				c-2,1.51-0.28,4.78,2.02,3.45c3.17-1.82,6.11-4.01,8.77-6.51c1.39-1.3-0.05-4.08-1.95-3.34c-4.38,1.71-7.64,4.93-9.46,9.26
				c-0.67,1.61,1.58,3.18,2.94,2.26c3.32-2.25,6.08-5.14,8.14-8.59c0.97-1.63-1.06-3.94-2.74-2.74c-2.61,1.87-4.47,4.3-5.57,7.32
				c-0.6,1.66,1.52,3.13,2.94,2.26c6.89-4.23,12.47-10.44,15.83-17.81c0.45-0.98,0.28-2.15-0.72-2.74c-0.86-0.5-2.29-0.27-2.74,0.72
				c-3.08,6.77-8.05,12.48-14.4,16.37c0.98,0.75,1.96,1.51,2.94,2.26c0.71-1.97,2.02-3.71,3.73-4.93c-0.91-0.91-1.82-1.82-2.74-2.74
				c-1.7,2.85-3.95,5.29-6.7,7.16c0.98,0.75,1.96,1.51,2.94,2.26c1.22-2.91,3.74-5.32,6.66-6.47c-0.65-1.11-1.3-2.23-1.95-3.34
				c-2.43,2.27-5.08,4.22-7.96,5.88c0.67,1.15,1.35,2.3,2.02,3.45c2.66-2,5.55-3.72,8.64-4.99c-0.51-1.22-1.03-2.44-1.54-3.66
				c-3.89,2.42-7.78,4.84-11.68,7.26c0.81,1.05,1.62,2.09,2.42,3.14c3.3-3.15,6.61-6.29,9.91-9.44c1.71-1.63-0.46-4.13-2.42-3.14
				c-11.29,5.67-23.28,9.84-35.64,12.46c-2.25,0.48-1.68,3.9,0.53,3.93c9.94,0.11,19.87-1.37,29.34-4.38
				c2.44-0.78,1.43-4.56-1.06-3.86c-8.6,2.42-17.09,5.21-25.44,8.36c-2.36,0.89-1.44,4.62,1.06,3.86
				c9.37-2.87,18.75-5.74,28.12-8.61c-0.35-1.29-0.71-2.57-1.06-3.86c-9.4,2.95-18.81,5.89-28.22,8.84
				c-2.45,0.77-1.45,4.46,1.06,3.86c9.75-2.34,19.5-4.69,29.25-7.03c-0.51-1.22-1.03-2.44-1.54-3.66
				c-5.98,3.43-12.15,6.51-18.48,9.24c-2.1,0.9-0.6,4.28,1.54,3.66c8.17-2.4,16.05-5.75,23.44-9.98c-0.81-1.05-1.62-2.09-2.42-3.14
				c-3.82,3.61-8,6.76-12.53,9.43c0.81,1.05,1.62,2.09,2.42,3.14c3.39-3.68,6.78-7.37,10.17-11.05c1.46-1.58-0.5-4.54-2.42-3.14
				c-5.81,4.23-12.11,7.8-18.78,10.51c0.65,1.11,1.3,2.23,1.95,3.34c3.13-2.48,7.04-3.93,11.01-4.18c-0.34-1.24-0.67-2.48-1.01-3.73
				c-6.78,3.45-13.65,6.72-20.6,9.8c0.81,1.05,1.62,2.09,2.42,3.14c4.33-4.67,9.98-7.73,16.24-8.86c-0.51-1.22-1.03-2.44-1.54-3.66
				c-9.33,4.39-19.41,7.27-29.66,8.43c-1.07,0.12-2,0.83-2,2c0,1.07,0.92,2.02,2,2c4.47-0.07,8.95-0.15,13.42-0.22
				c0-1.33,0-2.67,0-4c-7.16,0.34-14.35-0.01-21.43-1.12c-0.18,1.31-0.35,2.62-0.53,3.93c6.91,0.41,13.84,0.24,20.72-0.51
				c2.57-0.28,2.57-3.71,0-4c-5.46-0.61-10.92-1.22-16.37-1.83c0,1.33,0,2.67,0,4c7.24,0.04,14.47,0.08,21.71,0.13
				c2.57,0.01,2.58-3.98,0-4c-6.45-0.06-12.9-0.12-19.35-0.18c0,1.33,0,2.67,0,4c7.24-0.79,14.48-1.58,21.72-2.37
				c1.07-0.12,2-0.84,2-2c0-1.03-0.92-2.07-2-2c-7.11,0.44-14.24,0.66-21.36,0.64c0.18,1.31,0.35,2.62,0.53,3.93
				c5.93-1.54,11.98-2.38,18.11-2.5c0-1.33,0-2.67,0-4c-4.04,0.1-8.09,0.1-12.13-0.01c-1.89-0.05-3.8-0.09-5.69-0.24
				c-1.01-0.08-2.36-0.2-2.92-1.15c-0.4,0.98-0.8,1.96-1.2,2.94c5.82-2.26,11.94-3.25,18.17-2.92c0-1.33,0-2.67,0-4
				c-7.19,0.57-14.4,0.69-21.61,0.37c-1.08-0.05-2,0.95-2,2c0,1.19,0.92,1.87,2,2c7.31,0.9,14.63,1.8,21.94,2.7c0-1.33,0-2.67,0-4
				c-6.72-0.02-13.44-0.03-20.16-0.05c-2.58-0.01-2.56,3.89,0,4c5.93,0.25,11.85,0.49,17.78,0.74c0-1.33,0-2.67,0-4
				c-6.58-0.02-13.16-0.47-19.67-1.39c-1.07-0.15-2.15,0.26-2.46,1.4c-0.26,0.95,0.32,2.29,1.4,2.46c1.33,0.21,2.65,0.42,3.98,0.64
				c1.07,0.17,2.15-0.27,2.46-1.4C130.14,136.98,129.55,135.64,128.48,135.47L128.48,135.47z"/>
		</g>
	</g>
	<g>
		<g>
			<path class="st3" d="M82.32,77.2c1.13-11.79,8.74-21.98,18.15-28.71c10.03-7.16,22.21-11.69,34.37-13.46
				c11.65-1.7,24.03-0.53,34.68,4.73c9.17,4.53,17.06,11.77,21.61,21c6.45,13.09,3.55,27.99,3.86,42c0.06,2.57,4.06,2.58,4,0
				c-0.29-13.51,2.26-27.63-2.88-40.56c-4.11-10.35-12.05-18.81-21.65-24.33c-10.9-6.26-23.72-8.39-36.16-7.24
				c-13.04,1.21-26.16,5.56-37.21,12.63C89.17,50.89,79.7,62.75,78.32,77.2c-0.1,1.08,0.99,2,2,2C81.49,79.2,82.22,78.28,82.32,77.2
				L82.32,77.2z"/>
		</g>
	</g>
	<g>
		<g>
			<path class="st3" d="M153.77,37.34c11.48,1.29,22.16,8.05,28.34,17.79c1.15-0.67,2.3-1.35,3.45-2.02
				c-3.87-5.62-8.79-10.37-14.57-14.02c-0.51,1.22-1.03,2.44-1.54,3.66c9.86,2.87,17.85,10.89,20.69,20.75
				c0.71,2.47,4.57,1.42,3.86-1.06c-3.23-11.21-12.29-20.29-23.49-23.55c-2.22-0.65-3.43,2.46-1.54,3.66
				c5.18,3.26,9.66,7.54,13.14,12.58c1.44,2.09,4.85,0.18,3.45-2.02c-7-11.03-18.83-18.32-31.79-19.77c-1.08-0.12-2,1.01-2,2
				C151.77,36.52,152.69,37.22,153.77,37.34L153.77,37.34z"/>
		</g>
	</g>
	<g>
		<g>
			<path class="st3" d="M175.44,44.27c14.16,9.41,23.94,25.04,25.86,41.97c1.97,17.47-3.72,37.05-17.79,48.35
				c-7.62,6.13-18.01,9.04-27.59,6.52c-2.49-0.66-3.55,3.2-1.06,3.86c9.38,2.47,19.55,0.4,27.66-4.78
				c7.71-4.93,13.59-12.41,17.4-20.67c8.28-17.93,7.56-39.31-2.02-56.59c-4.92-8.88-11.98-16.5-20.44-22.11
				C175.31,39.39,173.31,42.85,175.44,44.27L175.44,44.27z"/>
		</g>
	</g>
</g>
</svg>
