<?xml version="1.0" encoding="utf-8"?>
<!-- Generator: Adobe Illustrator 24.1.2, SVG Export Plug-In . SVG Version: 6.00 Build 0)  -->
<svg version="1.1" xmlns="http://www.w3.org/2000/svg" xmlns:xlink="http://www.w3.org/1999/xlink" x="0px" y="0px"
	 viewBox="0 0 45 48" style="enable-background:new 0 0 45 48;" xml:space="preserve">
<style type="text/css">
	.st0{fill:#297C15;}
	.st1{fill:#FFFF00;}
	.st2{fill:#FBB02D;}
	.st3{fill:#494848;stroke:#000000;stroke-miterlimit:10;}
	.st4{fill:#FFFFFF;stroke:#000000;stroke-miterlimit:10;}
	.st5{fill:#B5B5B5;}
</style>
<g id="Layer_2">
	<g>
		<g>
			<path class="st0" d="M17.62,10.47c0.52,5.06,1.01,10.12,1.46,15.19c0.24,2.62,0.45,5.24,0.64,7.86c0.09,1.29-0.24,5.59,1.95,5.35
				c0.96-0.11,1.24-1.09,1.27-1.9c0.05-1.3-0.14-2.64-0.25-3.93c-0.21-2.54-0.44-5.08-0.7-7.61c-0.51-5.11-1.17-10.2-1.96-15.27
				C19.84,8.78,17.48,9.08,17.62,10.47L17.62,10.47z"/>
		</g>
	</g>
	<g>
		<g>
			<path class="st0" d="M18.33,10.05c0.59,2.31,1.55,4.47,2.29,6.74c0.7,2.14,1.3,4.3,1.75,6.5c0.45,2.21,0.78,4.46,0.96,6.71
				c0.1,1.19,0.15,2.39,0.16,3.59c0.01,1.14-0.03,2.22,0.7,3.18c0.34,0.45,1.05,0.7,1.5,0.19c1.51-1.71,0.94-4.63,0.77-6.74
				c-0.2-2.53-0.57-5.04-1.15-7.51c-1.09-4.6-2.64-9.74-5.77-13.37C19.04,8.78,18.16,9.39,18.33,10.05L18.33,10.05z"/>
		</g>
	</g>
	<g>
		<g>
			<path class="st0" d="M19.49,18.26c0.27,4.41,1.28,8.75,1.78,13.14c0.24,2.14,0.46,4.29,0.61,6.44c0.07,1-0.1,2.49,0.42,3.38
				c0.48,0.81,1.39,0.97,2.16,0.57c0.5-0.26,0.76-0.83,0.78-1.37c0.07-1.99-0.23-4.05-0.44-6.02c-0.2-1.86-0.48-3.71-0.79-5.55
				c-0.63-3.76-1.35-7.54-2.93-11.03C20.74,17.04,19.45,17.44,19.49,18.26L19.49,18.26z"/>
		</g>
	</g>
	<g>
		<g>
			<path class="st0" d="M18.77,8.89c-0.04,0.02-0.07,0.03-0.11,0.05c-0.61,0.28-0.81,1.07-0.68,1.66c0.45,2.02,1.12,4.02,1.61,6.04
				c0.45,1.88,0.87,3.76,1.27,5.65c0.39,1.89,0.76,3.78,1.11,5.68c0.33,1.79,0.35,4.17,1.53,5.62c0.54,0.67,1.5,0.19,1.75-0.46
				c0.64-1.68-0.23-4.2-0.55-5.91c-0.36-1.89-0.73-3.78-1.14-5.67c-0.4-1.89-0.83-3.77-1.27-5.65c-0.47-2.01-0.85-4.11-1.46-6.08
				c-0.18-0.57-0.77-1.14-1.42-1.08C19.17,8.76,18.99,8.78,18.77,8.89L18.77,8.89z"/>
		</g>
	</g>
	<g>
		<g>
			<path class="st0" d="M16.53,11.72c-3.33,11.66,0.13,23.43,1.33,35.12c0.11,1.07,0.84,2,2,2c1,0,2.11-0.92,2-2
				C20.71,35.58,17.18,24,20.39,12.78C21.1,10.3,17.24,9.24,16.53,11.72L16.53,11.72z"/>
		</g>
	</g>
	<g>
		<g>
			<path class="st0" d="M16.86,25.7c0.5,7.17,1.18,14.32,2.05,21.46c0.13,1.07,0.83,2,2,2c0.98,0,2.13-0.92,2-2
				c-0.87-7.13-1.55-14.29-2.05-21.46c-0.08-1.08-0.87-2-2-2C17.83,23.7,16.78,24.61,16.86,25.7L16.86,25.7z"/>
		</g>
	</g>
	<g>
		<g>
			<path class="st0" d="M18.29,21.48c-0.54,2.54-0.98,5.13-1.05,7.73c-0.03,1.29,0.09,2.61,0.26,3.89c0.16,1.27,0.27,3.03,1.46,3.77
				c-0.14-0.14-0.29-0.29-0.43-0.43c0.26,0.37,0.46,0.69,0.86,0.91c0.38,0.2,0.91,0.11,1.13-0.3c0.22-0.41,0.23-0.77,0.26-1.22
				c-0.06,0.2-0.11,0.41-0.17,0.61c0.6-1.11,0.04-2.57-0.16-3.74c-0.21-1.21-0.27-2.42-0.4-3.63c-0.27-2.48-0.42-4.97-0.68-7.45
				C19.3,21.06,18.43,20.83,18.29,21.48L18.29,21.48z"/>
		</g>
	</g>
	<g>
		<g>
			<path class="st0" d="M22.08,21.6c0.26,1.71,0.6,3.4,1.03,5.07c0.65,2.53,4.31,1.43,3.86-1.06c-0.31-1.71-0.63-3.43-0.94-5.14
				c-1.29,0.35-2.57,0.71-3.86,1.06c1.87,8.38,3.54,16.82,4.62,25.35c0.14,1.07,0.82,2,2,2c0.98,0,2.14-0.92,2-2
				c-1.13-8.88-2.82-17.67-4.77-26.41c-0.57-2.53-4.31-1.44-3.86,1.06c0.31,1.71,0.63,3.43,0.94,5.14c1.29-0.35,2.57-0.71,3.86-1.06
				c-0.43-1.67-0.77-3.36-1.03-5.07c-0.16-1.07-1.51-1.66-2.46-1.4C22.33,19.46,21.91,20.53,22.08,21.6L22.08,21.6z"/>
		</g>
	</g>
	<g>
		<g>
			<path class="st0" d="M28.66,46.69c-0.38-1.67-0.68-3.36-0.93-5.05c-0.03-0.2-0.06-0.4-0.09-0.6c-0.01-0.1-0.03-0.2-0.04-0.3
				c0.03,0.2,0.02,0.18-0.01-0.07c-0.05-0.4-0.1-0.8-0.15-1.2c-0.1-0.87-0.2-1.74-0.28-2.6c-0.11-1.04-0.84-2.05-2-2
				c-1.06,0.05-2.03,0.88-2,2c0.1,3.67,0.77,7.3,1.3,10.92c0.15,1.04,1.52,1.7,2.46,1.4c1.14-0.37,1.56-1.35,1.4-2.46
				c-0.12-0.86-0.26-1.73-0.39-2.59c-0.06-0.4-0.12-0.8-0.18-1.2c-0.03-0.2-0.06-0.4-0.09-0.6c-0.02-0.13-0.04-0.27-0.06-0.4
				c-0.03-0.22-0.04-0.27-0.02-0.13c0.02,0.17-0.05-0.36-0.06-0.43c-0.03-0.23-0.06-0.47-0.08-0.7c-0.05-0.4-0.09-0.8-0.13-1.2
				c-0.08-0.87-0.13-1.74-0.16-2.61c-1.33,0-2.67,0-4,0c0.37,3.65,0.82,7.31,1.64,10.89c0.23,1.02,1.46,1.72,2.46,1.4
				C28.33,48.8,28.91,47.78,28.66,46.69L28.66,46.69z"/>
		</g>
	</g>
	<g>
		<g>
			<path class="st0" d="M21.52,34.95c-0.42,4.56,2.15,8.45,3.07,12.76c0.22,1.02,1.47,1.72,2.46,1.4c1.08-0.35,1.63-1.36,1.4-2.46
				c-0.44-2.05-1.26-3.97-1.95-5.93c-0.33-0.94-0.63-1.9-0.84-2.88c-0.05-0.26-0.1-0.52-0.14-0.78c0.05,0.38-0.03-0.39-0.03-0.46
				c-0.03-0.55-0.02-1.09,0.03-1.63c0.1-1.04-0.99-2.05-2-2C22.35,33,21.62,33.83,21.52,34.95L21.52,34.95z"/>
		</g>
	</g>
	<g>
		<g>
			<path class="st0" d="M24.85,46.21c-0.23-1.17-0.42-2.34-0.59-3.51c-0.03-0.25-0.04-0.29-0.02-0.13
				c-0.02-0.15-0.04-0.29-0.06-0.44c-0.04-0.29-0.07-0.59-0.11-0.88c-0.07-0.59-0.12-1.18-0.18-1.77c-1.24,0.34-2.48,0.67-3.73,1.01
				c0.66,1.35,1.19,3.34,1.28,4.79c1.31-0.18,2.62-0.35,3.93-0.53c-0.32-1.4-0.81-2.76-1.12-4.16c-0.04-0.19-0.07-0.37-0.11-0.56
				c-0.08-0.37,0,0.1-0.02-0.12c-0.03-0.34-0.06-0.68-0.06-1.02c0-0.18,0.02-0.36,0.03-0.55c-0.02,0.42,0.03-0.11,0.04-0.19
				c0.04-0.18,0.1-0.35,0.15-0.53c0.12-0.4-0.11,0.2,0.1-0.21c-1.15,0-2.3,0-3.45,0c0.14,0.22,0.27,0.44,0.39,0.67
				c0.06,0.11,0.11,0.23,0.17,0.35c-0.07-0.18-0.07-0.16,0.02,0.06c0.16,0.49,0.3,0.97,0.39,1.48c-0.07-0.41,0.02,0.34,0.03,0.42
				c0.01,0.26,0.01,0.51,0,0.77c-0.01,0.13-0.02,0.26-0.03,0.38c0.03-0.21,0.03-0.2-0.01,0.04c-0.05,0.25-0.1,0.5-0.17,0.76
				c1.22-0.16,2.44-0.32,3.66-0.48c-0.04-0.1-0.09-0.2-0.13-0.3c-0.13-0.3,0.15,0.36,0.09,0.22c-0.04-0.1-0.08-0.2-0.13-0.31
				c-0.17-0.43-0.34-0.86-0.49-1.3c-0.18-0.5-0.34-1.01-0.48-1.52c-0.07-0.24-0.13-0.49-0.19-0.74c-0.02-0.11-0.05-0.22-0.07-0.33
				c-0.04-0.21,0-0.6-0.01,0.01c0-0.19-0.04-0.38-0.04-0.57c0-0.09,0.03-0.21,0.01-0.3c-0.01-0.06-0.12,0.54-0.02,0.2
				c0.09-0.28-0.27,0.49-0.09,0.21c-0.09,0.14-0.21,0.26-0.35,0.37c-0.34,0.26-0.97,0.41-1.47,0.11c0.17,0.1-0.26-0.21-0.23-0.18
				c0.19,0.17-0.17-0.05-0.13-0.18c0,0.01,0.16,0.28,0.16,0.28c-0.07,0-0.16-0.46-0.04-0.04c0.05,0.16,0.08,0.32,0.12,0.48
				c0.09,0.36-0.02-0.41,0-0.05c0.01,0.14,0.02,0.27,0.02,0.41c0,0.1-0.02,0.22-0.01,0.32c0.02,0.24,0.09-0.48,0.04-0.26
				c-0.01,0.05-0.01,0.1-0.04,0.15c-0.06,0.13,0.08-0.2,0.08-0.19c0.02,0.07-0.14,0.26-0.17,0.33c-0.06,0.12-0.24,0.28,0.07-0.06
				c-0.19,0.21,0.12-0.09,0.18-0.12c0.26-0.16,0.44-0.14,0.76-0.14c0.43,0.04,0.57,0.04,0.39-0.01c-0.09-0.03-0.05-0.01,0.14,0.06
				c0.4,0.15-0.07-0.12,0.25,0.14c0.29,0.23,0.11,0.09,0.05,0.03c-0.59-0.61-1.22-1.01-2.08-1.08c0,1.33,0,2.67,0,4
				c0.32,0-0.56-0.16-0.11,0c-0.34-0.15-0.42-0.18-0.24-0.09c0.05,0.03,0.11,0.06,0.16,0.1c-0.27-0.22-0.34-0.26-0.18-0.13
				c0.05,0.05,0.1,0.1,0.14,0.15c0.22,0.18-0.23-0.42,0.01,0.03c0.07,0.13,0.15,0.27,0.22,0.4c0.16,0.3-0.15-0.45,0.03,0.08
				c0.1,0.27,0.16,0.55,0.22,0.84c0.08,0.35-0.03-0.49,0,0.08c0.01,0.16,0.01,0.32,0,0.48c-0.03,0.55,0.11-0.26,0,0.04
				c-0.02,0.05-0.07,0.42-0.12,0.42c0.14-0.31,0.16-0.37,0.07-0.19c-0.02,0.03-0.03,0.06-0.05,0.09c-0.17,0.26,0.38-0.32-0.01-0.01
				c0.67-0.53-0.01,0.04-0.05-0.01c-0.1-0.12,0.81-0.15,0.53-0.16c0.28,0,0.53,0.06,0.77,0.2c0.31,0.27,0.4,0.33,0.27,0.2
				c0.24,0.34,0.31,0.42,0.21,0.25c0.15,0.38,0.19,0.48,0.14,0.29c-0.09-0.3,0.05,0.6,0.04,0.22c-0.01-0.39-0.1,0.52-0.03,0.2
				c0.1-0.43-0.21,0.39-0.06,0.13c0.11-0.16,0.05-0.09-0.18,0.23c0.14-0.14,0.06-0.08-0.24,0.17c0.17-0.1,0.08-0.07-0.28,0.1
				c0.19-0.06,0.09-0.05-0.3,0.02c0.48-0.02-0.41-0.13-0.07-0.02c-0.32-0.15-0.39-0.18-0.22-0.08c-0.28-0.23-0.34-0.27-0.2-0.12
				c-0.37-0.37-0.16-0.23-0.09-0.05c-0.25-0.59-0.03-0.05,0.01,0.09c0.05,0.17,0.09,0.34,0.13,0.51c0.02,0.11,0.02,0.44,0.09,0.52
				c-0.04-0.32-0.05-0.37-0.02-0.15c0.01,0.08,0.02,0.16,0.03,0.24c0.02,0.25,0.04,0.5,0.06,0.76c0.06,1.04,0.88,2.05,2,2
				c1.03-0.05,2.06-0.88,2-2c-0.1-1.75-0.28-4.14-1.91-5.19c-2.05-1.32-4.52,0.16-4.7,2.47c-0.06,0.83,0.21,1.77,0.86,2.33
				c0.96,0.85,2.26,0.86,3.34,0.22c1.9-1.12,2.23-3.41,1.84-5.4c-0.39-2.02-1.85-4.21-4.1-4.24c-1.05-0.02-2.05,0.93-2,2
				c0.05,1.16,0.88,1.91,2,2c-1.08-0.09-1.1-0.39-0.81-0.2c-0.54-0.34-0.34-0.29-0.22-0.16c0.07,0.07,0.15,0.15,0.23,0.22
				c0.39,0.36,0.8,0.67,1.32,0.83c1.33,0.4,2.52-0.36,3.18-1.48c0.93-1.58,0.82-3.86-0.14-5.42c-0.67-1.08-1.87-1.71-3.14-1.39
				c-0.93,0.23-1.66,1-1.92,1.91c-0.4,1.4,0,2.97,0.41,4.32c0.38,1.28,0.87,2.54,1.43,3.76c0.33,0.71,1.28,1.05,1.99,0.95
				c0.77-0.1,1.46-0.66,1.66-1.43c0.71-2.71,0.31-5.63-1.18-8.01c-0.75-1.2-2.75-1.39-3.45,0c-0.92,1.82-0.99,3.72-0.64,5.69
				c0.28,1.6,0.86,3.14,1.23,4.72c0.5,2.17,4.08,1.74,3.93-0.53c-0.16-2.4-0.76-4.65-1.83-6.81c-0.37-0.76-1.46-1.18-2.26-0.92
				c-0.79,0.26-1.55,1.04-1.47,1.93c0.23,2.62,0.59,5.23,1.09,7.81c0.2,1.03,1.49,1.71,2.46,1.4
				C24.55,48.31,25.06,47.31,24.85,46.21L24.85,46.21z"/>
		</g>
	</g>
	<g>
		<g>
			<path class="st0" d="M18.63,34.66c0.85,4.41,1.69,8.83,2.54,13.24c0.2,1.06,1.48,1.67,2.46,1.4c1.11-0.31,1.6-1.4,1.4-2.46
				c-0.85-4.41-1.69-8.83-2.54-13.24c-0.2-1.06-1.48-1.67-2.46-1.4C18.92,32.5,18.43,33.59,18.63,34.66L18.63,34.66z"/>
		</g>
	</g>
	<g>
		<g>
			<path class="st0" d="M19.39,28.09c0.87,6.34,1.35,12.72,1.71,19.11c0.15,2.56,4.15,2.58,4,0c-0.39-6.75-0.94-13.47-1.85-20.17
				c-0.15-1.07-1.52-1.66-2.46-1.4C19.63,25.95,19.25,27.02,19.39,28.09L19.39,28.09z"/>
		</g>
	</g>
	<g>
		<g>
			<path class="st1" d="M20.36,7.19c0.58-0.54,1.21-1.31,1.4-2.1c0.22-0.96-0.31-1.96-1.26-2.26c-2.01-0.62-2.51,2.28-2.63,3.64
				c0.58-0.16,1.17-0.32,1.75-0.47c-0.47-0.69-0.85-1.85-1.85-1.8c-1.15,0.06-1.32,1.43-1.34,2.32c0.58-0.16,1.17-0.32,1.75-0.48
				c-0.76-1.13-2.5-3.14-4.02-2.09c-0.85,0.58-0.68,1.7,0.06,2.28c0.65,0.52,1.45,0.81,2.28,0.81c0.67,0,0.99-0.99,0.35-1.31
				c-0.31-0.16-0.58-0.41-0.89-0.57c-0.33-0.17-0.69-0.3-1.04-0.39c-0.61-0.16-1.43-0.34-2.01,0c-0.38,0.22-0.58,0.67-0.48,1.1
				c0.08,0.34,0.3,0.56,0.57,0.76c0.47,0.35,0.95,0.63,1.53,0.76c1.18,0.27,2.46,0.14,3.61-0.2c0.65-0.19,1.26-0.46,1.89-0.7
				c0.34-0.13,0.68-0.25,1.02-0.37c0.15-0.05,0.29-0.1,0.44-0.14c0.1-0.03,0.2-0.05,0.3-0.07c0.19-0.01,0.2-0.04,0.03-0.07
				c-0.09-0.09-0.18-0.18-0.26-0.26c0.01,0.03,0.03,0.06,0.04,0.09c-0.03-0.12-0.07-0.25-0.1-0.37c0.05-0.07,0.09-0.13,0.14-0.2
				c-0.04,0.01-0.08,0.02-0.13,0.04c-0.09-0.01-0.22,0.03-0.31,0.04c-0.25,0.03-0.5,0.04-0.75,0.05c-0.47,0.02-0.95,0-1.42-0.04
				c-1-0.08-1.02,1.57,0,1.57c0.73,0,1.46-0.06,2.18-0.19c0.57-0.1,1.29-0.16,1.61-0.72c0.35-0.62-0.03-1.38-0.72-1.48
				c-0.61-0.09-1.36,0.1-1.93,0.29c-1.18,0.39-2.27,1.05-3.47,1.38c-0.47,0.13-0.96,0.23-1.45,0.16c-0.24-0.03-0.5-0.1-0.72-0.19
				c-0.12-0.05-0.23-0.12-0.34-0.19c-0.04-0.03-0.08-0.05-0.12-0.08c-0.1-0.11-0.12-0.11-0.06,0c-0.04,0.13-0.07,0.26-0.11,0.4
				c0.02-0.03,0.03-0.06,0.05-0.09c-0.1,0.1-0.2,0.2-0.3,0.3c0.17-0.12-0.16-0.03-0.05-0.01c0.1,0.02,0.24-0.01,0.35-0.01
				c0.23,0,0.46,0.01,0.68,0.05c0.39,0.07,1.07,0.17,1.38,0.43c0.23-0.39,0.46-0.78,0.68-1.17c-0.35-0.14-0.71-0.32-1.02-0.53
				c-0.05-0.03-0.22-0.2-0.28-0.22c0.15,0.51,0.03,0.76-0.37,0.75c0.06-0.01,0.11,0.02,0.16,0.07c0.23,0.18,0.5,0.29,0.72,0.5
				C16.15,6.45,16.38,6.7,16.56,7c0.5,0.85,1.68,0.42,1.75-0.48c0.01-0.15,0.03-0.28,0.07-0.42c0.01-0.06,0.03-0.11,0.04-0.17
				c0.1-0.27,0.05-0.23-0.16,0.12c-0.17,0.05-0.33,0.09-0.5,0.14c-0.03,0-0.06,0-0.09-0.01c-0.15-0.09-0.29-0.17-0.44-0.26
				c0.3,0.27,0.53,0.68,0.75,1.02c0.54,0.81,1.66,0.45,1.75-0.47c0.03-0.35,0.1-0.72,0.22-1.05c0.05-0.13,0.28-0.4,0.27-0.53
				c0,0.05-0.54,0.05-0.69-0.12c-0.06-0.04-0.1-0.09-0.11-0.16c0.03,0.14,0.03,0.15,0.01,0.03c0.02-0.09-0.08,0.16-0.1,0.18
				c-0.21,0.37-0.49,0.69-0.68,1.07C18.15,6.96,19.45,8.04,20.36,7.19L20.36,7.19z"/>
		</g>
	</g>
	<g>
		<g>
			<path class="st1" d="M18.65,6.46c0.26,0,0.26-0.4,0-0.4C18.39,6.06,18.39,6.46,18.65,6.46L18.65,6.46z"/>
		</g>
	</g>
	<g>
		<g>
			<path class="st1" d="M19.73,7.42c0.36,0.1,0.72,0.2,1.09,0.25c0.32,0.04,0.64,0.08,0.96,0.12c0.33,0.04,0.67,0.07,1,0.11
				c0.37,0.04,0.75,0.08,1.09-0.1c0.4-0.21,0.58-0.66,0.52-1.09c-0.06-0.42-0.3-0.76-0.67-0.97c-0.29-0.17-0.64-0.27-0.96-0.38
				c-0.3-0.1-0.6-0.16-0.9-0.22c-0.39-0.07-0.82-0.16-1.22-0.15c-0.22,0.01-0.45,0.06-0.66,0.1c-0.25,0.05-0.46,0.13-0.64,0.31
				c-0.22,0.22-0.22,0.59,0,0.81c0.27,0.27,0.68,0.34,1.04,0.44c0.21,0.05,0.44,0.05,0.65,0.08c0.04,0,0.35,0.04,0.13,0.01
				c0.07,0.01,0.14,0.02,0.21,0.03c0.33,0.05,0.66,0.12,0.98,0.19c0.16,0.03,0.33,0.07,0.49,0.11c0.07,0.02,0.13,0.04,0.2,0.06
				c0.05,0.02,0.04,0.01-0.05-0.02c0.07,0.04,0.07,0.04-0.01-0.03c0.11,0.1-0.04-0.07-0.05-0.13c-0.04-0.18,0.06-0.37,0.22-0.47
				c0.05-0.03,0.25-0.04,0.12-0.05C23.17,6.42,23.09,6.42,23,6.42c-0.35-0.02-0.69-0.05-1.04-0.07c-0.35-0.03-0.69-0.06-1.04-0.09
				c-0.34-0.03-0.69-0.02-1.04-0.02C19.2,6.22,19.06,7.24,19.73,7.42L19.73,7.42z"/>
		</g>
	</g>
	<g>
		<g>
			<path class="st1" d="M17.14,4.95c0.09-0.11,0.22-0.24,0.28-0.35c0.08-0.14,0.12-0.29,0.15-0.45c0.05-0.26,0.11-0.53,0.12-0.8
				c0.01-0.46,0.07-0.95-0.03-1.39c-0.5,0.5-1,1-1.5,1.5c0.03,0.01,0.05,0.02,0.08,0.03c-0.19-0.14-0.37-0.29-0.56-0.43
				c0.04,0.07,0.08,0.12,0.12,0.19c0.14,0.18,0.29,0.25,0.49,0.33c-0.18-0.18-0.35-0.35-0.53-0.53c0.08,0.32,0.14,0.66,0.32,0.94
				c0.2,0.32,0.67,0.34,0.87,0c0.09-0.16,0.15-0.32,0.19-0.5c0.03-0.15,0.06-0.29,0.09-0.44c-0.12,0.15-0.23,0.3-0.35,0.46
				c0.19-0.09,0.33-0.25,0.42-0.44c-0.19,0.14-0.37,0.29-0.56,0.43c0.02-0.01,0.05-0.02,0.07-0.03c0.21-0.06,0.39-0.16,0.54-0.31
				c0.15-0.15,0.26-0.33,0.31-0.54c0.12-0.42-0.01-0.88-0.31-1.19s-0.77-0.43-1.19-0.31c-0.38,0.1-0.78,0.45-0.85,0.85
				c-0.04,0.21-0.05,0.38-0.04,0.58c0.01,0.09,0.01,0.17,0.02,0.26c0.01,0.18,0.02,0.37,0.03,0.55c0.02,0.28,0.08,0.54,0.14,0.8
				c0.04,0.16,0.07,0.3,0.16,0.45c0.07,0.12,0.19,0.24,0.29,0.35C16.19,5.28,16.85,5.31,17.14,4.95L17.14,4.95z"/>
		</g>
	</g>
</g>
<g id="Layer_1">
	<g>
		<g>
			<path d="M18.65,47.1c-1.62-12.92-3.55-26.12,0.36-38.83C18.69,8.51,18.37,8.76,18.04,9c1.02,0,1.57,0.14,2.25,0.97
				c0.81,1,2.22-0.42,1.41-1.41c-0.97-1.2-2.17-1.55-3.66-1.56c-0.45,0-0.83,0.31-0.96,0.73C13.11,20.63,15,33.99,16.65,47.1
				C16.8,48.36,18.81,48.38,18.65,47.1L18.65,47.1z"/>
		</g>
	</g>
	<g>
		<g>
			<path d="M20.14,9.5c6.47,11.69,8.05,25.13,9.9,38.15c0.18,1.27,2.11,0.73,1.93-0.53c-1.88-13.21-3.54-26.76-10.1-38.62
				C21.24,7.37,19.51,8.38,20.14,9.5L20.14,9.5z"/>
		</g>
	</g>
	<g>
		<g>
			<path d="M22.29,18.02c0.04,0.05-0.05-0.08-0.02-0.03c0.01,0.02,0.03,0.07,0,0c-0.03-0.08,0,0.02,0.01,0.04
				c0-0.04-0.01-0.07-0.01-0.11c0,0.04,0,0.07,0,0.11c0-0.04,0.01-0.07,0.01-0.11c0,0.03-0.01,0.05-0.02,0.08
				c-0.01,0.04-0.04,0.07,0.02-0.04c-0.01,0.01-0.02,0.03-0.02,0.04c-0.01,0.03,0.07-0.08,0.03-0.04c-0.01,0.01-0.02,0.02-0.03,0.03
				c-0.02,0.02-0.05,0.04-0.07,0.06c0.03-0.02,0.06-0.05,0.09-0.07c-0.05,0.04-0.1,0.06-0.15,0.09c0.04-0.02,0.08-0.03,0.12-0.05
				c-0.04,0.02-0.09,0.03-0.13,0.04c0.04-0.01,0.09-0.01,0.13-0.02c-0.1,0.01-0.2,0.01-0.3,0c0.05,0.01,0.09,0.01,0.14,0.02
				c-0.1-0.02-0.2-0.04-0.29-0.08c0.04,0.02,0.09,0.04,0.13,0.05c-0.06-0.03-0.12-0.05-0.18-0.08c-0.1-0.05-0.2-0.09-0.31-0.08
				c-0.12,0-0.2,0.04-0.3,0.09c0.04-0.02,0.08-0.03,0.12-0.05c-0.01,0-0.01,0-0.02,0.01c0.09,0,0.17,0,0.26,0
				c-0.05-0.01-0.1-0.02-0.15-0.03c-0.08-0.02-0.15-0.02-0.23-0.01c-0.12,0.01-0.21,0.05-0.28,0.14c-0.07,0.08-0.1,0.21-0.06,0.31
				c0.03,0.08,0.06,0.16,0.12,0.24c0.04,0.06,0.09,0.11,0.14,0.16c-0.04-0.07-0.08-0.14-0.12-0.21c0.04,0.17,0.13,0.3,0.28,0.4
				c0.08,0.05,0.19,0.08,0.28,0.11c0.15,0.05,0.31,0.08,0.47,0.09c0.31,0.02,0.61-0.09,0.83-0.31c0.08-0.08,0.15-0.18,0.2-0.28
				c0.02-0.04,0.04-0.09,0.06-0.13c0.02-0.04,0.01-0.02-0.02,0.05c0.02-0.04,0.03-0.08,0.05-0.12c0.01-0.04,0.03-0.07,0.03-0.11
				c0.05-0.28,0-0.55-0.21-0.75c-0.15-0.15-0.42-0.16-0.56,0C22.14,17.63,22.15,17.85,22.29,18.02L22.29,18.02z"/>
		</g>
	</g>
	<g>
		<g>
			<path d="M18.76,30.47c-0.01,0.03-0.01,0.06-0.03,0.1c0.02-0.04,0.04-0.09,0.06-0.13c-0.01,0.03-0.03,0.06-0.05,0.08
				c0.03-0.04,0.06-0.08,0.09-0.11c-0.02,0.03-0.05,0.06-0.08,0.08c0.04-0.03,0.08-0.06,0.11-0.09c-0.04,0.03-0.08,0.05-0.13,0.07
				c0.05-0.02,0.09-0.04,0.14-0.06c-0.05,0.02-0.1,0.03-0.15,0.04c0.05-0.01,0.1-0.01,0.15-0.02c-0.04,0.01-0.09,0-0.13,0
				c-0.04,0-0.08,0-0.13,0c0.05,0.01,0.1,0.01,0.15,0.02c-0.03-0.01-0.07-0.01-0.1-0.03c0.04,0.02,0.09,0.04,0.13,0.06
				c-0.02-0.01-0.05-0.02-0.07-0.04c-0.04-0.02-0.08-0.04-0.13-0.05c-0.07-0.02-0.14-0.03-0.21-0.01c-0.05,0-0.09,0.01-0.13,0.04
				c-0.07,0.02-0.12,0.06-0.17,0.11c-0.06,0.07-0.11,0.15-0.14,0.23c-0.04,0.13-0.01,0.29,0.05,0.41c0.11,0.2,0.32,0.33,0.53,0.4
				c0.09,0.03,0.19,0.04,0.29,0.03c0.1-0.01,0.2-0.02,0.29-0.06c0.17-0.07,0.35-0.15,0.47-0.3c0.1-0.12,0.15-0.2,0.21-0.35
				c0.03-0.09,0.04-0.18,0.05-0.28c0-0.08-0.01-0.15-0.05-0.21c-0.02-0.07-0.06-0.13-0.11-0.18c-0.04-0.03-0.07-0.06-0.11-0.09
				c-0.06-0.04-0.13-0.06-0.2-0.06c-0.05-0.01-0.1-0.01-0.15,0c-0.07,0-0.14,0.02-0.2,0.06C18.9,30.21,18.78,30.33,18.76,30.47
				L18.76,30.47z"/>
		</g>
	</g>
	<g>
		<g>
			<path d="M24.23,28.67c0,0.01,0,0.01,0,0.02c-0.01-0.05-0.01-0.1-0.02-0.15c0.01,0.05,0.01,0.1,0,0.14
				c0.01-0.05,0.01-0.1,0.02-0.15c-0.01,0.05-0.02,0.1-0.04,0.15c0.02-0.04,0.04-0.09,0.06-0.13c-0.02,0.05-0.05,0.11-0.09,0.15
				c0.03-0.04,0.06-0.08,0.09-0.11c-0.04,0.05-0.08,0.1-0.13,0.13c0.04-0.03,0.08-0.06,0.11-0.09c-0.05,0.04-0.11,0.08-0.17,0.1
				c0.04-0.02,0.09-0.04,0.13-0.06c-0.05,0.02-0.1,0.04-0.16,0.04c0.05-0.01,0.1-0.01,0.15-0.02c-0.05,0.01-0.1,0.01-0.15,0
				c0.05,0.01,0.1,0.01,0.15,0.02c-0.06-0.01-0.13-0.02-0.19-0.03c-0.08,0-0.15,0.01-0.22,0.05c-0.07,0.02-0.13,0.06-0.18,0.12
				c-0.03,0.04-0.06,0.08-0.09,0.12c-0.04,0.07-0.06,0.14-0.07,0.21c-0.01,0.05-0.01,0.1,0,0.15c0,0.08,0.03,0.15,0.07,0.21
				c0.08,0.13,0.19,0.21,0.34,0.26c0.07,0.02,0.15,0.03,0.23,0.03c0.03,0,0.05,0,0.08,0c0.1-0.01,0.2-0.02,0.3-0.06
				c0.2-0.07,0.36-0.17,0.51-0.31c0.15-0.14,0.24-0.31,0.31-0.5c0.07-0.19,0.06-0.4,0.02-0.6c-0.03-0.13-0.14-0.26-0.25-0.33
				c-0.12-0.07-0.29-0.1-0.42-0.06c-0.13,0.04-0.26,0.12-0.33,0.25c-0.02,0.04-0.04,0.09-0.06,0.13
				C24.2,28.48,24.2,28.58,24.23,28.67L24.23,28.67z"/>
		</g>
	</g>
	<g>
		<g>
			<path d="M23.04,43.9c0.01,0.04,0,0.04,0-0.02c0,0.01,0,0.03,0,0.04C23.04,43.97,23.06,43.86,23.04,43.9c0,0.01,0,0.03,0,0.04
				c-0.01,0.03,0.04-0.07,0.01-0.03c-0.01,0.01-0.02,0.03-0.02,0.04c-0.03,0.05,0.06-0.06,0.02-0.02c-0.03,0.03-0.05,0.02,0.03-0.02
				c0.03-0.01,0.06-0.02,0.09-0.04c0,0-0.01,0-0.01,0c0.03,0,0.07-0.01,0.1-0.01c-0.09,0.01-0.15,0.02-0.23,0.06
				c-0.02,0.01-0.05,0.03-0.07,0.04c0.03-0.01,0.07-0.03,0.1-0.04c-0.04,0.02-0.09,0.03-0.14,0.04c0.04-0.01,0.08-0.01,0.12-0.02
				c-0.04,0-0.08,0-0.12,0c0.04,0.01,0.09,0.01,0.13,0.02c-0.05-0.01-0.09-0.02-0.14-0.04c0.04,0.02,0.08,0.03,0.12,0.05
				c-0.09-0.04-0.18-0.07-0.26-0.11c0.04,0.02,0.09,0.04,0.13,0.05c-0.06-0.02-0.11-0.05-0.17-0.08c-0.06-0.03-0.11-0.04-0.17-0.05
				c-0.08-0.02-0.15-0.05-0.23-0.08c0.03,0.01,0.07,0.03,0.1,0.04c-0.04-0.02-0.09-0.04-0.13-0.06c-0.07-0.02-0.16-0.02-0.23,0
				c-0.17,0.04-0.3,0.22-0.29,0.39c0.01,0.13,0.07,0.24,0.14,0.35c0.06,0.09,0.13,0.18,0.2,0.26c0.11,0.11,0.26,0.17,0.4,0.21
				c0.23,0.06,0.52,0.02,0.72-0.11c0.19-0.12,0.39-0.33,0.38-0.57c0,0.03-0.01,0.06-0.01,0.09c-0.03,0.06-0.03,0.07-0.02,0.04
				c0.01-0.03,0.03-0.06,0.04-0.1c0.01-0.02,0.01-0.04,0.02-0.06c0.01-0.06,0.02-0.12,0.02-0.18c0-0.12-0.04-0.24-0.11-0.33
				c-0.08-0.11-0.2-0.17-0.34-0.11C23.07,43.62,23,43.76,23.04,43.9L23.04,43.9z"/>
		</g>
	</g>
	<g>
		<g>
			<path class="st2" d="M21.46,7.85c0.92,0.19,1.85,0.34,2.79,0.39c0.63,0.03,1.32-0.07,1.62-0.7C26.12,7,25.9,6.32,25.5,5.92
				c-0.53-0.51-1.33-0.56-2.02-0.59c0.13,0.18,0.27,0.35,0.4,0.53c0.27-0.75-0.28-1.45-1.03-1.52c0.13,0.17,0.26,0.34,0.39,0.51
				c0.17-1.13-0.87-1.94-1.91-1.37c0.19,0.08,0.38,0.15,0.57,0.23c-0.08-0.53-0.22-1.1-0.68-1.43c-0.48-0.33-1.06-0.22-1.5,0.12
				c-1.09,0.84-1.31,2.63-1.17,3.89c0.28,0,0.56,0,0.84,0c-0.13-1.28-0.43-2.6-0.98-3.77c-0.23-0.49-0.53-0.95-0.95-1.3
				c-0.33-0.28-0.92-0.66-1.34-0.4c-0.95,0.59-0.67,2.04-0.26,2.84c0.33,0.63,0.8,1.2,1.21,1.77c0.48,0.67,0.95,1.34,1.42,2.02
				c0.22-0.17,0.44-0.34,0.66-0.51c-0.96-1.16-2.02-2.3-3.17-3.28c-0.74-0.62-1.95-1.16-2.68-0.19c-0.78,1.04,0.53,1.88,1.3,2.31
				c1.26,0.71,2.61,1.24,4.01,1.6c0.07-0.24,0.13-0.48,0.2-0.72c-1.09-0.15-2.11-0.58-3.2-0.75c-0.65-0.1-1.89-0.26-2.41,0.29
				c-0.58,0.62,0.15,1.26,0.72,1.45c0.96,0.32,2.04,0.5,3.05,0.49c1.93-0.02,3.6-1.02,4.94-2.34c0.51-0.5,1.39-1.31,1.04-2.12
				c-0.27-0.63-1.14-0.39-1.15,0.26c0,0.28,0.43,0.43,0.56,0.15c-0.02,0-0.04,0.01-0.07,0.01c-0.06-0.08-0.13-0.17-0.19-0.25
				c0.19,0.54-0.66,1.19-1.01,1.53c-0.4,0.38-0.84,0.73-1.3,1.04c-1.05,0.69-2.19,1.01-3.45,0.94c-0.62-0.03-1.24-0.13-1.84-0.3
				C14.36,7.03,14.17,7,14.03,6.91c-0.13-0.08-0.23-0.06-0.09-0.15c0.22-0.14,0.72-0.1,0.97-0.09c1.25,0.05,2.47,0.53,3.71,0.71
				c0.46,0.07,0.68-0.59,0.2-0.72c-0.99-0.27-1.96-0.61-2.88-1.07c-0.44-0.22-0.88-0.46-1.3-0.71c-0.3-0.18-1.1-0.68-0.48-0.98
				c0.75-0.36,1.81,0.98,2.28,1.43c0.74,0.71,1.44,1.45,2.12,2.22c0.31,0.35,0.95-0.12,0.66-0.51c-0.7-0.95-1.39-1.9-2.07-2.86
				c-0.53-0.74-1.28-1.84-0.4-2.62c-0.16,0.04-0.31,0.08-0.47,0.12c0.82,0.25,1.23,1.11,1.51,1.85c0.35,0.94,0.57,1.91,0.77,2.89
				c0.11,0.54,0.89,0.3,0.81-0.22c-0.13-0.86-0.04-1.81,0.36-2.59c0.18-0.35,0.62-0.99,1.09-0.64c0.25,0.19,0.29,0.69,0.33,0.97
				c0.04,0.26,0.37,0.33,0.57,0.23c0.39-0.2,0.81,0.04,0.74,0.49c-0.05,0.28,0.11,0.48,0.39,0.51c0.28,0.03,0.3,0.31,0.23,0.49
				c-0.1,0.27,0.16,0.52,0.4,0.53c0.44,0.02,0.95,0.03,1.32,0.3c0.49,0.35,0.45,0.9-0.19,0.99c-0.93,0.13-2.04-0.08-2.96-0.24
				C21.23,7.16,21.05,7.77,21.46,7.85L21.46,7.85z"/>
		</g>
	</g>
	<path class="st3" d="M33,28h10.5c0,3.02-4.74,5.5-10.5,5.5c-5.74,0-10.46-2.46-10.5-5.47L33,28z"/>
	<path class="st3" d="M12.05,28.12h10.5c0,3.02-4.74,5.5-10.5,5.5c-5.74,0-10.46-2.46-10.5-5.47L12.05,28.12z"/>
	<path class="st4" d="M21,38l7.46,0.78c-0.14,1.36-3.63,2.13-7.72,1.71s-7.34-1.9-7.2-3.27c0.01-0.08,0.03-0.15,0.06-0.23L21,38z"/>
	<g>
		<g>
			<path class="st5" d="M4.56,28.91c-0.25,0.43-0.5,0.86-0.75,1.28c-0.13,0.23-0.06,0.56,0.18,0.68c0.24,0.13,0.54,0.06,0.68-0.18
				c0.25-0.43,0.5-0.86,0.75-1.28c0.13-0.23,0.06-0.56-0.18-0.68C5.01,28.6,4.7,28.66,4.56,28.91L4.56,28.91z"/>
		</g>
	</g>
	<g>
		<g>
			<path class="st5" d="M6.23,28.72c-0.33,0.52-0.67,1.03-1,1.55c-0.14,0.22-0.05,0.56,0.18,0.68C5.66,31.08,5.94,31,6.1,30.77
				c0.33-0.52,0.67-1.03,1-1.55c0.14-0.22,0.05-0.56-0.18-0.68C6.67,28.41,6.39,28.48,6.23,28.72L6.23,28.72z"/>
		</g>
	</g>
	<g>
		<g>
			<path class="st5" d="M25.3,28.64c-0.2,0.34-0.4,0.68-0.6,1.02c-0.07,0.11-0.08,0.26-0.05,0.39c0.03,0.12,0.12,0.24,0.23,0.3
				c0.12,0.06,0.26,0.09,0.39,0.05c0.12-0.04,0.23-0.12,0.3-0.23c0.2-0.34,0.4-0.68,0.6-1.02c0.07-0.11,0.08-0.26,0.05-0.39
				c-0.03-0.12-0.12-0.24-0.23-0.3c-0.12-0.06-0.26-0.09-0.39-0.05C25.48,28.45,25.37,28.52,25.3,28.64L25.3,28.64z"/>
		</g>
	</g>
	<g>
		<g>
			<path class="st5" d="M26.93,28.55c-0.34,0.54-0.68,1.08-1.02,1.62c-0.14,0.22-0.05,0.56,0.18,0.68c0.25,0.13,0.53,0.06,0.68-0.18
				c0.34-0.54,0.68-1.08,1.02-1.62c0.14-0.22,0.05-0.56-0.18-0.68C27.36,28.24,27.08,28.32,26.93,28.55L26.93,28.55z"/>
		</g>
	</g>
	<g>
		<g>
			<path d="M24.21,25.15c-0.08,0.11-0.15,0.21-0.23,0.32c-0.32,0.46,0.43,1.05,0.79,0.61c1.69-2.14,4.5-3.34,7.22-2.96
				c0.27,0.04,0.53-0.07,0.62-0.35c0.07-0.23-0.08-0.58-0.35-0.62c-3.07-0.43-6.26,0.77-8.2,3.21c0.26,0.2,0.52,0.4,0.79,0.61
				c0.08-0.11,0.15-0.21,0.23-0.32C25.44,25.13,24.58,24.63,24.21,25.15L24.21,25.15z"/>
		</g>
	</g>
	<g>
		<g>
			<path d="M18.77,24.64c-0.39-0.63-1.02-0.95-1.7-1.18c-0.82-0.28-1.67-0.45-2.53-0.56c-1.74-0.21-3.5-0.07-5.19,0.4
				C8.74,23.48,9,24.44,9.62,24.27c1.45-0.4,2.95-0.54,4.45-0.41c0.75,0.07,1.49,0.21,2.22,0.41c0.58,0.16,1.29,0.34,1.62,0.88
				C18.25,25.69,19.11,25.19,18.77,24.64L18.77,24.64z"/>
		</g>
	</g>
</g>
</svg>
