<?xml version="1.0" encoding="utf-8"?>
<!-- Generator: Adobe Illustrator 24.1.2, SVG Export Plug-In . SVG Version: 6.00 Build 0)  -->
<svg version="1.1" xmlns="http://www.w3.org/2000/svg" xmlns:xlink="http://www.w3.org/1999/xlink" x="0px" y="0px"
	 viewBox="0 0 100 27" style="enable-background:new 0 0 100 27;" xml:space="preserve">
<style type="text/css">
	.st0{fill:#297C15;}
	.st1{fill:#FFFF00;}
</style>
<g id="Layer_2">
	<g>
		<g>
			<path class="st0" d="M9.53,18.06c5.07-0.42,10.14-0.81,15.22-1.16c2.62-0.18,5.25-0.35,7.87-0.48c1.29-0.07,5.59,0.34,5.35-1.87
				c-0.1-0.96-1.09-1.25-1.91-1.29c-1.3-0.07-2.64,0.09-3.94,0.17c-2.54,0.16-5.08,0.34-7.62,0.55c-5.12,0.41-10.21,0.98-15.3,1.67
				C7.83,15.82,8.14,18.18,9.53,18.06L9.53,18.06z"/>
		</g>
	</g>
	<g>
		<g>
			<path class="st0" d="M9.11,17.35c2.32-0.55,4.51-1.46,6.8-2.16c2.15-0.66,4.33-1.22,6.54-1.62c2.22-0.41,4.47-0.68,6.73-0.82
				c1.2-0.07,2.39-0.1,3.59-0.09c1.14,0.01,2.21,0.06,3.18-0.64c0.47-0.34,0.68-1.04,0.19-1.5c-1.67-1.54-4.64-1.01-6.74-0.89
				c-2.53,0.15-5.05,0.48-7.52,1.01c-4.62,1-9.77,2.45-13.46,5.5C7.83,16.63,8.47,17.5,9.11,17.35L9.11,17.35z"/>
		</g>
	</g>
	<g>
		<g>
			<path class="st0" d="M17.35,16.35c4.36-0.18,8.67-1.09,13.01-1.5c2.04-0.19,4.09-0.36,6.14-0.48c1.29-0.07,5.25,0.32,4.66-2.09
				c-0.24-0.98-1.14-1.25-2.02-1.28c-1.16-0.03-2.36,0.11-3.52,0.19c-2.05,0.14-4.08,0.36-6.11,0.63
				c-4.26,0.58-8.61,1.22-12.59,2.92C16.11,15.09,16.54,16.38,17.35,16.35L17.35,16.35z"/>
		</g>
	</g>
	<g>
		<g>
			<path class="st0" d="M7.96,16.91C7.98,16.95,8,17,8.02,17.05c0.28,0.64,1.07,0.77,1.67,0.68c1.92-0.3,3.82-0.8,5.74-1.14
				c1.92-0.34,3.85-0.66,5.79-0.95c1.96-0.29,3.92-0.57,5.88-0.82c1.64-0.21,4.08-0.11,5.45-1.11c0.55-0.4,0.8-1.47,0-1.81
				c-1.76-0.75-4.06-0.1-5.9,0.14c-1.91,0.26-3.82,0.53-5.73,0.82c-1.93,0.3-3.86,0.61-5.79,0.94c-2.06,0.35-4.2,0.59-6.23,1.07
				c-0.62,0.14-1.09,0.79-1.08,1.42C7.82,16.53,7.86,16.7,7.96,16.91L7.96,16.91z"/>
		</g>
	</g>
	<g>
		<g>
			<path class="st0" d="M10.93,17.36c0.63,1.66,2.22,1.89,3.82,2.14c2.23,0.35,4.5,0.47,6.76,0.52c4.6,0.11,9.18-0.06,13.76-0.45
				c4.58-0.39,9.15-0.96,13.7-1.61c4.53-0.65,9.2-1.11,13.57-2.49c1.5-0.47,1.29-2.86-0.38-2.82c-4.42,0.1-8.78,1.1-13.15,1.76
				c-4.32,0.65-8.65,1.22-13,1.63c-4.33,0.41-8.68,0.7-13.02,0.77c-2.13,0.04-4.26,0.03-6.4,0c-1.78-0.02-3.65-0.24-5.38,0.06
				C11.01,16.92,10.86,17.18,10.93,17.36L10.93,17.36z"/>
		</g>
	</g>
	<g>
		<g>
			<path class="st0" d="M24.76,17.85c3.9,0.14,7.78,0.14,11.67-0.12c1.94-0.13,3.89-0.27,5.83-0.43c1.81-0.15,3.89-0.04,5.54-0.84
				c0.95-0.46,0.68-1.98-0.29-2.22c-1.79-0.45-3.88,0.11-5.7,0.3c-1.94,0.2-3.88,0.38-5.83,0.55c-3.82,0.35-7.62,0.84-11.42,1.35
				C23.73,16.55,23.98,17.82,24.76,17.85L24.76,17.85z"/>
		</g>
	</g>
	<g>
		<g>
			<path class="st0" d="M20.54,17.62c2.54,0.59,5.12,1.08,7.73,1.2c1.29,0.06,2.62-0.04,3.9-0.18c1.28-0.14,3.01-0.22,3.78-1.4
				c-0.14,0.14-0.29,0.29-0.43,0.43c0.38-0.25,0.69-0.45,0.91-0.84c0.22-0.39,0.1-0.91-0.3-1.13c-0.4-0.23-0.78-0.24-1.23-0.28
				c0.2,0.06,0.41,0.11,0.61,0.17c-1.09-0.62-2.58-0.07-3.75,0.11c-1.21,0.18-2.42,0.21-3.64,0.32c-2.48,0.22-4.96,0.32-7.44,0.53
				C20.1,16.59,19.9,17.47,20.54,17.62L20.54,17.62z"/>
		</g>
	</g>
	<g>
		<g>
			<path class="st0" d="M23.9,12.7c1.51,0.18,2.86,0.15,4.37-0.03c0.89-0.11,1.64-0.68,1.65-1.65c0.01-0.81-0.77-1.75-1.65-1.65
				c-1.64,0.19-3.25,0.58-4.87,0.9c0.29,1.07,0.59,2.13,0.88,3.2c2.19-0.55,4.33-1.19,6.55-1.64c2.13-0.43,4.27-0.83,6.41-1.2
				c4.38-0.75,8.77-1.4,13.19-1.77c9.05-0.77,18.15-0.54,27.22-0.16c2.47,0.1,4.93,0.22,7.4,0.36c2.52,0.14,4.76,0.6,7.12,1.51
				c1.07,0.41,2.33-0.46,2.61-1.48c0.33-1.2-0.41-2.2-1.48-2.61c-4.27-1.64-8.66-1.52-13.17-1.64C75.42,4.69,70.71,4.59,66,4.64
				c-9.23,0.09-18.41,0.83-27.5,2.47c-2.45,0.44-4.89,0.96-7.31,1.51c-2.59,0.59-5.21,1.06-7.79,1.65c-2.1,0.48-1.19,3.58,0.88,3.2
				c1.47-0.27,2.99-0.47,4.43-0.86c-0.42-1.01-0.85-2.01-1.27-3.02c-1.31,0.58-2.61,1.13-3.91,1.74
				C22.79,11.68,23.27,12.62,23.9,12.7L23.9,12.7z"/>
		</g>
	</g>
	<g>
		<g>
			<path class="st0" d="M34.95,13.5c0.54-0.48,2.04-0.22,2.71-0.23c1.32-0.01,2.67-0.09,3.97-0.26c1.44-0.2,2.8-0.75,4.21-1.11
				c1.4-0.35,2.87-0.32,4.25-0.76c2.24-0.73,1.61-3.6-0.52-3.88C48.5,7.12,47.44,7.44,46.4,7.6c-1.16,0.19-2.36,0.24-3.53,0.39
				c-1.18,0.15-2.36,0.22-3.54,0.38c-1.09,0.14-2.2,0.64-3.28,0.68c-2.86,0.1-2.39,4.47,0.53,3.93c9.07-1.66,18.55-1.81,27.78-2.02
				c4.69-0.11,9.39-0.12,14.08,0.04c2.1,0.07,4.19,0.17,6.29,0.17c1.01,0,2.01-0.01,3.02,0.04c1.08,0.05,2.21,0.34,3.28,0.28
				c-0.18-1.33-0.36-2.65-0.54-3.98c-0.17,0.07-0.35,0.14-0.53,0.21c-1.75,0.66-1.67,2.81,0,3.5c0.17,0.07,0.35,0.14,0.53,0.21
				c2.13,0.79,3.64-2.73,1.56-3.7c-1.92-0.9-4.37-0.73-6.46-0.69c-2.06,0.03-4.11,0.02-6.17-0.05c-4.86-0.15-9.71-0.11-14.57,0.07
				C60.1,7.2,55.32,7.33,50.6,7.78C48.29,8,45.99,8.37,43.7,8.72c-2.31,0.36-4.82,0.79-7.12,0.4c-0.18,1.31-0.35,2.62-0.53,3.93
				c1.12-0.02,2.13-0.39,3.22-0.6c1.18-0.23,2.42-0.22,3.61-0.36c1.26-0.14,2.52-0.23,3.77-0.42c0.98-0.15,1.92-0.51,2.92-0.46
				c-0.33-1.23-0.66-2.45-1-3.68c-1.35,0.57-2.9,0.62-4.29,1.14c-1.43,0.54-2.85,1.14-4.32,1.56c-1.95,0.56-4.78,0.1-6.46,1.38
				C32.12,12.66,33.64,14.66,34.95,13.5L34.95,13.5z"/>
		</g>
	</g>
	<g>
		<g>
			<path class="st0" d="M33.22,16.64c5.09-0.64,10.18-1.37,15.28-1.9c-0.16-1.16-0.31-2.31-0.47-3.47
				c-3.12,0.67-6.26,1.13-9.45,1.36c0.29,1.08,0.58,2.16,0.88,3.24c1.55-0.72,3.24-1.2,4.95-1.28c0-1.11,0-2.22,0-3.33
				c-1.55,0.13-3.06,0.32-4.59,0.57c-0.92,0.15-2.57,0.77-3.41,0.2c0,1,0,2.01,0,3.01c1.55-1,3.4-1.42,5.2-0.88
				c-0.12-0.94-0.24-1.87-0.37-2.81c-0.96,0.55-1.95,0.93-3.04,1.15c-0.52,0.11-1.05,0.18-1.59,0.2c-0.27,0.01-0.54,0.01-0.82,0.01
				c-0.34-0.04-0.33,0.01,0.05,0.14c0.16,0.38,0.31,0.75,0.47,1.13c-0.2,0.34-0.18,0.41,0.05,0.23c0.15-0.1,0.32-0.17,0.49-0.22
				c0.23-0.07,0.47-0.11,0.72-0.11c0.18-0.01,0.35,0.01,0.51,0.06c0.38,0.14,0.62-0.1,0.73-0.72c0.29,0.51,0.58,1.03,0.87,1.54
				c0.15-0.1,0.3-0.17,0.47-0.23c0.68-0.29,1.36-0.4,2.1-0.36c0.37,0.02,0.72,0.07,1.08,0.15c0.13,0.04,0.27,0.07,0.4,0.11
				c0.42,0.25,0.51,0.2,0.26-0.15c0.05-0.36,0.09-0.72,0.14-1.08c0.44-0.29,0.4-0.34-0.13-0.15c-0.14,1.08,0.04,1.41,0.54,1
				c0.38-0.05,0.81-0.36,1.23-0.43c1.05-0.18,1.83,0.14,2.66,0.76c-0.1-0.81-0.21-1.62-0.31-2.43c-0.44,0.41-0.91,0.59-1.51,0.64
				c0.15,1.11,0.3,2.22,0.45,3.32c2.94-1.22,5.97-1.81,9.16-1.72c-0.14-1.01-0.27-2.01-0.41-3.02c-2.21,0.59-4.41,0.92-6.69,1.03
				c0.14,1.01,0.27,2.03,0.41,3.04c3.72-0.72,7.52-1.18,11.31-1.16c-0.15-1.1-0.3-2.21-0.45-3.31c-2.3,0.39-4.6,0.76-6.92,0.91
				c0.16,1.18,0.32,2.36,0.48,3.54c2.58-0.54,5.18-0.86,7.8-1.1c2.4-0.21,2.38-3.48,0-3.72c-4.86-0.49-9.87,0.99-14.63-0.44
				c-0.16,1.21-0.33,2.41-0.49,3.62c4.3-0.28,8.6-0.67,12.91-0.88c0-1.16,0-2.31,0-3.47c-4.28,0.25-8.56,0.6-12.84,0.93
				c-2.15,0.16-2.2,3.49,0,3.39c7.29-0.33,14.64-0.54,21.93,0.13c0-1.15,0-2.3,0-3.45c-4.67-0.17-9.48,0.45-14.1,1.13
				c0.33,1.2,0.66,2.39,0.99,3.59c4.63-0.78,9.25-1.36,13.91-1.89c1.05-0.12,1.95-0.81,1.95-1.95c0-1-0.89-2.02-1.95-1.95
				c-1.13,0.08-2.25,0.27-3.36,0.43c-2.1,0.3-1.62,3.87,0.5,3.71c1.13-0.08,2.26-0.15,3.38-0.32c-0.35-1.25-0.69-2.51-1.04-3.76
				c-4.63,0.79-9.23,1.52-13.89,2.06c-1.01,0.12-1.85,0.77-1.86,1.86c-0.01,0.93,0.86,1.96,1.86,1.86
				c4.54-0.43,9.07-0.93,13.61-1.33c2.18-0.19,2.26-3.44,0-3.45c-7.31-0.02-14.62-0.3-21.93-0.07c0,1.13,0,2.26,0,3.39
				c4.28-0.27,8.56-0.51,12.84-0.85c2.21-0.18,2.24-3.63,0-3.47c-4.3,0.3-8.61,0.43-12.91,0.66c-2.06,0.11-2.53,3-0.49,3.62
				c5.12,1.56,10.4,0.07,15.61,0.6c0-1.24,0-2.48,0-3.72c-2.94,0.26-5.86,0.75-8.76,1.35c-1.97,0.4-1.55,3.66,0.48,3.54
				c2.65-0.16,5.27-0.5,7.82-1.26c1.76-0.53,1.51-3.42-0.45-3.31c-4.09,0.24-8.12,0.67-12.13,1.54c-1.68,0.37-1.34,3.16,0.41,3.04
				c2.53-0.18,5.05-0.57,7.51-1.16c1.74-0.42,1.27-2.93-0.41-3.02c-3.42-0.17-6.85,0.34-10.06,1.53c-1.67,0.62-1.59,3.43,0.45,3.32
				c1.47-0.07,2.76-0.69,3.69-1.84c0.6-0.74,0.63-1.9-0.31-2.43c-1.76-0.97-4-1.38-5.96-0.84c-1.9,0.52-4.15,2.47-2.46,4.51
				c1.27,1.53,4.4,1.08,5.07-0.88c0.75-2.15-2.29-2.89-3.77-3.06c-1.78-0.21-4.65-0.07-5.78,1.56c-1.22,1.76,0.61,4.07,2.61,3.47
				c2.16-0.65,1.96-3.42,0.47-4.61c-1.55-1.23-3.88-1.22-5.57-0.26c-0.99,0.56-1.8,1.61-1.44,2.8c0.33,1.09,1.4,1.43,2.41,1.52
				c2.56,0.23,5.06-0.53,7.2-1.92c1.08-0.7,0.96-2.45-0.37-2.81c-2.69-0.72-5.31-0.54-7.78,0.83c-1.24,0.69-1.01,2.27,0,3.01
				c1.31,0.96,2.92,0.7,4.42,0.49c1.95-0.27,3.86-0.56,5.78-1c1.81-0.41,1.44-3.38-0.44-3.27c-2.37,0.14-4.54,0.61-6.7,1.6
				c-1.56,0.72-0.79,3.35,0.88,3.24c3.49-0.23,6.96-0.7,10.38-1.43c2.21-0.47,1.28-3.94-0.94-3.41c-5,1.2-10.06,2.21-15.09,3.31
				C31.81,14.83,32.03,16.79,33.22,16.64L33.22,16.64z"/>
		</g>
	</g>
	<g>
		<g>
			<path class="st0" d="M53.43,17.24c2.95,0.74,6.37,0.04,9.35-0.26c3.15-0.32,6.3-0.62,9.45-0.97c3.03-0.34,6.05-0.72,9.06-1.22
				c1.58-0.26,3.16-0.56,4.73-0.89c1.44-0.31,3.37-0.42,4.39-1.56c0.82-0.92,0.48-2.3-0.71-2.69c-1.4-0.46-3.03,0.32-4.42,0.65
				c-1.48,0.35-2.97,0.67-4.47,0.96c-3.07,0.59-6.17,1.06-9.26,1.49c-3.08,0.43-6.17,0.82-9.26,1.23c-2.94,0.39-6.37,0.49-9.04,1.87
				C52.66,16.14,52.8,17.08,53.43,17.24L53.43,17.24z"/>
		</g>
	</g>
	<g>
		<g>
			<path class="st0" d="M61.55,14.38c3.61-0.4,7.28-0.5,10.9-0.74c3.67-0.25,7.32-0.42,11-0.31c0-1.31,0-2.63,0-3.94
				C79.66,9.7,75.88,9.72,72.08,9.7c0.18,1.31,0.36,2.62,0.53,3.94c1.92-0.27,3.73,0.05,5.64-0.49c1.34-0.38,1.27-2.24,0-2.65
				c-1.88-0.62-3.73-0.38-5.64-0.73c-2.85-0.52-3.45,3.73-0.53,3.94c3.78,0.27,7.6,0.06,11.36-0.38c1.06-0.12,1.97-0.82,1.97-1.97
				c0-1.02-0.9-2.02-1.97-1.97c-3.74,0.19-7.49,0.4-11.21,0.87c-3.75,0.47-7.29,1.4-10.93,2.34C60.35,12.85,60.51,14.5,61.55,14.38
				L61.55,14.38z"/>
		</g>
	</g>
	<g>
		<g>
			<path class="st0" d="M26.67,15.72c16.48-1.44,33.06-0.99,49.57-1.92c4.69-0.26,9.36-0.6,14.02-1.27
				c0.98-0.14,1.49-1.37,1.27-2.23c-0.28-1.04-1.27-1.4-2.23-1.27c-8.12,1.17-16.27,1.92-24.47,2.24
				c-8.19,0.31-16.41,0.32-24.58,0.94c-4.63,0.35-9.25,0.84-13.84,1.51C25.28,13.89,25.53,15.82,26.67,15.72L26.67,15.72z"/>
		</g>
	</g>
	<g>
		<g>
			<path class="st1" d="M6.26,15.25c-0.54-0.6-1.28-1.23-2.08-1.43c-0.95-0.24-1.97,0.3-2.26,1.25c-0.62,2,2.25,2.54,3.61,2.68
				c-0.16-0.58-0.32-1.17-0.47-1.75c-0.72,0.47-1.99,0.88-1.8,1.96c0.19,1.05,1.42,1.2,2.3,1.23c-0.16-0.58-0.32-1.17-0.48-1.75
				c-1.13,0.72-3.14,2.4-2.19,3.93c0.56,0.9,1.72,0.76,2.32,0.01c0.52-0.65,0.83-1.43,0.84-2.26c0.01-0.68-0.98-0.97-1.31-0.35
				c-0.16,0.31-0.42,0.57-0.59,0.88c-0.17,0.32-0.31,0.68-0.41,1.04c-0.17,0.6-0.36,1.43-0.02,2.01c0.22,0.38,0.67,0.58,1.1,0.49
				c0.34-0.08,0.56-0.29,0.76-0.56c0.35-0.47,0.64-0.94,0.79-1.51c0.3-1.17,0.18-2.46-0.13-3.61c-0.18-0.65-0.43-1.27-0.66-1.9
				c-0.12-0.34-0.24-0.68-0.35-1.02C5.17,14.33,4.97,13.84,5,13.69c-0.06,0.11-0.13,0.22-0.19,0.33c0,0,0,0,0,0
				c-0.12,0.03-0.25,0.07-0.37,0.1c-0.07-0.04-0.14-0.08-0.21-0.13c0.01,0.04,0.02,0.08,0.03,0.13c-0.01,0.09,0.03,0.22,0.03,0.31
				c0.02,0.25,0.04,0.5,0.04,0.75c0.01,0.47-0.02,0.95-0.06,1.42c-0.1,0.99,1.55,1.03,1.57,0c0.02-0.73-0.04-1.46-0.15-2.19
				c-0.09-0.57-0.13-1.29-0.69-1.62c-0.62-0.35-1.38,0.02-1.48,0.72c-0.09,0.61,0.08,1.36,0.26,1.94c0.37,1.19,1.01,2.29,1.32,3.5
				c0.12,0.47,0.2,0.97,0.12,1.45c-0.04,0.23-0.1,0.47-0.19,0.68c-0.06,0.13-0.13,0.26-0.21,0.38c-0.03,0.04-0.05,0.08-0.08,0.12
				c-0.11,0.11-0.11,0.12-0.01,0.05c0.13,0.04,0.26,0.07,0.4,0.11c-0.03-0.02-0.06-0.04-0.09-0.05c0.1,0.1,0.2,0.2,0.3,0.3
				c-0.11-0.16-0.03,0.14,0,0.04c0.03-0.1-0.01-0.25-0.01-0.35c0-0.23,0.02-0.45,0.07-0.68c0.08-0.39,0.19-1.05,0.47-1.36
				c-0.37-0.28-0.73-0.57-1.1-0.85c-0.13,0.29-0.27,0.58-0.43,0.86c-0.07,0.12-0.14,0.24-0.22,0.35c-0.04,0.05-0.08,0.1-0.12,0.15
				c-0.21,0.18-0.08,0.19,0.39,0.02c0.12,0.12,0.23,0.23,0.35,0.35c-0.03-0.04-0.21-0.36-0.1-0.06c0.08,0.21,0,0.09,0.1-0.03
				c0.13-0.15,0.2-0.34,0.33-0.5c0.27-0.34,0.6-0.64,0.98-0.85c0.36-0.2,0.54-0.67,0.43-1.06c-0.12-0.43-0.49-0.65-0.91-0.69
				c-0.13-0.01-0.27-0.04-0.4-0.08c-0.29-0.08-0.19-0.13-0.07,0.09c0.05,0.17,0.09,0.33,0.14,0.5c0,0.03,0,0.06,0,0.09
				c-0.09,0.15-0.17,0.29-0.26,0.44C4.88,18.44,5,18.3,5.04,18.27c0.11-0.08,0.23-0.16,0.34-0.24c0.2-0.14,0.41-0.28,0.62-0.42
				c0.84-0.53,0.42-1.65-0.47-1.75c-0.35-0.04-0.72-0.12-1.05-0.25c-0.13-0.05-0.4-0.29-0.53-0.28c0.12,0,0.05,0.54-0.1,0.68
				c-0.04,0.06-0.09,0.1-0.15,0.11c0.14-0.03,0.15-0.03,0.03-0.01c-0.19-0.07,0.16,0.1,0.18,0.11c0.36,0.22,0.68,0.5,1.06,0.7
				C6.05,17.49,7.08,16.16,6.26,15.25L6.26,15.25z"/>
		</g>
	</g>
	<g>
		<g>
			<path class="st1" d="M5.32,17.15c0.26,0,0.26-0.4,0-0.4C5.06,16.76,5.06,17.15,5.32,17.15L5.32,17.15z"/>
		</g>
	</g>
	<g>
		<g>
			<path class="st1" d="M6.5,15.89c0.09-0.32,0.2-0.64,0.25-0.97c0.05-0.34,0.1-0.68,0.14-1.02c0.05-0.35,0.09-0.71,0.13-1.06
				c0.04-0.38,0.09-0.74-0.09-1.09c-0.19-0.37-0.6-0.57-1.01-0.54c-0.45,0.03-0.82,0.29-1.05,0.67c-0.18,0.29-0.28,0.64-0.39,0.96
				c-0.1,0.29-0.17,0.59-0.23,0.9c-0.03,0.18-0.07,0.35-0.09,0.53c-0.03,0.22-0.09,0.46-0.08,0.69c0.01,0.22,0.06,0.45,0.09,0.66
				c0.04,0.25,0.12,0.45,0.3,0.64c0.22,0.22,0.59,0.21,0.81,0c0.27-0.26,0.35-0.68,0.45-1.04c0.06-0.21,0.04-0.44,0.09-0.65
				c-0.05,0.21,0.01-0.09,0.02-0.13c0.01-0.07,0.02-0.14,0.04-0.21c0.06-0.33,0.14-0.65,0.21-0.98c0.04-0.16,0.08-0.32,0.12-0.49
				c0.01-0.02,0.06-0.24,0.03-0.13c-0.03,0.06-0.02,0.05,0.01-0.01c0.04-0.07,0.04-0.07-0.02,0.01c0.09-0.11-0.07,0.04-0.12,0.06
				c-0.18,0.05-0.37-0.05-0.47-0.21c-0.04-0.05-0.06-0.11-0.06-0.18c0,0.02,0,0.04,0,0.05c-0.01,0.08-0.01,0.17-0.02,0.26
				c-0.03,0.35-0.06,0.69-0.1,1.04c-0.04,0.35-0.07,0.69-0.11,1.04c-0.04,0.34-0.03,0.69-0.04,1.03C5.29,16.42,6.32,16.55,6.5,15.89
				L6.5,15.89z"/>
		</g>
	</g>
	<g>
		<g>
			<path class="st1" d="M3.97,18.42c-0.08-0.07-0.16-0.14-0.25-0.2c-0.17-0.13-0.36-0.19-0.56-0.23c-0.26-0.06-0.52-0.12-0.79-0.13
				c-0.46-0.02-0.94-0.08-1.39,0.01c-0.41,0.08-0.75,0.47-0.85,0.85C0,19.14,0.13,19.6,0.43,19.91s0.77,0.43,1.19,0.31
				c0.43-0.12,0.71-0.44,0.85-0.85c0.01-0.02,0.02-0.05,0.03-0.07c-0.14,0.19-0.29,0.37-0.43,0.56c0.18-0.1,0.35-0.23,0.44-0.43
				c-0.15,0.12-0.3,0.23-0.46,0.35c0.32-0.08,0.65-0.13,0.94-0.3c0.33-0.2,0.33-0.67,0-0.87c-0.29-0.17-0.62-0.22-0.94-0.3
				c0.15,0.12,0.3,0.23,0.46,0.35c-0.08-0.19-0.25-0.33-0.44-0.43c0.14,0.19,0.29,0.37,0.43,0.56c-0.01-0.02-0.02-0.05-0.03-0.07
				c-0.14-0.41-0.42-0.73-0.85-0.85c-0.42-0.12-0.88,0.01-1.19,0.31C0.13,18.49,0,18.95,0.12,19.37c0.11,0.39,0.44,0.77,0.85,0.85
				c0.45,0.09,0.93,0.03,1.39,0.01c0.27-0.01,0.53-0.07,0.79-0.13c0.16-0.03,0.31-0.08,0.46-0.15c0.12-0.06,0.25-0.19,0.35-0.28
				c0.16-0.13,0.27-0.42,0.26-0.62C4.21,18.82,4.14,18.57,3.97,18.42L3.97,18.42z"/>
		</g>
	</g>
</g>
<g id="Layer_1">
	<g>
		<g>
			<path d="M8.72,15.45c9.83-4.94,20.92-6.49,31.71-7.84c11.49-1.44,23.08-2.78,34.68-2.49c2.93,0.07,5.86,0.3,8.78,0.62
				c2.66,0.29,5.96,0.43,8.28,1.93c1.54,0.99,0.8,2.44-0.58,3.12c-1.23,0.61-2.67,0.93-4,1.27c-2.77,0.72-5.6,1.22-8.42,1.7
				c-11.62,1.98-23.36,3.35-35.12,4.06c-6.54,0.39-13.1,0.59-19.66,0.59c-3.23,0-6.47,0-9.69-0.2c-1.54-0.1-3.14-0.19-4.65-0.53
				c-0.57-0.13-1.35-0.29-1.71-0.8c-0.27-0.38-0.37-1.29,0.2-1.5c0.68-0.25,0.58-1.23-0.17-1.27c-2.08-0.11-2.8,2.41-1.84,3.95
				c1.35,2.17,4.75,2.14,6.97,2.33c6.61,0.55,13.36,0.36,19.99,0.15c13.2-0.41,26.39-1.61,39.44-3.67
				c3.37-0.53,6.74-1.11,10.09-1.76c2.99-0.59,6.14-1.18,8.95-2.39c1.88-0.81,3.77-2.87,2.64-5.02c-1.23-2.35-4.83-2.88-7.16-3.21
				c-12.97-1.86-26.28-0.79-39.22,0.8C34.69,6.93,20.49,8.19,8.23,14.61C7.68,14.91,8.17,15.73,8.72,15.45L8.72,15.45z"/>
		</g>
	</g>
	<g>
		<g>
			<path d="M17.15,13.54c-0.01,0.01-0.09,0.05-0.03,0.03C17.13,13.56,17.16,13.55,17.15,13.54c0,0.02-0.1,0.04-0.05,0.03
				c0.02,0,0.03-0.01,0.05-0.01c-0.04,0-0.07,0.01-0.11,0.01c0.04,0,0.07,0,0.11,0c-0.04,0-0.07-0.01-0.11-0.01
				c0.03,0,0.05,0.01,0.08,0.02c0.04,0.01,0.07,0.04-0.04-0.02c0.01,0.01,0.03,0.01,0.04,0.02c0.04,0.02,0.03,0.04-0.04-0.03
				c0.01,0.01,0.02,0.02,0.03,0.03c0.02,0.02,0.04,0.05,0.06,0.07c-0.02-0.03-0.05-0.06-0.07-0.09c0.03,0.04,0.06,0.09,0.08,0.14
				c-0.02-0.04-0.03-0.08-0.05-0.11c0.02,0.05,0.03,0.1,0.04,0.15c-0.01-0.04-0.01-0.09-0.02-0.13c0.01,0.09,0.01,0.18,0,0.27
				c0.01-0.05,0.01-0.09,0.02-0.14c-0.01,0.11-0.05,0.21-0.09,0.31c0.02-0.04,0.04-0.09,0.05-0.13c-0.03,0.06-0.06,0.12-0.09,0.18
				C17,14.23,16.96,14.38,17,14.54c0.01,0.02,0.02,0.05,0.02,0.07c0-0.09,0-0.17,0-0.26c-0.03,0.12-0.06,0.24-0.04,0.37
				c0.01,0.12,0.05,0.21,0.14,0.28c0.09,0.07,0.21,0.1,0.31,0.06c0.08-0.03,0.16-0.06,0.24-0.11c0.05-0.04,0.11-0.09,0.16-0.13
				c-0.03,0.03-0.06,0.05-0.1,0.08c0.01,0,0.01-0.01,0.02-0.01c-0.04,0.02-0.08,0.03-0.12,0.05c0.17-0.03,0.32-0.14,0.39-0.29
				c0.04-0.09,0.08-0.18,0.11-0.27c0.05-0.15,0.08-0.3,0.09-0.46c0.03-0.3-0.08-0.6-0.3-0.82c-0.08-0.08-0.17-0.15-0.27-0.2
				c-0.05-0.02-0.1-0.04-0.15-0.07c-0.06-0.03,0.1,0.05,0.04,0.02c-0.06-0.03-0.13-0.06-0.2-0.07c-0.28-0.06-0.55,0-0.76,0.2
				c-0.15,0.15-0.16,0.42,0,0.56c0.08,0.07,0.18,0.12,0.28,0.12C16.98,13.65,17.07,13.61,17.15,13.54L17.15,13.54z"/>
		</g>
	</g>
	<g>
		<g>
			<path d="M29.53,17.33c0.03,0.01,0.06,0.01,0.09,0.03c-0.04-0.02-0.09-0.04-0.13-0.06c0.03,0.01,0.06,0.03,0.08,0.05
				c-0.04-0.03-0.08-0.06-0.11-0.09c0.03,0.02,0.06,0.05,0.08,0.08c-0.03-0.04-0.06-0.08-0.09-0.11c0.03,0.04,0.05,0.08,0.07,0.12
				c-0.02-0.05-0.04-0.09-0.06-0.14c0.02,0.05,0.03,0.1,0.04,0.15c-0.01-0.05-0.01-0.1-0.02-0.15c0.01,0.05,0.01,0.1,0,0.15
				c0.01-0.05,0.01-0.1,0.02-0.16c-0.01,0.07-0.02,0.14-0.02,0.21c0,0.02,0,0.04,0,0.06c0.01-0.05,0.01-0.1,0.02-0.15
				c-0.01,0.04-0.01,0.07-0.03,0.11c0.02-0.04,0.04-0.09,0.06-0.13c-0.01,0.02-0.02,0.05-0.04,0.07c-0.02,0.04-0.04,0.08-0.05,0.13
				c-0.02,0.07-0.03,0.14-0.01,0.21c0,0.05,0.01,0.09,0.04,0.13c0.02,0.07,0.06,0.12,0.11,0.17c0.07,0.06,0.15,0.11,0.23,0.14
				c0.07,0.02,0.14,0.03,0.21,0.01c0.07,0,0.14-0.02,0.2-0.06c0.13-0.08,0.2-0.16,0.28-0.28c0.06-0.08,0.09-0.17,0.12-0.25
				c0.03-0.09,0.04-0.19,0.03-0.29c-0.01-0.09-0.02-0.19-0.05-0.28c-0.06-0.17-0.15-0.35-0.29-0.47c-0.07-0.06-0.14-0.12-0.23-0.16
				c-0.15-0.07-0.24-0.09-0.4-0.1c-0.08,0-0.15,0.01-0.21,0.05c-0.07,0.02-0.13,0.06-0.18,0.11c-0.03,0.04-0.06,0.07-0.09,0.11
				c-0.04,0.06-0.06,0.13-0.06,0.2c-0.01,0.05-0.01,0.1,0,0.15c0,0.07,0.02,0.14,0.06,0.2C29.28,17.19,29.39,17.3,29.53,17.33
				L29.53,17.33z"/>
		</g>
	</g>
	<g>
		<g>
			<path d="M27.85,11.81c0,0,0.01,0,0.01,0c-0.05,0.01-0.1,0.01-0.15,0.02c0.05-0.01,0.1-0.01,0.14,0c-0.05-0.01-0.1-0.01-0.15-0.02
				c0.05,0.01,0.1,0.02,0.15,0.04c-0.04-0.02-0.09-0.04-0.13-0.06c0.05,0.02,0.1,0.05,0.15,0.09c-0.04-0.03-0.08-0.06-0.11-0.09
				c0.05,0.04,0.09,0.08,0.13,0.13c-0.03-0.04-0.06-0.08-0.09-0.11c0.04,0.05,0.07,0.1,0.1,0.16c-0.02-0.04-0.04-0.09-0.06-0.13
				c0.02,0.05,0.04,0.11,0.05,0.17c-0.01-0.05-0.01-0.1-0.02-0.15c0.01,0.05,0.01,0.1,0,0.15c0.01-0.05,0.01-0.1,0.02-0.15
				c-0.01,0.07-0.02,0.14-0.03,0.21c0,0.08,0.01,0.15,0.05,0.22c0.02,0.07,0.06,0.13,0.12,0.18c0.04,0.03,0.08,0.06,0.12,0.09
				c0.07,0.04,0.14,0.06,0.21,0.07c0.05,0.01,0.1,0.01,0.15,0c0.08,0,0.15-0.03,0.21-0.07c0.04-0.03,0.08-0.06,0.12-0.09
				c0.07-0.07,0.12-0.15,0.15-0.25c0.02-0.07,0.03-0.15,0.03-0.23c0-0.03,0-0.05,0-0.08c-0.01-0.1-0.02-0.2-0.05-0.3
				c-0.07-0.2-0.17-0.37-0.31-0.52c-0.14-0.15-0.31-0.25-0.5-0.32c-0.19-0.07-0.4-0.07-0.6-0.03c-0.07,0.02-0.13,0.05-0.19,0.1
				c-0.06,0.04-0.11,0.09-0.14,0.15c-0.07,0.12-0.1,0.29-0.06,0.42c0.04,0.13,0.12,0.26,0.25,0.33c0.04,0.02,0.09,0.04,0.13,0.06
				C27.65,11.84,27.75,11.84,27.85,11.81L27.85,11.81z"/>
		</g>
	</g>
	<g>
		<g>
			<path d="M43.04,13.31c0.01,0,0.01,0,0.02-0.01c0.02,0,0.01,0-0.04,0c0,0,0.04,0,0.04,0C43.07,13.31,42.98,13.28,43.04,13.31
				C43.05,13.31,43.1,13.33,43.04,13.31c-0.06-0.03,0.05,0.01,0.05,0.02c0,0-0.07-0.06-0.02-0.01c0.03,0.03,0.02,0.05-0.02-0.02
				c-0.02-0.06-0.03-0.12-0.05-0.18C43.01,13.18,43.01,13.24,43.04,13.31c0.02,0.04,0.04,0.08,0.06,0.12
				c-0.01-0.03-0.03-0.07-0.04-0.1c0.02,0.04,0.03,0.08,0.03,0.12c-0.01-0.04-0.01-0.08-0.02-0.12c0.01,0.04,0.01,0.08,0,0.12
				c0.01-0.04,0.01-0.08,0.02-0.13c-0.01,0.05-0.02,0.1-0.04,0.15c0.02-0.04,0.03-0.08,0.05-0.12c-0.04,0.09-0.07,0.18-0.11,0.26
				c0.02-0.04,0.04-0.09,0.05-0.13c-0.02,0.04-0.03,0.07-0.05,0.1c-0.04,0.08-0.06,0.14-0.08,0.22c-0.02,0.07-0.04,0.14-0.07,0.21
				c0.01-0.03,0.03-0.07,0.04-0.1c-0.04,0.09-0.08,0.18-0.09,0.28c-0.01,0.17,0.12,0.35,0.29,0.39c0.13,0.03,0.24,0.01,0.36-0.06
				c0.03-0.02,0.06-0.04,0.1-0.06c0.09-0.06,0.18-0.12,0.26-0.19c0.12-0.1,0.18-0.26,0.23-0.4c0.05-0.15,0.03-0.3,0.01-0.45
				c-0.02-0.1-0.05-0.2-0.1-0.28c-0.11-0.2-0.33-0.4-0.57-0.39c0.03,0,0.06,0.01,0.09,0.01c0.06,0.03,0.07,0.03,0.04,0.02
				c-0.03-0.01-0.06-0.03-0.1-0.04c-0.02-0.01-0.04-0.01-0.06-0.02c-0.06-0.01-0.12-0.02-0.18-0.02c-0.12,0-0.24,0.03-0.33,0.1
				c-0.11,0.08-0.17,0.21-0.11,0.34C42.77,13.27,42.9,13.34,43.04,13.31L43.04,13.31z"/>
		</g>
	</g>
	<g>
		<g>
			<path d="M45.6,8.61c0.01,0.01,0.02,0.01,0.02,0.02c-0.04-0.03-0.08-0.06-0.12-0.09c0.01,0.01,0.03,0.02,0.04,0.03
				c0.1,0.08,0.17,0.13,0.29,0.16c0.04,0.01,0.08,0.02,0.12,0.04c-0.05-0.02-0.1-0.04-0.15-0.06c0.07,0.03,0.14,0.07,0.2,0.11
				c-0.04-0.03-0.08-0.06-0.13-0.1c0.07,0.05,0.13,0.12,0.19,0.19c-0.03-0.04-0.07-0.08-0.1-0.13c0.06,0.08,0.11,0.16,0.14,0.25
				c-0.02-0.05-0.04-0.1-0.06-0.15c0.04,0.09,0.06,0.18,0.07,0.27c-0.01-0.06-0.02-0.11-0.02-0.17c0.01,0.05,0.01,0.1,0.01,0.15
				c-0.01,0.3,0.18,0.59,0.48,0.66c-0.13-0.13-0.25-0.25-0.38-0.38c0.01,0.02,0.01,0.05,0.01,0.07c-0.01-0.04-0.01-0.09-0.02-0.13
				c0.01,0.08,0.02,0.16,0.03,0.24c-0.01-0.04-0.01-0.08-0.02-0.12c0,0.02,0.01,0.05,0.01,0.07c0.01,0.13,0.05,0.23,0.15,0.31
				c0.09,0.07,0.23,0.11,0.34,0.07c0.12-0.04,0.2-0.09,0.3-0.17c0.07-0.06,0.12-0.14,0.18-0.21c-0.15,0.09-0.31,0.18-0.46,0.27
				c0,0,0.01,0,0.01,0c0.21,0.01,0.46-0.12,0.55-0.31c0.06-0.13,0.1-0.25,0.09-0.39c0-0.09-0.02-0.18-0.03-0.26
				c-0.01-0.07-0.02-0.13-0.05-0.19c-0.08-0.24-0.19-0.43-0.35-0.62c-0.04-0.05-0.09-0.1-0.15-0.15c-0.09-0.07-0.18-0.15-0.28-0.2
				c-0.1-0.05-0.21-0.1-0.32-0.13c-0.13-0.03-0.26-0.04-0.39-0.01c-0.06,0.01-0.15,0.06-0.22,0.1c-0.17,0.1-0.27,0.29-0.27,0.48
				c0,0.1,0.03,0.19,0.08,0.28C45.45,8.5,45.52,8.56,45.6,8.61L45.6,8.61z"/>
		</g>
	</g>
	<g>
		<g>
			<path d="M58.85,13.74c0.01,0,0.01-0.01,0.02-0.01c-0.04,0.02-0.08,0.03-0.12,0.05c0.04-0.02,0.08-0.03,0.12-0.03
				c-0.04,0.01-0.09,0.01-0.13,0.02c0.05-0.01,0.09,0,0.14,0c-0.05-0.01-0.09-0.01-0.14-0.02c0.04,0.01,0.07,0.01,0.1,0.02
				c-0.04-0.02-0.08-0.04-0.12-0.05c0.04,0.02,0.08,0.04,0.11,0.07c-0.04-0.03-0.07-0.06-0.11-0.09c0.04,0.03,0.08,0.07,0.11,0.11
				c-0.03-0.04-0.06-0.08-0.09-0.12c0.03,0.04,0.05,0.08,0.07,0.12c-0.02-0.05-0.04-0.1-0.06-0.15c0.02,0.04,0.03,0.08,0.03,0.12
				c-0.01-0.06-0.02-0.11-0.02-0.17c0.01,0.04,0.01,0.08,0,0.12c0.01-0.06,0.02-0.12,0.02-0.18c-0.01,0.04-0.02,0.08-0.03,0.12
				c0.02-0.06,0.05-0.11,0.07-0.17c-0.01,0.02-0.02,0.03-0.02,0.05c-0.04,0.07-0.06,0.14-0.09,0.21c0.02-0.06,0.05-0.11,0.07-0.17
				c-0.02,0.05-0.05,0.09-0.08,0.13c0.04-0.05,0.07-0.1,0.11-0.14c-0.06,0.07-0.12,0.14-0.18,0.22c0.04-0.05,0.07-0.1,0.11-0.14
				c-0.02,0.03-0.04,0.05-0.07,0.07c-0.06,0.06-0.1,0.13-0.15,0.2c0.03-0.04,0.07-0.09,0.1-0.13c-0.03,0.03-0.05,0.06-0.08,0.09
				c-0.03,0.02-0.05,0.05-0.07,0.07c0.03-0.03,0.07-0.05,0.1-0.08c-0.07,0.05-0.1,0.08-0.15,0.14c-0.02,0.02-0.03,0.04-0.05,0.06
				c0.02-0.03,0.05-0.06,0.07-0.09c-0.03,0.03-0.06,0.06-0.08,0.1c-0.03,0.06-0.06,0.14-0.06,0.21c0,0.04,0.01,0.08,0.02,0.12
				c0.02,0.09,0.07,0.18,0.14,0.25c0.1,0.1,0.22,0.18,0.36,0.22c0.16,0.04,0.35,0.05,0.51,0.01c0.16-0.04,0.35-0.15,0.46-0.27
				c0.08-0.09,0.17-0.19,0.22-0.31c0.02-0.05,0.06-0.13,0.08-0.18c0.02-0.06,0.02-0.14,0.03-0.2c0-0.01,0-0.03,0-0.04
				c0-0.09-0.01-0.18-0.03-0.27c-0.02-0.11-0.07-0.23-0.13-0.33c-0.04-0.07-0.09-0.13-0.14-0.19c-0.02-0.02-0.04-0.04-0.07-0.06
				c-0.06-0.05-0.13-0.11-0.2-0.15c-0.07-0.04-0.15-0.07-0.22-0.1c-0.11-0.04-0.22-0.05-0.34-0.06c0.05,0.01,0.09,0.01,0.14,0.02
				c-0.08-0.01-0.15-0.03-0.23-0.03c-0.08,0-0.16,0.01-0.23,0.03c-0.03,0.01-0.07,0.02-0.1,0.03c-0.07,0.03-0.14,0.06-0.21,0.1
				c-0.11,0.07-0.19,0.17-0.23,0.29c-0.03,0.12-0.02,0.27,0.05,0.38c0.07,0.11,0.17,0.2,0.29,0.23c0.04,0.01,0.09,0.01,0.13,0.02
				C58.69,13.8,58.78,13.78,58.85,13.74L58.85,13.74z"/>
		</g>
	</g>
	<g>
		<g>
			<path d="M62.25,6.98c0.02,0.06,0.02,0.09,0.07,0.18c0.06,0.1,0.13,0.17,0.23,0.23c0.02,0.01,0.03,0.02,0.05,0.03
				c-0.04-0.03-0.09-0.07-0.13-0.1c0.06,0.04,0.1,0.09,0.16,0.13c0.06,0.04,0.13,0.06,0.2,0.09c-0.05-0.02-0.11-0.05-0.16-0.07
				c0.06,0.03,0.12,0.06,0.18,0.1c-0.05-0.04-0.09-0.07-0.14-0.11c0.06,0.05,0.12,0.1,0.17,0.17c-0.04-0.05-0.07-0.09-0.11-0.14
				c0.05,0.06,0.09,0.13,0.12,0.21c-0.02-0.05-0.05-0.11-0.07-0.16c0.04,0.09,0.06,0.19,0.08,0.28c-0.01-0.06-0.02-0.12-0.02-0.18
				c0.01,0.08,0.01,0.16,0.03,0.24c0.02,0.07,0.06,0.14,0.09,0.21c-0.02-0.05-0.04-0.1-0.07-0.16c0.02,0.05,0.04,0.11,0.05,0.16
				c-0.01-0.05-0.01-0.1-0.02-0.15c0.02,0.12,0.01,0.24,0.08,0.35c0.1,0.14,0.27,0.28,0.46,0.26c0.1-0.01,0.19-0.02,0.28-0.07
				c0.05-0.03,0.09-0.07,0.13-0.1c0.02-0.02,0.04-0.04,0.06-0.06c0.06-0.08,0.13-0.16,0.18-0.25c0.08-0.15,0.11-0.32,0.09-0.49
				c-0.01-0.12-0.02-0.23-0.07-0.35C64.06,7,63.96,6.81,63.8,6.63c-0.08-0.08-0.17-0.15-0.26-0.22c-0.05-0.04-0.1-0.07-0.16-0.09
				c-0.06-0.03-0.13-0.06-0.19-0.08c-0.01,0-0.01-0.01-0.02-0.01c-0.04-0.01-0.15-0.03-0.19-0.03c-0.08,0-0.17,0.02-0.25,0.03
				c-0.16,0.04-0.32,0.16-0.4,0.3C62.25,6.67,62.2,6.84,62.25,6.98L62.25,6.98z"/>
		</g>
	</g>
	<g>
		<g>
			<path d="M76.33,12.38c0.02,0.01,0.04,0.02,0.06,0.04c-0.03-0.02-0.06-0.05-0.09-0.07c0.02,0.02,0.04,0.04,0.06,0.07
				c-0.03-0.03-0.05-0.07-0.08-0.1c0.04,0.05,0.07,0.1,0.11,0.14c-0.03-0.04-0.06-0.07-0.08-0.11c0.02,0.03,0.04,0.05,0.05,0.08
				c-0.02-0.05-0.04-0.09-0.06-0.14c0.03,0.07,0.05,0.15,0.09,0.22c-0.02-0.05-0.04-0.1-0.06-0.14c0.01,0.03,0.02,0.07,0.03,0.1
				c-0.01-0.06-0.01-0.11-0.02-0.17C76.33,12.32,76.33,12.35,76.33,12.38c0.01-0.05,0.02-0.11,0.02-0.17c0,0.03-0.01,0.07-0.03,0.1
				c0.02-0.05,0.04-0.1,0.07-0.16c-0.01,0.02-0.02,0.04-0.03,0.06c-0.04,0.07-0.07,0.14-0.1,0.21c0.02-0.05,0.04-0.11,0.07-0.16
				c-0.02,0.05-0.06,0.11-0.09,0.15c0.03-0.04,0.06-0.08,0.1-0.13c-0.08,0.09-0.16,0.18-0.18,0.3c-0.01,0.05-0.01,0.11-0.02,0.16
				c0,0.08,0.01,0.16,0.05,0.23c0.01,0.05,0.04,0.09,0.08,0.13c0.04,0.06,0.1,0.12,0.17,0.15c0.17,0.11,0.39,0.11,0.58,0.04
				c0.15-0.05,0.28-0.13,0.39-0.25c0.09-0.1,0.16-0.22,0.19-0.35c0.02-0.08,0.03-0.16,0.03-0.24c0-0.08-0.01-0.17-0.03-0.24
				c0-0.03-0.01-0.05-0.02-0.07c-0.06-0.15-0.12-0.27-0.23-0.39c-0.1-0.1-0.24-0.17-0.37-0.21c-0.14-0.04-0.26-0.03-0.4,0
				c-0.08,0.02-0.16,0.05-0.23,0.1c-0.06,0.04-0.11,0.09-0.15,0.15c-0.04,0.06-0.06,0.13-0.06,0.21c0,0.07,0.02,0.14,0.06,0.21
				C76.21,12.29,76.26,12.34,76.33,12.38L76.33,12.38z"/>
		</g>
	</g>
	<g>
		<g>
			<path d="M79.48,6.92c0.01,0,0.02,0,0.02,0c-0.04-0.01-0.09-0.01-0.13-0.02c0.05,0.01,0.09,0.02,0.13,0.04
				c-0.04-0.02-0.08-0.04-0.13-0.05c0.08,0.03,0.16,0.08,0.23,0.13c-0.04-0.03-0.08-0.06-0.11-0.09c0.05,0.04,0.09,0.08,0.13,0.13
				c-0.03-0.04-0.06-0.08-0.09-0.12c0.04,0.05,0.08,0.11,0.1,0.17c-0.02-0.05-0.04-0.1-0.06-0.14c0.03,0.06,0.04,0.13,0.05,0.19
				C79.62,7.11,79.61,7.06,79.61,7c0.01,0.05,0.01,0.11,0,0.16c0.01-0.06,0.01-0.11,0.02-0.17c0,0.03-0.01,0.06-0.02,0.09
				c-0.04,0.14-0.04,0.27-0.01,0.4c0.03,0.11,0.08,0.2,0.16,0.27c0.06,0.06,0.12,0.1,0.2,0.13c0.07,0.04,0.15,0.06,0.24,0.05
				c0.11,0,0.22-0.03,0.31-0.09c0.11-0.09,0.17-0.12,0.24-0.24c0.03-0.06,0.06-0.12,0.08-0.19c0.01-0.08,0.03-0.17,0.03-0.25
				c0-0.11-0.02-0.23-0.05-0.34c-0.06-0.21-0.17-0.4-0.32-0.56c-0.15-0.16-0.33-0.27-0.53-0.34c-0.1-0.04-0.21-0.05-0.31-0.05
				c-0.1,0-0.21,0.02-0.31,0.05c-0.12,0.04-0.23,0.11-0.29,0.23C79,6.27,78.98,6.38,79,6.49c0.01,0.1,0.06,0.21,0.14,0.28
				c0.03,0.03,0.07,0.05,0.1,0.08C79.31,6.89,79.39,6.92,79.48,6.92L79.48,6.92z"/>
		</g>
	</g>
	<g>
		<g>
			<path d="M88.98,10.45c0.01,0.01,0.02,0.01,0.02,0.02c-0.03-0.02-0.06-0.05-0.1-0.07c0.03,0.02,0.05,0.04,0.07,0.07
				c-0.03-0.03-0.05-0.07-0.08-0.1c0.02,0.03,0.03,0.05,0.05,0.08c-0.02-0.04-0.04-0.08-0.05-0.13c0.01,0.04,0.02,0.07,0.03,0.11
				c-0.01-0.05-0.01-0.1-0.02-0.15c0.01,0.08,0,0.17-0.01,0.25c0.01-0.06,0.01-0.11,0.02-0.17c-0.01,0.06-0.02,0.11-0.04,0.16
				c0.02-0.05,0.04-0.1,0.07-0.15c-0.04,0.08-0.08,0.16-0.11,0.25c0.02-0.05,0.04-0.1,0.07-0.16c-0.02,0.04-0.03,0.07-0.06,0.1
				c0.03-0.04,0.07-0.09,0.1-0.13c-0.05,0.07-0.11,0.11-0.16,0.19c-0.04,0.07-0.05,0.14-0.08,0.21c0.02-0.05,0.04-0.09,0.06-0.14
				c-0.01,0.02-0.01,0.03-0.02,0.05c-0.15,0.24-0.06,0.6,0.19,0.74c0.07,0.04,0.14,0.07,0.22,0.09c0.18,0.04,0.35,0.03,0.52-0.07
				c0.05-0.03,0.1-0.08,0.15-0.11c0.01-0.01,0.02-0.02,0.03-0.02c0.02-0.01,0.03-0.03,0.04-0.05c0.05-0.06,0.09-0.11,0.13-0.18
				c0.01-0.01,0.01-0.02,0.02-0.03c0.03-0.05,0.06-0.12,0.07-0.18c0.01-0.02,0.01-0.05,0.01-0.07c0.01-0.1,0.03-0.2,0.03-0.29
				c-0.01-0.1-0.02-0.19-0.04-0.29c-0.03-0.09-0.07-0.18-0.12-0.25c-0.05-0.07-0.1-0.14-0.17-0.2c-0.11-0.09-0.2-0.14-0.33-0.2
				C89.39,9.61,89.3,9.6,89.21,9.6c-0.19,0-0.4,0.14-0.44,0.34c-0.02,0.08-0.02,0.16,0,0.25C88.79,10.3,88.88,10.39,88.98,10.45
				L88.98,10.45z"/>
		</g>
	</g>
	<g>
		<g>
			<path d="M94.27,9c0.39-0.09,0.78-0.18,1.18-0.27c-0.11,0-0.22,0-0.33,0c0.01,0,0.01,0.01,0.02,0.01
				c-0.09-0.05-0.19-0.11-0.28-0.16c0.06,0.05,0.11,0.09,0.18,0.13c0.13,0.08,0.25,0.1,0.4,0.11c-0.06-0.48-0.13-0.95-0.19-1.43
				c-0.18,0.08-0.36,0.15-0.55,0.23c-0.14,0.06-0.28,0.12-0.41,0.2c-0.14,0.08-0.26,0.17-0.38,0.27c-0.04,0.05-0.07,0.1-0.11,0.15
				c-0.05,0.08-0.08,0.17-0.09,0.27c-0.02,0.15,0,0.32,0.09,0.46c0.07,0.1,0.15,0.19,0.26,0.26c0.16,0.1,0.37,0.11,0.55,0.07
				c0.1-0.02,0.19-0.04,0.29-0.06c-0.06,0.01-0.12,0.02-0.17,0.02c0.01,0,0.02,0,0.03,0c-0.06-0.01-0.12-0.02-0.17-0.02
				c0.12,0.05,0.25,0.07,0.38,0.06c0.16-0.01,0.3-0.05,0.42-0.15c0.11-0.09,0.22-0.21,0.25-0.36c0.03-0.12,0.03-0.25,0-0.37
				C95.58,8.24,95.44,8.09,95.3,8c-0.41-0.25-1.03-0.08-1.15,0.41c-0.04,0.15-0.03,0.3,0.03,0.44c0.05,0.13,0.15,0.26,0.28,0.32
				c0.15,0.08,0.28,0.11,0.45,0.09c0.05-0.01,0.09-0.02,0.13-0.02c-0.06,0.01-0.12,0.02-0.18,0.02c0.01,0,0.02,0,0.03,0
				c-0.06-0.01-0.12-0.02-0.18-0.02c0.02,0,0.03,0.01,0.04,0.01c-0.06-0.02-0.11-0.05-0.17-0.07c0.01,0,0.02,0.01,0.03,0.02
				c0.12-0.43,0.23-0.86,0.35-1.29c-0.13,0-0.26,0.02-0.38,0.06c0.06-0.01,0.12-0.02,0.17-0.02c-0.01,0-0.02,0-0.03,0
				c0.06,0.01,0.12,0.02,0.17,0.02c-0.1-0.02-0.19-0.04-0.29-0.06c0,0.46,0,0.92,0,1.38c0.05-0.01,0.1-0.02,0.15-0.04
				c0.09-0.03,0.18-0.08,0.28-0.12c0.09-0.04,0.18-0.08,0.27-0.13c0.17-0.1,0.34-0.19,0.51-0.29c0.16-0.09,0.29-0.26,0.33-0.43
				c0.05-0.17,0.03-0.41-0.07-0.56c-0.1-0.16-0.25-0.29-0.43-0.33c-0.19-0.04-0.39-0.03-0.56,0.07c-0.12,0.08-0.22,0.16-0.29,0.29
				c-0.04,0.06-0.06,0.13-0.09,0.2c0.05-0.09,0.11-0.19,0.16-0.28c0,0.01-0.01,0.01-0.01,0.02c0.09-0.05,0.18-0.11,0.28-0.16
				c-0.39,0.11-0.77,0.22-1.16,0.33C93.81,7.9,93.68,8,93.6,8.13c-0.07,0.13-0.11,0.31-0.06,0.46C93.65,8.91,93.95,9.08,94.27,9
				L94.27,9z"/>
		</g>
	</g>
	<g>
		<g>
			<path d="M6.87,14.95c0.21-0.91,0.37-1.85,0.44-2.78c0.05-0.63-0.05-1.33-0.68-1.63c-0.53-0.25-1.22-0.05-1.62,0.35
				c-0.52,0.52-0.58,1.32-0.62,2.01c0.18-0.13,0.35-0.27,0.53-0.4c-0.75-0.28-1.45,0.27-1.53,1.01c0.17-0.13,0.34-0.26,0.51-0.39
				c-1.13-0.2-1.94,0.85-1.4,1.89c0.08-0.19,0.15-0.38,0.23-0.57c-0.54,0.07-1.15,0.21-1.47,0.7c-0.3,0.46-0.2,1,0.1,1.43
				c0.81,1.13,2.62,1.39,3.9,1.27c0-0.28,0-0.56,0-0.84c-1.28,0.1-2.61,0.38-3.79,0.91c-0.49,0.22-0.96,0.51-1.32,0.92
				c-0.29,0.33-0.67,0.91-0.41,1.34c0.58,0.95,2.02,0.71,2.83,0.3c0.64-0.31,1.21-0.77,1.8-1.18c0.68-0.47,1.36-0.93,2.05-1.38
				c-0.17-0.22-0.34-0.44-0.51-0.66c-1.18,0.94-2.34,1.97-3.34,3.11c-0.64,0.72-1.19,1.93-0.23,2.67c1.02,0.79,1.88-0.5,2.34-1.27
				c0.73-1.24,1.29-2.59,1.68-3.98c-0.24-0.07-0.48-0.13-0.72-0.2c-0.17,1.09-0.63,2.1-0.81,3.19c-0.11,0.65-0.3,1.89,0.25,2.41
				c0.61,0.59,1.26-0.14,1.46-0.7c0.34-0.96,0.54-2.02,0.55-3.04c0.01-1.93-0.95-3.62-2.25-4.98c-0.49-0.52-1.28-1.42-2.1-1.08
				c-0.64,0.27-0.39,1.13,0.25,1.15c0.29,0.01,0.42-0.43,0.15-0.56c0.01,0.07,0.03,0.15,0.04,0.22c0.08,0.04,0.15,0.08,0.23,0.12
				c0.15,0.1,0.28,0.23,0.41,0.36c0.2,0.19,0.4,0.4,0.59,0.6c0.38,0.41,0.72,0.85,1.01,1.32c0.67,1.06,0.96,2.21,0.87,3.46
				c-0.04,0.62-0.15,1.24-0.33,1.83c-0.05,0.15-0.08,0.35-0.17,0.48c-0.09,0.13-0.06,0.21-0.15,0.07c-0.14-0.22-0.08-0.73-0.07-0.97
				c0.08-1.25,0.58-2.46,0.79-3.69c0.08-0.47-0.58-0.67-0.72-0.2c-0.29,0.99-0.65,1.94-1.13,2.85c-0.23,0.44-0.47,0.87-0.74,1.28
				c-0.19,0.29-0.71,1.08-0.99,0.44c-0.33-0.76,1.02-1.78,1.48-2.25c0.72-0.73,1.48-1.41,2.26-2.07c0.36-0.31-0.12-0.94-0.51-0.66
				c-0.96,0.68-1.93,1.35-2.9,2.01c-0.76,0.51-1.86,1.24-2.63,0.34c0.04,0.16,0.08,0.31,0.12,0.47c0.27-0.81,1.14-1.2,1.89-1.46
				c0.94-0.33,1.92-0.53,2.9-0.71c0.46-0.09,0.36-0.89-0.11-0.83c-0.88,0.12-1.81,0.04-2.62-0.36c-0.3-0.15-0.82-0.48-0.81-0.87
				c0.02-0.45,0.67-0.53,0.99-0.56c0.3-0.03,0.47-0.3,0.33-0.58c-0.2-0.4,0.08-0.8,0.52-0.72c0.28,0.05,0.48-0.12,0.51-0.39
				c0.03-0.27,0.33-0.28,0.5-0.21c0.27,0.11,0.51-0.16,0.53-0.4c0.03-0.43,0.05-0.95,0.33-1.31c0.37-0.48,0.91-0.4,0.98,0.23
				c0.11,0.95-0.12,2.03-0.3,2.95C6.17,15.19,6.78,15.36,6.87,14.95L6.87,14.95z"/>
		</g>
	</g>
</g>
</svg>
